<?xml version="1.0" encoding="utf-8"?>
<!-- Generator: Adobe Illustrator 23.1.0, SVG Export Plug-In . SVG Version: 6.00 Build 0)  -->
<svg version="1.1" id="Ebene_1" xmlns="http://www.w3.org/2000/svg" xmlns:xlink="http://www.w3.org/1999/xlink" x="0px" y="0px"
	 viewBox="0 0 159.94 76.5" xml:space="preserve">
<style type="text/css">
	.st0{fill:#3CB4E5;}
	.st1{fill:#0069A7;}
	.st2{fill:#6ABF4B;}
</style>
<g>
	<g>
		<g>
			<path class="st0" d="M15.71,23.1c-0.37,0-0.49-0.24-0.26-0.53l2.09-2.67c0.23-0.29,0.72-0.53,1.09-0.53l35.73-0.02
				c0.37,0,0.51,0.25,0.31,0.57l-1.66,2.59c-0.2,0.31-0.67,0.57-1.04,0.57L15.71,23.1z"/>
		</g>
	</g>
</g>
<g>
	<g>
		<g>
			<path class="st1" d="M0.67,32.3c-0.37,0-0.49-0.24-0.26-0.53L2.5,29.1c0.23-0.29,0.72-0.53,1.09-0.53l45.63-0.03
				c0.37,0,0.58,0.29,0.46,0.64l-0.81,2.45c-0.12,0.35-0.51,0.64-0.88,0.64L0.67,32.3z"/>
		</g>
	</g>
</g>
<g>
	<g>
		<g>
			<path class="st2" d="M24.9,41.47c-0.37,0-0.53-0.26-0.35-0.59l1.42-2.55c0.18-0.32,0.63-0.59,1-0.59L47,37.73
				c0.37,0,0.64,0.3,0.61,0.67l-0.23,2.39c-0.04,0.37-0.37,0.67-0.74,0.67L24.9,41.47z"/>
		</g>
	</g>
</g>
<g>
	<g>
		<path class="st2" d="M128.68,21.33c-6.28,1.55-10.6,2.84-16.78,4.4c-1.53,0.38-1.64,0.53-2.92-0.96c-1.51-1.75-2.57-2.76-4.69-3.8
			c-6.3-3.1-12.41-2.24-18.05,1.46c-6.76,4.44-10.31,10.85-10.23,19.05c0.08,8,5.63,14.62,13.51,15.72
			c6.76,0.94,12.48-1.49,17.02-6.57c0.95-1.06,1.72-2.28,2.74-3.66c-3.65,0-8.08,0-19.28,0c-2.09,0-2.57-1.28-1.86-3
			c1.26-3.05,3.7-8.33,5.1-10.92c0.33-0.61,1.02-1.64,2.46-1.64c5.07,0,23.9,0,36.42,0c-0.18,2.72-0.18,5.44-0.57,8.11
			c-1.06,7.23-3.8,13.81-8.2,19.64c-7.17,9.51-16.56,15.41-28.46,16.97c-9.78,1.28-18.88-0.63-26.85-6.64
			c-7.36-5.56-11.61-13.03-12.71-22.18c-1.31-10.93,1.87-20.66,8.46-29.29C70.9,8.71,80.26,2.82,91.8,0.73
			c9.38-1.7,18.36-0.55,26.47,4.86c5.29,3.53,9.05,8.31,11.58,14.14C130.21,20.56,129.81,21.06,128.68,21.33z"/>
	</g>
</g>
<path id="XMLID_20_" class="st1" d="M149.65,48.65h-2.04c-8.25,0-10.35-2.43-10.35-10.48v-7.7c0-5.43,2.04-8.12,6.37-8.12v2.33
	c-2.52,0-4.04,1.36-4.04,5.79v8.02c0,6.37,1.2,7.83,7.99,7.83h2.07c6.96,0,7.99-1.2,7.99-7.25v-8.61c0-4.34-1.2-5.82-4.04-5.82
	v-2.33c4.21,0,6.34,2.1,6.34,8.05v8.44C159.94,46.61,158.09,48.65,149.65,48.65z"/>
<path id="XMLID_17_" class="st1" d="M159.89,64.84c0,9.45-1.78,11.39-10.29,11.39h-1.94c-8.57,0-10.35-1.94-10.35-11.39v-3.56
	c0-9.38,1.78-11.32,10.35-11.32h1.94c8.51,0,10.29,1.94,10.29,11.32V64.84z M149.6,52.28h-1.94c-7.21,0-7.99,0.94-7.99,9.03v3.53
	c0,8.12,0.78,9.06,7.99,9.06h1.94c7.15,0,7.93-0.94,7.93-9.06v-3.53C157.53,53.22,156.75,52.28,149.6,52.28z"/>
<path id="XMLID_15_" class="st1" d="M137.37,20.25V0.28h2.33v17.63h7.38V0.83h2.33v17.08h10.42v2.33H137.37z"/>
</svg>
