<?xml version="1.0" encoding="UTF-8" standalone="no"?>
<svg version="1.1" xmlns="http://www.w3.org/2000/svg" xmlns:xlink="http://www.w3.org/1999/xlink" preserveAspectRatio="xMidYMid meet" viewBox="0 0 552.15 152.57" width="552.15" height="152.57"><defs><path d="M249.76 77.06C251.53 80.21 252.41 83.89 252.41 88.08C252.41 92.27 251.52 95.95 249.76 99.1C247.99 102.26 245.55 104.71 242.45 106.45C239.34 108.19 235.89 109.06 232.1 109.06C226.9 109.06 222.81 107.42 219.83 104.14C219.83 105.41 219.83 111.74 219.83 123.15L208.01 123.15L208.01 67.7L219.3 67.7C219.3 70.52 219.3 72.08 219.3 72.39C222.23 68.86 226.5 67.09 232.1 67.09C235.89 67.1 239.34 67.97 242.45 69.71C245.55 71.45 247.99 73.9 249.76 77.06ZM240.44 88.08C240.44 84.65 239.47 81.91 237.52 79.86C235.58 77.81 233.09 76.79 230.06 76.79C227.03 76.79 224.54 77.81 222.6 79.86C220.65 81.91 219.68 84.65 219.68 88.08C219.68 91.52 220.65 94.26 222.6 96.3C224.54 98.35 227.03 99.37 230.06 99.37C233.09 99.37 235.58 98.35 237.52 96.3C239.47 94.26 240.44 91.52 240.44 88.08Z" id="ae96G0xEh"></path><path d="M260.29 94.98C260.29 92.13 260.29 77.88 260.29 52.25L272.11 52.25C272.11 77.48 272.11 91.49 272.11 94.29C272.11 96.01 272.55 97.34 273.43 98.27C274.32 99.21 275.57 99.67 277.18 99.67C277.79 99.67 278.41 99.6 279.04 99.44C279.67 99.29 280.16 99.11 280.52 98.91C280.57 99.83 280.99 107.16 281.04 108.08C279.07 108.73 277.03 109.06 274.91 109.06C270.31 109.07 266.73 107.84 264.15 105.39C261.57 102.94 260.29 99.47 260.29 94.98Z" id="a3Gt1zydc"></path><path d="M332.02 101.64C332.02 109.11 330.08 114.67 326.19 118.31C322.3 121.95 316.62 123.76 309.14 123.76C305.2 123.76 301.46 123.29 297.93 122.33C294.39 121.37 291.46 119.98 289.14 118.16C289.61 117.31 293.37 110.52 293.84 109.68C295.55 111.09 297.73 112.21 300.35 113.05C302.98 113.88 305.6 114.3 308.23 114.3C312.32 114.3 315.34 113.37 317.28 111.53C319.23 109.68 320.2 106.9 320.2 103.16C320.2 102.98 320.2 101.59 320.2 101.42C317.12 104.8 312.83 106.49 307.32 106.49C303.58 106.49 300.16 105.67 297.06 104.03C293.95 102.39 291.49 100.08 289.67 97.1C287.85 94.12 286.94 90.69 286.94 86.8C286.94 82.91 287.85 79.47 289.67 76.5C291.49 73.52 293.95 71.2 297.06 69.56C300.16 67.92 303.58 67.1 307.32 67.1C313.23 67.1 317.73 69.05 320.81 72.94C320.81 72.59 320.81 70.85 320.81 67.71L332.02 67.71L332.02 67.7L332.02 67.7C332.02 88.07 332.02 99.38 332.02 101.64ZM320.36 86.8C320.36 83.82 319.36 81.41 317.36 79.56C315.37 77.72 312.8 76.8 309.67 76.8C306.54 76.8 303.97 77.72 301.95 79.56C299.93 81.41 298.92 83.82 298.92 86.8C298.92 89.78 299.93 92.19 301.95 94.03C303.97 95.87 306.54 96.8 309.67 96.8C312.8 96.79 315.37 95.87 317.36 94.03C319.36 92.19 320.36 89.77 320.36 86.8Z" id="g1z1CEKT5v"></path><path d="M496.72 95.66C497.35 96.34 502.38 101.79 503.01 102.48C499.17 106.87 493.56 109.07 486.19 109.07C481.59 109.07 477.53 108.17 473.99 106.38C470.46 104.59 467.73 102.1 465.81 98.92C463.89 95.73 462.93 92.12 462.93 88.08C462.93 84.09 463.88 80.49 465.77 77.29C467.67 74.08 470.27 71.58 473.58 69.79C476.88 67.99 480.61 67.1 484.75 67.1C488.64 67.1 492.18 67.92 495.36 69.56C498.54 71.2 501.08 73.57 502.97 76.68C504.87 79.78 505.81 83.46 505.81 87.7C502.8 88.28 478.68 92.95 475.66 93.54C476.52 95.56 477.87 97.07 479.71 98.08C481.56 99.09 483.82 99.6 486.49 99.6C488.61 99.6 490.5 99.28 492.14 98.65C493.78 98.02 495.31 97.02 496.72 95.66ZM474.52 86.87C476.51 86.48 492.39 83.39 494.37 83.01C493.81 80.89 492.68 79.2 490.96 77.93C489.24 76.67 487.17 76.04 484.75 76.04C481.77 76.04 479.35 77 477.48 78.92C475.61 80.84 474.63 83.49 474.52 86.87Z" id="a1fY420iO6"></path><path d="M455.39 108.46L444.1 108.46C444.1 105.64 444.1 104.08 444.1 103.76C441.17 107.3 436.93 109.07 431.37 109.07C427.53 109.07 424.06 108.21 420.96 106.49C417.85 104.77 415.41 102.32 413.65 99.14C411.88 95.96 411 92.27 411 88.08C411 83.89 411.88 80.2 413.65 77.02C415.41 73.84 417.85 71.39 420.96 69.67C424.06 67.96 427.53 67.1 431.37 67.1C436.57 67.1 440.64 68.74 443.57 72.02C443.57 70.71 443.57 64.11 443.57 52.25L455.39 52.25L455.39 52.25L455.39 108.46ZM443.79 88.08C443.79 84.65 442.81 81.91 440.84 79.86C438.87 77.81 436.4 76.79 433.42 76.79C430.39 76.79 427.89 77.81 425.92 79.86C423.95 81.91 422.96 84.65 422.96 88.08C422.96 91.52 423.95 94.26 425.92 96.3C427.89 98.35 430.39 99.37 433.42 99.37C436.4 99.37 438.87 98.35 440.84 96.3C442.81 94.26 443.79 91.52 443.79 88.08Z" id="e1jHumYhss"></path><path d="M383.92 107.98L372.63 107.98C372.63 105.16 372.63 103.6 372.63 103.28C369.7 106.82 365.46 108.59 359.91 108.59C356.07 108.59 352.6 107.73 349.49 106.01C346.38 104.3 343.95 101.85 342.18 98.66C340.41 95.48 339.53 91.79 339.53 87.6C339.53 83.41 340.41 79.72 342.18 76.54C343.95 73.36 346.38 70.91 349.49 69.19C352.59 67.48 356.07 66.62 359.91 66.62C365.11 66.62 369.17 68.26 372.1 71.54C372.1 70.23 372.1 63.63 372.1 51.77L383.92 51.77L383.92 51.77L383.92 107.98ZM372.33 87.6C372.33 84.17 371.34 81.43 369.37 79.38C367.4 77.34 364.93 76.32 361.95 76.32C358.92 76.32 356.42 77.34 354.45 79.38C352.48 81.43 351.5 84.17 351.5 87.6C351.5 91.04 352.48 93.78 354.45 95.82C356.42 97.87 358.92 98.89 361.95 98.89C364.93 98.89 367.41 97.87 369.37 95.82C371.34 93.78 372.33 91.04 372.33 87.6Z" id="b3hnv0Br4"></path><path d="M391.49 101.64C391.49 99.47 392.2 97.72 393.61 96.38C395.03 95.04 396.77 94.37 398.84 94.37C400.91 94.37 402.65 95.04 404.07 96.38C405.48 97.72 406.19 99.47 406.19 101.64C406.19 103.76 405.48 105.53 404.07 106.95C402.65 108.36 400.91 109.07 398.84 109.07C396.77 109.07 395.03 108.36 393.61 106.95C392.2 105.53 391.49 103.76 391.49 101.64Z" id="a46uAJ5qAc"></path><path d="M186.93 97.16C186.31 97.54 183.2 99.43 177.6 102.85C168.06 96.6 162.76 93.13 161.71 92.44C161.52 92.44 151.37 94.54 146.91 102.37C142.79 109.59 95.55 100.84 95.55 73.98C95.55 47.13 117.32 25.36 144.18 25.36C171.03 25.36 192.8 47.13 192.8 73.98C192.8 82.37 190.67 90.27 186.93 97.16Z" id="e1UVC9TAQG"></path><path d="M41.27 122.61C18.48 122.61 0 104.13 0 81.34C0 58.55 18.48 40.07 41.27 40.07C54.45 40.07 66.19 46.25 73.75 55.87C79.26 62.89 112.59 122.61 112.59 122.61C98.33 122.61 56.45 122.61 41.27 122.61Z" id="coAYHMuuS"></path><path d="" id="b12tYMI5JC"></path><path d="" id="i4BgaCkuk"></path><path d="" id="e82e3Cdrq"></path><path d="" id="b1oOtN4bkh"></path><path d="M197.4 152.57C188.16 152.57 181.56 149.51 177.77 143.48C175.58 140.01 167.58 126.85 167.24 126.3C167.85 125.92 172.77 122.93 173.38 122.55C173.47 122.69 181.71 136.22 183.86 139.65C186.28 143.5 190.71 145.37 197.4 145.37C220.67 145.37 337.01 145.37 546.43 145.37L546.43 152.57L546.43 152.57C337.01 152.57 220.67 152.57 197.4 152.57Z" id="b4miZacmVH"></path><path d="M165.64 96.92C166.03 97.56 168.01 100.74 171.58 106.47C177.21 103.06 180.34 101.16 180.96 100.78C173.08 86.71 139.89 27.63 133.79 19.87C124.29 7.77 109.53 0 92.96 0C64.3 0 41.06 23.24 41.06 51.89C41.06 80.55 62.66 122.6 91.32 122.6C99.83 122.6 104.45 122.5 139.58 122.6C141.55 122.61 143.43 122.55 145.24 122.45C145.8 122.1 148.64 120.39 153.73 117.29C150.25 111.65 148.32 108.52 147.93 107.89C146.95 106.33 147.42 104.27 148.97 103.29C150.53 102.31 152.59 102.78 153.57 104.33C153.96 104.97 155.92 108.14 159.43 113.84L165.88 109.93C162.35 104.25 160.39 101.1 159.99 100.47C159.01 98.92 159.48 96.86 161.04 95.87C162.6 94.9 164.65 95.36 165.64 96.92Z" id="c2iHd8f5wA"></path><path d="M153.48 125.8L154.52 125.17C157.88 130.7 159.75 133.78 160.12 134.4C162.3 137.99 166.91 139.19 170.41 137.06C171.52 136.4 180.33 131.05 181.43 130.38C184.94 128.26 186.01 123.62 183.83 120.02C183.45 119.41 181.59 116.33 178.23 110.79L179.27 110.16L176.86 106.18L151.07 121.82L153.48 125.8Z" id="eZGQe8kC1"></path><path d="M518.76 67.54L529.56 98.25L540.36 67.54L552.15 67.54L535.94 108.44L522.96 108.44L506.75 67.54L518.76 67.54Z" id="jdEVzRWZc"></path></defs><g><g><g><use xlink:href="#ae96G0xEh" opacity="1" fill="#255897" fill-opacity="1"></use><g><use xlink:href="#ae96G0xEh" opacity="1" fill-opacity="0" stroke="#000000" stroke-width="1" stroke-opacity="0"></use></g></g><g><use xlink:href="#a3Gt1zydc" opacity="1" fill="#255897" fill-opacity="1"></use><g><use xlink:href="#a3Gt1zydc" opacity="1" fill-opacity="0" stroke="#000000" stroke-width="1" stroke-opacity="0"></use></g></g><g><use xlink:href="#g1z1CEKT5v" opacity="1" fill="#255897" fill-opacity="1"></use><g><use xlink:href="#g1z1CEKT5v" opacity="1" fill-opacity="0" stroke="#000000" stroke-width="1" stroke-opacity="0"></use></g></g><g><use xlink:href="#a1fY420iO6" opacity="1" fill="#255897" fill-opacity="1"></use><g><use xlink:href="#a1fY420iO6" opacity="1" fill-opacity="0" stroke="#000000" stroke-width="1" stroke-opacity="0"></use></g></g><g><use xlink:href="#e1jHumYhss" opacity="1" fill="#255897" fill-opacity="1"></use><g><use xlink:href="#e1jHumYhss" opacity="1" fill-opacity="0" stroke="#000000" stroke-width="1" stroke-opacity="0"></use></g></g><g><use xlink:href="#b3hnv0Br4" opacity="1" fill="#255897" fill-opacity="1"></use><g><use xlink:href="#b3hnv0Br4" opacity="1" fill-opacity="0" stroke="#000000" stroke-width="1" stroke-opacity="0"></use></g></g><g><use xlink:href="#a46uAJ5qAc" opacity="1" fill="#255897" fill-opacity="1"></use><g><use xlink:href="#a46uAJ5qAc" opacity="1" fill-opacity="0" stroke="#000000" stroke-width="1" stroke-opacity="0"></use></g></g><g><use xlink:href="#e1UVC9TAQG" opacity="1" fill="#8ec7e1" fill-opacity="1"></use><g><use xlink:href="#e1UVC9TAQG" opacity="1" fill-opacity="0" stroke="#000000" stroke-width="1" stroke-opacity="0"></use></g></g><g><use xlink:href="#coAYHMuuS" opacity="1" fill="#eab92c" fill-opacity="1"></use><g><use xlink:href="#coAYHMuuS" opacity="1" fill-opacity="0" stroke="#000000" stroke-width="1" stroke-opacity="0"></use></g></g><g><use xlink:href="#b12tYMI5JC" opacity="1" fill="#000000" fill-opacity="0"></use><g><use xlink:href="#b12tYMI5JC" opacity="1" fill-opacity="0" stroke="#4365a8" stroke-width="14.17" stroke-opacity="1"></use></g></g><g><use xlink:href="#i4BgaCkuk" opacity="1" fill="#000000" fill-opacity="0"></use><g><use xlink:href="#i4BgaCkuk" opacity="1" fill-opacity="0" stroke="#4365a8" stroke-width="14.17" stroke-opacity="1"></use></g></g><g><use xlink:href="#e82e3Cdrq" opacity="1" fill="#000000" fill-opacity="0"></use><g><use xlink:href="#e82e3Cdrq" opacity="1" fill-opacity="0" stroke="#ffffff" stroke-width="14.17" stroke-opacity="1"></use></g></g><g><use xlink:href="#b1oOtN4bkh" opacity="1" fill="#000000" fill-opacity="0"></use><g><use xlink:href="#b1oOtN4bkh" opacity="1" fill-opacity="0" stroke="#ffffff" stroke-width="14.17" stroke-opacity="1"></use></g></g><g><use xlink:href="#b4miZacmVH" opacity="1" fill="#255897" fill-opacity="1"></use><g><use xlink:href="#b4miZacmVH" opacity="1" fill-opacity="0" stroke="#000000" stroke-width="1" stroke-opacity="0"></use></g></g><g><use xlink:href="#c2iHd8f5wA" opacity="1" fill="#255897" fill-opacity="1"></use><g><use xlink:href="#c2iHd8f5wA" opacity="1" fill-opacity="0" stroke="#000000" stroke-width="1" stroke-opacity="0"></use></g></g><g><use xlink:href="#eZGQe8kC1" opacity="1" fill="#255897" fill-opacity="1"></use><g><use xlink:href="#eZGQe8kC1" opacity="1" fill-opacity="0" stroke="#000000" stroke-width="1" stroke-opacity="0"></use></g></g><g><use xlink:href="#jdEVzRWZc" opacity="1" fill="#255897" fill-opacity="1"></use><g><use xlink:href="#jdEVzRWZc" opacity="1" fill-opacity="0" stroke="#000000" stroke-width="1" stroke-opacity="0"></use></g></g></g></g></svg>