<?xml version="1.0" encoding="UTF-8" standalone="no"?>
<svg version="1.1" xmlns="http://www.w3.org/2000/svg" xmlns:xlink="http://www.w3.org/1999/xlink" preserveAspectRatio="xMidYMid meet" viewBox="0 0 552.15 250" width="552.15" height="250"><defs><path d="M249.75 155.33C251.52 158.49 252.41 162.16 252.41 166.36C252.41 170.55 251.52 174.22 249.75 177.38C247.99 180.54 245.55 182.98 242.45 184.73C239.34 186.47 235.89 187.34 232.1 187.34C226.9 187.34 222.81 185.7 219.83 182.41C219.83 183.68 219.83 190.02 219.83 201.43L208.01 201.43L208.01 145.97L219.3 145.97C219.3 148.79 219.3 150.36 219.3 150.67C222.23 147.14 226.5 145.37 232.1 145.37C235.89 145.37 239.34 146.24 242.45 147.99C245.55 149.73 247.99 152.18 249.75 155.33ZM240.44 166.36C240.44 162.92 239.46 160.18 237.52 158.14C235.58 156.09 233.09 155.07 230.06 155.07C227.03 155.07 224.54 156.09 222.6 158.14C220.65 160.18 219.68 162.92 219.68 166.36C219.68 169.79 220.65 172.53 222.6 174.58C224.54 176.62 227.03 177.64 230.06 177.64C233.09 177.64 235.58 176.62 237.52 174.58C239.46 172.53 240.44 169.79 240.44 166.36Z" id="b1aGPpscjK"></path><path d="M260.29 173.25C260.29 170.4 260.29 156.16 260.29 130.52L272.1 130.52C272.1 155.75 272.1 169.77 272.1 172.57C272.1 174.29 272.55 175.61 273.43 176.55C274.31 177.48 275.56 177.95 277.18 177.95C277.79 177.95 278.4 177.87 279.04 177.72C279.67 177.57 280.16 177.39 280.51 177.19C280.57 178.11 280.99 185.44 281.04 186.36C279.07 187.01 277.03 187.34 274.91 187.34C270.31 187.34 266.72 186.12 264.15 183.67C261.57 181.22 260.29 177.75 260.29 173.25Z" id="c2DVdTMkFI"></path><path d="M332.02 179.92C332.02 187.39 330.07 192.95 326.18 196.59C322.29 200.22 316.61 202.04 309.14 202.04C305.2 202.04 301.46 201.56 297.93 200.6C294.39 199.64 291.46 198.25 289.14 196.43C289.61 195.59 293.37 188.8 293.84 187.95C295.55 189.37 297.72 190.49 300.35 191.32C302.98 192.16 305.6 192.57 308.23 192.57C312.32 192.57 315.34 191.65 317.28 189.81C319.23 187.96 320.2 185.17 320.2 181.43C320.2 181.26 320.2 179.87 320.2 179.69C317.12 183.08 312.82 184.77 307.32 184.77C303.58 184.77 300.16 183.95 297.05 182.31C293.95 180.66 291.49 178.35 289.67 175.37C287.85 172.4 286.94 168.96 286.94 165.07C286.94 161.18 287.85 157.75 289.67 154.77C291.49 151.79 293.95 149.48 297.05 147.84C300.16 146.2 303.58 145.38 307.32 145.38C313.23 145.38 317.72 147.32 320.8 151.21C320.8 150.86 320.8 149.12 320.8 145.99L332.02 145.99L332.02 145.98L332.02 145.98C332.02 166.34 332.02 177.66 332.02 179.92ZM320.35 165.07C320.35 162.09 319.36 159.68 317.36 157.84C315.36 155.99 312.8 155.07 309.67 155.07C306.54 155.07 303.96 155.99 301.94 157.84C299.93 159.68 298.92 162.09 298.92 165.07C298.92 168.05 299.93 170.46 301.94 172.31C303.96 174.15 306.54 175.07 309.67 175.07C312.8 175.07 315.36 174.15 317.36 172.31C319.36 170.46 320.35 168.05 320.35 165.07Z" id="agfznsME1"></path><path d="M496.72 173.93C497.35 174.62 502.38 180.07 503.01 180.75C499.17 185.14 493.56 187.34 486.19 187.34C481.59 187.34 477.52 186.45 473.99 184.66C470.45 182.86 467.73 180.37 465.81 177.19C463.89 174.01 462.93 170.4 462.93 166.36C462.93 162.37 463.88 158.77 465.77 155.56C467.66 152.36 470.26 149.85 473.57 148.06C476.88 146.27 480.61 145.37 484.75 145.37C488.64 145.37 492.17 146.19 495.35 147.83C498.54 149.48 501.07 151.85 502.97 154.96C504.86 158.06 505.81 161.74 505.81 165.98C502.79 166.56 478.67 171.23 475.66 171.81C476.52 173.83 477.87 175.35 479.71 176.36C481.55 177.37 483.81 177.87 486.49 177.87C488.61 177.87 490.49 177.56 492.14 176.93C493.78 176.29 495.3 175.3 496.72 173.93ZM474.52 165.15C476.5 164.76 492.38 161.67 494.37 161.28C493.81 159.16 492.68 157.47 490.96 156.21C489.24 154.94 487.17 154.31 484.75 154.31C481.77 154.31 479.34 155.27 477.48 157.19C475.61 159.11 474.62 161.76 474.52 165.15Z" id="ab0rLOvmD"></path><path d="M455.39 186.74L444.1 186.74C444.1 183.92 444.1 182.35 444.1 182.04C441.17 185.58 436.92 187.34 431.37 187.34C427.53 187.34 424.06 186.48 420.95 184.77C417.85 183.05 415.41 180.6 413.64 177.42C411.87 174.24 410.99 170.55 410.99 166.36C410.99 162.17 411.88 158.48 413.64 155.3C415.41 152.12 417.85 149.67 420.95 147.95C424.06 146.23 427.53 145.37 431.37 145.37C436.57 145.37 440.64 147.02 443.57 150.3C443.57 148.98 443.57 142.39 443.57 130.52L455.39 130.52L455.39 130.52L455.39 186.74ZM443.79 166.36C443.79 162.92 442.81 160.18 440.84 158.14C438.87 156.09 436.39 155.07 433.41 155.07C430.38 155.07 427.88 156.09 425.91 158.14C423.94 160.18 422.96 162.92 422.96 166.36C422.96 169.79 423.94 172.53 425.91 174.58C427.89 176.62 430.38 177.64 433.41 177.64C436.4 177.64 438.87 176.62 440.84 174.58C442.81 172.53 443.79 169.79 443.79 166.36Z" id="b68FsJCSTf"></path><path d="M383.92 186.26L372.63 186.26C372.63 183.44 372.63 181.87 372.63 181.56C369.7 185.1 365.46 186.86 359.9 186.86C356.07 186.86 352.59 186.01 349.49 184.29C346.38 182.57 343.95 180.12 342.18 176.94C340.41 173.76 339.53 170.07 339.53 165.88C339.53 161.69 340.41 158 342.18 154.82C343.95 151.64 346.38 149.19 349.49 147.47C352.59 145.75 356.07 144.9 359.9 144.9C365.11 144.9 369.17 146.54 372.1 149.82C372.1 148.5 372.1 141.91 372.1 130.04L383.92 130.04L383.92 130.05L383.92 186.26ZM372.33 165.88C372.33 162.44 371.34 159.7 369.37 157.66C367.4 155.61 364.93 154.59 361.95 154.59C358.92 154.59 356.42 155.61 354.45 157.66C352.48 159.7 351.49 162.44 351.49 165.88C351.49 169.31 352.48 172.05 354.45 174.1C356.42 176.14 358.92 177.16 361.95 177.16C364.93 177.17 367.41 176.14 369.37 174.1C371.34 172.05 372.33 169.31 372.33 165.88Z" id="d1g4NoNQPr"></path><path d="M391.49 179.92C391.49 177.75 392.2 175.99 393.61 174.65C395.02 173.32 396.77 172.64 398.84 172.64C400.91 172.64 402.65 173.32 404.07 174.65C405.48 175.99 406.19 177.75 406.19 179.92C406.19 182.04 405.48 183.81 404.07 185.22C402.65 186.64 400.91 187.34 398.84 187.34C396.77 187.34 395.02 186.64 393.61 185.22C392.2 183.81 391.49 182.04 391.49 179.92Z" id="a5kayII6td"></path><path d="M186.93 175.43C186.31 175.81 183.2 177.71 177.6 181.12C168.06 174.88 162.76 171.41 161.7 170.72C161.52 170.72 151.36 172.81 146.91 180.64C142.79 187.87 95.55 179.11 95.55 152.26C95.55 125.4 117.32 103.63 144.17 103.63C171.03 103.64 192.8 125.4 192.8 152.26C192.8 160.65 190.67 168.55 186.93 175.43Z" id="a2c9MvzLP4"></path><path d="M41.27 200.88C18.48 200.88 0 182.4 0 159.61C0 136.82 18.48 118.34 41.27 118.34C54.45 118.34 66.19 124.53 73.74 134.14C79.25 141.16 112.59 200.88 112.59 200.88C98.32 200.88 56.45 200.88 41.27 200.88Z" id="b1Lcgq80M8"></path><path d="" id="cqEhNxJOx"></path><path d="" id="eei3kfGLQ"></path><path d="" id="c4fBZ0Qexy"></path><path d="" id="c9W7bqsMD7"></path><path d="M197.4 230.85C188.16 230.85 181.56 227.79 177.76 221.76C175.58 218.28 167.57 205.13 167.23 204.57C167.85 204.2 172.77 201.2 173.38 200.83C173.47 200.97 181.7 214.5 183.86 217.93C186.28 221.78 190.71 223.65 197.4 223.65C220.67 223.65 337.01 223.65 546.43 223.65L546.43 230.85L546.43 230.85C337.01 230.85 220.67 230.85 197.4 230.85Z" id="d14exufFaE"></path><path d="M165.63 175.19C166.03 175.83 168.01 179.02 171.58 184.75C177.21 181.33 180.33 179.44 180.96 179.06C173.07 164.98 139.89 105.91 133.79 98.15C124.29 86.05 109.53 78.28 92.95 78.28C64.3 78.28 41.06 101.51 41.06 130.17C41.06 158.83 62.66 200.87 91.32 200.87C99.83 200.87 104.44 200.77 139.57 200.87C141.55 200.88 143.43 200.83 145.23 200.72C145.8 200.38 148.63 198.66 153.73 195.57C150.25 189.93 148.32 186.79 147.93 186.16C146.95 184.61 147.41 182.55 148.97 181.57C150.53 180.59 152.59 181.05 153.57 182.61C153.96 183.24 155.91 186.41 159.43 192.12L165.88 188.2C162.35 182.53 160.38 179.38 159.99 178.75C159.01 177.19 159.48 175.13 161.03 174.15C162.59 173.17 164.65 173.64 165.63 175.19Z" id="bCZ9qy5Hc"></path><path d="M153.48 204.07L154.52 203.44C157.88 208.98 159.75 212.06 160.12 212.67C162.3 216.27 166.91 217.46 170.41 215.34C171.51 214.67 180.33 209.33 181.43 208.66C184.93 206.53 186.01 201.9 183.82 198.3C183.45 197.68 181.59 194.61 178.23 189.07L179.27 188.44L176.85 184.46L151.07 200.09L153.48 204.07Z" id="fmFksDqU"></path><path d="M518.76 145.81L529.56 176.52L540.36 145.81L552.15 145.81L535.94 186.71L522.95 186.71L506.74 145.81L518.76 145.81Z" id="kizEzuL4T"></path></defs><g><g><g><use xlink:href="#b1aGPpscjK" opacity="1" fill="#255897" fill-opacity="1"></use><g><use xlink:href="#b1aGPpscjK" opacity="1" fill-opacity="0" stroke="#000000" stroke-width="1" stroke-opacity="0"></use></g></g><g><use xlink:href="#c2DVdTMkFI" opacity="1" fill="#255897" fill-opacity="1"></use><g><use xlink:href="#c2DVdTMkFI" opacity="1" fill-opacity="0" stroke="#000000" stroke-width="1" stroke-opacity="0"></use></g></g><g><use xlink:href="#agfznsME1" opacity="1" fill="#255897" fill-opacity="1"></use><g><use xlink:href="#agfznsME1" opacity="1" fill-opacity="0" stroke="#000000" stroke-width="1" stroke-opacity="0"></use></g></g><g><use xlink:href="#ab0rLOvmD" opacity="1" fill="#255897" fill-opacity="1"></use><g><use xlink:href="#ab0rLOvmD" opacity="1" fill-opacity="0" stroke="#000000" stroke-width="1" stroke-opacity="0"></use></g></g><g><use xlink:href="#b68FsJCSTf" opacity="1" fill="#255897" fill-opacity="1"></use><g><use xlink:href="#b68FsJCSTf" opacity="1" fill-opacity="0" stroke="#000000" stroke-width="1" stroke-opacity="0"></use></g></g><g><use xlink:href="#d1g4NoNQPr" opacity="1" fill="#255897" fill-opacity="1"></use><g><use xlink:href="#d1g4NoNQPr" opacity="1" fill-opacity="0" stroke="#000000" stroke-width="1" stroke-opacity="0"></use></g></g><g><use xlink:href="#a5kayII6td" opacity="1" fill="#255897" fill-opacity="1"></use><g><use xlink:href="#a5kayII6td" opacity="1" fill-opacity="0" stroke="#000000" stroke-width="1" stroke-opacity="0"></use></g></g><g><use xlink:href="#a2c9MvzLP4" opacity="1" fill="#8ec7e1" fill-opacity="1"></use><g><use xlink:href="#a2c9MvzLP4" opacity="1" fill-opacity="0" stroke="#000000" stroke-width="1" stroke-opacity="0"></use></g></g><g><use xlink:href="#b1Lcgq80M8" opacity="1" fill="#eab92c" fill-opacity="1"></use><g><use xlink:href="#b1Lcgq80M8" opacity="1" fill-opacity="0" stroke="#000000" stroke-width="1" stroke-opacity="0"></use></g></g><g><use xlink:href="#cqEhNxJOx" opacity="1" fill="#000000" fill-opacity="0"></use><g><use xlink:href="#cqEhNxJOx" opacity="1" fill-opacity="0" stroke="#4365a8" stroke-width="14.17" stroke-opacity="1"></use></g></g><g><use xlink:href="#eei3kfGLQ" opacity="1" fill="#000000" fill-opacity="0"></use><g><use xlink:href="#eei3kfGLQ" opacity="1" fill-opacity="0" stroke="#4365a8" stroke-width="14.17" stroke-opacity="1"></use></g></g><g><use xlink:href="#c4fBZ0Qexy" opacity="1" fill="#000000" fill-opacity="0"></use><g><use xlink:href="#c4fBZ0Qexy" opacity="1" fill-opacity="0" stroke="#ffffff" stroke-width="14.17" stroke-opacity="1"></use></g></g><g><use xlink:href="#c9W7bqsMD7" opacity="1" fill="#000000" fill-opacity="0"></use><g><use xlink:href="#c9W7bqsMD7" opacity="1" fill-opacity="0" stroke="#ffffff" stroke-width="14.17" stroke-opacity="1"></use></g></g><g><use xlink:href="#d14exufFaE" opacity="1" fill="#255897" fill-opacity="1"></use><g><use xlink:href="#d14exufFaE" opacity="1" fill-opacity="0" stroke="#000000" stroke-width="1" stroke-opacity="0"></use></g></g><g><use xlink:href="#bCZ9qy5Hc" opacity="1" fill="#255897" fill-opacity="1"></use><g><use xlink:href="#bCZ9qy5Hc" opacity="1" fill-opacity="0" stroke="#000000" stroke-width="1" stroke-opacity="0"></use></g></g><g><use xlink:href="#fmFksDqU" opacity="1" fill="#255897" fill-opacity="1"></use><g><use xlink:href="#fmFksDqU" opacity="1" fill-opacity="0" stroke="#000000" stroke-width="1" stroke-opacity="0"></use></g></g><g><use xlink:href="#kizEzuL4T" opacity="1" fill="#255897" fill-opacity="1"></use><g><use xlink:href="#kizEzuL4T" opacity="1" fill-opacity="0" stroke="#000000" stroke-width="1" stroke-opacity="0"></use></g></g></g></g></svg>