<?xml version="1.0" encoding="UTF-8" standalone="no"?>
<svg version="1.1" xmlns="http://www.w3.org/2000/svg" xmlns:xlink="http://www.w3.org/1999/xlink" preserveAspectRatio="xMidYMid meet" viewBox="0 0 169 169" width="169" height="169"><defs><path d="M163.83 115.99C163.29 116.32 160.57 117.99 155.69 120.98C147.33 115.52 142.69 112.48 141.76 111.87C141.58 111.87 132.74 113.71 128.8 120.54C125.2 126.85 83.77 119.23 83.77 95.67C83.77 72.11 102.87 53.01 126.43 53.01C149.91 53.01 169 72.11 169 95.67C169 103.03 167.16 109.95 163.83 115.99Z" id="etQP8r2XC"></path><path d="M36.12 138.24C16.15 138.24 -0.05 122.03 -0.05 102.06C-0.05 82.09 16.15 65.89 36.12 65.89C47.69 65.89 57.93 71.32 64.59 79.73C69.41 85.95 98.66 138.24 98.66 138.24C86.16 138.24 49.44 138.24 36.12 138.24Z" id="cNBlS1iBE"></path><path d="" id="b21yAVpO5X"></path><path d="" id="a3tWyimydW"></path><path d="" id="bh8iIWGX0"></path><path d="" id="c2qd8INPW3"></path><path d="M158.66 119.14C151.74 106.79 122.66 55.03 117.32 48.19C108.91 37.59 95.95 30.76 81.5 30.76C56.36 30.76 35.95 51.17 35.95 76.22C35.95 101.36 54.87 138.24 80.01 138.24C87.45 138.24 91.48 138.15 122.31 138.24C124.07 138.24 125.73 138.24 127.31 138.06C133.58 134.28 152.39 122.93 158.66 119.14Z" id="a4bUGlXVv0"></path><path d="M47.37 109.66C48.46 111.64 49.01 113.87 49.01 116.48C49.01 119.08 48.46 121.38 47.37 123.3C46.27 125.22 44.81 126.77 42.92 127.88C41.03 128.94 38.9 129.5 36.59 129.5C33.42 129.5 30.92 128.5 29.1 126.46C29.1 127.24 29.1 131.17 29.1 138.24L21.91 138.24L21.91 103.83L28.79 103.83C28.79 105.58 28.79 106.55 28.79 106.75C30.56 104.58 33.18 103.46 36.59 103.46C38.9 103.46 41.03 103.96 42.92 105.07C44.81 106.13 46.27 107.68 47.37 109.66ZM41.7 116.48C41.7 114.37 41.09 112.64 39.94 111.4C38.78 110.16 37.26 109.47 35.37 109.47C33.48 109.47 32.02 110.09 30.8 111.4C29.64 112.64 29.03 114.37 29.03 116.48C29.03 118.59 29.64 120.32 30.8 121.56C31.96 122.8 33.48 123.48 35.37 123.48C37.2 123.48 38.72 122.8 39.94 121.56C41.09 120.32 41.7 118.59 41.7 116.48Z" id="f4Q9nn74qQ"></path><path d="M129.06 129.12L122.18 129.12C122.18 127.38 122.18 126.41 122.18 126.21C120.42 128.38 117.8 129.5 114.45 129.5C112.13 129.5 110 128.94 108.11 127.88C106.23 126.83 104.76 125.28 103.67 123.3C102.57 121.31 102.02 119.02 102.02 116.42C102.02 113.81 102.57 111.52 103.67 109.54C104.76 107.55 106.23 106.06 108.11 104.95C110 103.89 112.13 103.34 114.45 103.34C117.61 103.34 120.11 104.33 121.88 106.37C121.88 105.56 121.88 101.51 121.88 94.22L129.06 94.22L129.06 94.22L129.06 129.12ZM122 116.48C122 114.37 121.39 112.64 120.17 111.4C118.95 110.16 117.49 109.47 115.67 109.47C113.84 109.47 112.32 110.09 111.1 111.4C109.88 112.64 109.27 114.37 109.27 116.48C109.27 118.59 109.88 120.32 111.1 121.56C112.32 122.8 113.84 123.48 115.67 123.48C117.49 123.48 118.95 122.8 120.17 121.56C121.39 120.32 122 118.59 122 116.48Z" id="diIJBsYFu"></path><path d="M98.07 124.48C98.07 129.12 96.92 132.53 94.54 134.83C92.16 137.12 88.69 138.24 84.13 138.24C81.75 138.24 79.44 137.93 77.31 137.37C75.17 136.75 73.35 135.88 71.95 134.77C72.23 134.24 74.52 130.02 74.81 129.5C75.84 130.36 77.18 131.05 78.77 131.6C80.35 132.1 81.99 132.41 83.58 132.41C86.07 132.41 87.9 131.85 89.12 130.67C90.28 129.56 90.89 127.82 90.89 125.47C90.89 125.36 90.89 124.52 90.89 124.41C89 126.52 86.38 127.57 83.03 127.57C80.78 127.57 78.64 127.08 76.76 126.03C74.87 125.03 73.35 123.55 72.25 121.75C71.15 119.89 70.61 117.78 70.61 115.36C70.61 112.95 71.15 110.84 72.25 108.98C73.35 107.12 74.87 105.69 76.76 104.7C78.64 103.71 80.72 103.15 83.03 103.15C86.62 103.15 89.36 104.33 91.25 106.75C91.25 106.53 91.25 105.46 91.25 103.52L98.07 103.4L98.07 103.4L98.07 103.4C98.07 116.04 98.07 123.07 98.07 124.48ZM90.95 115.24C90.95 113.38 90.34 111.89 89.12 110.78C87.9 109.66 86.32 109.04 84.43 109.04C82.54 109.04 80.96 109.6 79.74 110.78C78.52 111.89 77.91 113.44 77.91 115.24C77.91 117.1 78.52 118.59 79.74 119.7C80.96 120.82 82.54 121.44 84.43 121.44C86.32 121.44 87.9 120.88 89.12 119.7C90.34 118.59 90.95 117.04 90.95 115.24Z" id="a1ryCitcpy"></path><path d="M53.76 120.76C53.76 118.99 53.76 110.14 53.76 94.22L60.95 94.22C60.95 109.88 60.95 118.58 60.95 120.32C60.95 121.38 61.19 122.18 61.74 122.8C62.29 123.36 63.02 123.67 64.05 123.67C64.42 123.67 64.78 123.61 65.21 123.55C65.57 123.42 65.88 123.36 66.12 123.24C66.15 123.81 66.4 128.37 66.43 128.94C65.21 129.37 63.99 129.56 62.71 129.56C59.91 129.5 57.72 128.75 56.14 127.2C54.55 125.65 53.76 123.55 53.76 120.76Z" id="b3Pn7QkZW"></path></defs><g><g><g><use xlink:href="#etQP8r2XC" opacity="1" fill="#8fc7e1" fill-opacity="1"></use><g><use xlink:href="#etQP8r2XC" opacity="1" fill-opacity="0" stroke="#000000" stroke-width="1" stroke-opacity="0"></use></g></g><g><use xlink:href="#cNBlS1iBE" opacity="1" fill="#eab927" fill-opacity="1"></use><g><use xlink:href="#cNBlS1iBE" opacity="1" fill-opacity="0" stroke="#000000" stroke-width="1" stroke-opacity="0"></use></g></g><g><use xlink:href="#b21yAVpO5X" opacity="1" fill="#000000" fill-opacity="0"></use><g><use xlink:href="#b21yAVpO5X" opacity="1" fill-opacity="0" stroke="#4365a7" stroke-width="14.17" stroke-opacity="1"></use></g></g><g><use xlink:href="#a3tWyimydW" opacity="1" fill="#000000" fill-opacity="0"></use><g><use xlink:href="#a3tWyimydW" opacity="1" fill-opacity="0" stroke="#4365a7" stroke-width="14.17" stroke-opacity="1"></use></g></g><g><use xlink:href="#bh8iIWGX0" opacity="1" fill="#000000" fill-opacity="0"></use><g><use xlink:href="#bh8iIWGX0" opacity="1" fill-opacity="0" stroke="#ffffff" stroke-width="14.17" stroke-opacity="1"></use></g></g><g><use xlink:href="#c2qd8INPW3" opacity="1" fill="#000000" fill-opacity="0"></use><g><use xlink:href="#c2qd8INPW3" opacity="1" fill-opacity="0" stroke="#ffffff" stroke-width="14.17" stroke-opacity="1"></use></g></g><g><use xlink:href="#a4bUGlXVv0" opacity="1" fill="#265897" fill-opacity="1"></use><g><use xlink:href="#a4bUGlXVv0" opacity="1" fill-opacity="0" stroke="#000000" stroke-width="1" stroke-opacity="0"></use></g></g><g><use xlink:href="#f4Q9nn74qQ" opacity="1" fill="#ffffff" fill-opacity="1"></use><g><use xlink:href="#f4Q9nn74qQ" opacity="1" fill-opacity="0" stroke="#000000" stroke-width="1" stroke-opacity="0"></use></g></g><g><use xlink:href="#diIJBsYFu" opacity="1" fill="#ffffff" fill-opacity="1"></use><g><use xlink:href="#diIJBsYFu" opacity="1" fill-opacity="0" stroke="#000000" stroke-width="1" stroke-opacity="0"></use></g></g><g><use xlink:href="#a1ryCitcpy" opacity="1" fill="#ffffff" fill-opacity="1"></use><g><use xlink:href="#a1ryCitcpy" opacity="1" fill-opacity="0" stroke="#000000" stroke-width="1" stroke-opacity="0"></use></g></g><g><use xlink:href="#b3Pn7QkZW" opacity="1" fill="#ffffff" fill-opacity="1"></use><g><use xlink:href="#b3Pn7QkZW" opacity="1" fill-opacity="0" stroke="#000000" stroke-width="1" stroke-opacity="0"></use></g></g></g></g></svg>