<?xml version="1.0" encoding="UTF-8" standalone="no"?>
<svg version="1.1" xmlns="http://www.w3.org/2000/svg" xmlns:xlink="http://www.w3.org/1999/xlink" preserveAspectRatio="xMidYMid meet" viewBox="0 0 552.15 350" width="552.15" height="350"><defs><path d="M249.76 175.77C251.53 178.93 252.41 182.6 252.41 186.79C252.41 190.99 251.52 194.66 249.76 197.82C247.99 200.97 245.55 203.42 242.45 205.16C239.34 206.91 235.89 207.78 232.1 207.78C226.9 207.78 222.81 206.14 219.83 202.85C219.83 204.12 219.83 210.46 219.83 221.87L208.01 221.87L208.01 166.41L219.3 166.41C219.3 169.23 219.3 170.79 219.3 171.11C222.23 167.57 226.5 165.8 232.1 165.8C235.89 165.81 239.34 166.68 242.45 168.42C245.55 170.17 247.99 172.62 249.76 175.77ZM240.44 186.8C240.44 183.36 239.47 180.62 237.52 178.58C235.58 176.53 233.09 175.51 230.06 175.51C227.03 175.51 224.54 176.53 222.6 178.58C220.65 180.62 219.68 183.36 219.68 186.8C219.68 190.23 220.65 192.97 222.6 195.02C224.54 197.06 227.03 198.08 230.06 198.08C233.09 198.08 235.58 197.06 237.52 195.02C239.47 192.97 240.44 190.23 240.44 186.8Z" id="aqp1ppQqr"></path><path d="M260.29 193.69C260.29 190.84 260.29 176.6 260.29 150.96L272.11 150.96C272.11 176.19 272.11 190.2 272.11 193.01C272.11 194.73 272.55 196.05 273.43 196.98C274.32 197.92 275.57 198.39 277.18 198.39C277.79 198.39 278.41 198.31 279.04 198.16C279.67 198.01 280.16 197.83 280.52 197.63C280.57 198.54 280.99 205.88 281.04 206.8C279.07 207.45 277.03 207.78 274.91 207.78C270.31 207.78 266.73 206.56 264.15 204.11C261.57 201.66 260.29 198.18 260.29 193.69Z" id="g5IhFoBUkA"></path><path d="M332.02 200.36C332.02 207.83 330.08 213.39 326.19 217.02C322.3 220.66 316.62 222.48 309.14 222.48C305.2 222.48 301.46 222 297.93 221.04C294.39 220.08 291.46 218.69 289.14 216.87C289.61 216.02 293.37 209.24 293.84 208.39C295.55 209.8 297.73 210.93 300.35 211.76C302.98 212.59 305.6 213.01 308.23 213.01C312.32 213.01 315.34 212.09 317.28 210.24C319.23 208.4 320.2 205.61 320.2 201.87C320.2 201.7 320.2 200.3 320.2 200.13C317.12 203.52 312.83 205.21 307.32 205.21C303.58 205.21 300.16 204.39 297.06 202.74C293.95 201.1 291.49 198.79 289.67 195.81C287.85 192.83 286.94 189.4 286.94 185.51C286.94 181.62 287.85 178.19 289.67 175.21C291.49 172.23 293.95 169.92 297.06 168.28C300.16 166.64 303.58 165.82 307.32 165.82C313.23 165.82 317.73 167.76 320.81 171.65C320.81 171.3 320.81 169.56 320.81 166.42L332.02 166.42L332.02 166.42L332.02 166.42C332.02 186.78 332.02 198.09 332.02 200.36ZM320.36 185.51C320.36 182.53 319.36 180.12 317.36 178.27C315.37 176.43 312.8 175.51 309.67 175.51C306.54 175.51 303.97 176.43 301.95 178.27C299.93 180.12 298.92 182.53 298.92 185.51C298.92 188.49 299.93 190.9 301.95 192.74C303.97 194.59 306.54 195.51 309.67 195.51C312.8 195.51 315.37 194.59 317.36 192.74C319.36 190.9 320.36 188.49 320.36 185.51Z" id="d2dg5AZ2Yp"></path><path d="M496.72 194.37C497.35 195.05 502.38 200.51 503.01 201.19C499.17 205.58 493.56 207.78 486.19 207.78C481.59 207.78 477.53 206.89 473.99 205.09C470.46 203.3 467.73 200.81 465.81 197.63C463.89 194.45 462.93 190.84 462.93 186.8C462.93 182.81 463.88 179.21 465.77 176C467.67 172.79 470.27 170.29 473.58 168.5C476.88 166.71 480.61 165.81 484.75 165.81C488.64 165.81 492.18 166.63 495.36 168.27C498.54 169.92 501.08 172.29 502.97 175.39C504.87 178.5 505.81 182.17 505.81 186.41C502.8 187 478.68 191.67 475.66 192.25C476.52 194.27 477.87 195.78 479.71 196.79C481.56 197.81 483.82 198.31 486.49 198.31C488.61 198.31 490.5 198 492.14 197.36C493.78 196.73 495.31 195.73 496.72 194.37ZM474.52 185.58C476.51 185.2 492.39 182.11 494.37 181.72C493.81 179.6 492.68 177.91 490.96 176.64C489.24 175.38 487.17 174.75 484.75 174.75C481.77 174.75 479.35 175.71 477.48 177.63C475.61 179.55 474.63 182.2 474.52 185.58Z" id="d109jnCoZC"></path><path d="M455.39 207.17L444.1 207.17C444.1 204.36 444.1 202.79 444.1 202.48C441.17 206.01 436.93 207.78 431.37 207.78C427.53 207.78 424.06 206.92 420.96 205.2C417.85 203.49 415.41 201.04 413.65 197.86C411.88 194.67 411 190.99 411 186.8C411 182.6 411.88 178.92 413.65 175.74C415.41 172.55 417.85 170.1 420.96 168.39C424.06 166.67 427.53 165.81 431.37 165.81C436.57 165.81 440.64 167.45 443.57 170.74C443.57 169.42 443.57 162.83 443.57 150.96L455.39 150.96L455.39 150.96L455.39 207.17ZM443.79 186.8C443.79 183.36 442.81 180.62 440.84 178.58C438.87 176.53 436.4 175.51 433.42 175.51C430.39 175.51 427.89 176.53 425.92 178.58C423.95 180.62 422.96 183.36 422.96 186.8C422.96 190.23 423.95 192.97 425.92 195.02C427.89 197.06 430.39 198.08 433.42 198.08C436.4 198.08 438.87 197.06 440.84 195.02C442.81 192.97 443.79 190.23 443.79 186.8Z" id="fkPXsd6M2"></path><path d="M383.92 206.7L372.63 206.7C372.63 203.88 372.63 202.31 372.63 202C369.7 205.54 365.46 207.3 359.91 207.3C356.07 207.3 352.6 206.44 349.49 204.72C346.38 203.01 343.95 200.56 342.18 197.38C340.41 194.19 339.53 190.51 339.53 186.32C339.53 182.13 340.41 178.44 342.18 175.26C343.95 172.07 346.38 169.62 349.49 167.91C352.59 166.19 356.07 165.33 359.91 165.33C365.11 165.33 369.17 166.98 372.1 170.26C372.1 168.94 372.1 162.35 372.1 150.48L383.92 150.48L383.92 150.48L383.92 206.7ZM372.33 186.32C372.33 182.88 371.34 180.14 369.37 178.1C367.4 176.05 364.93 175.03 361.95 175.03C358.92 175.03 356.42 176.05 354.45 178.1C352.48 180.14 351.5 182.88 351.5 186.32C351.5 189.75 352.48 192.49 354.45 194.54C356.42 196.58 358.92 197.6 361.95 197.6C364.93 197.61 367.41 196.58 369.37 194.54C371.34 192.49 372.33 189.75 372.33 186.32Z" id="bGCJP169v"></path><path d="M391.49 200.36C391.49 198.18 392.2 196.43 393.61 195.09C395.03 193.75 396.77 193.08 398.84 193.08C400.91 193.08 402.65 193.75 404.07 195.09C405.48 196.43 406.19 198.19 406.19 200.36C406.19 202.48 405.48 204.25 404.07 205.66C402.65 207.07 400.91 207.78 398.84 207.78C396.77 207.78 395.03 207.07 393.61 205.66C392.2 204.25 391.49 202.48 391.49 200.36Z" id="e1tb2t0tID"></path><path d="M186.93 195.87C186.31 196.25 183.2 198.15 177.6 201.56C168.06 195.32 162.76 191.85 161.71 191.15C161.52 191.16 151.37 193.25 146.91 201.08C142.79 208.31 95.55 199.55 95.55 172.7C95.55 145.84 117.32 124.07 144.18 124.07C171.03 124.07 192.8 145.84 192.8 172.69C192.8 181.09 190.67 188.98 186.93 195.87Z" id="abIRth3LR"></path><path d="M41.27 221.32C18.48 221.32 0 202.84 0 180.05C0 157.26 18.48 138.78 41.27 138.78C54.45 138.78 66.19 144.96 73.75 154.58C79.26 161.6 112.59 221.32 112.59 221.32C98.33 221.32 56.45 221.32 41.27 221.32Z" id="dN4tyF9wK"></path><path d="" id="a4Erk2ijRC"></path><path d="" id="aPCLMN5Ni"></path><path d="" id="a21vTEyX91"></path><path d="" id="a3OOF4sT0B"></path><path d="M197.4 251.29C188.16 251.29 181.56 248.23 177.77 242.19C175.58 238.72 167.58 225.57 167.24 225.01C167.85 224.64 172.77 221.64 173.38 221.27C173.47 221.4 181.71 234.94 183.86 238.36C186.28 242.21 190.71 244.09 197.4 244.09C220.67 244.09 337.01 244.09 546.43 244.09L546.43 251.29L546.43 251.29C337.01 251.29 220.67 251.29 197.4 251.29Z" id="f3w081Eql"></path><path d="M165.64 195.63C166.03 196.27 168.01 199.45 171.58 205.19C177.21 201.77 180.34 199.88 180.96 199.5C173.08 185.42 139.89 126.35 133.79 118.59C124.29 106.49 109.53 98.71 92.96 98.71C64.3 98.71 41.06 121.95 41.06 150.61C41.06 179.27 62.66 221.31 91.32 221.31C99.83 221.31 104.45 221.21 139.58 221.31C141.55 221.32 143.43 221.27 145.24 221.16C145.8 220.82 148.64 219.1 153.73 216.01C150.25 210.36 148.32 207.23 147.93 206.6C146.95 205.04 147.42 202.99 148.97 202C150.53 201.02 152.59 201.49 153.57 203.05C153.96 203.68 155.92 206.85 159.43 212.55L165.88 208.64C162.35 202.97 160.39 199.82 159.99 199.19C159.01 197.63 159.48 195.57 161.04 194.59C162.6 193.61 164.65 194.07 165.64 195.63Z" id="ajatc0Uw8"></path><path d="M153.48 224.51L154.52 223.88C157.88 229.42 159.75 232.5 160.12 233.11C162.3 236.71 166.91 237.9 170.41 235.78C171.52 235.11 180.33 229.77 181.43 229.1C184.94 226.97 186.01 222.33 183.83 218.74C183.45 218.12 181.59 215.05 178.23 209.51L179.27 208.88L176.86 204.9L151.07 220.53L153.48 224.51Z" id="b1CtB1Ylfv"></path><path d="M518.76 166.25L529.56 196.96L540.36 166.25L552.15 166.25L535.94 207.15L522.96 207.15L506.75 166.25L518.76 166.25Z" id="a2PX8UooC"></path></defs><g><g><g><use xlink:href="#aqp1ppQqr" opacity="1" fill="#255897" fill-opacity="1"></use><g><use xlink:href="#aqp1ppQqr" opacity="1" fill-opacity="0" stroke="#000000" stroke-width="1" stroke-opacity="0"></use></g></g><g><use xlink:href="#g5IhFoBUkA" opacity="1" fill="#255897" fill-opacity="1"></use><g><use xlink:href="#g5IhFoBUkA" opacity="1" fill-opacity="0" stroke="#000000" stroke-width="1" stroke-opacity="0"></use></g></g><g><use xlink:href="#d2dg5AZ2Yp" opacity="1" fill="#255897" fill-opacity="1"></use><g><use xlink:href="#d2dg5AZ2Yp" opacity="1" fill-opacity="0" stroke="#000000" stroke-width="1" stroke-opacity="0"></use></g></g><g><use xlink:href="#d109jnCoZC" opacity="1" fill="#255897" fill-opacity="1"></use><g><use xlink:href="#d109jnCoZC" opacity="1" fill-opacity="0" stroke="#000000" stroke-width="1" stroke-opacity="0"></use></g></g><g><use xlink:href="#fkPXsd6M2" opacity="1" fill="#255897" fill-opacity="1"></use><g><use xlink:href="#fkPXsd6M2" opacity="1" fill-opacity="0" stroke="#000000" stroke-width="1" stroke-opacity="0"></use></g></g><g><use xlink:href="#bGCJP169v" opacity="1" fill="#255897" fill-opacity="1"></use><g><use xlink:href="#bGCJP169v" opacity="1" fill-opacity="0" stroke="#000000" stroke-width="1" stroke-opacity="0"></use></g></g><g><use xlink:href="#e1tb2t0tID" opacity="1" fill="#255897" fill-opacity="1"></use><g><use xlink:href="#e1tb2t0tID" opacity="1" fill-opacity="0" stroke="#000000" stroke-width="1" stroke-opacity="0"></use></g></g><g><use xlink:href="#abIRth3LR" opacity="1" fill="#8ec7e1" fill-opacity="1"></use><g><use xlink:href="#abIRth3LR" opacity="1" fill-opacity="0" stroke="#000000" stroke-width="1" stroke-opacity="0"></use></g></g><g><use xlink:href="#dN4tyF9wK" opacity="1" fill="#eab92c" fill-opacity="1"></use><g><use xlink:href="#dN4tyF9wK" opacity="1" fill-opacity="0" stroke="#000000" stroke-width="1" stroke-opacity="0"></use></g></g><g><use xlink:href="#a4Erk2ijRC" opacity="1" fill="#000000" fill-opacity="0"></use><g><use xlink:href="#a4Erk2ijRC" opacity="1" fill-opacity="0" stroke="#4365a8" stroke-width="14.17" stroke-opacity="1"></use></g></g><g><use xlink:href="#aPCLMN5Ni" opacity="1" fill="#000000" fill-opacity="0"></use><g><use xlink:href="#aPCLMN5Ni" opacity="1" fill-opacity="0" stroke="#4365a8" stroke-width="14.17" stroke-opacity="1"></use></g></g><g><use xlink:href="#a21vTEyX91" opacity="1" fill="#000000" fill-opacity="0"></use><g><use xlink:href="#a21vTEyX91" opacity="1" fill-opacity="0" stroke="#ffffff" stroke-width="14.17" stroke-opacity="1"></use></g></g><g><use xlink:href="#a3OOF4sT0B" opacity="1" fill="#000000" fill-opacity="0"></use><g><use xlink:href="#a3OOF4sT0B" opacity="1" fill-opacity="0" stroke="#ffffff" stroke-width="14.17" stroke-opacity="1"></use></g></g><g><use xlink:href="#f3w081Eql" opacity="1" fill="#255897" fill-opacity="1"></use><g><use xlink:href="#f3w081Eql" opacity="1" fill-opacity="0" stroke="#000000" stroke-width="1" stroke-opacity="0"></use></g></g><g><use xlink:href="#ajatc0Uw8" opacity="1" fill="#255897" fill-opacity="1"></use><g><use xlink:href="#ajatc0Uw8" opacity="1" fill-opacity="0" stroke="#000000" stroke-width="1" stroke-opacity="0"></use></g></g><g><use xlink:href="#b1CtB1Ylfv" opacity="1" fill="#255897" fill-opacity="1"></use><g><use xlink:href="#b1CtB1Ylfv" opacity="1" fill-opacity="0" stroke="#000000" stroke-width="1" stroke-opacity="0"></use></g></g><g><use xlink:href="#a2PX8UooC" opacity="1" fill="#255897" fill-opacity="1"></use><g><use xlink:href="#a2PX8UooC" opacity="1" fill-opacity="0" stroke="#000000" stroke-width="1" stroke-opacity="0"></use></g></g></g></g></svg>