<svg xmlns="http://www.w3.org/2000/svg" viewBox="0 0 2480 1015"><g transform="translate(995 601)"><rect width="490" height="413" rx="0" ry="0" fill="#fff" stroke="#444" stroke-width="2" stroke-dasharray="20, 20" pointer-events="none"/><text font-size="24" y="374" fill="#444" x="10" pointer-events="visible" font-family="'Open Sans'" transform="translate(15)"><tspan dy="0em" x="0">Embedded Application</tspan></text><text font-size="19" y="398" fill="#444" x="10" pointer-events="visible" font-family="'Open Sans'" transform="translate(15)"><tspan dy="0em" x="0">[Container]</tspan></text></g><g transform="translate(1370 1)"><rect width="490" height="413" rx="0" ry="0" fill="#fff" stroke="#ccc" stroke-width="2" stroke-dasharray="20, 20" pointer-events="none"/><text font-size="24" y="374" fill="#ccc" x="10" pointer-events="visible" font-family="'Open Sans'" transform="translate(15)"><tspan dy="0em" x="0">Standalone Application</tspan></text><text font-size="19" y="398" fill="#ccc" x="10" pointer-events="visible" font-family="'Open Sans'" transform="translate(15)"><tspan dy="0em" x="0">[Container]</tspan></text></g><g transform="translate(620 1)"><rect width="490" height="413" rx="0" ry="0" fill="#fff" stroke="#ccc" stroke-width="2" stroke-dasharray="20, 20" pointer-events="none"/><text font-size="24" y="374" fill="#ccc" x="10" pointer-events="visible" font-family="'Open Sans'" transform="translate(15)"><tspan dy="0em" x="0">CoAP Gateway</tspan></text><text font-size="19" y="398" fill="#ccc" x="10" pointer-events="visible" font-family="'Open Sans'" transform="translate(15)"><tspan dy="0em" x="0">[Container]</tspan></text></g><g transform="translate(640 21)"><rect rx="1" ry="1" stroke="#80b3cb" stroke-width="2" pointer-events="visiblePainted" fill="#8ec7e1" width="450" height="300"/><text font-size="34" y=".8em" font-weight="bold" text-anchor="middle" pointer-events="visible" font-family="'Open Sans'" transform="translate(225 90)"><tspan dy="0em" x="0">Protocol Adapter</tspan></text><text font-size="19" y=".8em" text-anchor="middle" font-family="'Open Sans'" transform="translate(225 130)"><tspan dy="0em" x="0">[Component]</tspan></text><text font-size="24" y=".8em" text-anchor="middle" font-family="'Open Sans'" transform="translate(225 180)"><tspan dy="0em" x="0">Translates OCF protocol</tspan></text><image/></g><g transform="translate(1015 621)"><rect rx="20" ry="20" stroke="#5fa117" stroke-width="2" pointer-events="visiblePainted" fill="#6ab31a" width="450" height="300"/><text font-size="34" y=".8em" font-weight="bold" text-anchor="middle" pointer-events="visible" font-family="'Open Sans'" transform="translate(225 75)"><tspan dy="0em" x="0">IoTivity-Lite</tspan></text><text font-size="19" y=".8em" text-anchor="middle" font-family="'Open Sans'" transform="translate(225 115)"><tspan dy="0em" x="0">[Component]</tspan></text><text font-size="24" y=".8em" text-anchor="middle" font-family="'Open Sans'" transform="translate(225 165)"><tspan dy="0em" x="0">Device library implementing OCF</tspan><tspan dy="1.2em" x="0">standard</tspan></text><image/></g><g transform="translate(1390 21)"><rect rx="1" ry="1" stroke="#80b3cb" stroke-width="2" pointer-events="visiblePainted" fill="#8ec7e1" width="450" height="300"/><text font-size="34" y=".8em" font-weight="bold" text-anchor="middle" pointer-events="visible" font-family="'Open Sans'" transform="translate(225 75)"><tspan dy="0em" x="0">CoAP Client</tspan></text><text font-size="19" y=".8em" text-anchor="middle" font-family="'Open Sans'" transform="translate(225 115)"><tspan dy="0em" x="0">[Component]</tspan></text><text font-size="24" y=".8em" text-anchor="middle" font-family="'Open Sans'" transform="translate(225 165)"><tspan dy="0em" x="0">Enables communication on the local</tspan><tspan dy="1.2em" x="0">network with the device</tspan></text><image/></g><g transform="translate(0 -1246)"><path stroke="#707070" stroke-width="2" stroke-dasharray="30, 30" fill="none" d="M1521 1567l-176 283"/><path fill="#707070" stroke="#707070" d="M1336.09329 1844.73753l-2.0933 22.26248 19.06597-11.68285z"/><path fill="none" d="M1521 1567l-176 283"/><g cursor="move"><g transform="translate(1433 1708.5)" pointer-events="none"><rect fill="#fff" rx="3" ry="3" stroke="#fff" stroke-width="20" width="171.2" height="61.8" transform="translate(-84.4 -30.9)"/><text font-size="24" y=".8em" text-anchor="middle" fill="#707070" font-family="'Open Sans'" transform="translate(0 -23.1)"><tspan dy="0em" x="0">Interacts localy</tspan><tspan dy="1.2em" x="0">with</tspan></text></g></g></g><g transform="translate(0 -1246)"><path stroke="#707070" stroke-width="2" stroke-dasharray="30, 30" fill="none" d="M1146 1867l-176-283"/><path fill="#707070" stroke="#707070" d="M978.06596 1578.68286L959 1567l2.0933 22.26248z"/><path fill="none" d="M1146 1867l-176-283"/><g cursor="move"><g transform="translate(1058 1725.5)" pointer-events="none"><rect fill="#fff" rx="3" ry="3" stroke="#fff" stroke-width="20" width="151.34999" height="61.8" transform="translate(-75 -30.9)"/><text font-size="24" y=".8em" text-anchor="middle" fill="#707070" font-family="'Open Sans'" transform="translate(0 -23.1)"><tspan dy="0em" x="0">Remotely</tspan><tspan dy="1.2em" x="0">controlled by</tspan></text></g></g></g></svg>