<svg xmlns="http://www.w3.org/2000/svg" xmlns:xlink="http://www.w3.org/1999/xlink" version="1.1" viewBox="0 0 2480 3508" style="background: #ffffff"><g id="v-3"  transform="matrix(1,0,0,1,0,0)"><g id="j_352"    transform="translate(20,3463)"><g id="v-5523"><text  id="v-5524" font-size="22px" y="0.8em" xml:space="preserve" font-weight="normal" text-anchor="start" fill="#777777" pointer-events="none" font-family="Open Sans" transform="matrix(1,0,0,1,0,0)" display="none"><tspan id="v-5525"  dy="0em" x="0">Wednesday, December 16, 2020, 10:49 AM Central European Standard Time</tspan></text></g></g><g id="j_351"    transform="translate(20,3417)"><g id="v-5519"><text  id="v-5520" font-size="36px" y="0.8em" xml:space="preserve" font-weight="normal" text-anchor="start" fill="#000000" pointer-events="none" font-family="Open Sans" transform="matrix(1,0,0,1,0,0)" display="none"><tspan id="v-5521"  dy="0em" x="0">Component diagram for IoT System - Standalone Application</tspan></text></g></g><g id="j_339"    transform="translate(620,1247)" style=""><g id="v-5348"><rect  id="v-5349" width="490" height="1013" rx="0" ry="0" fill="#ffffff" stroke="#444444" stroke-width="2" stroke-dasharray="20,20" pointer-events="none"></rect><text  id="v-5350" font-size="24px" y="974" xml:space="preserve" font-weight="normal" fill="#444444" x="10" text-anchor="start" pointer-events="visible" font-family="Open Sans" transform="matrix(1,0,0,1,15,0)"><tspan id="v-5352"  dy="0em" x="0">Standalone Application</tspan></text><text  id="v-5351" font-size="19px" y="998" xml:space="preserve" font-weight="normal" fill="#444444" x="10" text-anchor="start" pointer-events="visible" font-family="Open Sans" transform="matrix(1,0,0,1,15,0)"><tspan id="v-5353"  dy="0em" x="0">[Container]</tspan></text></g></g><g id="j_345"    transform="translate(995,2564)" style=""><g id="v-5407"><rect  id="v-5408" width="490" height="413" rx="0" ry="0" fill="#ffffff" stroke="#cccccc" stroke-width="2" stroke-dasharray="20,20" pointer-events="none"></rect><text  id="v-5409" font-size="24px" y="374" xml:space="preserve" font-weight="normal" fill="#cccccc" x="10" text-anchor="start" pointer-events="visible" font-family="Open Sans" transform="matrix(1,0,0,1,15,0)"><tspan id="v-5411"  dy="0em" x="0">Embedded Application</tspan></text><text  id="v-5410" font-size="19px" y="398" xml:space="preserve" font-weight="normal" fill="#cccccc" x="10" text-anchor="start" pointer-events="visible" font-family="Open Sans" transform="matrix(1,0,0,1,15,0)"><tspan id="v-5412"  dy="0em" x="0">[Container]</tspan></text></g></g><g id="j_343"    transform="translate(1370,1247)" style=""><g id="v-5386"><rect  id="v-5387" width="490" height="413" rx="0" ry="0" fill="#ffffff" stroke="#cccccc" stroke-width="2" stroke-dasharray="20,20" pointer-events="none"></rect><text  id="v-5388" font-size="24px" y="374" xml:space="preserve" font-weight="normal" fill="#cccccc" x="10" text-anchor="start" pointer-events="visible" font-family="Open Sans" transform="matrix(1,0,0,1,15,0)"><tspan id="v-5390"  dy="0em" x="0">gRPC Gateway</tspan></text><text  id="v-5389" font-size="19px" y="398" xml:space="preserve" font-weight="normal" fill="#cccccc" x="10" text-anchor="start" pointer-events="visible" font-family="Open Sans" transform="matrix(1,0,0,1,15,0)"><tspan id="v-5391"  dy="0em" x="0">[Container]</tspan></text></g></g><g id="j_341"    transform="translate(1370,1847)" style=""><g id="v-5366"><rect  id="v-5367" width="490" height="413" rx="0" ry="0" fill="#ffffff" stroke="#cccccc" stroke-width="2" stroke-dasharray="20,20" pointer-events="none"></rect><text  id="v-5368" font-size="24px" y="374" xml:space="preserve" font-weight="normal" fill="#cccccc" x="10" text-anchor="start" pointer-events="visible" font-family="Open Sans" transform="matrix(1,0,0,1,15,0)"><tspan id="v-5370"  dy="0em" x="0">CoAP Gateway</tspan></text><text  id="v-5369" font-size="19px" y="398" xml:space="preserve" font-weight="normal" fill="#cccccc" x="10" text-anchor="start" pointer-events="visible" font-family="Open Sans" transform="matrix(1,0,0,1,15,0)"><tspan id="v-5371"  dy="0em" x="0">[Container]</tspan></text></g></g><g id="j_340"    transform="translate(1390,1867)" style=""><g  id="v-5355" style="opacity: 1;"><rect  id="v-5356" rx="1" ry="1" stroke="#80b3cb" stroke-width="2" pointer-events="visiblePainted" fill="#8ec7e1" width="450" height="300"></rect><text  id="v-5357" font-size="34" y="0.8em" xml:space="preserve" font-weight="bold" text-anchor="middle" pointer-events="visible" font-family="Open Sans" fill="#000000" transform="matrix(1,0,0,1,225,90)"><tspan id="v-5362"  dy="0em" x="0">Protocol Adapter</tspan></text><text  id="v-5358" font-size="19" y="0.8em" xml:space="preserve" text-anchor="middle" font-family="Open Sans" fill="#000000" transform="matrix(1,0,0,1,225,130)"><tspan id="v-5363"  dy="0em" x="0">[Component]</tspan></text><text  id="v-5359" font-size="24" y="0.8em" xml:space="preserve" text-anchor="middle" font-family="Open Sans" fill="#000000" transform="matrix(1,0,0,1,225,180)"><tspan id="v-5364"  dy="0em" x="0">Translates OCF protocol</tspan></text><text  id="v-5360" font-weight="bold" text-anchor="middle" font-family="Open Sans" fill="#000000" font-size="24" transform="matrix(1,0,0,1,225,270)" display="none"></text><image  id="v-5361"></image></g></g><g id="j_342"    transform="translate(1390,1267)" style=""><g  id="v-5375" style="opacity: 1;"><rect  id="v-5376" rx="1" ry="1" stroke="#80b3cb" stroke-width="2" pointer-events="visiblePainted" fill="#8ec7e1" width="450" height="300"></rect><text  id="v-5377" font-size="34" y="0.8em" xml:space="preserve" font-weight="bold" text-anchor="middle" pointer-events="visible" font-family="Open Sans" fill="#000000" transform="matrix(1,0,0,1,225,90)"><tspan id="v-5382"  dy="0em" x="0">Protocol Adapter</tspan></text><text  id="v-5378" font-size="19" y="0.8em" xml:space="preserve" text-anchor="middle" font-family="Open Sans" fill="#000000" transform="matrix(1,0,0,1,225,130)"><tspan id="v-5383"  dy="0em" x="0">[Component]</tspan></text><text  id="v-5379" font-size="24" y="0.8em" xml:space="preserve" text-anchor="middle" font-family="Open Sans" fill="#000000" transform="matrix(1,0,0,1,225,180)"><tspan id="v-5384"  dy="0em" x="0">Translates public gRPC protocol</tspan></text><text  id="v-5380" font-weight="bold" text-anchor="middle" font-family="Open Sans" fill="#000000" font-size="24" transform="matrix(1,0,0,1,225,270)" display="none"></text><image  id="v-5381"></image></g></g><g id="j_344"    transform="translate(1015,2584)" style="" ><g  id="v-5395" style="opacity: 1;"><rect  id="v-5396" rx="20" ry="20" stroke="#5fa117" stroke-width="2" pointer-events="visiblePainted" fill="#6ab31a" width="450" height="300"></rect><text  id="v-5397" font-size="34" y="0.8em" xml:space="preserve" font-weight="bold" text-anchor="middle" pointer-events="visible" font-family="Open Sans" fill="#000000" transform="matrix(1,0,0,1,225,75)"><tspan id="v-5402"  dy="0em" x="0">IoTivity-Lite</tspan></text><text  id="v-5398" font-size="19" y="0.8em" xml:space="preserve" text-anchor="middle" font-family="Open Sans" fill="#000000" transform="matrix(1,0,0,1,225,115)"><tspan id="v-5403"  dy="0em" x="0">[Component]</tspan></text><text  id="v-5399" font-size="24" y="0.8em" xml:space="preserve" text-anchor="middle" font-family="Open Sans" fill="#000000" transform="matrix(1,0,0,1,225,165)"><tspan id="v-5404"  dy="0em" x="0">Device library implementing OCF</tspan><tspan id="v-5405"  dy="1.2em" x="0">standard</tspan></text><text  id="v-5400" font-weight="bold" text-anchor="middle" font-family="Open Sans" fill="#000000" font-size="24" transform="matrix(1,0,0,1,225,270)" y="0.8em" xml:space="preserve" display="none"><tspan id="v-5413"  dy="0em" x="0">#</tspan></text><image  id="v-5401"></image></g></g><g id="j_346"    transform="translate(640,1267)" style="" ><g  id="v-5417" style="opacity: 1;"><rect  id="v-5418" rx="1" ry="1" stroke="#80b3cb" stroke-width="2" pointer-events="visiblePainted" fill="#8ec7e1" width="450" height="300"></rect><text  id="v-5419" font-size="34" y="0.8em" xml:space="preserve" font-weight="bold" text-anchor="middle" pointer-events="visible" font-family="Open Sans" fill="#000000" transform="matrix(1,0,0,1,225,75)"><tspan id="v-5424"  dy="0em" x="0">gRPC Client</tspan></text><text  id="v-5420" font-size="19" y="0.8em" xml:space="preserve" text-anchor="middle" font-family="Open Sans" fill="#000000" transform="matrix(1,0,0,1,225,115)"><tspan id="v-5425"  dy="0em" x="0">[Component]</tspan></text><text  id="v-5421" font-size="24" y="0.8em" xml:space="preserve" text-anchor="middle" font-family="Open Sans" fill="#000000" transform="matrix(1,0,0,1,225,165)"><tspan id="v-5426"  dy="0em" x="0">Enables remote communication with</tspan><tspan id="v-5427"  dy="1.2em" x="0">the device</tspan></text><text  id="v-5422" font-weight="bold" text-anchor="middle" font-family="Open Sans" fill="#000000" font-size="24" transform="matrix(1,0,0,1,225,270)" y="0.8em" xml:space="preserve" display="none"><tspan id="v-5428"  dy="0em" x="0">#</tspan></text><image  id="v-5423"></image></g></g><g id="j_347"    transform="translate(640,1867)" style="" ><g  id="v-5432" style="opacity: 1;"><rect  id="v-5433" rx="1" ry="1" stroke="#80b3cb" stroke-width="2" pointer-events="visiblePainted" fill="#8ec7e1" width="450" height="300"></rect><text  id="v-5434" font-size="34" y="0.8em" xml:space="preserve" font-weight="bold" text-anchor="middle" pointer-events="visible" font-family="Open Sans" fill="#000000" transform="matrix(1,0,0,1,225,75)"><tspan id="v-5439"  dy="0em" x="0">CoAP Client</tspan></text><text  id="v-5435" font-size="19" y="0.8em" xml:space="preserve" text-anchor="middle" font-family="Open Sans" fill="#000000" transform="matrix(1,0,0,1,225,115)"><tspan id="v-5440"  dy="0em" x="0">[Component]</tspan></text><text  id="v-5436" font-size="24" y="0.8em" xml:space="preserve" text-anchor="middle" font-family="Open Sans" fill="#000000" transform="matrix(1,0,0,1,225,165)"><tspan id="v-5441"  dy="0em" x="0">Enables communication on the local</tspan><tspan id="v-5442"  dy="1.2em" x="0">network with the device</tspan></text><text  id="v-5437" font-weight="bold" text-anchor="middle" font-family="Open Sans" fill="#000000" font-size="24" transform="matrix(1,0,0,1,225,270)" y="0.8em" xml:space="preserve" display="none"><tspan id="v-5443"  dy="0em" x="0">#</tspan></text><image  id="v-5438"></image></g></g><g id="j_348"   ><path  stroke="#707070" id="v-5464" stroke-width="2" stroke-dasharray="30 30" fill="none" d="M 943 2167 1152 2566" style="opacity: 1;"></path><path  fill="black" stroke="black" transform="translate(943,2167) scale(1,1) rotate(62.400237429429865)"></path><path  fill="#707070" stroke="#707070" id="v-5466" d="M 20 0 L 0 10 L 20 20 z" transform="translate(1152.137939453125,2588.6328125) scale(1,1) rotate(-117.5997473002931)" style="opacity: 1;"></path><path  id="v-5465" fill="none" d="M 943 2167 1152 2566" style=""></path><title ></title><g ><g  id="v-5451" label-idx="0" cursor="move" transform="translate(1047.5, 2366.5)" style="opacity: 1;"><rect id="v-5453" fill="#ffffff" rx="3" ry="3" stroke="#ffffff" stroke-width="20px" pointer-events="none" width="171.1999969482422" height="61.79999923706055" transform="matrix(1,0,0,1,-84.4000015258789,-30.899999618530273)"></rect><text id="v-5452" font-size="24px" y="0.8em" xml:space="preserve" text-anchor="middle" pointer-events="none" fill="#707070" font-family="Open Sans" font-weight="normal" transform="matrix(1,0,0,1,0,-23.100000381469727)"><tspan id="v-5454"  dy="0em" x="0">Interacts localy</tspan><tspan id="v-5455"  dy="1.2em" x="0">with</tspan></text></g><g  id="v-5456" label-idx="1" cursor="move" transform="translate(1047.5, 2409.7)" style="opacity: 1;"><rect id="v-5458" fill="#ffffff" rx="3" ry="3" pointer-events="none" width="0" height="0" transform="matrix(1,0,0,1,0,0)"></rect><text id="v-5457" font-size="19px" y="0.8em" display="none" xml:space="preserve" text-anchor="middle" pointer-events="none" fill="#707070" font-family="Open Sans" font-weight="normal" transform="matrix(1,0,0,1,0,0)"><tspan id="v-5459"  dy="0em" x="0" style="fill-opacity: 0; stroke-opacity: 0;">-</tspan></text></g><g  id="v-5460" label-idx="2" cursor="move" transform="translate(1047.5, 2433.7)" style="opacity: 1;"><rect id="v-5462" fill="#ffffff" rx="3" ry="3" pointer-events="none"  display="none" width="0" height="0" transform="matrix(1,0,0,1,0,0)"></rect><text id="v-5461" font-size="19px" y="0.8em" display="none" xml:space="preserve" text-anchor="middle" pointer-events="none" fill="#707070" font-family="Open Sans" font-weight="normal"  transform="matrix(1,0,0,1,0,0)"><tspan id="v-5463"  dy="0em" x="0" style="fill-opacity: 0; stroke-opacity: 0;">-</tspan></text></g></g><g  display="none"></g><g  id="v-5468" display="none"><g  id="v-5448"><path  end="source" d="M 26 0 L 0 13 L 26 26 z"></path></g><g  id="v-5449"><path  end="target" d="M 26 0 L 0 13 L 26 26 z"></path></g></g><g  id="v-5467" display="none"><g  id="v-5447" transform="translate(961.560302734375, 2202.433349609375) "><g  event="remove"><circle r="11"></circle><path transform="scale(.8) translate(-16, -16)" d="M24.778,21.419 19.276,15.917 24.777,10.415 21.949,7.585 16.447,13.087 10.945,7.585 8.117,10.415 13.618,15.917 8.116,21.419 10.946,24.248 16.447,18.746 21.948,24.248z"></path><title>Remove link.</title></g><g  event="link:options"><circle r="11" transform="translate(25)"></circle><path fill="white" transform="scale(.55) translate(29, -16)" d="M31.229,17.736c0.064-0.571,0.104-1.148,0.104-1.736s-0.04-1.166-0.104-1.737l-4.377-1.557c-0.218-0.716-0.504-1.401-0.851-2.05l1.993-4.192c-0.725-0.91-1.549-1.734-2.458-2.459l-4.193,1.994c-0.647-0.347-1.334-0.632-2.049-0.849l-1.558-4.378C17.165,0.708,16.588,0.667,16,0.667s-1.166,0.041-1.737,0.105L12.707,5.15c-0.716,0.217-1.401,0.502-2.05,0.849L6.464,4.005C5.554,4.73,4.73,5.554,4.005,6.464l1.994,4.192c-0.347,0.648-0.632,1.334-0.849,2.05l-4.378,1.557C0.708,14.834,0.667,15.412,0.667,16s0.041,1.165,0.105,1.736l4.378,1.558c0.217,0.715,0.502,1.401,0.849,2.049l-1.994,4.193c0.725,0.909,1.549,1.733,2.459,2.458l4.192-1.993c0.648,0.347,1.334,0.633,2.05,0.851l1.557,4.377c0.571,0.064,1.148,0.104,1.737,0.104c0.588,0,1.165-0.04,1.736-0.104l1.558-4.377c0.715-0.218,1.399-0.504,2.049-0.851l4.193,1.993c0.909-0.725,1.733-1.549,2.458-2.458l-1.993-4.193c0.347-0.647,0.633-1.334,0.851-2.049L31.229,17.736zM16,20.871c-2.69,0-4.872-2.182-4.872-4.871c0-2.69,2.182-4.872,4.872-4.872c2.689,0,4.871,2.182,4.871,4.872C20.871,18.689,18.689,20.871,16,20.871z"></path><title>Link options.</title></g></g></g></g><g id="j_349"   ><path  stroke="#707070" id="v-5488" stroke-width="2" stroke-dasharray="30 30" fill="none" d="M 1090 1417 1370 1417" style="opacity: 1;"></path><path  fill="black" stroke="black" transform="translate(1090,1417) scale(1,1) rotate(0)"></path><path  fill="#707070" stroke="#707070" id="v-5490" d="M 20 0 L 0 10 L 20 20 z" transform="translate(1390,1427) scale(1,1) rotate(-180)" style="opacity: 1;"></path><path  id="v-5489" fill="none" d="M 1090 1417 1370 1417" style=""></path><title ></title><g ><g  id="v-5476" label-idx="0" cursor="move" transform="translate(1230, 1417)" style="opacity: 1;"><rect id="v-5478" fill="#ffffff" rx="3" ry="3" stroke="#ffffff" stroke-width="20px" pointer-events="none" width="153.64999389648438" height="32.99999809265137" transform="matrix(1,0,0,1,-76.5999984741211,-16.5)"></rect><text id="v-5477" font-size="24px" y="0.8em" xml:space="preserve" text-anchor="middle" pointer-events="none" fill="#707070" font-family="Open Sans" font-weight="normal" transform="matrix(1,0,0,1,0,-8.699999809265137)"><tspan id="v-5479"  dy="0em" x="0">Interacts with</tspan></text></g><g  id="v-5480" label-idx="1" cursor="move" transform="translate(1230, 1448.2)" style="opacity: 1;"><rect id="v-5482" fill="#ffffff" rx="3" ry="3" pointer-events="none" width="0" height="0" transform="matrix(1,0,0,1,0,0)"></rect><text id="v-5481" font-size="19px" y="0.8em" display="none" xml:space="preserve" text-anchor="middle" pointer-events="none" fill="#707070" font-family="Open Sans" font-weight="normal" transform="matrix(1,0,0,1,0,0)"><tspan id="v-5483"  dy="0em" x="0" style="fill-opacity: 0; stroke-opacity: 0;">-</tspan></text></g><g  id="v-5484" label-idx="2" cursor="move" transform="translate(1230, 1472.2)" style="opacity: 1;"><rect id="v-5486" fill="#ffffff" rx="3" ry="3" pointer-events="none"  display="none" width="0" height="0" transform="matrix(1,0,0,1,0,0)"></rect><text id="v-5485" font-size="19px" y="0.8em" display="none" xml:space="preserve" text-anchor="middle" pointer-events="none" fill="#707070" font-family="Open Sans" font-weight="normal"  transform="matrix(1,0,0,1,0,0)"><tspan id="v-5487"  dy="0em" x="0" style="fill-opacity: 0; stroke-opacity: 0;">-</tspan></text></g></g><g  display="none"></g><g  id="v-5492" display="none"><g  id="v-5473"><path  end="source" d="M 26 0 L 0 13 L 26 26 z"></path></g><g  id="v-5474"><path  end="target" d="M 26 0 L 0 13 L 26 26 z"></path></g></g><g  id="v-5491" display="none"><g  id="v-5472" transform="translate(1130, 1417) "><g  event="remove"><circle r="11"></circle><path transform="scale(.8) translate(-16, -16)" d="M24.778,21.419 19.276,15.917 24.777,10.415 21.949,7.585 16.447,13.087 10.945,7.585 8.117,10.415 13.618,15.917 8.116,21.419 10.946,24.248 16.447,18.746 21.948,24.248z"></path><title>Remove link.</title></g><g  event="link:options"><circle r="11" transform="translate(25)"></circle><path fill="white" transform="scale(.55) translate(29, -16)" d="M31.229,17.736c0.064-0.571,0.104-1.148,0.104-1.736s-0.04-1.166-0.104-1.737l-4.377-1.557c-0.218-0.716-0.504-1.401-0.851-2.05l1.993-4.192c-0.725-0.91-1.549-1.734-2.458-2.459l-4.193,1.994c-0.647-0.347-1.334-0.632-2.049-0.849l-1.558-4.378C17.165,0.708,16.588,0.667,16,0.667s-1.166,0.041-1.737,0.105L12.707,5.15c-0.716,0.217-1.401,0.502-2.05,0.849L6.464,4.005C5.554,4.73,4.73,5.554,4.005,6.464l1.994,4.192c-0.347,0.648-0.632,1.334-0.849,2.05l-4.378,1.557C0.708,14.834,0.667,15.412,0.667,16s0.041,1.165,0.105,1.736l4.378,1.558c0.217,0.715,0.502,1.401,0.849,2.049l-1.994,4.193c0.725,0.909,1.549,1.733,2.459,2.458l4.192-1.993c0.648,0.347,1.334,0.633,2.05,0.851l1.557,4.377c0.571,0.064,1.148,0.104,1.737,0.104c0.588,0,1.165-0.04,1.736-0.104l1.558-4.377c0.715-0.218,1.399-0.504,2.049-0.851l4.193,1.993c0.909-0.725,1.733-1.549,2.458-2.458l-1.993-4.193c0.347-0.647,0.633-1.334,0.851-2.049L31.229,17.736zM16,20.871c-2.69,0-4.872-2.182-4.872-4.871c0-2.69,2.182-4.872,4.872-4.872c2.689,0,4.871,2.182,4.871,4.872C20.871,18.689,18.689,20.871,16,20.871z"></path><title>Link options.</title></g></g></g></g><g id="j_350"   ><path  stroke="#707070" id="v-5513" stroke-width="2" stroke-dasharray="30 30" fill="none" d="M 1318 2584 1527 2185" style="opacity: 1;"></path><path  fill="black" stroke="black" transform="translate(1318,2584) scale(1,1) rotate(-62.4002526997069)"></path><path  fill="#707070" stroke="#707070" id="v-5515" d="M 20 0 L 0 10 L 20 20 z" transform="translate(1544.862060546875,2171.6328125) scale(1,1) rotate(-242.4002526997069)" style="opacity: 1;"></path><path  id="v-5514" fill="none" d="M 1318 2584 1527 2185" style=""></path><title ></title><g ><g  id="v-5500" label-idx="0" cursor="move" transform="translate(1422.5, 2384.5)" style="opacity: 1;"><rect id="v-5502" fill="#ffffff" rx="3" ry="3" stroke="#ffffff" stroke-width="20px" pointer-events="none" width="151.34999084472656" height="61.79999923706055" transform="matrix(1,0,0,1,-75,-30.899999618530273)"></rect><text id="v-5501" font-size="24px" y="0.8em" xml:space="preserve" text-anchor="middle" pointer-events="none" fill="#707070" font-family="Open Sans" font-weight="normal" transform="matrix(1,0,0,1,0,-23.100000381469727)"><tspan id="v-5503"  dy="0em" x="0">Remotely</tspan><tspan id="v-5504"  dy="1.2em" x="0">controlled by</tspan></text></g><g  id="v-5505" label-idx="1" cursor="move" transform="translate(1422.5, 2427.7)" style="opacity: 1;"><rect id="v-5507" fill="#ffffff" rx="3" ry="3" pointer-events="none" width="0" height="0" transform="matrix(1,0,0,1,0,0)"></rect><text id="v-5506" font-size="19px" y="0.8em" display="none" xml:space="preserve" text-anchor="middle" pointer-events="none" fill="#707070" font-family="Open Sans" font-weight="normal" transform="matrix(1,0,0,1,0,0)"><tspan id="v-5508"  dy="0em" x="0" style="fill-opacity: 0; stroke-opacity: 0;">-</tspan></text></g><g  id="v-5509" label-idx="2" cursor="move" transform="translate(1422.5, 2451.7)" style="opacity: 1;"><rect id="v-5511" fill="#ffffff" rx="3" ry="3" pointer-events="none"  display="none" width="0" height="0" transform="matrix(1,0,0,1,0,0)"></rect><text id="v-5510" font-size="19px" y="0.8em" display="none" xml:space="preserve" text-anchor="middle" pointer-events="none" fill="#707070" font-family="Open Sans" font-weight="normal"  transform="matrix(1,0,0,1,0,0)"><tspan id="v-5512"  dy="0em" x="0" style="fill-opacity: 0; stroke-opacity: 0;">-</tspan></text></g></g><g  display="none"></g><g  id="v-5517" display="none"><g  id="v-5497"><path  end="source" d="M 26 0 L 0 13 L 26 26 z"></path></g><g  id="v-5498"><path  end="target" d="M 26 0 L 0 13 L 26 26 z"></path></g></g><g  id="v-5516" display="none"><g  id="v-5496" transform="translate(1336.560302734375, 2548.566650390625) "><g  event="remove"><circle r="11"></circle><path transform="scale(.8) translate(-16, -16)" d="M24.778,21.419 19.276,15.917 24.777,10.415 21.949,7.585 16.447,13.087 10.945,7.585 8.117,10.415 13.618,15.917 8.116,21.419 10.946,24.248 16.447,18.746 21.948,24.248z"></path><title>Remove link.</title></g><g  event="link:options"><circle r="11" transform="translate(25)"></circle><path fill="white" transform="scale(.55) translate(29, -16)" d="M31.229,17.736c0.064-0.571,0.104-1.148,0.104-1.736s-0.04-1.166-0.104-1.737l-4.377-1.557c-0.218-0.716-0.504-1.401-0.851-2.05l1.993-4.192c-0.725-0.91-1.549-1.734-2.458-2.459l-4.193,1.994c-0.647-0.347-1.334-0.632-2.049-0.849l-1.558-4.378C17.165,0.708,16.588,0.667,16,0.667s-1.166,0.041-1.737,0.105L12.707,5.15c-0.716,0.217-1.401,0.502-2.05,0.849L6.464,4.005C5.554,4.73,4.73,5.554,4.005,6.464l1.994,4.192c-0.347,0.648-0.632,1.334-0.849,2.05l-4.378,1.557C0.708,14.834,0.667,15.412,0.667,16s0.041,1.165,0.105,1.736l4.378,1.558c0.217,0.715,0.502,1.401,0.849,2.049l-1.994,4.193c0.725,0.909,1.549,1.733,2.459,2.458l4.192-1.993c0.648,0.347,1.334,0.633,2.05,0.851l1.557,4.377c0.571,0.064,1.148,0.104,1.737,0.104c0.588,0,1.165-0.04,1.736-0.104l1.558-4.377c0.715-0.218,1.399-0.504,2.049-0.851l4.193,1.993c0.909-0.725,1.733-1.549,2.458-2.458l-1.993-4.193c0.347-0.647,0.633-1.334,0.851-2.049L31.229,17.736zM16,20.871c-2.69,0-4.872-2.182-4.872-4.871c0-2.69,2.182-4.872,4.872-4.872c2.689,0,4.871,2.182,4.871,4.872C20.871,18.689,18.689,20.871,16,20.871z"></path><title>Link options.</title></g></g></g></g></g><defs id="v-4"></defs></svg>