<svg xmlns="http://www.w3.org/2000/svg" viewBox="0 0 2480 1615"><g transform="translate(1005 601)"><rect width="490" height="413" rx="0" ry="0" fill="#fff" stroke="#444" stroke-width="2" stroke-dasharray="20, 20" pointer-events="none"/><text font-size="24" y="374" fill="#444" x="10" pointer-events="visible" font-family="'Open Sans'" transform="translate(15)"><tspan dy="0em" x="0">gRPC Gateway</tspan></text><text font-size="19" y="398" fill="#444" x="10" pointer-events="visible" font-family="'Open Sans'" transform="translate(15)"><tspan dy="0em" x="0">[Container]</tspan></text></g><g transform="translate(1005 1)"><rect width="490" height="413" rx="0" ry="0" fill="#fff" stroke="#ccc" stroke-width="2" stroke-dasharray="20, 20" pointer-events="none"/><text font-size="24" y="374" fill="#ccc" x="10" pointer-events="visible" font-family="'Open Sans'" transform="translate(15)"><tspan dy="0em" x="0">Standalone Application</tspan></text><text font-size="19" y="398" fill="#ccc" x="10" pointer-events="visible" font-family="'Open Sans'" transform="translate(15)"><tspan dy="0em" x="0">[Container]</tspan></text></g><g transform="translate(1005 1201)"><rect width="490" height="413" rx="0" ry="0" fill="#fff" stroke="#ccc" stroke-width="2" stroke-dasharray="20, 20" pointer-events="none"/><text font-size="24" y="374" fill="#ccc" x="10" pointer-events="visible" font-family="'Open Sans'" transform="translate(15)"><tspan dy="0em" x="0">Resource Aggregate</tspan></text><text font-size="19" y="398" fill="#ccc" x="10" pointer-events="visible" font-family="'Open Sans'" transform="translate(15)"><tspan dy="0em" x="0">[Container]</tspan></text></g><g transform="translate(255 1201)"><rect width="490" height="413" rx="0" ry="0" fill="#fff" stroke="#ccc" stroke-width="2" stroke-dasharray="20, 20" pointer-events="none"/><text font-size="24" y="374" fill="#ccc" x="10" pointer-events="visible" font-family="'Open Sans'" transform="translate(15)"><tspan dy="0em" x="0">Resource Directory</tspan></text><text font-size="19" y="398" fill="#ccc" x="10" pointer-events="visible" font-family="'Open Sans'" transform="translate(15)"><tspan dy="0em" x="0">[Container]</tspan></text></g><g transform="translate(275 1221)"><rect rx="1" ry="1" stroke="#80b3cb" stroke-width="2" pointer-events="visiblePainted" fill="#8ec7e1" width="450" height="300"/><text font-size="34" y=".8em" font-weight="bold" text-anchor="middle" pointer-events="visible" font-family="'Open Sans'" transform="translate(225 75)"><tspan dy="0em" x="0">Projections Component</tspan></text><text font-size="19" y=".8em" text-anchor="middle" font-family="'Open Sans'" transform="translate(225 115)"><tspan dy="0em" x="0">[Component]</tspan></text><text font-size="24" y=".8em" text-anchor="middle" font-family="'Open Sans'" transform="translate(225 165)"><tspan dy="0em" x="0">Builds and maintains device and</tspan><tspan dy="1.2em" x="0">resource projections</tspan></text><image/></g><g transform="translate(1025 621)"><rect rx="1" ry="1" stroke="#80b3cb" stroke-width="2" pointer-events="visiblePainted" fill="#8ec7e1" width="450" height="300"/><text font-size="34" y=".8em" font-weight="bold" text-anchor="middle" pointer-events="visible" font-family="'Open Sans'" transform="translate(225 90)"><tspan dy="0em" x="0">Protocol Adapter</tspan></text><text font-size="19" y=".8em" text-anchor="middle" font-family="'Open Sans'" transform="translate(225 130)"><tspan dy="0em" x="0">[Component]</tspan></text><text font-size="24" y=".8em" text-anchor="middle" font-family="'Open Sans'" transform="translate(225 180)"><tspan dy="0em" x="0">Translates public gRPC protocol</tspan></text><image/></g><g transform="translate(1025 1221)"><rect rx="1" ry="1" stroke="#80b3cb" stroke-width="2" pointer-events="visiblePainted" fill="#8ec7e1" width="450" height="300"/><text font-size="34" y=".8em" font-weight="bold" text-anchor="middle" pointer-events="visible" font-family="'Open Sans'" transform="translate(225 90)"><tspan dy="0em" x="0">Command Handler</tspan></text><text font-size="19" y=".8em" text-anchor="middle" font-family="'Open Sans'" transform="translate(225 130)"><tspan dy="0em" x="0">[Component]</tspan></text><text font-size="24" y=".8em" text-anchor="middle" font-family="'Open Sans'" transform="translate(225 180)"><tspan dy="0em" x="0">Validates received commands</tspan></text><image/></g><g transform="translate(1775 621)"><rect rx="1" ry="1" stroke="#c7c7c7" stroke-width="2" pointer-events="visiblePainted" fill="#ddd" width="450" height="300"/><text font-size="34" y=".8em" font-weight="bold" text-anchor="middle" pointer-events="visible" font-family="'Open Sans'" transform="translate(225 75)"><tspan dy="0em" x="0">Authorization Server</tspan></text><text font-size="19" y=".8em" text-anchor="middle" font-family="'Open Sans'" transform="translate(225 115)"><tspan dy="0em" x="0">[Software System]</tspan></text><text font-size="24" y=".8em" text-anchor="middle" font-family="'Open Sans'" transform="translate(225 165)"><tspan dy="0em" x="0">An OAuth2.0 server authorizing and</tspan><tspan dy="1.2em" x="0">storing users and devices identities</tspan></text><image/></g><g transform="translate(1025 21)"><rect rx="1" ry="1" stroke="#80b3cb" stroke-width="2" pointer-events="visiblePainted" fill="#8ec7e1" width="450" height="300"/><text font-size="34" y=".8em" font-weight="bold" text-anchor="middle" pointer-events="visible" font-family="'Open Sans'" transform="translate(225 75)"><tspan dy="0em" x="0">gRPC Client</tspan></text><text font-size="19" y=".8em" text-anchor="middle" font-family="'Open Sans'" transform="translate(225 115)"><tspan dy="0em" x="0">[Component]</tspan></text><text font-size="24" y=".8em" text-anchor="middle" font-family="'Open Sans'" transform="translate(225 165)"><tspan dy="0em" x="0">Enables remote communication with</tspan><tspan dy="1.2em" x="0">the device</tspan></text><image/></g><g transform="translate(0 -946)"><path stroke="#707070" stroke-width="2" stroke-dasharray="30, 30" fill="none" d="M1250 1867v280"/><path fill="#707070" stroke="#707070" d="M1240 2147l10 20 10-20z"/><path fill="none" d="M1250 1867v280"/><g cursor="move"><g transform="translate(1250 2007)" pointer-events="none"><rect fill="#fff" rx="3" ry="3" stroke="#fff" stroke-width="20" width="131.89999" height="33" transform="translate(-65.7 -16.5)"/><text font-size="24" y=".8em" text-anchor="middle" fill="#707070" font-family="'Open Sans'" transform="translate(0 -8.7)"><tspan dy="0em" x="0">Commands</tspan></text></g></g></g><g transform="translate(0 -946)"><path stroke="#707070" stroke-width="2" stroke-dasharray="30, 30" fill="none" d="M1063 1867l-359 288"/><path fill="#707070" stroke="#707070" d="M697.37043 2146.69727L688 2166.99987l21.86433-4.68522z"/><path fill="none" d="M1063 1867l-359 288"/><g cursor="move"><g transform="translate(883.5 2011)" pointer-events="none"><rect fill="#fff" rx="3" ry="3" stroke="#fff" stroke-width="20" width="91.04999" height="33" transform="translate(-45.3 -16.5)"/><text font-size="24" y=".8em" text-anchor="middle" fill="#707070" font-family="'Open Sans'" transform="translate(0 -8.7)"><tspan dy="0em" x="0">Queries</tspan></text></g></g></g><g transform="translate(0 -946)"><path stroke="#707070" stroke-width="2" stroke-dasharray="30, 30" fill="none" d="M1475 1717h280"/><path fill="#707070" stroke="#707070" d="M1755 1727l20-10-20-10z"/><path fill="none" d="M1475 1717h280"/><g cursor="move"><g transform="translate(1615 1717)" pointer-events="none"><rect fill="#fff" rx="3" ry="3" stroke="#fff" stroke-width="20" width="167.25" height="61.8" transform="translate(-82.8 -30.9)"/><text font-size="24" y=".8em" text-anchor="middle" fill="#707070" font-family="'Open Sans'" transform="translate(0 -23.1)"><tspan dy="0em" x="0">Authorizes</tspan><tspan dy="1.2em" x="0">requests using</tspan></text></g></g></g><g transform="translate(0 -946)"><path stroke="#707070" stroke-width="2" stroke-dasharray="30, 30" fill="none" d="M1250 1267v280"/><path fill="#707070" stroke="#707070" d="M1240 1547l10 20 10-20z"/><path fill="none" d="M1250 1267v280"/><g cursor="move"><g transform="translate(1250 1407)" pointer-events="none"><rect fill="#fff" rx="3" ry="3" stroke="#fff" stroke-width="20" width="153.64999" height="33" transform="translate(-76.6 -16.5)"/><text font-size="24" y=".8em" text-anchor="middle" fill="#707070" font-family="'Open Sans'" transform="translate(0 -8.7)"><tspan dy="0em" x="0">Interacts with</tspan></text></g></g></g></svg>