<svg xmlns="http://www.w3.org/2000/svg" xmlns:xlink="http://www.w3.org/1999/xlink" version="1.1" viewBox="0 0 2480 3508" style="background: #ffffff"><g id="v-3"  transform="matrix(1,0,0,1,0,0)"><g id="j_492"    transform="translate(20,3463)"><g id="v-7835"><text  id="v-7836" font-size="22px" y="0.8em" xml:space="preserve" font-weight="normal" text-anchor="start" fill="#777777" pointer-events="none" font-family="Open Sans" transform="matrix(1,0,0,1,0,0)" display="none"><tspan id="v-7837"  dy="0em" x="0">Wednesday, December 16, 2020, 10:49 AM Central European Standard Time</tspan></text></g></g><g id="j_491"    transform="translate(20,3417)"><g id="v-7831"><text  id="v-7832" font-size="36px" y="0.8em" xml:space="preserve" font-weight="normal" text-anchor="start" fill="#000000" pointer-events="none" font-family="Open Sans" transform="matrix(1,0,0,1,0,0)" display="none"><tspan id="v-7833"  dy="0em" x="0">Component diagram for plgd Cloud - Resource Directory</tspan></text></g></g><g id="j_473"    transform="translate(255,1284)" style=""><g id="v-7505"><rect  id="v-7506" width="1240" height="1013" rx="0" ry="0" fill="#ffffff" stroke="#444444" stroke-width="2" stroke-dasharray="20,20" pointer-events="none"></rect><text  id="v-7507" font-size="24px" y="974" xml:space="preserve" font-weight="normal" fill="#444444" x="10" text-anchor="start" pointer-events="visible" font-family="Open Sans" transform="matrix(1,0,0,1,15,0)"><tspan id="v-7509"  dy="0em" x="0">Resource Directory</tspan></text><text  id="v-7508" font-size="19px" y="998" xml:space="preserve" font-weight="normal" fill="#444444" x="10" text-anchor="start" pointer-events="visible" font-family="Open Sans" transform="matrix(1,0,0,1,15,0)"><tspan id="v-7510"  dy="0em" x="0">[Container]</tspan></text></g></g><g id="j_474"    transform="translate(275,704)" style=""><g  id="v-7512" style="opacity: 1;"><rect  id="v-7513" rx="1" ry="1" stroke="#80b3cb" stroke-width="2" pointer-events="visiblePainted" fill="#8ec7e1" width="450" height="300"></rect><text  id="v-7514" font-size="34" y="0.8em" xml:space="preserve" font-weight="bold" text-anchor="middle" pointer-events="visible" font-family="Open Sans" fill="#000000" transform="matrix(1,0,0,1,225,77.5)"><tspan id="v-7519"  dy="0em" x="0">Protocol Adapter</tspan></text><text  id="v-7515" font-size="19" y="0.8em" xml:space="preserve" text-anchor="middle" font-family="Open Sans" fill="#000000" transform="matrix(1,0,0,1,225,117.5)"><tspan id="v-7520"  dy="0em" x="0">from CoAP Gateway</tspan><tspan id="v-7521"  dy="1.2em" x="0">[Component]</tspan></text><text  id="v-7516" font-size="24" y="0.8em" xml:space="preserve" text-anchor="middle" font-family="Open Sans" fill="#000000" transform="matrix(1,0,0,1,225,192.5)"><tspan id="v-7522"  dy="0em" x="0">Translates OCF protocol</tspan></text><text  id="v-7517" font-weight="bold" text-anchor="middle" font-family="Open Sans" fill="#000000" font-size="24" transform="matrix(1,0,0,1,225,270)" display="none"></text><image  id="v-7518"></image></g></g><g id="j_475"    transform="translate(1025,1304)" style="" ><g  id="v-7528" style="opacity: 1;"><rect  id="v-7529" rx="1" ry="1" stroke="#80b3cb" stroke-width="2" pointer-events="visiblePainted" fill="#8ec7e1" width="450" height="300"></rect><text  id="v-7530" font-size="34" y="0.8em" xml:space="preserve" font-weight="bold" text-anchor="middle" pointer-events="visible" font-family="Open Sans" fill="#000000" transform="matrix(1,0,0,1,225,75)"><tspan id="v-7535"  dy="0em" x="0">Projections Component</tspan></text><text  id="v-7531" font-size="19" y="0.8em" xml:space="preserve" text-anchor="middle" font-family="Open Sans" fill="#000000" transform="matrix(1,0,0,1,225,115)"><tspan id="v-7536"  dy="0em" x="0">[Component]</tspan></text><text  id="v-7532" font-size="24" y="0.8em" xml:space="preserve" text-anchor="middle" font-family="Open Sans" fill="#000000" transform="matrix(1,0,0,1,225,165)"><tspan id="v-7537"  dy="0em" x="0">Builds and maintains device and</tspan><tspan id="v-7538"  dy="1.2em" x="0">resource projections</tspan></text><text  id="v-7533" font-weight="bold" text-anchor="middle" font-family="Open Sans" fill="#000000" font-size="24" transform="matrix(1,0,0,1,225,270)" y="0.8em" xml:space="preserve" display="none"><tspan id="v-7539"  dy="0em" x="0">#</tspan></text><image  id="v-7534"></image></g></g><g id="j_476"    transform="translate(1025,704)" style=""><g  id="v-7543" style="opacity: 1;"><rect  id="v-7544" rx="1" ry="1" stroke="#80b3cb" stroke-width="2" pointer-events="visiblePainted" fill="#8ec7e1" width="450" height="300"></rect><text  id="v-7545" font-size="34" y="0.8em" xml:space="preserve" font-weight="bold" text-anchor="middle" pointer-events="visible" font-family="Open Sans" fill="#000000" transform="matrix(1,0,0,1,225,77.5)"><tspan id="v-7550"  dy="0em" x="0">Protocol Adapter</tspan></text><text  id="v-7546" font-size="19" y="0.8em" xml:space="preserve" text-anchor="middle" font-family="Open Sans" fill="#000000" transform="matrix(1,0,0,1,225,117.5)"><tspan id="v-7551"  dy="0em" x="0">from gRPC Gateway</tspan><tspan id="v-7552"  dy="1.2em" x="0">[Component]</tspan></text><text  id="v-7547" font-size="24" y="0.8em" xml:space="preserve" text-anchor="middle" font-family="Open Sans" fill="#000000" transform="matrix(1,0,0,1,225,192.5)"><tspan id="v-7553"  dy="0em" x="0">Translates public gRPC protocol</tspan></text><text  id="v-7548" font-weight="bold" text-anchor="middle" font-family="Open Sans" fill="#000000" font-size="24" transform="matrix(1,0,0,1,225,270)" display="none"></text><image  id="v-7549"></image></g></g><g id="j_477"    transform="translate(1775,1304)" style="" ><g  id="v-7559" style="opacity: 1;"><rect  id="v-7560" rx="1" ry="1" stroke="#c7c7c7" stroke-width="2" pointer-events="visiblePainted" fill="#dddddd" width="450" height="300"></rect><text  id="v-7561" font-size="34" y="0.8em" xml:space="preserve" font-weight="bold" text-anchor="middle" pointer-events="visible" font-family="Open Sans" fill="#000000" transform="matrix(1,0,0,1,225,75)"><tspan id="v-7566"  dy="0em" x="0">Authorization Server</tspan></text><text  id="v-7562" font-size="19" y="0.8em" xml:space="preserve" text-anchor="middle" font-family="Open Sans" fill="#000000" transform="matrix(1,0,0,1,225,115)"><tspan id="v-7567"  dy="0em" x="0">[Software System]</tspan></text><text  id="v-7563" font-size="24" y="0.8em" xml:space="preserve" text-anchor="middle" font-family="Open Sans" fill="#000000" transform="matrix(1,0,0,1,225,165)"><tspan id="v-7568"  dy="0em" x="0">An OAuth2.0 server authorizing and</tspan><tspan id="v-7569"  dy="1.2em" x="0">storing users and devices identities</tspan></text><text  id="v-7564" font-weight="bold" text-anchor="middle" font-family="Open Sans" fill="#000000" font-size="24" transform="matrix(1,0,0,1,225,270)" y="0.8em" display="none" xml:space="preserve"><tspan id="v-7570"  dy="0em" x="0" style="fill-opacity: 0; stroke-opacity: 0;">-</tspan></text><image  id="v-7565"></image></g></g><g id="j_478"    transform="translate(1775,704)" style=""><g  id="v-7574" style="opacity: 1;"><rect  id="v-7575" rx="1" ry="1" stroke="#80b3cb" stroke-width="2" pointer-events="visiblePainted" fill="#8ec7e1" width="450" height="300"></rect><text  id="v-7576" font-size="34" y="0.8em" xml:space="preserve" font-weight="bold" text-anchor="middle" pointer-events="visible" font-family="Open Sans" fill="#000000" transform="matrix(1,0,0,1,225,77.5)"><tspan id="v-7581"  dy="0em" x="0">Protocol Adapter</tspan></text><text  id="v-7577" font-size="19" y="0.8em" xml:space="preserve" text-anchor="middle" font-family="Open Sans" fill="#000000" transform="matrix(1,0,0,1,225,117.5)"><tspan id="v-7582"  dy="0em" x="0">from HTTP Gateway</tspan><tspan id="v-7583"  dy="1.2em" x="0">[Component]</tspan></text><text  id="v-7578" font-size="24" y="0.8em" xml:space="preserve" text-anchor="middle" font-family="Open Sans" fill="#000000" transform="matrix(1,0,0,1,225,192.5)"><tspan id="v-7584"  dy="0em" x="0">Translates HTTP protocol</tspan></text><text  id="v-7579" font-weight="bold" text-anchor="middle" font-family="Open Sans" fill="#000000" font-size="24" transform="matrix(1,0,0,1,225,270)" display="none"></text><image  id="v-7580"></image></g></g><g id="j_479"    transform="translate(275,1904)" style="" ><g  id="v-7590" style="opacity: 1;"><rect  id="v-7591" rx="1" ry="1" stroke="#80b3cb" stroke-width="2" pointer-events="visiblePainted" fill="#8ec7e1" width="450" height="300"></rect><text  id="v-7592" font-size="34" y="0.8em" xml:space="preserve" font-weight="bold" text-anchor="middle" pointer-events="visible" font-family="Open Sans" fill="#000000" transform="matrix(1,0,0,1,225,75)"><tspan id="v-7597"  dy="0em" x="0">Event Bus Component</tspan></text><text  id="v-7593" font-size="19" y="0.8em" xml:space="preserve" text-anchor="middle" font-family="Open Sans" fill="#000000" transform="matrix(1,0,0,1,225,115)"><tspan id="v-7598"  dy="0em" x="0">[Component]</tspan></text><text  id="v-7594" font-size="24" y="0.8em" xml:space="preserve" text-anchor="middle" font-family="Open Sans" fill="#000000" transform="matrix(1,0,0,1,225,165)"><tspan id="v-7599"  dy="0em" x="0">Subsribes to projections relevant</tspan><tspan id="v-7600"  dy="1.2em" x="0">events</tspan></text><text  id="v-7595" font-weight="bold" text-anchor="middle" font-family="Open Sans" fill="#000000" font-size="24" transform="matrix(1,0,0,1,225,270)" y="0.8em" xml:space="preserve" display="none"><tspan id="v-7601"  dy="0em" x="0">#</tspan></text><image  id="v-7596"></image></g></g><g id="j_480"    transform="translate(1025,1904)" style="" ><g  id="v-7607" style="opacity: 1;"><rect  id="v-7608" rx="1" ry="1" stroke="#80b3cb" stroke-width="2" pointer-events="visiblePainted" fill="#8ec7e1" width="450" height="300"></rect><text  id="v-7609" font-size="34" y="0.8em" xml:space="preserve" font-weight="bold" text-anchor="middle" pointer-events="visible" font-family="Open Sans" fill="#000000" transform="matrix(1,0,0,1,225,90)"><tspan id="v-7614"  dy="0em" x="0">Event Store Component</tspan></text><text  id="v-7610" font-size="19" y="0.8em" xml:space="preserve" text-anchor="middle" font-family="Open Sans" fill="#000000" transform="matrix(1,0,0,1,225,130)"><tspan id="v-7615"  dy="0em" x="0">[Component]</tspan></text><text  id="v-7611" font-size="24" y="0.8em" xml:space="preserve" text-anchor="middle" font-family="Open Sans" fill="#000000" transform="matrix(1,0,0,1,225,180)"><tspan id="v-7616"  dy="0em" x="0">Loads events from latest snapshot</tspan></text><text  id="v-7612" font-weight="bold" text-anchor="middle" font-family="Open Sans" fill="#000000" font-size="24" transform="matrix(1,0,0,1,225,270)" y="0.8em" xml:space="preserve" display="none"><tspan id="v-7617"  dy="0em" x="0">#</tspan></text><image  id="v-7613"></image></g></g><g id="j_481"    transform="translate(1100,2504)" style="" ><g  id="v-7623" style="opacity: 1;"><ellipse  id="bottom" cx="150" cy="270" rx="150" ry="30" stroke="#80b3cb" stroke-width="2" pointer-events="visiblePainted" fill="#8ec7e1"></ellipse><rect  id="face" x="0" y="30" width="300" height="240" stroke="#80b3cb" stroke-width="2" pointer-events="visiblePainted" fill="#8ec7e1"></rect><clipPath id="cylinderStructurizrClipPath9" clipPathUnits="userSpaceOnUse"><use xmlns:xlink="http://www.w3.org/1999/xlink" xlink:href="#bottom"></use><use xmlns:xlink="http://www.w3.org/1999/xlink" xlink:href="#face"></use></clipPath><rect  x="0" y="30" width="300" height="270" clip-path="url(#cylinderStructurizrClipPath9)" id="v-7624" stroke="none" stroke-width="2" pointer-events="visiblePainted" fill="#8ec7e1"></rect><ellipse cx="150" cy="30" rx="150" ry="30" id="lid"  stroke="#80b3cb" stroke-width="2" pointer-events="visiblePainted" fill="#8ec7e1"></ellipse><text  id="v-7625" font-size="34px" y="0.8em" xml:space="preserve" font-weight="bold" text-anchor="middle" pointer-events="visible" font-family="Open Sans" fill="#000000" transform="matrix(1,0,0,1,150,120)"><tspan id="v-7630"  dy="0em" x="0">Event Store</tspan></text><text  id="v-7626" font-size="19px" y="0.8em" xml:space="preserve" text-anchor="middle" font-family="Open Sans" fill="#000000" transform="matrix(1,0,0,1,150,160)"><tspan id="v-7631"  dy="0em" x="0">[Container: MongoDB]</tspan></text><text  id="v-7627" font-size="24px" y="0.8em" display="none" xml:space="preserve" text-anchor="middle" font-family="Open Sans" fill="#000000" transform="matrix(1,0,0,1,150,210)"><tspan id="v-7632"  dy="0em" x="0" style="fill-opacity: 0; stroke-opacity: 0;">-</tspan></text><text  id="v-7628" font-weight="bold" text-anchor="middle" font-family="Open Sans" fill="#000000" font-size="24" transform="matrix(1,0,0,1,150,273)" y="0.8em" display="none" xml:space="preserve"><tspan id="v-7633"  dy="0em" x="0" style="fill-opacity: 0; stroke-opacity: 0;">-</tspan></text><image  id="v-7629"></image></g></g><g id="j_482"    transform="translate(275,2592)" style="" ><g  id="v-7635" style="opacity: 1;"><ellipse  id="pipeRight" cx="420" cy="62.5" rx="30" ry="62.5" stroke="#80b3cb" stroke-width="2" pointer-events="visiblePainted" fill="#8ec7e1"></ellipse><rect  id="pipeFace" x="30" y="0" width="390" height="125" stroke="#80b3cb" stroke-width="2" pointer-events="visiblePainted" fill="#8ec7e1"></rect><clipPath id="pipeStructurizrClipPath9" clipPathUnits="userSpaceOnUse"><use xmlns:xlink="http://www.w3.org/1999/xlink" xlink:href="#pipeRight"></use><use xmlns:xlink="http://www.w3.org/1999/xlink" xlink:href="#pipeFace"></use></clipPath><rect  x="30" y="0" width="420" height="125" clip-path="url(#pipeStructurizrClipPath9)" id="v-7636" stroke="none" stroke-width="2" pointer-events="visiblePainted" fill="#8ec7e1"></rect><ellipse cx="30" cy="62.5" rx="30" ry="62.5" id="lid"  stroke="#80b3cb" stroke-width="2" pointer-events="visiblePainted" fill="#8ec7e1"></ellipse><text  id="v-7637" font-size="34px" y="0.8em" xml:space="preserve" font-weight="bold" text-anchor="middle" pointer-events="visible" font-family="Open Sans" fill="#000000" transform="matrix(1,0,0,1,225,17.5)"><tspan id="v-7642"  dy="0em" x="0">Event Bus</tspan></text><text  id="v-7638" font-size="19px" y="0.8em" xml:space="preserve" text-anchor="middle" font-family="Open Sans" fill="#000000" transform="matrix(1,0,0,1,225,57.5)"><tspan id="v-7643"  dy="0em" x="0">[Container: NATS]</tspan></text><text  id="v-7639" font-size="24px" y="0.8em" display="none" xml:space="preserve" text-anchor="middle" font-family="Open Sans" fill="#000000" transform="matrix(1,0,0,1,225,107.5)"><tspan id="v-7644"  dy="0em" x="0" style="fill-opacity: 0; stroke-opacity: 0;">-</tspan></text><text  id="v-7640" font-weight="bold" text-anchor="middle" font-family="Open Sans" fill="#000000" font-size="24" transform="matrix(1,0,0,1,225,112.5)" y="0.8em" display="none" xml:space="preserve"><tspan id="v-7645"  dy="0em" x="0" style="fill-opacity: 0; stroke-opacity: 0;">-</tspan></text><image  id="v-7641"></image></g></g><g id="j_483"   ><path  stroke="#707070" id="v-7663" stroke-width="2" stroke-dasharray="30 30" fill="none" d="M 1250 1004 1250 1284" style="opacity: 1;"></path><path  fill="black" stroke="black" transform="translate(1250,1004) scale(1,1) rotate(-270)"></path><path  fill="#707070" stroke="#707070" id="v-7665" d="M 20 0 L 0 10 L 20 20 z" transform="translate(1240,1304) scale(1,1) rotate(-90)" style="opacity: 1;"></path><path  id="v-7664" fill="none" d="M 1250 1004 1250 1284" style=""></path><title ></title><g ><g  id="v-7651" label-idx="0" cursor="move" transform="translate(1250, 1144)" style="opacity: 1;"><rect id="v-7653" fill="#ffffff" rx="3" ry="3" stroke="#ffffff" stroke-width="20px" pointer-events="none" width="91.04999542236328" height="32.99999809265137" transform="matrix(1,0,0,1,-45.29999923706055,-16.5)"></rect><text id="v-7652" font-size="24px" y="0.8em" xml:space="preserve" text-anchor="middle" pointer-events="none" fill="#707070" font-family="Open Sans" font-weight="normal" transform="matrix(1,0,0,1,0,-8.699999809265137)"><tspan id="v-7654"  dy="0em" x="0">Queries</tspan></text></g><g  id="v-7655" label-idx="1" cursor="move" transform="translate(1250, 1175.2)" style="opacity: 1;"><rect id="v-7657" fill="#ffffff" rx="3" ry="3" pointer-events="none" width="0" height="0" transform="matrix(1,0,0,1,0,0)"></rect><text id="v-7656" font-size="19px" y="0.8em" display="none" xml:space="preserve" text-anchor="middle" pointer-events="none" fill="#707070" font-family="Open Sans" font-weight="normal" transform="matrix(1,0,0,1,0,0)"><tspan id="v-7658"  dy="0em" x="0" style="fill-opacity: 0; stroke-opacity: 0;">-</tspan></text></g><g  id="v-7659" label-idx="2" cursor="move" transform="translate(1250, 1199.2)" style="opacity: 1;"><rect id="v-7661" fill="#ffffff" rx="3" ry="3" pointer-events="none"  display="none" width="0" height="0" transform="matrix(1,0,0,1,0,0)"></rect><text id="v-7660" font-size="19px" y="0.8em" display="none" xml:space="preserve" text-anchor="middle" pointer-events="none" fill="#707070" font-family="Open Sans" font-weight="normal"  transform="matrix(1,0,0,1,0,0)"><tspan id="v-7662"  dy="0em" x="0" style="fill-opacity: 0; stroke-opacity: 0;">-</tspan></text></g></g><g  display="none"></g><g  id="v-7667" display="none"><g  id="v-7648"><path  end="source" d="M 26 0 L 0 13 L 26 26 z"></path></g><g  id="v-7649"><path  end="target" d="M 26 0 L 0 13 L 26 26 z"></path></g></g><g  id="v-7666" display="none"><g  id="v-7647" transform="translate(1250, 1044) "><g  event="remove"><circle r="11"></circle><path transform="scale(.8) translate(-16, -16)" d="M24.778,21.419 19.276,15.917 24.777,10.415 21.949,7.585 16.447,13.087 10.945,7.585 8.117,10.415 13.618,15.917 8.116,21.419 10.946,24.248 16.447,18.746 21.948,24.248z"></path><title>Remove link.</title></g><g  event="link:options"><circle r="11" transform="translate(25)"></circle><path fill="white" transform="scale(.55) translate(29, -16)" d="M31.229,17.736c0.064-0.571,0.104-1.148,0.104-1.736s-0.04-1.166-0.104-1.737l-4.377-1.557c-0.218-0.716-0.504-1.401-0.851-2.05l1.993-4.192c-0.725-0.91-1.549-1.734-2.458-2.459l-4.193,1.994c-0.647-0.347-1.334-0.632-2.049-0.849l-1.558-4.378C17.165,0.708,16.588,0.667,16,0.667s-1.166,0.041-1.737,0.105L12.707,5.15c-0.716,0.217-1.401,0.502-2.05,0.849L6.464,4.005C5.554,4.73,4.73,5.554,4.005,6.464l1.994,4.192c-0.347,0.648-0.632,1.334-0.849,2.05l-4.378,1.557C0.708,14.834,0.667,15.412,0.667,16s0.041,1.165,0.105,1.736l4.378,1.558c0.217,0.715,0.502,1.401,0.849,2.049l-1.994,4.193c0.725,0.909,1.549,1.733,2.459,2.458l4.192-1.993c0.648,0.347,1.334,0.633,2.05,0.851l1.557,4.377c0.571,0.064,1.148,0.104,1.737,0.104c0.588,0,1.165-0.04,1.736-0.104l1.558-4.377c0.715-0.218,1.399-0.504,2.049-0.851l4.193,1.993c0.909-0.725,1.733-1.549,2.458-2.458l-1.993-4.193c0.347-0.647,0.633-1.334,0.851-2.049L31.229,17.736zM16,20.871c-2.69,0-4.872-2.182-4.872-4.871c0-2.69,2.182-4.872,4.872-4.872c2.689,0,4.871,2.182,4.871,4.872C20.871,18.689,18.689,20.871,16,20.871z"></path><title>Link options.</title></g></g></g></g><g id="j_484"   ><path  stroke="#707070" id="v-7685" stroke-width="2" stroke-dasharray="30 30" fill="none" d="M 1813 1004 1454 1292" style="opacity: 1;"></path><path  fill="black" stroke="black" transform="translate(1813,1004) scale(1,1) rotate(-218.6598055873492)"></path><path  fill="#707070" stroke="#707070" id="v-7687" d="M 20 0 L 0 10 L 20 20 z" transform="translate(1431.7530517578125,1296.1912841796875) scale(1,1) rotate(-38.65980825409009)" style="opacity: 1;"></path><path  id="v-7686" fill="none" d="M 1813 1004 1454 1292" style=""></path><title ></title><g ><g  id="v-7673" label-idx="0" cursor="move" transform="translate(1633.5, 1148)" style="opacity: 1;"><rect id="v-7675" fill="#ffffff" rx="3" ry="3" stroke="#ffffff" stroke-width="20px" pointer-events="none" width="91.04999542236328" height="32.99999809265137" transform="matrix(1,0,0,1,-45.29999923706055,-16.5)"></rect><text id="v-7674" font-size="24px" y="0.8em" xml:space="preserve" text-anchor="middle" pointer-events="none" fill="#707070" font-family="Open Sans" font-weight="normal" transform="matrix(1,0,0,1,0,-8.699999809265137)"><tspan id="v-7676"  dy="0em" x="0">Queries</tspan></text></g><g  id="v-7677" label-idx="1" cursor="move" transform="translate(1633.5, 1179.2)" style="opacity: 1;"><rect id="v-7679" fill="#ffffff" rx="3" ry="3" pointer-events="none" width="0" height="0" transform="matrix(1,0,0,1,0,0)"></rect><text id="v-7678" font-size="19px" y="0.8em" display="none" xml:space="preserve" text-anchor="middle" pointer-events="none" fill="#707070" font-family="Open Sans" font-weight="normal" transform="matrix(1,0,0,1,0,0)"><tspan id="v-7680"  dy="0em" x="0" style="fill-opacity: 0; stroke-opacity: 0;">-</tspan></text></g><g  id="v-7681" label-idx="2" cursor="move" transform="translate(1633.5, 1203.2)" style="opacity: 1;"><rect id="v-7683" fill="#ffffff" rx="3" ry="3" pointer-events="none"  display="none" width="0" height="0" transform="matrix(1,0,0,1,0,0)"></rect><text id="v-7682" font-size="19px" y="0.8em" display="none" xml:space="preserve" text-anchor="middle" pointer-events="none" fill="#707070" font-family="Open Sans" font-weight="normal"  transform="matrix(1,0,0,1,0,0)"><tspan id="v-7684"  dy="0em" x="0" style="fill-opacity: 0; stroke-opacity: 0;">-</tspan></text></g></g><g  display="none"></g><g  id="v-7689" display="none"><g  id="v-7670"><path  end="source" d="M 26 0 L 0 13 L 26 26 z"></path></g><g  id="v-7671"><path  end="target" d="M 26 0 L 0 13 L 26 26 z"></path></g></g><g  id="v-7688" display="none"><g  id="v-7669" transform="translate(1781.7991943359375, 1029.0301513671875) "><g  event="remove"><circle r="11"></circle><path transform="scale(.8) translate(-16, -16)" d="M24.778,21.419 19.276,15.917 24.777,10.415 21.949,7.585 16.447,13.087 10.945,7.585 8.117,10.415 13.618,15.917 8.116,21.419 10.946,24.248 16.447,18.746 21.948,24.248z"></path><title>Remove link.</title></g><g  event="link:options"><circle r="11" transform="translate(25)"></circle><path fill="white" transform="scale(.55) translate(29, -16)" d="M31.229,17.736c0.064-0.571,0.104-1.148,0.104-1.736s-0.04-1.166-0.104-1.737l-4.377-1.557c-0.218-0.716-0.504-1.401-0.851-2.05l1.993-4.192c-0.725-0.91-1.549-1.734-2.458-2.459l-4.193,1.994c-0.647-0.347-1.334-0.632-2.049-0.849l-1.558-4.378C17.165,0.708,16.588,0.667,16,0.667s-1.166,0.041-1.737,0.105L12.707,5.15c-0.716,0.217-1.401,0.502-2.05,0.849L6.464,4.005C5.554,4.73,4.73,5.554,4.005,6.464l1.994,4.192c-0.347,0.648-0.632,1.334-0.849,2.05l-4.378,1.557C0.708,14.834,0.667,15.412,0.667,16s0.041,1.165,0.105,1.736l4.378,1.558c0.217,0.715,0.502,1.401,0.849,2.049l-1.994,4.193c0.725,0.909,1.549,1.733,2.459,2.458l4.192-1.993c0.648,0.347,1.334,0.633,2.05,0.851l1.557,4.377c0.571,0.064,1.148,0.104,1.737,0.104c0.588,0,1.165-0.04,1.736-0.104l1.558-4.377c0.715-0.218,1.399-0.504,2.049-0.851l4.193,1.993c0.909-0.725,1.733-1.549,2.458-2.458l-1.993-4.193c0.347-0.647,0.633-1.334,0.851-2.049L31.229,17.736zM16,20.871c-2.69,0-4.872-2.182-4.872-4.871c0-2.69,2.182-4.872,4.872-4.872c2.689,0,4.871,2.182,4.871,4.872C20.871,18.689,18.689,20.871,16,20.871z"></path><title>Link options.</title></g></g></g></g><g id="j_485"   ><path  stroke="#707070" id="v-7709" stroke-width="2" stroke-dasharray="30 30" fill="none" d="M 500 2204 500 2572" style="opacity: 1;"></path><path  fill="black" stroke="black" transform="translate(500,2204) scale(1,1) rotate(-270)"></path><path  fill="#707070" stroke="#707070" id="v-7711" d="M 20 0 L 0 10 L 20 20 z" transform="translate(490,2592) scale(1,1) rotate(-90)" style="opacity: 1;"></path><path  id="v-7710" fill="none" d="M 500 2204 500 2572" style=""></path><title ></title><g ><g  id="v-7697" label-idx="0" cursor="move" transform="translate(500, 2388)" style="opacity: 1;"><rect id="v-7699" fill="#ffffff" rx="3" ry="3" stroke="#ffffff" stroke-width="20px" pointer-events="none" width="153.5500030517578" height="32.99999809265137" transform="matrix(1,0,0,1,-76.80000305175781,-16.5)"></rect><text id="v-7698" font-size="24px" y="0.8em" xml:space="preserve" text-anchor="middle" pointer-events="none" fill="#707070" font-family="Open Sans" font-weight="normal" transform="matrix(1,0,0,1,0,-8.699999809265137)"><tspan id="v-7700"  dy="0em" x="0">Subscribes to</tspan></text></g><g  id="v-7701" label-idx="1" cursor="move" transform="translate(500, 2419.2)" style="opacity: 1;"><rect id="v-7703" fill="#ffffff" rx="3" ry="3" pointer-events="none" width="0" height="0" transform="matrix(1,0,0,1,0,0)"></rect><text id="v-7702" font-size="19px" y="0.8em" display="none" xml:space="preserve" text-anchor="middle" pointer-events="none" fill="#707070" font-family="Open Sans" font-weight="normal" transform="matrix(1,0,0,1,0,0)"><tspan id="v-7704"  dy="0em" x="0" style="fill-opacity: 0; stroke-opacity: 0;">-</tspan></text></g><g  id="v-7705" label-idx="2" cursor="move" transform="translate(500, 2443.2)" style="opacity: 1;"><rect id="v-7707" fill="#ffffff" rx="3" ry="3" pointer-events="none"  display="none" width="0" height="0" transform="matrix(1,0,0,1,0,0)"></rect><text id="v-7706" font-size="19px" y="0.8em" display="none" xml:space="preserve" text-anchor="middle" pointer-events="none" fill="#707070" font-family="Open Sans" font-weight="normal"  transform="matrix(1,0,0,1,0,0)"><tspan id="v-7708"  dy="0em" x="0" style="fill-opacity: 0; stroke-opacity: 0;">-</tspan></text></g></g><g  display="none"></g><g  id="v-7713" display="none"><g  id="v-7694"><path  end="source" d="M 26 0 L 0 13 L 26 26 z"></path></g><g  id="v-7695"><path  end="target" d="M 26 0 L 0 13 L 26 26 z"></path></g></g><g  id="v-7712" display="none"><g  id="v-7693" transform="translate(500, 2244) "><g  event="remove"><circle r="11"></circle><path transform="scale(.8) translate(-16, -16)" d="M24.778,21.419 19.276,15.917 24.777,10.415 21.949,7.585 16.447,13.087 10.945,7.585 8.117,10.415 13.618,15.917 8.116,21.419 10.946,24.248 16.447,18.746 21.948,24.248z"></path><title>Remove link.</title></g><g  event="link:options"><circle r="11" transform="translate(25)"></circle><path fill="white" transform="scale(.55) translate(29, -16)" d="M31.229,17.736c0.064-0.571,0.104-1.148,0.104-1.736s-0.04-1.166-0.104-1.737l-4.377-1.557c-0.218-0.716-0.504-1.401-0.851-2.05l1.993-4.192c-0.725-0.91-1.549-1.734-2.458-2.459l-4.193,1.994c-0.647-0.347-1.334-0.632-2.049-0.849l-1.558-4.378C17.165,0.708,16.588,0.667,16,0.667s-1.166,0.041-1.737,0.105L12.707,5.15c-0.716,0.217-1.401,0.502-2.05,0.849L6.464,4.005C5.554,4.73,4.73,5.554,4.005,6.464l1.994,4.192c-0.347,0.648-0.632,1.334-0.849,2.05l-4.378,1.557C0.708,14.834,0.667,15.412,0.667,16s0.041,1.165,0.105,1.736l4.378,1.558c0.217,0.715,0.502,1.401,0.849,2.049l-1.994,4.193c0.725,0.909,1.549,1.733,2.459,2.458l4.192-1.993c0.648,0.347,1.334,0.633,2.05,0.851l1.557,4.377c0.571,0.064,1.148,0.104,1.737,0.104c0.588,0,1.165-0.04,1.736-0.104l1.558-4.377c0.715-0.218,1.399-0.504,2.049-0.851l4.193,1.993c0.909-0.725,1.733-1.549,2.458-2.458l-1.993-4.193c0.347-0.647,0.633-1.334,0.851-2.049L31.229,17.736zM16,20.871c-2.69,0-4.872-2.182-4.872-4.871c0-2.69,2.182-4.872,4.872-4.872c2.689,0,4.871,2.182,4.871,4.872C20.871,18.689,18.689,20.871,16,20.871z"></path><title>Link options.</title></g></g></g></g><g id="j_486"   ><path  stroke="#707070" id="v-7734" stroke-width="2" stroke-dasharray="30 30" fill="none" d="M 1250 2204 1250 2484" style="opacity: 1;"></path><path  fill="black" stroke="black" transform="translate(1250,2204) scale(1,1) rotate(-270)"></path><path  fill="#707070" stroke="#707070" id="v-7736" d="M 20 0 L 0 10 L 20 20 z" transform="translate(1240,2504) scale(1,1) rotate(-90)" style="opacity: 1;"></path><path  id="v-7735" fill="none" d="M 1250 2204 1250 2484" style=""></path><title ></title><g ><g  id="v-7721" label-idx="0" cursor="move" transform="translate(1250, 2344)" style="opacity: 1;"><rect id="v-7723" fill="#ffffff" rx="3" ry="3" stroke="#ffffff" stroke-width="20px" pointer-events="none" width="148.74998474121094" height="61.79999923706055" transform="matrix(1,0,0,1,-73.69999694824219,-30.899999618530273)"></rect><text id="v-7722" font-size="24px" y="0.8em" xml:space="preserve" text-anchor="middle" pointer-events="none" fill="#707070" font-family="Open Sans" font-weight="normal" transform="matrix(1,0,0,1,0,-23.100000381469727)"><tspan id="v-7724"  dy="0em" x="0">Loads events</tspan><tspan id="v-7725"  dy="1.2em" x="0">from</tspan></text></g><g  id="v-7726" label-idx="1" cursor="move" transform="translate(1250, 2387.2)" style="opacity: 1;"><rect id="v-7728" fill="#ffffff" rx="3" ry="3" pointer-events="none" width="0" height="0" transform="matrix(1,0,0,1,0,0)"></rect><text id="v-7727" font-size="19px" y="0.8em" display="none" xml:space="preserve" text-anchor="middle" pointer-events="none" fill="#707070" font-family="Open Sans" font-weight="normal" transform="matrix(1,0,0,1,0,0)"><tspan id="v-7729"  dy="0em" x="0" style="fill-opacity: 0; stroke-opacity: 0;">-</tspan></text></g><g  id="v-7730" label-idx="2" cursor="move" transform="translate(1250, 2411.2)" style="opacity: 1;"><rect id="v-7732" fill="#ffffff" rx="3" ry="3" pointer-events="none"  display="none" width="0" height="0" transform="matrix(1,0,0,1,0,0)"></rect><text id="v-7731" font-size="19px" y="0.8em" display="none" xml:space="preserve" text-anchor="middle" pointer-events="none" fill="#707070" font-family="Open Sans" font-weight="normal"  transform="matrix(1,0,0,1,0,0)"><tspan id="v-7733"  dy="0em" x="0" style="fill-opacity: 0; stroke-opacity: 0;">-</tspan></text></g></g><g  display="none"></g><g  id="v-7738" display="none"><g  id="v-7718"><path  end="source" d="M 26 0 L 0 13 L 26 26 z"></path></g><g  id="v-7719"><path  end="target" d="M 26 0 L 0 13 L 26 26 z"></path></g></g><g  id="v-7737" display="none"><g  id="v-7717" transform="translate(1250, 2244) "><g  event="remove"><circle r="11"></circle><path transform="scale(.8) translate(-16, -16)" d="M24.778,21.419 19.276,15.917 24.777,10.415 21.949,7.585 16.447,13.087 10.945,7.585 8.117,10.415 13.618,15.917 8.116,21.419 10.946,24.248 16.447,18.746 21.948,24.248z"></path><title>Remove link.</title></g><g  event="link:options"><circle r="11" transform="translate(25)"></circle><path fill="white" transform="scale(.55) translate(29, -16)" d="M31.229,17.736c0.064-0.571,0.104-1.148,0.104-1.736s-0.04-1.166-0.104-1.737l-4.377-1.557c-0.218-0.716-0.504-1.401-0.851-2.05l1.993-4.192c-0.725-0.91-1.549-1.734-2.458-2.459l-4.193,1.994c-0.647-0.347-1.334-0.632-2.049-0.849l-1.558-4.378C17.165,0.708,16.588,0.667,16,0.667s-1.166,0.041-1.737,0.105L12.707,5.15c-0.716,0.217-1.401,0.502-2.05,0.849L6.464,4.005C5.554,4.73,4.73,5.554,4.005,6.464l1.994,4.192c-0.347,0.648-0.632,1.334-0.849,2.05l-4.378,1.557C0.708,14.834,0.667,15.412,0.667,16s0.041,1.165,0.105,1.736l4.378,1.558c0.217,0.715,0.502,1.401,0.849,2.049l-1.994,4.193c0.725,0.909,1.549,1.733,2.459,2.458l4.192-1.993c0.648,0.347,1.334,0.633,2.05,0.851l1.557,4.377c0.571,0.064,1.148,0.104,1.737,0.104c0.588,0,1.165-0.04,1.736-0.104l1.558-4.377c0.715-0.218,1.399-0.504,2.049-0.851l4.193,1.993c0.909-0.725,1.733-1.549,2.458-2.458l-1.993-4.193c0.347-0.647,0.633-1.334,0.851-2.049L31.229,17.736zM16,20.871c-2.69,0-4.872-2.182-4.872-4.871c0-2.69,2.182-4.872,4.872-4.872c2.689,0,4.871,2.182,4.871,4.872C20.871,18.689,18.689,20.871,16,20.871z"></path><title>Link options.</title></g></g></g></g><g id="j_487"   ><path  stroke="#707070" id="v-7756" stroke-width="2" stroke-dasharray="30 30" fill="none" d="M 688 1004 1047 1292" style="opacity: 1;"></path><path  fill="black" stroke="black" transform="translate(688,1004) scale(1,1) rotate(38.65982265449068)"></path><path  fill="#707070" stroke="#707070" id="v-7758" d="M 20 0 L 0 10 L 20 20 z" transform="translate(1056.7530517578125,1311.8087158203125) scale(1,1) rotate(-141.3401944126508)" style="opacity: 1;"></path><path  id="v-7757" fill="none" d="M 688 1004 1047 1292" style=""></path><title ></title><g ><g  id="v-7744" label-idx="0" cursor="move" transform="translate(867.5, 1148)" style="opacity: 1;"><rect id="v-7746" fill="#ffffff" rx="3" ry="3" stroke="#ffffff" stroke-width="20px" pointer-events="none" width="91.04999542236328" height="32.99999809265137" transform="matrix(1,0,0,1,-45.29999923706055,-16.5)"></rect><text id="v-7745" font-size="24px" y="0.8em" xml:space="preserve" text-anchor="middle" pointer-events="none" fill="#707070" font-family="Open Sans" font-weight="normal" transform="matrix(1,0,0,1,0,-8.699999809265137)"><tspan id="v-7747"  dy="0em" x="0">Queries</tspan></text></g><g  id="v-7748" label-idx="1" cursor="move" transform="translate(867.5, 1179.2)" style="opacity: 1;"><rect id="v-7750" fill="#ffffff" rx="3" ry="3" pointer-events="none" width="0" height="0" transform="matrix(1,0,0,1,0,0)"></rect><text id="v-7749" font-size="19px" y="0.8em" display="none" xml:space="preserve" text-anchor="middle" pointer-events="none" fill="#707070" font-family="Open Sans" font-weight="normal" transform="matrix(1,0,0,1,0,0)"><tspan id="v-7751"  dy="0em" x="0" style="fill-opacity: 0; stroke-opacity: 0;">-</tspan></text></g><g  id="v-7752" label-idx="2" cursor="move" transform="translate(867.5, 1203.2)" style="opacity: 1;"><rect id="v-7754" fill="#ffffff" rx="3" ry="3" pointer-events="none"  display="none" width="0" height="0" transform="matrix(1,0,0,1,0,0)"></rect><text id="v-7753" font-size="19px" y="0.8em" display="none" xml:space="preserve" text-anchor="middle" pointer-events="none" fill="#707070" font-family="Open Sans" font-weight="normal"  transform="matrix(1,0,0,1,0,0)"><tspan id="v-7755"  dy="0em" x="0" style="fill-opacity: 0; stroke-opacity: 0;">-</tspan></text></g></g><g  display="none"></g><g  id="v-7760" display="none"><g  id="v-7741"><path  end="source" d="M 26 0 L 0 13 L 26 26 z"></path></g><g  id="v-7742"><path  end="target" d="M 26 0 L 0 13 L 26 26 z"></path></g></g><g  id="v-7759" display="none"><g  id="v-7740" transform="translate(719.2008056640625, 1029.0301513671875) "><g  event="remove"><circle r="11"></circle><path transform="scale(.8) translate(-16, -16)" d="M24.778,21.419 19.276,15.917 24.777,10.415 21.949,7.585 16.447,13.087 10.945,7.585 8.117,10.415 13.618,15.917 8.116,21.419 10.946,24.248 16.447,18.746 21.948,24.248z"></path><title>Remove link.</title></g><g  event="link:options"><circle r="11" transform="translate(25)"></circle><path fill="white" transform="scale(.55) translate(29, -16)" d="M31.229,17.736c0.064-0.571,0.104-1.148,0.104-1.736s-0.04-1.166-0.104-1.737l-4.377-1.557c-0.218-0.716-0.504-1.401-0.851-2.05l1.993-4.192c-0.725-0.91-1.549-1.734-2.458-2.459l-4.193,1.994c-0.647-0.347-1.334-0.632-2.049-0.849l-1.558-4.378C17.165,0.708,16.588,0.667,16,0.667s-1.166,0.041-1.737,0.105L12.707,5.15c-0.716,0.217-1.401,0.502-2.05,0.849L6.464,4.005C5.554,4.73,4.73,5.554,4.005,6.464l1.994,4.192c-0.347,0.648-0.632,1.334-0.849,2.05l-4.378,1.557C0.708,14.834,0.667,15.412,0.667,16s0.041,1.165,0.105,1.736l4.378,1.558c0.217,0.715,0.502,1.401,0.849,2.049l-1.994,4.193c0.725,0.909,1.549,1.733,2.459,2.458l4.192-1.993c0.648,0.347,1.334,0.633,2.05,0.851l1.557,4.377c0.571,0.064,1.148,0.104,1.737,0.104c0.588,0,1.165-0.04,1.736-0.104l1.558-4.377c0.715-0.218,1.399-0.504,2.049-0.851l4.193,1.993c0.909-0.725,1.733-1.549,2.458-2.458l-1.993-4.193c0.347-0.647,0.633-1.334,0.851-2.049L31.229,17.736zM16,20.871c-2.69,0-4.872-2.182-4.872-4.871c0-2.69,2.182-4.872,4.872-4.872c2.689,0,4.871,2.182,4.871,4.872C20.871,18.689,18.689,20.871,16,20.871z"></path><title>Link options.</title></g></g></g></g><g id="j_488"   ><path  stroke="#707070" id="v-7781" stroke-width="2" stroke-dasharray="30 30" fill="none" d="M 1475 1454 1755 1454" style="opacity: 1;"></path><path  fill="black" stroke="black" transform="translate(1475,1454) scale(1,1) rotate(0)"></path><path  fill="#707070" stroke="#707070" id="v-7783" d="M 20 0 L 0 10 L 20 20 z" transform="translate(1775,1464) scale(1,1) rotate(-180)" style="opacity: 1;"></path><path  id="v-7782" fill="none" d="M 1475 1454 1755 1454" style=""></path><title ></title><g ><g  id="v-7768" label-idx="0" cursor="move" transform="translate(1615, 1454)" style="opacity: 1;"><rect id="v-7770" fill="#ffffff" rx="3" ry="3" stroke="#ffffff" stroke-width="20px" pointer-events="none" width="167.25" height="61.79999923706055" transform="matrix(1,0,0,1,-82.80000305175781,-30.899999618530273)"></rect><text id="v-7769" font-size="24px" y="0.8em" xml:space="preserve" text-anchor="middle" pointer-events="none" fill="#707070" font-family="Open Sans" font-weight="normal" transform="matrix(1,0,0,1,0,-23.100000381469727)"><tspan id="v-7771"  dy="0em" x="0">Authorizes</tspan><tspan id="v-7772"  dy="1.2em" x="0">requests using</tspan></text></g><g  id="v-7773" label-idx="1" cursor="move" transform="translate(1615, 1497.2)" style="opacity: 1;"><rect id="v-7775" fill="#ffffff" rx="3" ry="3" pointer-events="none" width="0" height="0" transform="matrix(1,0,0,1,0,0)"></rect><text id="v-7774" font-size="19px" y="0.8em" display="none" xml:space="preserve" text-anchor="middle" pointer-events="none" fill="#707070" font-family="Open Sans" font-weight="normal" transform="matrix(1,0,0,1,0,0)"><tspan id="v-7776"  dy="0em" x="0" style="fill-opacity: 0; stroke-opacity: 0;">-</tspan></text></g><g  id="v-7777" label-idx="2" cursor="move" transform="translate(1615, 1521.2)" style="opacity: 1;"><rect id="v-7779" fill="#ffffff" rx="3" ry="3" pointer-events="none"  display="none" width="0" height="0" transform="matrix(1,0,0,1,0,0)"></rect><text id="v-7778" font-size="19px" y="0.8em" display="none" xml:space="preserve" text-anchor="middle" pointer-events="none" fill="#707070" font-family="Open Sans" font-weight="normal"  transform="matrix(1,0,0,1,0,0)"><tspan id="v-7780"  dy="0em" x="0" style="fill-opacity: 0; stroke-opacity: 0;">-</tspan></text></g></g><g  display="none"></g><g  id="v-7785" display="none"><g  id="v-7765"><path  end="source" d="M 26 0 L 0 13 L 26 26 z"></path></g><g  id="v-7766"><path  end="target" d="M 26 0 L 0 13 L 26 26 z"></path></g></g><g  id="v-7784" display="none"><g  id="v-7764" transform="translate(1515, 1454) "><g  event="remove"><circle r="11"></circle><path transform="scale(.8) translate(-16, -16)" d="M24.778,21.419 19.276,15.917 24.777,10.415 21.949,7.585 16.447,13.087 10.945,7.585 8.117,10.415 13.618,15.917 8.116,21.419 10.946,24.248 16.447,18.746 21.948,24.248z"></path><title>Remove link.</title></g><g  event="link:options"><circle r="11" transform="translate(25)"></circle><path fill="white" transform="scale(.55) translate(29, -16)" d="M31.229,17.736c0.064-0.571,0.104-1.148,0.104-1.736s-0.04-1.166-0.104-1.737l-4.377-1.557c-0.218-0.716-0.504-1.401-0.851-2.05l1.993-4.192c-0.725-0.91-1.549-1.734-2.458-2.459l-4.193,1.994c-0.647-0.347-1.334-0.632-2.049-0.849l-1.558-4.378C17.165,0.708,16.588,0.667,16,0.667s-1.166,0.041-1.737,0.105L12.707,5.15c-0.716,0.217-1.401,0.502-2.05,0.849L6.464,4.005C5.554,4.73,4.73,5.554,4.005,6.464l1.994,4.192c-0.347,0.648-0.632,1.334-0.849,2.05l-4.378,1.557C0.708,14.834,0.667,15.412,0.667,16s0.041,1.165,0.105,1.736l4.378,1.558c0.217,0.715,0.502,1.401,0.849,2.049l-1.994,4.193c0.725,0.909,1.549,1.733,2.459,2.458l4.192-1.993c0.648,0.347,1.334,0.633,2.05,0.851l1.557,4.377c0.571,0.064,1.148,0.104,1.737,0.104c0.588,0,1.165-0.04,1.736-0.104l1.558-4.377c0.715-0.218,1.399-0.504,2.049-0.851l4.193,1.993c0.909-0.725,1.733-1.549,2.458-2.458l-1.993-4.193c0.347-0.647,0.633-1.334,0.851-2.049L31.229,17.736zM16,20.871c-2.69,0-4.872-2.182-4.872-4.871c0-2.69,2.182-4.872,4.872-4.872c2.689,0,4.871,2.182,4.871,4.872C20.871,18.689,18.689,20.871,16,20.871z"></path><title>Link options.</title></g></g></g></g><g id="j_489"   ><path  stroke="#707070" id="v-7803" stroke-width="2" stroke-dasharray="30 30" fill="none" d="M 1063 1604 704 1892" style="opacity: 1;"></path><path  fill="black" stroke="black" transform="translate(1063,1604) scale(1,1) rotate(-218.6598055873492)"></path><path  fill="#707070" stroke="#707070" id="v-7805" d="M 20 0 L 0 10 L 20 20 z" transform="translate(681.7530517578125,1896.1912841796875) scale(1,1) rotate(-38.65980825409009)" style="opacity: 1;"></path><path  id="v-7804" fill="none" d="M 1063 1604 704 1892" style=""></path><title ></title><g ><g  id="v-7791" label-idx="0" cursor="move" transform="translate(883.5, 1748)" style="opacity: 1;"><rect id="v-7793" fill="#ffffff" rx="3" ry="3" stroke="#ffffff" stroke-width="20px" pointer-events="none" width="56.5" height="32.99999809265137" transform="matrix(1,0,0,1,-27.700000762939453,-16.5)"></rect><text id="v-7792" font-size="24px" y="0.8em" xml:space="preserve" text-anchor="middle" pointer-events="none" fill="#707070" font-family="Open Sans" font-weight="normal" transform="matrix(1,0,0,1,0,-8.699999809265137)"><tspan id="v-7794"  dy="0em" x="0">Uses</tspan></text></g><g  id="v-7795" label-idx="1" cursor="move" transform="translate(883.5, 1779.2)" style="opacity: 1;"><rect id="v-7797" fill="#ffffff" rx="3" ry="3" pointer-events="none" width="0" height="0" transform="matrix(1,0,0,1,0,0)"></rect><text id="v-7796" font-size="19px" y="0.8em" display="none" xml:space="preserve" text-anchor="middle" pointer-events="none" fill="#707070" font-family="Open Sans" font-weight="normal" transform="matrix(1,0,0,1,0,0)"><tspan id="v-7798"  dy="0em" x="0" style="fill-opacity: 0; stroke-opacity: 0;">-</tspan></text></g><g  id="v-7799" label-idx="2" cursor="move" transform="translate(883.5, 1803.2)" style="opacity: 1;"><rect id="v-7801" fill="#ffffff" rx="3" ry="3" pointer-events="none"  display="none" width="0" height="0" transform="matrix(1,0,0,1,0,0)"></rect><text id="v-7800" font-size="19px" y="0.8em" display="none" xml:space="preserve" text-anchor="middle" pointer-events="none" fill="#707070" font-family="Open Sans" font-weight="normal"  transform="matrix(1,0,0,1,0,0)"><tspan id="v-7802"  dy="0em" x="0" style="fill-opacity: 0; stroke-opacity: 0;">-</tspan></text></g></g><g  display="none"></g><g  id="v-7807" display="none"><g  id="v-7788"><path  end="source" d="M 26 0 L 0 13 L 26 26 z"></path></g><g  id="v-7789"><path  end="target" d="M 26 0 L 0 13 L 26 26 z"></path></g></g><g  id="v-7806" display="none"><g  id="v-7787" transform="translate(1031.7991943359375, 1629.0301513671875) "><g  event="remove"><circle r="11"></circle><path transform="scale(.8) translate(-16, -16)" d="M24.778,21.419 19.276,15.917 24.777,10.415 21.949,7.585 16.447,13.087 10.945,7.585 8.117,10.415 13.618,15.917 8.116,21.419 10.946,24.248 16.447,18.746 21.948,24.248z"></path><title>Remove link.</title></g><g  event="link:options"><circle r="11" transform="translate(25)"></circle><path fill="white" transform="scale(.55) translate(29, -16)" d="M31.229,17.736c0.064-0.571,0.104-1.148,0.104-1.736s-0.04-1.166-0.104-1.737l-4.377-1.557c-0.218-0.716-0.504-1.401-0.851-2.05l1.993-4.192c-0.725-0.91-1.549-1.734-2.458-2.459l-4.193,1.994c-0.647-0.347-1.334-0.632-2.049-0.849l-1.558-4.378C17.165,0.708,16.588,0.667,16,0.667s-1.166,0.041-1.737,0.105L12.707,5.15c-0.716,0.217-1.401,0.502-2.05,0.849L6.464,4.005C5.554,4.73,4.73,5.554,4.005,6.464l1.994,4.192c-0.347,0.648-0.632,1.334-0.849,2.05l-4.378,1.557C0.708,14.834,0.667,15.412,0.667,16s0.041,1.165,0.105,1.736l4.378,1.558c0.217,0.715,0.502,1.401,0.849,2.049l-1.994,4.193c0.725,0.909,1.549,1.733,2.459,2.458l4.192-1.993c0.648,0.347,1.334,0.633,2.05,0.851l1.557,4.377c0.571,0.064,1.148,0.104,1.737,0.104c0.588,0,1.165-0.04,1.736-0.104l1.558-4.377c0.715-0.218,1.399-0.504,2.049-0.851l4.193,1.993c0.909-0.725,1.733-1.549,2.458-2.458l-1.993-4.193c0.347-0.647,0.633-1.334,0.851-2.049L31.229,17.736zM16,20.871c-2.69,0-4.872-2.182-4.872-4.871c0-2.69,2.182-4.872,4.872-4.872c2.689,0,4.871,2.182,4.871,4.872C20.871,18.689,18.689,20.871,16,20.871z"></path><title>Link options.</title></g></g></g></g><g id="j_490"   ><path  stroke="#707070" id="v-7825" stroke-width="2" stroke-dasharray="30 30" fill="none" d="M 1250 1604 1250 1884" style="opacity: 1;"></path><path  fill="black" stroke="black" transform="translate(1250,1604) scale(1,1) rotate(-270)"></path><path  fill="#707070" stroke="#707070" id="v-7827" d="M 20 0 L 0 10 L 20 20 z" transform="translate(1240,1904) scale(1,1) rotate(-90)" style="opacity: 1;"></path><path  id="v-7826" fill="none" d="M 1250 1604 1250 1884" style=""></path><title ></title><g ><g  id="v-7813" label-idx="0" cursor="move" transform="translate(1250, 1744)" style="opacity: 1;"><rect id="v-7815" fill="#ffffff" rx="3" ry="3" stroke="#ffffff" stroke-width="20px" pointer-events="none" width="56.5" height="32.99999809265137" transform="matrix(1,0,0,1,-27.700000762939453,-16.5)"></rect><text id="v-7814" font-size="24px" y="0.8em" xml:space="preserve" text-anchor="middle" pointer-events="none" fill="#707070" font-family="Open Sans" font-weight="normal" transform="matrix(1,0,0,1,0,-8.699999809265137)"><tspan id="v-7816"  dy="0em" x="0">Uses</tspan></text></g><g  id="v-7817" label-idx="1" cursor="move" transform="translate(1250, 1775.2)" style="opacity: 1;"><rect id="v-7819" fill="#ffffff" rx="3" ry="3" pointer-events="none" width="0" height="0" transform="matrix(1,0,0,1,0,0)"></rect><text id="v-7818" font-size="19px" y="0.8em" display="none" xml:space="preserve" text-anchor="middle" pointer-events="none" fill="#707070" font-family="Open Sans" font-weight="normal" transform="matrix(1,0,0,1,0,0)"><tspan id="v-7820"  dy="0em" x="0" style="fill-opacity: 0; stroke-opacity: 0;">-</tspan></text></g><g  id="v-7821" label-idx="2" cursor="move" transform="translate(1250, 1799.2)" style="opacity: 1;"><rect id="v-7823" fill="#ffffff" rx="3" ry="3" pointer-events="none"  display="none" width="0" height="0" transform="matrix(1,0,0,1,0,0)"></rect><text id="v-7822" font-size="19px" y="0.8em" display="none" xml:space="preserve" text-anchor="middle" pointer-events="none" fill="#707070" font-family="Open Sans" font-weight="normal"  transform="matrix(1,0,0,1,0,0)"><tspan id="v-7824"  dy="0em" x="0" style="fill-opacity: 0; stroke-opacity: 0;">-</tspan></text></g></g><g  display="none"></g><g  id="v-7829" display="none"><g  id="v-7810"><path  end="source" d="M 26 0 L 0 13 L 26 26 z"></path></g><g  id="v-7811"><path  end="target" d="M 26 0 L 0 13 L 26 26 z"></path></g></g><g  id="v-7828" display="none"><g  id="v-7809" transform="translate(1250, 1644) "><g  event="remove"><circle r="11"></circle><path transform="scale(.8) translate(-16, -16)" d="M24.778,21.419 19.276,15.917 24.777,10.415 21.949,7.585 16.447,13.087 10.945,7.585 8.117,10.415 13.618,15.917 8.116,21.419 10.946,24.248 16.447,18.746 21.948,24.248z"></path><title>Remove link.</title></g><g  event="link:options"><circle r="11" transform="translate(25)"></circle><path fill="white" transform="scale(.55) translate(29, -16)" d="M31.229,17.736c0.064-0.571,0.104-1.148,0.104-1.736s-0.04-1.166-0.104-1.737l-4.377-1.557c-0.218-0.716-0.504-1.401-0.851-2.05l1.993-4.192c-0.725-0.91-1.549-1.734-2.458-2.459l-4.193,1.994c-0.647-0.347-1.334-0.632-2.049-0.849l-1.558-4.378C17.165,0.708,16.588,0.667,16,0.667s-1.166,0.041-1.737,0.105L12.707,5.15c-0.716,0.217-1.401,0.502-2.05,0.849L6.464,4.005C5.554,4.73,4.73,5.554,4.005,6.464l1.994,4.192c-0.347,0.648-0.632,1.334-0.849,2.05l-4.378,1.557C0.708,14.834,0.667,15.412,0.667,16s0.041,1.165,0.105,1.736l4.378,1.558c0.217,0.715,0.502,1.401,0.849,2.049l-1.994,4.193c0.725,0.909,1.549,1.733,2.459,2.458l4.192-1.993c0.648,0.347,1.334,0.633,2.05,0.851l1.557,4.377c0.571,0.064,1.148,0.104,1.737,0.104c0.588,0,1.165-0.04,1.736-0.104l1.558-4.377c0.715-0.218,1.399-0.504,2.049-0.851l4.193,1.993c0.909-0.725,1.733-1.549,2.458-2.458l-1.993-4.193c0.347-0.647,0.633-1.334,0.851-2.049L31.229,17.736zM16,20.871c-2.69,0-4.872-2.182-4.872-4.871c0-2.69,2.182-4.872,4.872-4.872c2.689,0,4.871,2.182,4.871,4.872C20.871,18.689,18.689,20.871,16,20.871z"></path><title>Link options.</title></g></g></g></g></g><defs id="v-4"></defs></svg>