<svg xmlns="http://www.w3.org/2000/svg" xmlns:xlink="http://www.w3.org/1999/xlink" version="1.1" viewBox="0 0 2480 3508" style="background: #ffffff"><g id="v-3"  transform="matrix(1,0,0,1,0,0)"><g id="j_303"    transform="translate(20,3463)"><g id="v-4703"><text  id="v-4704" font-size="22px" y="0.8em" xml:space="preserve" font-weight="normal" text-anchor="start" fill="#777777" pointer-events="none" font-family="Open Sans" transform="matrix(1,0,0,1,0,0)" display="none"><tspan id="v-4705"  dy="0em" x="0">Thursday, November 19, 2020, 2:21 PM Central European Standard Time | Diagram created with Structurizr</tspan></text></g></g><g id="j_302"    transform="translate(20,3417)"><g id="v-4699"><text  id="v-4700" font-size="36px" y="0.8em" xml:space="preserve" font-weight="normal" text-anchor="start" fill="#000000" pointer-events="none" font-family="Open Sans" transform="matrix(1,0,0,1,0,0)" display="none"><tspan id="v-4701"  dy="0em" x="0">Component diagram for plgd Cloud - CoAP Gateway</tspan></text></g></g><g id="j_288"    transform="translate(1005,1547)" style=""><g id="v-4500"><rect  id="v-4501" width="490" height="413" rx="0" ry="0" fill="#ffffff" stroke="#444444" stroke-width="2" stroke-dasharray="20,20" pointer-events="none"></rect><text  id="v-4502" font-size="24px" y="374" xml:space="preserve" font-weight="normal" fill="#444444" x="10" text-anchor="start" pointer-events="visible" font-family="Open Sans" transform="matrix(1,0,0,1,15,0)"><tspan id="v-4504"  dy="0em" x="0">CoAP Gateway</tspan></text><text  id="v-4503" font-size="19px" y="398" xml:space="preserve" font-weight="normal" fill="#444444" x="10" text-anchor="start" pointer-events="visible" font-family="Open Sans" transform="matrix(1,0,0,1,15,0)"><tspan id="v-4505"  dy="0em" x="0">[Container]</tspan></text></g></g><g id="j_296"    transform="translate(1005,947)" style=""><g id="v-4593"><rect  id="v-4594" width="490" height="413" rx="0" ry="0" fill="#ffffff" stroke="#cccccc" stroke-width="2" stroke-dasharray="20,20" pointer-events="none"></rect><text  id="v-4595" font-size="24px" y="374" xml:space="preserve" font-weight="normal" fill="#cccccc" x="10" text-anchor="start" pointer-events="visible" font-family="Open Sans" transform="matrix(1,0,0,1,15,0)"><tspan id="v-4597"  dy="0em" x="0">Embedded Application</tspan></text><text  id="v-4596" font-size="19px" y="398" xml:space="preserve" font-weight="normal" fill="#cccccc" x="10" text-anchor="start" pointer-events="visible" font-family="Open Sans" transform="matrix(1,0,0,1,15,0)"><tspan id="v-4598"  dy="0em" x="0">[Container]</tspan></text></g></g><g id="j_293"    transform="translate(1005,2147)" style=""><g id="v-4555"><rect  id="v-4556" width="490" height="413" rx="0" ry="0" fill="#ffffff" stroke="#cccccc" stroke-width="2" stroke-dasharray="20,20" pointer-events="none"></rect><text  id="v-4557" font-size="24px" y="374" xml:space="preserve" font-weight="normal" fill="#cccccc" x="10" text-anchor="start" pointer-events="visible" font-family="Open Sans" transform="matrix(1,0,0,1,15,0)"><tspan id="v-4559"  dy="0em" x="0">Resource Aggregate</tspan></text><text  id="v-4558" font-size="19px" y="398" xml:space="preserve" font-weight="normal" fill="#cccccc" x="10" text-anchor="start" pointer-events="visible" font-family="Open Sans" transform="matrix(1,0,0,1,15,0)"><tspan id="v-4560"  dy="0em" x="0">[Container]</tspan></text></g></g><g id="j_291"    transform="translate(255,2147)" style=""><g id="v-4534"><rect  id="v-4535" width="490" height="413" rx="0" ry="0" fill="#ffffff" stroke="#cccccc" stroke-width="2" stroke-dasharray="20,20" pointer-events="none"></rect><text  id="v-4536" font-size="24px" y="374" xml:space="preserve" font-weight="normal" fill="#cccccc" x="10" text-anchor="start" pointer-events="visible" font-family="Open Sans" transform="matrix(1,0,0,1,15,0)"><tspan id="v-4538"  dy="0em" x="0">Resource Directory</tspan></text><text  id="v-4537" font-size="19px" y="398" xml:space="preserve" font-weight="normal" fill="#cccccc" x="10" text-anchor="start" pointer-events="visible" font-family="Open Sans" transform="matrix(1,0,0,1,15,0)"><tspan id="v-4539"  dy="0em" x="0">[Container]</tspan></text></g></g><g id="j_289"    transform="translate(1025,1567)" style=""><g  id="v-4507" style="opacity: 1;"><rect  id="v-4508" rx="1" ry="1" stroke="#80b3cb" stroke-width="2" pointer-events="visiblePainted" fill="#8ec7e1" width="450" height="300"></rect><text  id="v-4509" font-size="34" y="0.8em" xml:space="preserve" font-weight="bold" text-anchor="middle" pointer-events="visible" font-family="Open Sans" fill="#000000" transform="matrix(1,0,0,1,225,90)"><tspan id="v-4514"  dy="0em" x="0">Protocol Adapter</tspan></text><text  id="v-4510" font-size="19" y="0.8em" xml:space="preserve" text-anchor="middle" font-family="Open Sans" fill="#000000" transform="matrix(1,0,0,1,225,130)"><tspan id="v-4515"  dy="0em" x="0">[Component]</tspan></text><text  id="v-4511" font-size="24" y="0.8em" xml:space="preserve" text-anchor="middle" font-family="Open Sans" fill="#000000" transform="matrix(1,0,0,1,225,180)"><tspan id="v-4516"  dy="0em" x="0">Translates OCF protocol</tspan></text><text  id="v-4512" font-weight="bold" text-anchor="middle" font-family="Open Sans" fill="#000000" font-size="24" transform="matrix(1,0,0,1,225,270)" display="none"></text><image  id="v-4513"></image></g></g><g id="j_290"    transform="translate(275,2167)" style="" ><g  id="v-4522" style="opacity: 1;"><rect  id="v-4523" rx="1" ry="1" stroke="#80b3cb" stroke-width="2" pointer-events="visiblePainted" fill="#8ec7e1" width="450" height="300"></rect><text  id="v-4524" font-size="34" y="0.8em" xml:space="preserve" font-weight="bold" text-anchor="middle" pointer-events="visible" font-family="Open Sans" fill="#000000" transform="matrix(1,0,0,1,225,75)"><tspan id="v-4529"  dy="0em" x="0">Projections Component</tspan></text><text  id="v-4525" font-size="19" y="0.8em" xml:space="preserve" text-anchor="middle" font-family="Open Sans" fill="#000000" transform="matrix(1,0,0,1,225,115)"><tspan id="v-4530"  dy="0em" x="0">[Component]</tspan></text><text  id="v-4526" font-size="24" y="0.8em" xml:space="preserve" text-anchor="middle" font-family="Open Sans" fill="#000000" transform="matrix(1,0,0,1,225,165)"><tspan id="v-4531"  dy="0em" x="0">Builds and maintains device and</tspan><tspan id="v-4532"  dy="1.2em" x="0">resource projections</tspan></text><text  id="v-4527" font-weight="bold" text-anchor="middle" font-family="Open Sans" fill="#000000" font-size="24" transform="matrix(1,0,0,1,225,270)" y="0.8em" xml:space="preserve" display="none"><tspan id="v-4540"  dy="0em" x="0">#</tspan></text><image  id="v-4528"></image></g></g><g id="j_292"    transform="translate(1025,2167)" style=""><g  id="v-4544" style="opacity: 1;"><rect  id="v-4545" rx="1" ry="1" stroke="#80b3cb" stroke-width="2" pointer-events="visiblePainted" fill="#8ec7e1" width="450" height="300"></rect><text  id="v-4546" font-size="34" y="0.8em" xml:space="preserve" font-weight="bold" text-anchor="middle" pointer-events="visible" font-family="Open Sans" fill="#000000" transform="matrix(1,0,0,1,225,90)"><tspan id="v-4551"  dy="0em" x="0">Command Handler</tspan></text><text  id="v-4547" font-size="19" y="0.8em" xml:space="preserve" text-anchor="middle" font-family="Open Sans" fill="#000000" transform="matrix(1,0,0,1,225,130)"><tspan id="v-4552"  dy="0em" x="0">[Component]</tspan></text><text  id="v-4548" font-size="24" y="0.8em" xml:space="preserve" text-anchor="middle" font-family="Open Sans" fill="#000000" transform="matrix(1,0,0,1,225,180)"><tspan id="v-4553"  dy="0em" x="0">Validates received commands</tspan></text><text  id="v-4549" font-weight="bold" text-anchor="middle" font-family="Open Sans" fill="#000000" font-size="24" transform="matrix(1,0,0,1,225,270)" display="none"></text><image  id="v-4550"></image></g></g><g id="j_294"    transform="translate(1775,1567)" style="" ><g  id="v-4566" style="opacity: 1;"><rect  id="v-4567" rx="1" ry="1" stroke="#c7c7c7" stroke-width="2" pointer-events="visiblePainted" fill="#dddddd" width="450" height="300"></rect><text  id="v-4568" font-size="34" y="0.8em" xml:space="preserve" font-weight="bold" text-anchor="middle" pointer-events="visible" font-family="Open Sans" fill="#000000" transform="matrix(1,0,0,1,225,75)"><tspan id="v-4573"  dy="0em" x="0">Authorization Server</tspan></text><text  id="v-4569" font-size="19" y="0.8em" xml:space="preserve" text-anchor="middle" font-family="Open Sans" fill="#000000" transform="matrix(1,0,0,1,225,115)"><tspan id="v-4574"  dy="0em" x="0">[Software System]</tspan></text><text  id="v-4570" font-size="24" y="0.8em" xml:space="preserve" text-anchor="middle" font-family="Open Sans" fill="#000000" transform="matrix(1,0,0,1,225,165)"><tspan id="v-4575"  dy="0em" x="0">An OAuth2.0 server authorizing and</tspan><tspan id="v-4576"  dy="1.2em" x="0">storing users and devices identities</tspan></text><text  id="v-4571" font-weight="bold" text-anchor="middle" font-family="Open Sans" fill="#000000" font-size="24" transform="matrix(1,0,0,1,225,270)" y="0.8em" display="none" xml:space="preserve"><tspan id="v-4577"  dy="0em" x="0" style="fill-opacity: 0; stroke-opacity: 0;">-</tspan></text><image  id="v-4572"></image></g></g><g id="j_295"    transform="translate(1025,967)" style="" ><g  id="v-4581" style="opacity: 1;"><rect  id="v-4582" rx="20" ry="20" stroke="#5fa117" stroke-width="2" pointer-events="visiblePainted" fill="#6ab31a" width="450" height="300"></rect><text  id="v-4583" font-size="34" y="0.8em" xml:space="preserve" font-weight="bold" text-anchor="middle" pointer-events="visible" font-family="Open Sans" fill="#000000" transform="matrix(1,0,0,1,225,75)"><tspan id="v-4588"  dy="0em" x="0">IoTivity-Lite</tspan></text><text  id="v-4584" font-size="19" y="0.8em" xml:space="preserve" text-anchor="middle" font-family="Open Sans" fill="#000000" transform="matrix(1,0,0,1,225,115)"><tspan id="v-4589"  dy="0em" x="0">[Component]</tspan></text><text  id="v-4585" font-size="24" y="0.8em" xml:space="preserve" text-anchor="middle" font-family="Open Sans" fill="#000000" transform="matrix(1,0,0,1,225,165)"><tspan id="v-4590"  dy="0em" x="0">Device library implementing OCF</tspan><tspan id="v-4591"  dy="1.2em" x="0">standard</tspan></text><text  id="v-4586" font-weight="bold" text-anchor="middle" font-family="Open Sans" fill="#000000" font-size="24" transform="matrix(1,0,0,1,225,270)" y="0.8em" xml:space="preserve" display="none"><tspan id="v-4599"  dy="0em" x="0">#</tspan></text><image  id="v-4587"></image></g></g><g id="j_297"   ><path  stroke="#707070" id="v-4617" stroke-width="2" stroke-dasharray="30 30" fill="none" d="M 1063 1867 704 2155" style="opacity: 1;"></path><path  fill="black" stroke="black" transform="translate(1063,1867) scale(1,1) rotate(-218.6598055873492)"></path><path  fill="#707070" stroke="#707070" id="v-4619" d="M 20 0 L 0 10 L 20 20 z" transform="translate(681.7530517578125,2159.191162109375) scale(1,1) rotate(-38.65980825409009)" style="opacity: 1;"></path><path  id="v-4618" fill="none" d="M 1063 1867 704 2155" style=""></path><title ></title><g ><g  id="v-4605" label-idx="0" cursor="move" transform="translate(883.5, 2011)" style="opacity: 1;"><rect id="v-4607" fill="#ffffff" rx="3" ry="3" stroke="#ffffff" stroke-width="20px" pointer-events="none" width="91.04999542236328" height="32.99999809265137" transform="matrix(1,0,0,1,-45.29999923706055,-16.5)"></rect><text id="v-4606" font-size="24px" y="0.8em" xml:space="preserve" text-anchor="middle" pointer-events="none" fill="#707070" font-family="Open Sans" font-weight="normal" transform="matrix(1,0,0,1,0,-8.699999809265137)"><tspan id="v-4608"  dy="0em" x="0">Queries</tspan></text></g><g  id="v-4609" label-idx="1" cursor="move" transform="translate(883.5, 2042.2)" style="opacity: 1;"><rect id="v-4611" fill="#ffffff" rx="3" ry="3" pointer-events="none" width="0" height="0" transform="matrix(1,0,0,1,0,0)"></rect><text id="v-4610" font-size="19px" y="0.8em" display="none" xml:space="preserve" text-anchor="middle" pointer-events="none" fill="#707070" font-family="Open Sans" font-weight="normal" transform="matrix(1,0,0,1,0,0)"><tspan id="v-4612"  dy="0em" x="0" style="fill-opacity: 0; stroke-opacity: 0;">-</tspan></text></g><g  id="v-4613" label-idx="2" cursor="move" transform="translate(883.5, 2066.2)" style="opacity: 1;"><rect id="v-4615" fill="#ffffff" rx="3" ry="3" pointer-events="none"  display="none" width="0" height="0" transform="matrix(1,0,0,1,0,0)"></rect><text id="v-4614" font-size="19px" y="0.8em" display="none" xml:space="preserve" text-anchor="middle" pointer-events="none" fill="#707070" font-family="Open Sans" font-weight="normal"  transform="matrix(1,0,0,1,0,0)"><tspan id="v-4616"  dy="0em" x="0" style="fill-opacity: 0; stroke-opacity: 0;">-</tspan></text></g></g><g  display="none"></g><g  id="v-4621" display="none"><g  id="v-4602"><path  end="source" d="M 26 0 L 0 13 L 26 26 z"></path></g><g  id="v-4603"><path  end="target" d="M 26 0 L 0 13 L 26 26 z"></path></g></g><g  id="v-4620" display="none"><g  id="v-4601" transform="translate(1031.7991943359375, 1892.0301513671875) "><g  event="remove"><circle r="11"></circle><path transform="scale(.8) translate(-16, -16)" d="M24.778,21.419 19.276,15.917 24.777,10.415 21.949,7.585 16.447,13.087 10.945,7.585 8.117,10.415 13.618,15.917 8.116,21.419 10.946,24.248 16.447,18.746 21.948,24.248z"></path><title>Remove link.</title></g><g  event="link:options"><circle r="11" transform="translate(25)"></circle><path fill="white" transform="scale(.55) translate(29, -16)" d="M31.229,17.736c0.064-0.571,0.104-1.148,0.104-1.736s-0.04-1.166-0.104-1.737l-4.377-1.557c-0.218-0.716-0.504-1.401-0.851-2.05l1.993-4.192c-0.725-0.91-1.549-1.734-2.458-2.459l-4.193,1.994c-0.647-0.347-1.334-0.632-2.049-0.849l-1.558-4.378C17.165,0.708,16.588,0.667,16,0.667s-1.166,0.041-1.737,0.105L12.707,5.15c-0.716,0.217-1.401,0.502-2.05,0.849L6.464,4.005C5.554,4.73,4.73,5.554,4.005,6.464l1.994,4.192c-0.347,0.648-0.632,1.334-0.849,2.05l-4.378,1.557C0.708,14.834,0.667,15.412,0.667,16s0.041,1.165,0.105,1.736l4.378,1.558c0.217,0.715,0.502,1.401,0.849,2.049l-1.994,4.193c0.725,0.909,1.549,1.733,2.459,2.458l4.192-1.993c0.648,0.347,1.334,0.633,2.05,0.851l1.557,4.377c0.571,0.064,1.148,0.104,1.737,0.104c0.588,0,1.165-0.04,1.736-0.104l1.558-4.377c0.715-0.218,1.399-0.504,2.049-0.851l4.193,1.993c0.909-0.725,1.733-1.549,2.458-2.458l-1.993-4.193c0.347-0.647,0.633-1.334,0.851-2.049L31.229,17.736zM16,20.871c-2.69,0-4.872-2.182-4.872-4.871c0-2.69,2.182-4.872,4.872-4.872c2.689,0,4.871,2.182,4.871,4.872C20.871,18.689,18.689,20.871,16,20.871z"></path><title>Link options.</title></g></g></g></g><g id="j_298"   ><path  stroke="#707070" id="v-4642" stroke-width="2" stroke-dasharray="30 30" fill="none" d="M 1250 1567 1250 1287" style="opacity: 1;"></path><path  fill="black" stroke="black" transform="translate(1250,1567) scale(1,1) rotate(-90)"></path><path  fill="#707070" stroke="#707070" id="v-4644" d="M 20 0 L 0 10 L 20 20 z" transform="translate(1260,1267) scale(1,1) rotate(-270)" style="opacity: 1;"></path><path  id="v-4643" fill="none" d="M 1250 1567 1250 1287" style=""></path><title ></title><g ><g  id="v-4629" label-idx="0" cursor="move" transform="translate(1250, 1427)" style="opacity: 1;"><rect id="v-4631" fill="#ffffff" rx="3" ry="3" stroke="#ffffff" stroke-width="20px" pointer-events="none" width="156.1999969482422" height="61.799997329711914" transform="matrix(1,0,0,1,-78,-30.899999618530273)"></rect><text id="v-4630" font-size="24px" y="0.8em" xml:space="preserve" text-anchor="middle" pointer-events="none" fill="#707070" font-family="Open Sans" font-weight="normal" transform="matrix(1,0,0,1,0,-23.100000381469727)"><tspan id="v-4632"  dy="0em" x="0">Interacts</tspan><tspan id="v-4633"  dy="1.2em" x="0">remotely with</tspan></text></g><g  id="v-4634" label-idx="1" cursor="move" transform="translate(1250, 1470.2)" style="opacity: 1;"><rect id="v-4636" fill="#ffffff" rx="3" ry="3" pointer-events="none" width="0" height="0" transform="matrix(1,0,0,1,0,0)"></rect><text id="v-4635" font-size="19px" y="0.8em" display="none" xml:space="preserve" text-anchor="middle" pointer-events="none" fill="#707070" font-family="Open Sans" font-weight="normal" transform="matrix(1,0,0,1,0,0)"><tspan id="v-4637"  dy="0em" x="0" style="fill-opacity: 0; stroke-opacity: 0;">-</tspan></text></g><g  id="v-4638" label-idx="2" cursor="move" transform="translate(1250, 1494.2)" style="opacity: 1;"><rect id="v-4640" fill="#ffffff" rx="3" ry="3" pointer-events="none"  display="none" width="0" height="0" transform="matrix(1,0,0,1,0,0)"></rect><text id="v-4639" font-size="19px" y="0.8em" display="none" xml:space="preserve" text-anchor="middle" pointer-events="none" fill="#707070" font-family="Open Sans" font-weight="normal"  transform="matrix(1,0,0,1,0,0)"><tspan id="v-4641"  dy="0em" x="0" style="fill-opacity: 0; stroke-opacity: 0;">-</tspan></text></g></g><g  display="none"></g><g  id="v-4646" display="none"><g  id="v-4626"><path  end="source" d="M 26 0 L 0 13 L 26 26 z"></path></g><g  id="v-4627"><path  end="target" d="M 26 0 L 0 13 L 26 26 z"></path></g></g><g  id="v-4645" display="none"><g  id="v-4625" transform="translate(1250, 1527) "><g  event="remove"><circle r="11"></circle><path transform="scale(.8) translate(-16, -16)" d="M24.778,21.419 19.276,15.917 24.777,10.415 21.949,7.585 16.447,13.087 10.945,7.585 8.117,10.415 13.618,15.917 8.116,21.419 10.946,24.248 16.447,18.746 21.948,24.248z"></path><title>Remove link.</title></g><g  event="link:options"><circle r="11" transform="translate(25)"></circle><path fill="white" transform="scale(.55) translate(29, -16)" d="M31.229,17.736c0.064-0.571,0.104-1.148,0.104-1.736s-0.04-1.166-0.104-1.737l-4.377-1.557c-0.218-0.716-0.504-1.401-0.851-2.05l1.993-4.192c-0.725-0.91-1.549-1.734-2.458-2.459l-4.193,1.994c-0.647-0.347-1.334-0.632-2.049-0.849l-1.558-4.378C17.165,0.708,16.588,0.667,16,0.667s-1.166,0.041-1.737,0.105L12.707,5.15c-0.716,0.217-1.401,0.502-2.05,0.849L6.464,4.005C5.554,4.73,4.73,5.554,4.005,6.464l1.994,4.192c-0.347,0.648-0.632,1.334-0.849,2.05l-4.378,1.557C0.708,14.834,0.667,15.412,0.667,16s0.041,1.165,0.105,1.736l4.378,1.558c0.217,0.715,0.502,1.401,0.849,2.049l-1.994,4.193c0.725,0.909,1.549,1.733,2.459,2.458l4.192-1.993c0.648,0.347,1.334,0.633,2.05,0.851l1.557,4.377c0.571,0.064,1.148,0.104,1.737,0.104c0.588,0,1.165-0.04,1.736-0.104l1.558-4.377c0.715-0.218,1.399-0.504,2.049-0.851l4.193,1.993c0.909-0.725,1.733-1.549,2.458-2.458l-1.993-4.193c0.347-0.647,0.633-1.334,0.851-2.049L31.229,17.736zM16,20.871c-2.69,0-4.872-2.182-4.872-4.871c0-2.69,2.182-4.872,4.872-4.872c2.689,0,4.871,2.182,4.871,4.872C20.871,18.689,18.689,20.871,16,20.871z"></path><title>Link options.</title></g></g></g></g><g id="j_299"   ><path  stroke="#707070" id="v-4667" stroke-width="2" stroke-dasharray="30 30" fill="none" d="M 1475 1717 1755 1717" style="opacity: 1;"></path><path  fill="black" stroke="black" transform="translate(1475,1717) scale(1,1) rotate(0)"></path><path  fill="#707070" stroke="#707070" id="v-4669" d="M 20 0 L 0 10 L 20 20 z" transform="translate(1775,1727) scale(1,1) rotate(-180)" style="opacity: 1;"></path><path  id="v-4668" fill="none" d="M 1475 1717 1755 1717" style=""></path><title ></title><g ><g  id="v-4654" label-idx="0" cursor="move" transform="translate(1615, 1717)" style="opacity: 1;"><rect id="v-4656" fill="#ffffff" rx="3" ry="3" stroke="#ffffff" stroke-width="20px" pointer-events="none" width="167.25" height="61.799997329711914" transform="matrix(1,0,0,1,-82.80000305175781,-30.899999618530273)"></rect><text id="v-4655" font-size="24px" y="0.8em" xml:space="preserve" text-anchor="middle" pointer-events="none" fill="#707070" font-family="Open Sans" font-weight="normal" transform="matrix(1,0,0,1,0,-23.100000381469727)"><tspan id="v-4657"  dy="0em" x="0">Authorizes</tspan><tspan id="v-4658"  dy="1.2em" x="0">requests using</tspan></text></g><g  id="v-4659" label-idx="1" cursor="move" transform="translate(1615, 1760.2)" style="opacity: 1;"><rect id="v-4661" fill="#ffffff" rx="3" ry="3" pointer-events="none" width="0" height="0" transform="matrix(1,0,0,1,0,0)"></rect><text id="v-4660" font-size="19px" y="0.8em" display="none" xml:space="preserve" text-anchor="middle" pointer-events="none" fill="#707070" font-family="Open Sans" font-weight="normal" transform="matrix(1,0,0,1,0,0)"><tspan id="v-4662"  dy="0em" x="0" style="fill-opacity: 0; stroke-opacity: 0;">-</tspan></text></g><g  id="v-4663" label-idx="2" cursor="move" transform="translate(1615, 1784.2)" style="opacity: 1;"><rect id="v-4665" fill="#ffffff" rx="3" ry="3" pointer-events="none"  display="none" width="0" height="0" transform="matrix(1,0,0,1,0,0)"></rect><text id="v-4664" font-size="19px" y="0.8em" display="none" xml:space="preserve" text-anchor="middle" pointer-events="none" fill="#707070" font-family="Open Sans" font-weight="normal"  transform="matrix(1,0,0,1,0,0)"><tspan id="v-4666"  dy="0em" x="0" style="fill-opacity: 0; stroke-opacity: 0;">-</tspan></text></g></g><g  display="none"></g><g  id="v-4671" display="none"><g  id="v-4651"><path  end="source" d="M 26 0 L 0 13 L 26 26 z"></path></g><g  id="v-4652"><path  end="target" d="M 26 0 L 0 13 L 26 26 z"></path></g></g><g  id="v-4670" display="none"><g  id="v-4650" transform="translate(1515, 1717) "><g  event="remove"><circle r="11"></circle><path transform="scale(.8) translate(-16, -16)" d="M24.778,21.419 19.276,15.917 24.777,10.415 21.949,7.585 16.447,13.087 10.945,7.585 8.117,10.415 13.618,15.917 8.116,21.419 10.946,24.248 16.447,18.746 21.948,24.248z"></path><title>Remove link.</title></g><g  event="link:options"><circle r="11" transform="translate(25)"></circle><path fill="white" transform="scale(.55) translate(29, -16)" d="M31.229,17.736c0.064-0.571,0.104-1.148,0.104-1.736s-0.04-1.166-0.104-1.737l-4.377-1.557c-0.218-0.716-0.504-1.401-0.851-2.05l1.993-4.192c-0.725-0.91-1.549-1.734-2.458-2.459l-4.193,1.994c-0.647-0.347-1.334-0.632-2.049-0.849l-1.558-4.378C17.165,0.708,16.588,0.667,16,0.667s-1.166,0.041-1.737,0.105L12.707,5.15c-0.716,0.217-1.401,0.502-2.05,0.849L6.464,4.005C5.554,4.73,4.73,5.554,4.005,6.464l1.994,4.192c-0.347,0.648-0.632,1.334-0.849,2.05l-4.378,1.557C0.708,14.834,0.667,15.412,0.667,16s0.041,1.165,0.105,1.736l4.378,1.558c0.217,0.715,0.502,1.401,0.849,2.049l-1.994,4.193c0.725,0.909,1.549,1.733,2.459,2.458l4.192-1.993c0.648,0.347,1.334,0.633,2.05,0.851l1.557,4.377c0.571,0.064,1.148,0.104,1.737,0.104c0.588,0,1.165-0.04,1.736-0.104l1.558-4.377c0.715-0.218,1.399-0.504,2.049-0.851l4.193,1.993c0.909-0.725,1.733-1.549,2.458-2.458l-1.993-4.193c0.347-0.647,0.633-1.334,0.851-2.049L31.229,17.736zM16,20.871c-2.69,0-4.872-2.182-4.872-4.871c0-2.69,2.182-4.872,4.872-4.872c2.689,0,4.871,2.182,4.871,4.872C20.871,18.689,18.689,20.871,16,20.871z"></path><title>Link options.</title></g></g></g></g><g id="j_300"   ><path  stroke="#707070" id="v-4689" stroke-width="2" stroke-dasharray="30 30" fill="none" d="M 1250 1867 1250 2147" style="opacity: 1;"></path><path  fill="black" stroke="black" transform="translate(1250,1867) scale(1,1) rotate(-270)"></path><path  fill="#707070" stroke="#707070" id="v-4691" d="M 20 0 L 0 10 L 20 20 z" transform="translate(1240,2167) scale(1,1) rotate(-90)" style="opacity: 1;"></path><path  id="v-4690" fill="none" d="M 1250 1867 1250 2147" style=""></path><title ></title><g ><g  id="v-4677" label-idx="0" cursor="move" transform="translate(1250, 2007)" style="opacity: 1;"><rect id="v-4679" fill="#ffffff" rx="3" ry="3" stroke="#ffffff" stroke-width="20px" pointer-events="none" width="131.89999389648438" height="32.99999809265137" transform="matrix(1,0,0,1,-65.69999694824219,-16.5)"></rect><text id="v-4678" font-size="24px" y="0.8em" xml:space="preserve" text-anchor="middle" pointer-events="none" fill="#707070" font-family="Open Sans" font-weight="normal" transform="matrix(1,0,0,1,0,-8.699999809265137)"><tspan id="v-4680"  dy="0em" x="0">Commands</tspan></text></g><g  id="v-4681" label-idx="1" cursor="move" transform="translate(1250, 2038.2)" style="opacity: 1;"><rect id="v-4683" fill="#ffffff" rx="3" ry="3" pointer-events="none" width="0" height="0" transform="matrix(1,0,0,1,0,0)"></rect><text id="v-4682" font-size="19px" y="0.8em" display="none" xml:space="preserve" text-anchor="middle" pointer-events="none" fill="#707070" font-family="Open Sans" font-weight="normal" transform="matrix(1,0,0,1,0,0)"><tspan id="v-4684"  dy="0em" x="0" style="fill-opacity: 0; stroke-opacity: 0;">-</tspan></text></g><g  id="v-4685" label-idx="2" cursor="move" transform="translate(1250, 2062.2)" style="opacity: 1;"><rect id="v-4687" fill="#ffffff" rx="3" ry="3" pointer-events="none"  display="none" width="0" height="0" transform="matrix(1,0,0,1,0,0)"></rect><text id="v-4686" font-size="19px" y="0.8em" display="none" xml:space="preserve" text-anchor="middle" pointer-events="none" fill="#707070" font-family="Open Sans" font-weight="normal"  transform="matrix(1,0,0,1,0,0)"><tspan id="v-4688"  dy="0em" x="0" style="fill-opacity: 0; stroke-opacity: 0;">-</tspan></text></g></g><g  display="none"></g><g  id="v-4693" display="none"><g  id="v-4674"><path  end="source" d="M 26 0 L 0 13 L 26 26 z"></path></g><g  id="v-4675"><path  end="target" d="M 26 0 L 0 13 L 26 26 z"></path></g></g><g  id="v-4692" display="none"><g  id="v-4673" transform="translate(1250, 1907) "><g  event="remove"><circle r="11"></circle><path transform="scale(.8) translate(-16, -16)" d="M24.778,21.419 19.276,15.917 24.777,10.415 21.949,7.585 16.447,13.087 10.945,7.585 8.117,10.415 13.618,15.917 8.116,21.419 10.946,24.248 16.447,18.746 21.948,24.248z"></path><title>Remove link.</title></g><g  event="link:options"><circle r="11" transform="translate(25)"></circle><path fill="white" transform="scale(.55) translate(29, -16)" d="M31.229,17.736c0.064-0.571,0.104-1.148,0.104-1.736s-0.04-1.166-0.104-1.737l-4.377-1.557c-0.218-0.716-0.504-1.401-0.851-2.05l1.993-4.192c-0.725-0.91-1.549-1.734-2.458-2.459l-4.193,1.994c-0.647-0.347-1.334-0.632-2.049-0.849l-1.558-4.378C17.165,0.708,16.588,0.667,16,0.667s-1.166,0.041-1.737,0.105L12.707,5.15c-0.716,0.217-1.401,0.502-2.05,0.849L6.464,4.005C5.554,4.73,4.73,5.554,4.005,6.464l1.994,4.192c-0.347,0.648-0.632,1.334-0.849,2.05l-4.378,1.557C0.708,14.834,0.667,15.412,0.667,16s0.041,1.165,0.105,1.736l4.378,1.558c0.217,0.715,0.502,1.401,0.849,2.049l-1.994,4.193c0.725,0.909,1.549,1.733,2.459,2.458l4.192-1.993c0.648,0.347,1.334,0.633,2.05,0.851l1.557,4.377c0.571,0.064,1.148,0.104,1.737,0.104c0.588,0,1.165-0.04,1.736-0.104l1.558-4.377c0.715-0.218,1.399-0.504,2.049-0.851l4.193,1.993c0.909-0.725,1.733-1.549,2.458-2.458l-1.993-4.193c0.347-0.647,0.633-1.334,0.851-2.049L31.229,17.736zM16,20.871c-2.69,0-4.872-2.182-4.872-4.871c0-2.69,2.182-4.872,4.872-4.872c2.689,0,4.871,2.182,4.871,4.872C20.871,18.689,18.689,20.871,16,20.871z"></path><title>Link options.</title></g></g></g></g><g id="j_301"    transform="translate(1239.5,1429.8280945424087)"><g id="v-4695"><text  id="v-4696" font-size="413.3333333333333px" y="0.8em" xml:space="preserve" font-family="Open Sans" font-weight="bold" text-anchor="middle" dominant-baseline="baseline" pointer-events="none" stroke-width="0px" fill="#777777" stroke="#777777" opacity="0" transform="matrix(1,0,0,1,0,0)" style="display: block !important; visibility: visible !important"><tspan id="v-4697"  dy="0em" x="0">Structurizr</tspan></text></g></g></g><defs id="v-4"></defs></svg>