<svg xmlns="http://www.w3.org/2000/svg" xmlns:xlink="http://www.w3.org/1999/xlink" version="1.1" viewBox="0 0 2480 3508" style="background: #ffffff"><g id="v-3"  transform="matrix(1,0,0,1,0,0)"><g id="j_450"    transform="translate(20,3463)"><g id="v-7136"><text  id="v-7137" font-size="22px" y="0.8em" xml:space="preserve" font-weight="normal" text-anchor="start" fill="#777777" pointer-events="none" font-family="Open Sans" transform="matrix(1,0,0,1,0,0)" display="none"><tspan id="v-7138"  dy="0em" x="0">Wednesday, December 16, 2020, 10:49 AM Central European Standard Time</tspan></text></g></g><g id="j_449"    transform="translate(20,3417)"><g id="v-7132"><text  id="v-7133" font-size="36px" y="0.8em" xml:space="preserve" font-weight="normal" text-anchor="start" fill="#000000" pointer-events="none" font-family="Open Sans" transform="matrix(1,0,0,1,0,0)" display="none"><tspan id="v-7134"  dy="0em" x="0">Component diagram for plgd Cloud - HTTP Gateway</tspan></text></g></g><g id="j_437"    transform="translate(1005,1537)" style=""><g id="v-6940"><rect  id="v-6941" width="490" height="413" rx="0" ry="0" fill="#ffffff" stroke="#444444" stroke-width="2" stroke-dasharray="20,20" pointer-events="none"></rect><text  id="v-6942" font-size="24px" y="374" xml:space="preserve" font-weight="normal" fill="#444444" x="10" text-anchor="start" pointer-events="visible" font-family="Open Sans" transform="matrix(1,0,0,1,15,0)"><tspan id="v-6944"  dy="0em" x="0">HTTP Gateway</tspan></text><text  id="v-6943" font-size="19px" y="398" xml:space="preserve" font-weight="normal" fill="#444444" x="10" text-anchor="start" pointer-events="visible" font-family="Open Sans" transform="matrix(1,0,0,1,15,0)"><tspan id="v-6945"  dy="0em" x="0">[Container]</tspan></text></g></g><g id="j_442"    transform="translate(1005,2137)" style=""><g id="v-7002"><rect  id="v-7003" width="490" height="413" rx="0" ry="0" fill="#ffffff" stroke="#cccccc" stroke-width="2" stroke-dasharray="20,20" pointer-events="none"></rect><text  id="v-7004" font-size="24px" y="374" xml:space="preserve" font-weight="normal" fill="#cccccc" x="10" text-anchor="start" pointer-events="visible" font-family="Open Sans" transform="matrix(1,0,0,1,15,0)"><tspan id="v-7006"  dy="0em" x="0">Resource Aggregate</tspan></text><text  id="v-7005" font-size="19px" y="398" xml:space="preserve" font-weight="normal" fill="#cccccc" x="10" text-anchor="start" pointer-events="visible" font-family="Open Sans" transform="matrix(1,0,0,1,15,0)"><tspan id="v-7007"  dy="0em" x="0">[Container]</tspan></text></g></g><g id="j_439"    transform="translate(255,2137)" style=""><g id="v-6963"><rect  id="v-6964" width="490" height="413" rx="0" ry="0" fill="#ffffff" stroke="#cccccc" stroke-width="2" stroke-dasharray="20,20" pointer-events="none"></rect><text  id="v-6965" font-size="24px" y="374" xml:space="preserve" font-weight="normal" fill="#cccccc" x="10" text-anchor="start" pointer-events="visible" font-family="Open Sans" transform="matrix(1,0,0,1,15,0)"><tspan id="v-6967"  dy="0em" x="0">Resource Directory</tspan></text><text  id="v-6966" font-size="19px" y="398" xml:space="preserve" font-weight="normal" fill="#cccccc" x="10" text-anchor="start" pointer-events="visible" font-family="Open Sans" transform="matrix(1,0,0,1,15,0)"><tspan id="v-6968"  dy="0em" x="0">[Container]</tspan></text></g></g><g id="j_438"    transform="translate(275,2157)" style="" ><g  id="v-6951" style="opacity: 1;"><rect  id="v-6952" rx="1" ry="1" stroke="#80b3cb" stroke-width="2" pointer-events="visiblePainted" fill="#8ec7e1" width="450" height="300"></rect><text  id="v-6953" font-size="34" y="0.8em" xml:space="preserve" font-weight="bold" text-anchor="middle" pointer-events="visible" font-family="Open Sans" fill="#000000" transform="matrix(1,0,0,1,225,75)"><tspan id="v-6958"  dy="0em" x="0">Projections Component</tspan></text><text  id="v-6954" font-size="19" y="0.8em" xml:space="preserve" text-anchor="middle" font-family="Open Sans" fill="#000000" transform="matrix(1,0,0,1,225,115)"><tspan id="v-6959"  dy="0em" x="0">[Component]</tspan></text><text  id="v-6955" font-size="24" y="0.8em" xml:space="preserve" text-anchor="middle" font-family="Open Sans" fill="#000000" transform="matrix(1,0,0,1,225,165)"><tspan id="v-6960"  dy="0em" x="0">Builds and maintains device and</tspan><tspan id="v-6961"  dy="1.2em" x="0">resource projections</tspan></text><text  id="v-6956" font-weight="bold" text-anchor="middle" font-family="Open Sans" fill="#000000" font-size="24" transform="matrix(1,0,0,1,225,270)" y="0.8em" xml:space="preserve" display="none"><tspan id="v-6969"  dy="0em" x="0">#</tspan></text><image  id="v-6957"></image></g></g><g id="j_440"    transform="translate(1025,957)" style="" ><g  id="v-6971" style="opacity: 1;"><rect  id="v-6972" rx="10" ry="10" stroke="#2962a9" stroke-width="2" pointer-events="visiblePainted" fill="#2962a9" width="450" height="300"></rect><rect  id="v-6973" rx="10" ry="10" stroke="#2962a9" stroke-width="0" pointer-events="visiblePainted" fill="#2e6dbc" width="430" height="250" x="10" y="40"></rect><ellipse  id="v-6980" fill="#2e6dbc" cx="20" cy="20" rx="10" ry="10"></ellipse><ellipse  id="v-6981" fill="#2e6dbc" cx="50" cy="20" rx="10" ry="10"></ellipse><ellipse  id="v-6982" fill="#2e6dbc" cx="80" cy="20" rx="10" ry="10"></ellipse><rect  id="v-6974" rx="10" ry="10" stroke="#444444" stroke-width="0" pointer-events="visiblePainted" fill="#2e6dbc" width="340" height="20" x="100" y="10"></rect><text  id="v-6975" font-size="34" y="0.8em" xml:space="preserve" font-weight="bold" text-anchor="middle" pointer-events="visible" font-family="Open Sans" fill="#000000" transform="matrix(1,0,0,1,225,112.5)"><tspan id="v-6983"  dy="0em" x="0">Web Application</tspan></text><text  id="v-6976" font-size="19" y="0.8em" xml:space="preserve" text-anchor="middle" font-family="Open Sans" fill="#000000" transform="matrix(1,0,0,1,225,152.5)"><tspan id="v-6984"  dy="0em" x="0">from IoT System</tspan><tspan id="v-6985"  dy="1.2em" x="0">[Container]</tspan></text><text  id="v-6977" font-size="24" y="0.8em" display="none" xml:space="preserve" text-anchor="middle" font-family="Open Sans" fill="#000000" transform="matrix(1,0,0,1,225,227.5)"><tspan id="v-6986"  dy="0em" x="0" style="fill-opacity: 0; stroke-opacity: 0;">-</tspan></text><text  id="v-6978" font-weight="bold" text-anchor="middle" font-family="Open Sans" fill="#000000" font-size="24" transform="matrix(1,0,0,1,225,270)" y="0.8em" display="none" xml:space="preserve"><tspan id="v-6987"  dy="0em" x="0" style="fill-opacity: 0; stroke-opacity: 0;">-</tspan></text><image  id="v-6979"></image></g></g><g id="j_441"    transform="translate(1025,2157)" style=""><g  id="v-6991" style="opacity: 1;"><rect  id="v-6992" rx="1" ry="1" stroke="#80b3cb" stroke-width="2" pointer-events="visiblePainted" fill="#8ec7e1" width="450" height="300"></rect><text  id="v-6993" font-size="34" y="0.8em" xml:space="preserve" font-weight="bold" text-anchor="middle" pointer-events="visible" font-family="Open Sans" fill="#000000" transform="matrix(1,0,0,1,225,90)"><tspan id="v-6998"  dy="0em" x="0">Command Handler</tspan></text><text  id="v-6994" font-size="19" y="0.8em" xml:space="preserve" text-anchor="middle" font-family="Open Sans" fill="#000000" transform="matrix(1,0,0,1,225,130)"><tspan id="v-6999"  dy="0em" x="0">[Component]</tspan></text><text  id="v-6995" font-size="24" y="0.8em" xml:space="preserve" text-anchor="middle" font-family="Open Sans" fill="#000000" transform="matrix(1,0,0,1,225,180)"><tspan id="v-7000"  dy="0em" x="0">Validates received commands</tspan></text><text  id="v-6996" font-weight="bold" text-anchor="middle" font-family="Open Sans" fill="#000000" font-size="24" transform="matrix(1,0,0,1,225,270)" display="none"></text><image  id="v-6997"></image></g></g><g id="j_443"    transform="translate(1775,1557)" style="" ><g  id="v-7013" style="opacity: 1;"><rect  id="v-7014" rx="1" ry="1" stroke="#c7c7c7" stroke-width="2" pointer-events="visiblePainted" fill="#dddddd" width="450" height="300"></rect><text  id="v-7015" font-size="34" y="0.8em" xml:space="preserve" font-weight="bold" text-anchor="middle" pointer-events="visible" font-family="Open Sans" fill="#000000" transform="matrix(1,0,0,1,225,75)"><tspan id="v-7020"  dy="0em" x="0">Authorization Server</tspan></text><text  id="v-7016" font-size="19" y="0.8em" xml:space="preserve" text-anchor="middle" font-family="Open Sans" fill="#000000" transform="matrix(1,0,0,1,225,115)"><tspan id="v-7021"  dy="0em" x="0">[Software System]</tspan></text><text  id="v-7017" font-size="24" y="0.8em" xml:space="preserve" text-anchor="middle" font-family="Open Sans" fill="#000000" transform="matrix(1,0,0,1,225,165)"><tspan id="v-7022"  dy="0em" x="0">An OAuth2.0 server authorizing and</tspan><tspan id="v-7023"  dy="1.2em" x="0">storing users and devices identities</tspan></text><text  id="v-7018" font-weight="bold" text-anchor="middle" font-family="Open Sans" fill="#000000" font-size="24" transform="matrix(1,0,0,1,225,270)" y="0.8em" display="none" xml:space="preserve"><tspan id="v-7024"  dy="0em" x="0" style="fill-opacity: 0; stroke-opacity: 0;">-</tspan></text><image  id="v-7019"></image></g></g><g id="j_444"    transform="translate(1025,1557)" style=""><g  id="v-7028" style="opacity: 1;"><rect  id="v-7029" rx="1" ry="1" stroke="#80b3cb" stroke-width="2" pointer-events="visiblePainted" fill="#8ec7e1" width="450" height="300"></rect><text  id="v-7030" font-size="34" y="0.8em" xml:space="preserve" font-weight="bold" text-anchor="middle" pointer-events="visible" font-family="Open Sans" fill="#000000" transform="matrix(1,0,0,1,225,90)"><tspan id="v-7035"  dy="0em" x="0">Protocol Adapter</tspan></text><text  id="v-7031" font-size="19" y="0.8em" xml:space="preserve" text-anchor="middle" font-family="Open Sans" fill="#000000" transform="matrix(1,0,0,1,225,130)"><tspan id="v-7036"  dy="0em" x="0">[Component]</tspan></text><text  id="v-7032" font-size="24" y="0.8em" xml:space="preserve" text-anchor="middle" font-family="Open Sans" fill="#000000" transform="matrix(1,0,0,1,225,180)"><tspan id="v-7037"  dy="0em" x="0">Translates HTTP protocol</tspan></text><text  id="v-7033" font-weight="bold" text-anchor="middle" font-family="Open Sans" fill="#000000" font-size="24" transform="matrix(1,0,0,1,225,270)" display="none"></text><image  id="v-7034"></image></g></g><g id="j_445"   ><path  stroke="#707070" id="v-7055" stroke-width="2" stroke-dasharray="30 30" fill="none" d="M 1063 1857 704 2145" style="opacity: 1;"></path><path  fill="black" stroke="black" transform="translate(1063,1857) scale(1,1) rotate(-218.6598055873492)"></path><path  fill="#707070" stroke="#707070" id="v-7057" d="M 20 0 L 0 10 L 20 20 z" transform="translate(681.7530517578125,2149.191162109375) scale(1,1) rotate(-38.65980825409009)" style="opacity: 1;"></path><path  id="v-7056" fill="none" d="M 1063 1857 704 2145" style=""></path><title ></title><g ><g  id="v-7043" label-idx="0" cursor="move" transform="translate(883.5, 2001)" style="opacity: 1;"><rect id="v-7045" fill="#ffffff" rx="3" ry="3" stroke="#ffffff" stroke-width="20px" pointer-events="none" width="91.04999542236328" height="32.99999809265137" transform="matrix(1,0,0,1,-45.29999923706055,-16.5)"></rect><text id="v-7044" font-size="24px" y="0.8em" xml:space="preserve" text-anchor="middle" pointer-events="none" fill="#707070" font-family="Open Sans" font-weight="normal" transform="matrix(1,0,0,1,0,-8.699999809265137)"><tspan id="v-7046"  dy="0em" x="0">Queries</tspan></text></g><g  id="v-7047" label-idx="1" cursor="move" transform="translate(883.5, 2032.2)" style="opacity: 1;"><rect id="v-7049" fill="#ffffff" rx="3" ry="3" pointer-events="none" width="0" height="0" transform="matrix(1,0,0,1,0,0)"></rect><text id="v-7048" font-size="19px" y="0.8em" display="none" xml:space="preserve" text-anchor="middle" pointer-events="none" fill="#707070" font-family="Open Sans" font-weight="normal" transform="matrix(1,0,0,1,0,0)"><tspan id="v-7050"  dy="0em" x="0" style="fill-opacity: 0; stroke-opacity: 0;">-</tspan></text></g><g  id="v-7051" label-idx="2" cursor="move" transform="translate(883.5, 2056.2)" style="opacity: 1;"><rect id="v-7053" fill="#ffffff" rx="3" ry="3" pointer-events="none"  display="none" width="0" height="0" transform="matrix(1,0,0,1,0,0)"></rect><text id="v-7052" font-size="19px" y="0.8em" display="none" xml:space="preserve" text-anchor="middle" pointer-events="none" fill="#707070" font-family="Open Sans" font-weight="normal"  transform="matrix(1,0,0,1,0,0)"><tspan id="v-7054"  dy="0em" x="0" style="fill-opacity: 0; stroke-opacity: 0;">-</tspan></text></g></g><g  display="none"></g><g  id="v-7059" display="none"><g  id="v-7040"><path  end="source" d="M 26 0 L 0 13 L 26 26 z"></path></g><g  id="v-7041"><path  end="target" d="M 26 0 L 0 13 L 26 26 z"></path></g></g><g  id="v-7058" display="none"><g  id="v-7039" transform="translate(1031.7991943359375, 1882.0301513671875) "><g  event="remove"><circle r="11"></circle><path transform="scale(.8) translate(-16, -16)" d="M24.778,21.419 19.276,15.917 24.777,10.415 21.949,7.585 16.447,13.087 10.945,7.585 8.117,10.415 13.618,15.917 8.116,21.419 10.946,24.248 16.447,18.746 21.948,24.248z"></path><title>Remove link.</title></g><g  event="link:options"><circle r="11" transform="translate(25)"></circle><path fill="white" transform="scale(.55) translate(29, -16)" d="M31.229,17.736c0.064-0.571,0.104-1.148,0.104-1.736s-0.04-1.166-0.104-1.737l-4.377-1.557c-0.218-0.716-0.504-1.401-0.851-2.05l1.993-4.192c-0.725-0.91-1.549-1.734-2.458-2.459l-4.193,1.994c-0.647-0.347-1.334-0.632-2.049-0.849l-1.558-4.378C17.165,0.708,16.588,0.667,16,0.667s-1.166,0.041-1.737,0.105L12.707,5.15c-0.716,0.217-1.401,0.502-2.05,0.849L6.464,4.005C5.554,4.73,4.73,5.554,4.005,6.464l1.994,4.192c-0.347,0.648-0.632,1.334-0.849,2.05l-4.378,1.557C0.708,14.834,0.667,15.412,0.667,16s0.041,1.165,0.105,1.736l4.378,1.558c0.217,0.715,0.502,1.401,0.849,2.049l-1.994,4.193c0.725,0.909,1.549,1.733,2.459,2.458l4.192-1.993c0.648,0.347,1.334,0.633,2.05,0.851l1.557,4.377c0.571,0.064,1.148,0.104,1.737,0.104c0.588,0,1.165-0.04,1.736-0.104l1.558-4.377c0.715-0.218,1.399-0.504,2.049-0.851l4.193,1.993c0.909-0.725,1.733-1.549,2.458-2.458l-1.993-4.193c0.347-0.647,0.633-1.334,0.851-2.049L31.229,17.736zM16,20.871c-2.69,0-4.872-2.182-4.872-4.871c0-2.69,2.182-4.872,4.872-4.872c2.689,0,4.871,2.182,4.871,4.872C20.871,18.689,18.689,20.871,16,20.871z"></path><title>Link options.</title></g></g></g></g><g id="j_446"   ><path  stroke="#707070" id="v-7077" stroke-width="2" stroke-dasharray="30 30" fill="none" d="M 1250 1857 1250 2137" style="opacity: 1;"></path><path  fill="black" stroke="black" transform="translate(1250,1857) scale(1,1) rotate(-270)"></path><path  fill="#707070" stroke="#707070" id="v-7079" d="M 20 0 L 0 10 L 20 20 z" transform="translate(1240,2157) scale(1,1) rotate(-90)" style="opacity: 1;"></path><path  id="v-7078" fill="none" d="M 1250 1857 1250 2137" style=""></path><title ></title><g ><g  id="v-7065" label-idx="0" cursor="move" transform="translate(1250, 1997)" style="opacity: 1;"><rect id="v-7067" fill="#ffffff" rx="3" ry="3" stroke="#ffffff" stroke-width="20px" pointer-events="none" width="131.89999389648438" height="32.99999809265137" transform="matrix(1,0,0,1,-65.69999694824219,-16.5)"></rect><text id="v-7066" font-size="24px" y="0.8em" xml:space="preserve" text-anchor="middle" pointer-events="none" fill="#707070" font-family="Open Sans" font-weight="normal" transform="matrix(1,0,0,1,0,-8.699999809265137)"><tspan id="v-7068"  dy="0em" x="0">Commands</tspan></text></g><g  id="v-7069" label-idx="1" cursor="move" transform="translate(1250, 2028.2)" style="opacity: 1;"><rect id="v-7071" fill="#ffffff" rx="3" ry="3" pointer-events="none" width="0" height="0" transform="matrix(1,0,0,1,0,0)"></rect><text id="v-7070" font-size="19px" y="0.8em" display="none" xml:space="preserve" text-anchor="middle" pointer-events="none" fill="#707070" font-family="Open Sans" font-weight="normal" transform="matrix(1,0,0,1,0,0)"><tspan id="v-7072"  dy="0em" x="0" style="fill-opacity: 0; stroke-opacity: 0;">-</tspan></text></g><g  id="v-7073" label-idx="2" cursor="move" transform="translate(1250, 2052.2)" style="opacity: 1;"><rect id="v-7075" fill="#ffffff" rx="3" ry="3" pointer-events="none"  display="none" width="0" height="0" transform="matrix(1,0,0,1,0,0)"></rect><text id="v-7074" font-size="19px" y="0.8em" display="none" xml:space="preserve" text-anchor="middle" pointer-events="none" fill="#707070" font-family="Open Sans" font-weight="normal"  transform="matrix(1,0,0,1,0,0)"><tspan id="v-7076"  dy="0em" x="0" style="fill-opacity: 0; stroke-opacity: 0;">-</tspan></text></g></g><g  display="none"></g><g  id="v-7081" display="none"><g  id="v-7062"><path  end="source" d="M 26 0 L 0 13 L 26 26 z"></path></g><g  id="v-7063"><path  end="target" d="M 26 0 L 0 13 L 26 26 z"></path></g></g><g  id="v-7080" display="none"><g  id="v-7061" transform="translate(1250, 1897) "><g  event="remove"><circle r="11"></circle><path transform="scale(.8) translate(-16, -16)" d="M24.778,21.419 19.276,15.917 24.777,10.415 21.949,7.585 16.447,13.087 10.945,7.585 8.117,10.415 13.618,15.917 8.116,21.419 10.946,24.248 16.447,18.746 21.948,24.248z"></path><title>Remove link.</title></g><g  event="link:options"><circle r="11" transform="translate(25)"></circle><path fill="white" transform="scale(.55) translate(29, -16)" d="M31.229,17.736c0.064-0.571,0.104-1.148,0.104-1.736s-0.04-1.166-0.104-1.737l-4.377-1.557c-0.218-0.716-0.504-1.401-0.851-2.05l1.993-4.192c-0.725-0.91-1.549-1.734-2.458-2.459l-4.193,1.994c-0.647-0.347-1.334-0.632-2.049-0.849l-1.558-4.378C17.165,0.708,16.588,0.667,16,0.667s-1.166,0.041-1.737,0.105L12.707,5.15c-0.716,0.217-1.401,0.502-2.05,0.849L6.464,4.005C5.554,4.73,4.73,5.554,4.005,6.464l1.994,4.192c-0.347,0.648-0.632,1.334-0.849,2.05l-4.378,1.557C0.708,14.834,0.667,15.412,0.667,16s0.041,1.165,0.105,1.736l4.378,1.558c0.217,0.715,0.502,1.401,0.849,2.049l-1.994,4.193c0.725,0.909,1.549,1.733,2.459,2.458l4.192-1.993c0.648,0.347,1.334,0.633,2.05,0.851l1.557,4.377c0.571,0.064,1.148,0.104,1.737,0.104c0.588,0,1.165-0.04,1.736-0.104l1.558-4.377c0.715-0.218,1.399-0.504,2.049-0.851l4.193,1.993c0.909-0.725,1.733-1.549,2.458-2.458l-1.993-4.193c0.347-0.647,0.633-1.334,0.851-2.049L31.229,17.736zM16,20.871c-2.69,0-4.872-2.182-4.872-4.871c0-2.69,2.182-4.872,4.872-4.872c2.689,0,4.871,2.182,4.871,4.872C20.871,18.689,18.689,20.871,16,20.871z"></path><title>Link options.</title></g></g></g></g><g id="j_447"   ><path  stroke="#707070" id="v-7102" stroke-width="2" stroke-dasharray="30 30" fill="none" d="M 1475 1707 1755 1707" style="opacity: 1;"></path><path  fill="black" stroke="black" transform="translate(1475,1707) scale(1,1) rotate(0)"></path><path  fill="#707070" stroke="#707070" id="v-7104" d="M 20 0 L 0 10 L 20 20 z" transform="translate(1775,1717) scale(1,1) rotate(-180)" style="opacity: 1;"></path><path  id="v-7103" fill="none" d="M 1475 1707 1755 1707" style=""></path><title ></title><g ><g  id="v-7089" label-idx="0" cursor="move" transform="translate(1615, 1707)" style="opacity: 1;"><rect id="v-7091" fill="#ffffff" rx="3" ry="3" stroke="#ffffff" stroke-width="20px" pointer-events="none" width="167.25" height="61.79999923706055" transform="matrix(1,0,0,1,-82.80000305175781,-30.899999618530273)"></rect><text id="v-7090" font-size="24px" y="0.8em" xml:space="preserve" text-anchor="middle" pointer-events="none" fill="#707070" font-family="Open Sans" font-weight="normal" transform="matrix(1,0,0,1,0,-23.100000381469727)"><tspan id="v-7092"  dy="0em" x="0">Authorizes</tspan><tspan id="v-7093"  dy="1.2em" x="0">requests using</tspan></text></g><g  id="v-7094" label-idx="1" cursor="move" transform="translate(1615, 1750.2)" style="opacity: 1;"><rect id="v-7096" fill="#ffffff" rx="3" ry="3" pointer-events="none" width="0" height="0" transform="matrix(1,0,0,1,0,0)"></rect><text id="v-7095" font-size="19px" y="0.8em" display="none" xml:space="preserve" text-anchor="middle" pointer-events="none" fill="#707070" font-family="Open Sans" font-weight="normal" transform="matrix(1,0,0,1,0,0)"><tspan id="v-7097"  dy="0em" x="0" style="fill-opacity: 0; stroke-opacity: 0;">-</tspan></text></g><g  id="v-7098" label-idx="2" cursor="move" transform="translate(1615, 1774.2)" style="opacity: 1;"><rect id="v-7100" fill="#ffffff" rx="3" ry="3" pointer-events="none"  display="none" width="0" height="0" transform="matrix(1,0,0,1,0,0)"></rect><text id="v-7099" font-size="19px" y="0.8em" display="none" xml:space="preserve" text-anchor="middle" pointer-events="none" fill="#707070" font-family="Open Sans" font-weight="normal"  transform="matrix(1,0,0,1,0,0)"><tspan id="v-7101"  dy="0em" x="0" style="fill-opacity: 0; stroke-opacity: 0;">-</tspan></text></g></g><g  display="none"></g><g  id="v-7106" display="none"><g  id="v-7086"><path  end="source" d="M 26 0 L 0 13 L 26 26 z"></path></g><g  id="v-7087"><path  end="target" d="M 26 0 L 0 13 L 26 26 z"></path></g></g><g  id="v-7105" display="none"><g  id="v-7085" transform="translate(1515, 1707) "><g  event="remove"><circle r="11"></circle><path transform="scale(.8) translate(-16, -16)" d="M24.778,21.419 19.276,15.917 24.777,10.415 21.949,7.585 16.447,13.087 10.945,7.585 8.117,10.415 13.618,15.917 8.116,21.419 10.946,24.248 16.447,18.746 21.948,24.248z"></path><title>Remove link.</title></g><g  event="link:options"><circle r="11" transform="translate(25)"></circle><path fill="white" transform="scale(.55) translate(29, -16)" d="M31.229,17.736c0.064-0.571,0.104-1.148,0.104-1.736s-0.04-1.166-0.104-1.737l-4.377-1.557c-0.218-0.716-0.504-1.401-0.851-2.05l1.993-4.192c-0.725-0.91-1.549-1.734-2.458-2.459l-4.193,1.994c-0.647-0.347-1.334-0.632-2.049-0.849l-1.558-4.378C17.165,0.708,16.588,0.667,16,0.667s-1.166,0.041-1.737,0.105L12.707,5.15c-0.716,0.217-1.401,0.502-2.05,0.849L6.464,4.005C5.554,4.73,4.73,5.554,4.005,6.464l1.994,4.192c-0.347,0.648-0.632,1.334-0.849,2.05l-4.378,1.557C0.708,14.834,0.667,15.412,0.667,16s0.041,1.165,0.105,1.736l4.378,1.558c0.217,0.715,0.502,1.401,0.849,2.049l-1.994,4.193c0.725,0.909,1.549,1.733,2.459,2.458l4.192-1.993c0.648,0.347,1.334,0.633,2.05,0.851l1.557,4.377c0.571,0.064,1.148,0.104,1.737,0.104c0.588,0,1.165-0.04,1.736-0.104l1.558-4.377c0.715-0.218,1.399-0.504,2.049-0.851l4.193,1.993c0.909-0.725,1.733-1.549,2.458-2.458l-1.993-4.193c0.347-0.647,0.633-1.334,0.851-2.049L31.229,17.736zM16,20.871c-2.69,0-4.872-2.182-4.872-4.871c0-2.69,2.182-4.872,4.872-4.872c2.689,0,4.871,2.182,4.871,4.872C20.871,18.689,18.689,20.871,16,20.871z"></path><title>Link options.</title></g></g></g></g><g id="j_448"   ><path  stroke="#707070" id="v-7126" stroke-width="2" stroke-dasharray="30 30" fill="none" d="M 1250 1257 1250 1537" style="opacity: 1;"></path><path  fill="black" stroke="black" transform="translate(1250,1257) scale(1,1) rotate(-270)"></path><path  fill="#707070" stroke="#707070" id="v-7128" d="M 20 0 L 0 10 L 20 20 z" transform="translate(1240,1557) scale(1,1) rotate(-90)" style="opacity: 1;"></path><path  id="v-7127" fill="none" d="M 1250 1257 1250 1537" style=""></path><title ></title><g ><g  id="v-7114" label-idx="0" cursor="move" transform="translate(1250, 1397)" style="opacity: 1;"><rect id="v-7116" fill="#ffffff" rx="3" ry="3" stroke="#ffffff" stroke-width="20px" pointer-events="none" width="153.64999389648438" height="32.99999809265137" transform="matrix(1,0,0,1,-76.5999984741211,-16.5)"></rect><text id="v-7115" font-size="24px" y="0.8em" xml:space="preserve" text-anchor="middle" pointer-events="none" fill="#707070" font-family="Open Sans" font-weight="normal" transform="matrix(1,0,0,1,0,-8.699999809265137)"><tspan id="v-7117"  dy="0em" x="0">Interacts with</tspan></text></g><g  id="v-7118" label-idx="1" cursor="move" transform="translate(1250, 1428.2)" style="opacity: 1;"><rect id="v-7120" fill="#ffffff" rx="3" ry="3" pointer-events="none" width="0" height="0" transform="matrix(1,0,0,1,0,0)"></rect><text id="v-7119" font-size="19px" y="0.8em" display="none" xml:space="preserve" text-anchor="middle" pointer-events="none" fill="#707070" font-family="Open Sans" font-weight="normal" transform="matrix(1,0,0,1,0,0)"><tspan id="v-7121"  dy="0em" x="0" style="fill-opacity: 0; stroke-opacity: 0;">-</tspan></text></g><g  id="v-7122" label-idx="2" cursor="move" transform="translate(1250, 1452.2)" style="opacity: 1;"><rect id="v-7124" fill="#ffffff" rx="3" ry="3" pointer-events="none"  display="none" width="0" height="0" transform="matrix(1,0,0,1,0,0)"></rect><text id="v-7123" font-size="19px" y="0.8em" display="none" xml:space="preserve" text-anchor="middle" pointer-events="none" fill="#707070" font-family="Open Sans" font-weight="normal"  transform="matrix(1,0,0,1,0,0)"><tspan id="v-7125"  dy="0em" x="0" style="fill-opacity: 0; stroke-opacity: 0;">-</tspan></text></g></g><g  display="none"></g><g  id="v-7130" display="none"><g  id="v-7111"><path  end="source" d="M 26 0 L 0 13 L 26 26 z"></path></g><g  id="v-7112"><path  end="target" d="M 26 0 L 0 13 L 26 26 z"></path></g></g><g  id="v-7129" display="none"><g  id="v-7110" transform="translate(1250, 1297) "><g  event="remove"><circle r="11"></circle><path transform="scale(.8) translate(-16, -16)" d="M24.778,21.419 19.276,15.917 24.777,10.415 21.949,7.585 16.447,13.087 10.945,7.585 8.117,10.415 13.618,15.917 8.116,21.419 10.946,24.248 16.447,18.746 21.948,24.248z"></path><title>Remove link.</title></g><g  event="link:options"><circle r="11" transform="translate(25)"></circle><path fill="white" transform="scale(.55) translate(29, -16)" d="M31.229,17.736c0.064-0.571,0.104-1.148,0.104-1.736s-0.04-1.166-0.104-1.737l-4.377-1.557c-0.218-0.716-0.504-1.401-0.851-2.05l1.993-4.192c-0.725-0.91-1.549-1.734-2.458-2.459l-4.193,1.994c-0.647-0.347-1.334-0.632-2.049-0.849l-1.558-4.378C17.165,0.708,16.588,0.667,16,0.667s-1.166,0.041-1.737,0.105L12.707,5.15c-0.716,0.217-1.401,0.502-2.05,0.849L6.464,4.005C5.554,4.73,4.73,5.554,4.005,6.464l1.994,4.192c-0.347,0.648-0.632,1.334-0.849,2.05l-4.378,1.557C0.708,14.834,0.667,15.412,0.667,16s0.041,1.165,0.105,1.736l4.378,1.558c0.217,0.715,0.502,1.401,0.849,2.049l-1.994,4.193c0.725,0.909,1.549,1.733,2.459,2.458l4.192-1.993c0.648,0.347,1.334,0.633,2.05,0.851l1.557,4.377c0.571,0.064,1.148,0.104,1.737,0.104c0.588,0,1.165-0.04,1.736-0.104l1.558-4.377c0.715-0.218,1.399-0.504,2.049-0.851l4.193,1.993c0.909-0.725,1.733-1.549,2.458-2.458l-1.993-4.193c0.347-0.647,0.633-1.334,0.851-2.049L31.229,17.736zM16,20.871c-2.69,0-4.872-2.182-4.872-4.871c0-2.69,2.182-4.872,4.872-4.872c2.689,0,4.871,2.182,4.871,4.872C20.871,18.689,18.689,20.871,16,20.871z"></path><title>Link options.</title></g></g></g></g></g><defs id="v-4"></defs></svg>