<svg xmlns="http://www.w3.org/2000/svg" xmlns:xlink="http://www.w3.org/1999/xlink" version="1.1" viewBox="0 0 2480 3508" style="background: #ffffff"><g id="v-3"  transform="matrix(1,0,0,1,0,0)"><g id="j_231"    transform="translate(20,3463)"><g id="v-3482"><text  id="v-3483" font-size="22px" y="0.8em" xml:space="preserve" font-weight="normal" text-anchor="start" fill="#777777" pointer-events="none" font-family="Open Sans" transform="matrix(1,0,0,1,0,0)" display="none"><tspan id="v-3484"  dy="0em" x="0">Thursday, November 19, 2020, 2:21 PM Central European Standard Time | Diagram created with Structurizr</tspan></text></g></g><g id="j_230"    transform="translate(20,3417)"><g id="v-3478"><text  id="v-3479" font-size="36px" y="0.8em" xml:space="preserve" font-weight="normal" text-anchor="start" fill="#000000" pointer-events="none" font-family="Open Sans" transform="matrix(1,0,0,1,0,0)" display="none"><tspan id="v-3480"  dy="0em" x="0">Component diagram for IoT System - Standalone Application</tspan></text></g></g><g id="j_217"    transform="translate(620,1247)" style=""><g id="v-3303"><rect  id="v-3304" width="490" height="1013" rx="0" ry="0" fill="#ffffff" stroke="#444444" stroke-width="2" stroke-dasharray="20,20" pointer-events="none"></rect><text  id="v-3305" font-size="24px" y="974" xml:space="preserve" font-weight="normal" fill="#444444" x="10" text-anchor="start" pointer-events="visible" font-family="Open Sans" transform="matrix(1,0,0,1,15,0)"><tspan id="v-3307"  dy="0em" x="0">Standalone Application</tspan></text><text  id="v-3306" font-size="19px" y="998" xml:space="preserve" font-weight="normal" fill="#444444" x="10" text-anchor="start" pointer-events="visible" font-family="Open Sans" transform="matrix(1,0,0,1,15,0)"><tspan id="v-3308"  dy="0em" x="0">[Container]</tspan></text></g></g><g id="j_223"    transform="translate(995,2564)" style=""><g id="v-3362"><rect  id="v-3363" width="490" height="413" rx="0" ry="0" fill="#ffffff" stroke="#cccccc" stroke-width="2" stroke-dasharray="20,20" pointer-events="none"></rect><text  id="v-3364" font-size="24px" y="374" xml:space="preserve" font-weight="normal" fill="#cccccc" x="10" text-anchor="start" pointer-events="visible" font-family="Open Sans" transform="matrix(1,0,0,1,15,0)"><tspan id="v-3366"  dy="0em" x="0">Embedded Application</tspan></text><text  id="v-3365" font-size="19px" y="398" xml:space="preserve" font-weight="normal" fill="#cccccc" x="10" text-anchor="start" pointer-events="visible" font-family="Open Sans" transform="matrix(1,0,0,1,15,0)"><tspan id="v-3367"  dy="0em" x="0">[Container]</tspan></text></g></g><g id="j_221"    transform="translate(1370,1247)" style=""><g id="v-3341"><rect  id="v-3342" width="490" height="413" rx="0" ry="0" fill="#ffffff" stroke="#cccccc" stroke-width="2" stroke-dasharray="20,20" pointer-events="none"></rect><text  id="v-3343" font-size="24px" y="374" xml:space="preserve" font-weight="normal" fill="#cccccc" x="10" text-anchor="start" pointer-events="visible" font-family="Open Sans" transform="matrix(1,0,0,1,15,0)"><tspan id="v-3345"  dy="0em" x="0">gRPC Gateway</tspan></text><text  id="v-3344" font-size="19px" y="398" xml:space="preserve" font-weight="normal" fill="#cccccc" x="10" text-anchor="start" pointer-events="visible" font-family="Open Sans" transform="matrix(1,0,0,1,15,0)"><tspan id="v-3346"  dy="0em" x="0">[Container]</tspan></text></g></g><g id="j_219"    transform="translate(1370,1847)" style=""><g id="v-3321"><rect  id="v-3322" width="490" height="413" rx="0" ry="0" fill="#ffffff" stroke="#cccccc" stroke-width="2" stroke-dasharray="20,20" pointer-events="none"></rect><text  id="v-3323" font-size="24px" y="374" xml:space="preserve" font-weight="normal" fill="#cccccc" x="10" text-anchor="start" pointer-events="visible" font-family="Open Sans" transform="matrix(1,0,0,1,15,0)"><tspan id="v-3325"  dy="0em" x="0">CoAP Gateway</tspan></text><text  id="v-3324" font-size="19px" y="398" xml:space="preserve" font-weight="normal" fill="#cccccc" x="10" text-anchor="start" pointer-events="visible" font-family="Open Sans" transform="matrix(1,0,0,1,15,0)"><tspan id="v-3326"  dy="0em" x="0">[Container]</tspan></text></g></g><g id="j_218"    transform="translate(1390,1867)" style=""><g  id="v-3310" style="opacity: 1;"><rect  id="v-3311" rx="1" ry="1" stroke="#80b3cb" stroke-width="2" pointer-events="visiblePainted" fill="#8ec7e1" width="450" height="300"></rect><text  id="v-3312" font-size="34" y="0.8em" xml:space="preserve" font-weight="bold" text-anchor="middle" pointer-events="visible" font-family="Open Sans" fill="#000000" transform="matrix(1,0,0,1,225,90)"><tspan id="v-3317"  dy="0em" x="0">Protocol Adapter</tspan></text><text  id="v-3313" font-size="19" y="0.8em" xml:space="preserve" text-anchor="middle" font-family="Open Sans" fill="#000000" transform="matrix(1,0,0,1,225,130)"><tspan id="v-3318"  dy="0em" x="0">[Component]</tspan></text><text  id="v-3314" font-size="24" y="0.8em" xml:space="preserve" text-anchor="middle" font-family="Open Sans" fill="#000000" transform="matrix(1,0,0,1,225,180)"><tspan id="v-3319"  dy="0em" x="0">Translates OCF protocol</tspan></text><text  id="v-3315" font-weight="bold" text-anchor="middle" font-family="Open Sans" fill="#000000" font-size="24" transform="matrix(1,0,0,1,225,270)" display="none"></text><image  id="v-3316"></image></g></g><g id="j_220"    transform="translate(1390,1267)" style=""><g  id="v-3330" style="opacity: 1;"><rect  id="v-3331" rx="1" ry="1" stroke="#80b3cb" stroke-width="2" pointer-events="visiblePainted" fill="#8ec7e1" width="450" height="300"></rect><text  id="v-3332" font-size="34" y="0.8em" xml:space="preserve" font-weight="bold" text-anchor="middle" pointer-events="visible" font-family="Open Sans" fill="#000000" transform="matrix(1,0,0,1,225,90)"><tspan id="v-3337"  dy="0em" x="0">Protocol Adapter</tspan></text><text  id="v-3333" font-size="19" y="0.8em" xml:space="preserve" text-anchor="middle" font-family="Open Sans" fill="#000000" transform="matrix(1,0,0,1,225,130)"><tspan id="v-3338"  dy="0em" x="0">[Component]</tspan></text><text  id="v-3334" font-size="24" y="0.8em" xml:space="preserve" text-anchor="middle" font-family="Open Sans" fill="#000000" transform="matrix(1,0,0,1,225,180)"><tspan id="v-3339"  dy="0em" x="0">Translates public gRPC protocol</tspan></text><text  id="v-3335" font-weight="bold" text-anchor="middle" font-family="Open Sans" fill="#000000" font-size="24" transform="matrix(1,0,0,1,225,270)" display="none"></text><image  id="v-3336"></image></g></g><g id="j_222"    transform="translate(1015,2584)" style="" ><g  id="v-3350" style="opacity: 1;"><rect  id="v-3351" rx="20" ry="20" stroke="#5fa117" stroke-width="2" pointer-events="visiblePainted" fill="#6ab31a" width="450" height="300"></rect><text  id="v-3352" font-size="34" y="0.8em" xml:space="preserve" font-weight="bold" text-anchor="middle" pointer-events="visible" font-family="Open Sans" fill="#000000" transform="matrix(1,0,0,1,225,75)"><tspan id="v-3357"  dy="0em" x="0">IoTivity-Lite</tspan></text><text  id="v-3353" font-size="19" y="0.8em" xml:space="preserve" text-anchor="middle" font-family="Open Sans" fill="#000000" transform="matrix(1,0,0,1,225,115)"><tspan id="v-3358"  dy="0em" x="0">[Component]</tspan></text><text  id="v-3354" font-size="24" y="0.8em" xml:space="preserve" text-anchor="middle" font-family="Open Sans" fill="#000000" transform="matrix(1,0,0,1,225,165)"><tspan id="v-3359"  dy="0em" x="0">Device library implementing OCF</tspan><tspan id="v-3360"  dy="1.2em" x="0">standard</tspan></text><text  id="v-3355" font-weight="bold" text-anchor="middle" font-family="Open Sans" fill="#000000" font-size="24" transform="matrix(1,0,0,1,225,270)" y="0.8em" xml:space="preserve" display="none"><tspan id="v-3368"  dy="0em" x="0">#</tspan></text><image  id="v-3356"></image></g></g><g id="j_224"    transform="translate(640,1267)" style="" ><g  id="v-3372" style="opacity: 1;"><rect  id="v-3373" rx="1" ry="1" stroke="#80b3cb" stroke-width="2" pointer-events="visiblePainted" fill="#8ec7e1" width="450" height="300"></rect><text  id="v-3374" font-size="34" y="0.8em" xml:space="preserve" font-weight="bold" text-anchor="middle" pointer-events="visible" font-family="Open Sans" fill="#000000" transform="matrix(1,0,0,1,225,75)"><tspan id="v-3379"  dy="0em" x="0">gRPC Client</tspan></text><text  id="v-3375" font-size="19" y="0.8em" xml:space="preserve" text-anchor="middle" font-family="Open Sans" fill="#000000" transform="matrix(1,0,0,1,225,115)"><tspan id="v-3380"  dy="0em" x="0">[Component]</tspan></text><text  id="v-3376" font-size="24" y="0.8em" xml:space="preserve" text-anchor="middle" font-family="Open Sans" fill="#000000" transform="matrix(1,0,0,1,225,165)"><tspan id="v-3381"  dy="0em" x="0">Enables remote communication with</tspan><tspan id="v-3382"  dy="1.2em" x="0">the device</tspan></text><text  id="v-3377" font-weight="bold" text-anchor="middle" font-family="Open Sans" fill="#000000" font-size="24" transform="matrix(1,0,0,1,225,270)" y="0.8em" xml:space="preserve" display="none"><tspan id="v-3383"  dy="0em" x="0">#</tspan></text><image  id="v-3378"></image></g></g><g id="j_225"    transform="translate(640,1867)" style="" ><g  id="v-3387" style="opacity: 1;"><rect  id="v-3388" rx="1" ry="1" stroke="#80b3cb" stroke-width="2" pointer-events="visiblePainted" fill="#8ec7e1" width="450" height="300"></rect><text  id="v-3389" font-size="34" y="0.8em" xml:space="preserve" font-weight="bold" text-anchor="middle" pointer-events="visible" font-family="Open Sans" fill="#000000" transform="matrix(1,0,0,1,225,75)"><tspan id="v-3394"  dy="0em" x="0">CoAP Client</tspan></text><text  id="v-3390" font-size="19" y="0.8em" xml:space="preserve" text-anchor="middle" font-family="Open Sans" fill="#000000" transform="matrix(1,0,0,1,225,115)"><tspan id="v-3395"  dy="0em" x="0">[Component]</tspan></text><text  id="v-3391" font-size="24" y="0.8em" xml:space="preserve" text-anchor="middle" font-family="Open Sans" fill="#000000" transform="matrix(1,0,0,1,225,165)"><tspan id="v-3396"  dy="0em" x="0">Enables communication on the local</tspan><tspan id="v-3397"  dy="1.2em" x="0">network with the device</tspan></text><text  id="v-3392" font-weight="bold" text-anchor="middle" font-family="Open Sans" fill="#000000" font-size="24" transform="matrix(1,0,0,1,225,270)" y="0.8em" xml:space="preserve" display="none"><tspan id="v-3398"  dy="0em" x="0">#</tspan></text><image  id="v-3393"></image></g></g><g id="j_226"   ><path  stroke="#707070" id="v-3419" stroke-width="2" stroke-dasharray="30 30" fill="none" d="M 943 2167 1152 2566" style="opacity: 1;"></path><path  fill="black" stroke="black" transform="translate(943,2167) scale(1,1) rotate(62.400237429429865)"></path><path  fill="#707070" stroke="#707070" id="v-3421" d="M 20 0 L 0 10 L 20 20 z" transform="translate(1152.137939453125,2588.6328125) scale(1,1) rotate(-117.5997473002931)" style="opacity: 1;"></path><path  id="v-3420" fill="none" d="M 943 2167 1152 2566" style=""></path><title ></title><g ><g  id="v-3406" label-idx="0" cursor="move" transform="translate(1047.5, 2366.5)" style="opacity: 1;"><rect id="v-3408" fill="#ffffff" rx="3" ry="3" stroke="#ffffff" stroke-width="20px" pointer-events="none" width="171.1999969482422" height="61.799997329711914" transform="matrix(1,0,0,1,-84.4000015258789,-30.899999618530273)"></rect><text id="v-3407" font-size="24px" y="0.8em" xml:space="preserve" text-anchor="middle" pointer-events="none" fill="#707070" font-family="Open Sans" font-weight="normal" transform="matrix(1,0,0,1,0,-23.100000381469727)"><tspan id="v-3409"  dy="0em" x="0">Interacts localy</tspan><tspan id="v-3410"  dy="1.2em" x="0">with</tspan></text></g><g  id="v-3411" label-idx="1" cursor="move" transform="translate(1047.5, 2409.7)" style="opacity: 1;"><rect id="v-3413" fill="#ffffff" rx="3" ry="3" pointer-events="none" width="0" height="0" transform="matrix(1,0,0,1,0,0)"></rect><text id="v-3412" font-size="19px" y="0.8em" display="none" xml:space="preserve" text-anchor="middle" pointer-events="none" fill="#707070" font-family="Open Sans" font-weight="normal" transform="matrix(1,0,0,1,0,0)"><tspan id="v-3414"  dy="0em" x="0" style="fill-opacity: 0; stroke-opacity: 0;">-</tspan></text></g><g  id="v-3415" label-idx="2" cursor="move" transform="translate(1047.5, 2433.7)" style="opacity: 1;"><rect id="v-3417" fill="#ffffff" rx="3" ry="3" pointer-events="none"  display="none" width="0" height="0" transform="matrix(1,0,0,1,0,0)"></rect><text id="v-3416" font-size="19px" y="0.8em" display="none" xml:space="preserve" text-anchor="middle" pointer-events="none" fill="#707070" font-family="Open Sans" font-weight="normal"  transform="matrix(1,0,0,1,0,0)"><tspan id="v-3418"  dy="0em" x="0" style="fill-opacity: 0; stroke-opacity: 0;">-</tspan></text></g></g><g  display="none"></g><g  id="v-3423" display="none"><g  id="v-3403"><path  end="source" d="M 26 0 L 0 13 L 26 26 z"></path></g><g  id="v-3404"><path  end="target" d="M 26 0 L 0 13 L 26 26 z"></path></g></g><g  id="v-3422" display="none"><g  id="v-3402" transform="translate(961.560302734375, 2202.433349609375) "><g  event="remove"><circle r="11"></circle><path transform="scale(.8) translate(-16, -16)" d="M24.778,21.419 19.276,15.917 24.777,10.415 21.949,7.585 16.447,13.087 10.945,7.585 8.117,10.415 13.618,15.917 8.116,21.419 10.946,24.248 16.447,18.746 21.948,24.248z"></path><title>Remove link.</title></g><g  event="link:options"><circle r="11" transform="translate(25)"></circle><path fill="white" transform="scale(.55) translate(29, -16)" d="M31.229,17.736c0.064-0.571,0.104-1.148,0.104-1.736s-0.04-1.166-0.104-1.737l-4.377-1.557c-0.218-0.716-0.504-1.401-0.851-2.05l1.993-4.192c-0.725-0.91-1.549-1.734-2.458-2.459l-4.193,1.994c-0.647-0.347-1.334-0.632-2.049-0.849l-1.558-4.378C17.165,0.708,16.588,0.667,16,0.667s-1.166,0.041-1.737,0.105L12.707,5.15c-0.716,0.217-1.401,0.502-2.05,0.849L6.464,4.005C5.554,4.73,4.73,5.554,4.005,6.464l1.994,4.192c-0.347,0.648-0.632,1.334-0.849,2.05l-4.378,1.557C0.708,14.834,0.667,15.412,0.667,16s0.041,1.165,0.105,1.736l4.378,1.558c0.217,0.715,0.502,1.401,0.849,2.049l-1.994,4.193c0.725,0.909,1.549,1.733,2.459,2.458l4.192-1.993c0.648,0.347,1.334,0.633,2.05,0.851l1.557,4.377c0.571,0.064,1.148,0.104,1.737,0.104c0.588,0,1.165-0.04,1.736-0.104l1.558-4.377c0.715-0.218,1.399-0.504,2.049-0.851l4.193,1.993c0.909-0.725,1.733-1.549,2.458-2.458l-1.993-4.193c0.347-0.647,0.633-1.334,0.851-2.049L31.229,17.736zM16,20.871c-2.69,0-4.872-2.182-4.872-4.871c0-2.69,2.182-4.872,4.872-4.872c2.689,0,4.871,2.182,4.871,4.872C20.871,18.689,18.689,20.871,16,20.871z"></path><title>Link options.</title></g></g></g></g><g id="j_227"   ><path  stroke="#707070" id="v-3444" stroke-width="2" stroke-dasharray="30 30" fill="none" d="M 1537 2167 1328 2566" style="opacity: 1;"></path><path  fill="black" stroke="black" transform="translate(1537,2167) scale(1,1) rotate(-242.4002526997069)"></path><path  fill="#707070" stroke="#707070" id="v-3446" d="M 20 0 L 0 10 L 20 20 z" transform="translate(1310.137939453125,2579.3671875) scale(1,1) rotate(-62.4002526997069)" style="opacity: 1;"></path><path  id="v-3445" fill="none" d="M 1537 2167 1328 2566" style=""></path><title ></title><g ><g  id="v-3431" label-idx="0" cursor="move" transform="translate(1432.5, 2366.5)" style="opacity: 1;"><rect id="v-3433" fill="#ffffff" rx="3" ry="3" stroke="#ffffff" stroke-width="20px" pointer-events="none" width="156.1999969482422" height="61.799997329711914" transform="matrix(1,0,0,1,-78,-30.899999618530273)"></rect><text id="v-3432" font-size="24px" y="0.8em" xml:space="preserve" text-anchor="middle" pointer-events="none" fill="#707070" font-family="Open Sans" font-weight="normal" transform="matrix(1,0,0,1,0,-23.100000381469727)"><tspan id="v-3434"  dy="0em" x="0">Interacts</tspan><tspan id="v-3435"  dy="1.2em" x="0">remotely with</tspan></text></g><g  id="v-3436" label-idx="1" cursor="move" transform="translate(1432.5, 2409.7)" style="opacity: 1;"><rect id="v-3438" fill="#ffffff" rx="3" ry="3" pointer-events="none" width="0" height="0" transform="matrix(1,0,0,1,0,0)"></rect><text id="v-3437" font-size="19px" y="0.8em" display="none" xml:space="preserve" text-anchor="middle" pointer-events="none" fill="#707070" font-family="Open Sans" font-weight="normal" transform="matrix(1,0,0,1,0,0)"><tspan id="v-3439"  dy="0em" x="0" style="fill-opacity: 0; stroke-opacity: 0;">-</tspan></text></g><g  id="v-3440" label-idx="2" cursor="move" transform="translate(1432.5, 2433.7)" style="opacity: 1;"><rect id="v-3442" fill="#ffffff" rx="3" ry="3" pointer-events="none"  display="none" width="0" height="0" transform="matrix(1,0,0,1,0,0)"></rect><text id="v-3441" font-size="19px" y="0.8em" display="none" xml:space="preserve" text-anchor="middle" pointer-events="none" fill="#707070" font-family="Open Sans" font-weight="normal"  transform="matrix(1,0,0,1,0,0)"><tspan id="v-3443"  dy="0em" x="0" style="fill-opacity: 0; stroke-opacity: 0;">-</tspan></text></g></g><g  display="none"></g><g  id="v-3448" display="none"><g  id="v-3428"><path  end="source" d="M 26 0 L 0 13 L 26 26 z"></path></g><g  id="v-3429"><path  end="target" d="M 26 0 L 0 13 L 26 26 z"></path></g></g><g  id="v-3447" display="none"><g  id="v-3427" transform="translate(1518.439697265625, 2202.433349609375) "><g  event="remove"><circle r="11"></circle><path transform="scale(.8) translate(-16, -16)" d="M24.778,21.419 19.276,15.917 24.777,10.415 21.949,7.585 16.447,13.087 10.945,7.585 8.117,10.415 13.618,15.917 8.116,21.419 10.946,24.248 16.447,18.746 21.948,24.248z"></path><title>Remove link.</title></g><g  event="link:options"><circle r="11" transform="translate(25)"></circle><path fill="white" transform="scale(.55) translate(29, -16)" d="M31.229,17.736c0.064-0.571,0.104-1.148,0.104-1.736s-0.04-1.166-0.104-1.737l-4.377-1.557c-0.218-0.716-0.504-1.401-0.851-2.05l1.993-4.192c-0.725-0.91-1.549-1.734-2.458-2.459l-4.193,1.994c-0.647-0.347-1.334-0.632-2.049-0.849l-1.558-4.378C17.165,0.708,16.588,0.667,16,0.667s-1.166,0.041-1.737,0.105L12.707,5.15c-0.716,0.217-1.401,0.502-2.05,0.849L6.464,4.005C5.554,4.73,4.73,5.554,4.005,6.464l1.994,4.192c-0.347,0.648-0.632,1.334-0.849,2.05l-4.378,1.557C0.708,14.834,0.667,15.412,0.667,16s0.041,1.165,0.105,1.736l4.378,1.558c0.217,0.715,0.502,1.401,0.849,2.049l-1.994,4.193c0.725,0.909,1.549,1.733,2.459,2.458l4.192-1.993c0.648,0.347,1.334,0.633,2.05,0.851l1.557,4.377c0.571,0.064,1.148,0.104,1.737,0.104c0.588,0,1.165-0.04,1.736-0.104l1.558-4.377c0.715-0.218,1.399-0.504,2.049-0.851l4.193,1.993c0.909-0.725,1.733-1.549,2.458-2.458l-1.993-4.193c0.347-0.647,0.633-1.334,0.851-2.049L31.229,17.736zM16,20.871c-2.69,0-4.872-2.182-4.872-4.871c0-2.69,2.182-4.872,4.872-4.872c2.689,0,4.871,2.182,4.871,4.872C20.871,18.689,18.689,20.871,16,20.871z"></path><title>Link options.</title></g></g></g></g><g id="j_228"   ><path  stroke="#707070" id="v-3468" stroke-width="2" stroke-dasharray="30 30" fill="none" d="M 1090 1417 1370 1417" style="opacity: 1;"></path><path  fill="black" stroke="black" transform="translate(1090,1417) scale(1,1) rotate(0)"></path><path  fill="#707070" stroke="#707070" id="v-3470" d="M 20 0 L 0 10 L 20 20 z" transform="translate(1390,1427) scale(1,1) rotate(-180)" style="opacity: 1;"></path><path  id="v-3469" fill="none" d="M 1090 1417 1370 1417" style=""></path><title ></title><g ><g  id="v-3456" label-idx="0" cursor="move" transform="translate(1230, 1417)" style="opacity: 1;"><rect id="v-3458" fill="#ffffff" rx="3" ry="3" stroke="#ffffff" stroke-width="20px" pointer-events="none" width="153.64999389648438" height="32.99999809265137" transform="matrix(1,0,0,1,-76.5999984741211,-16.5)"></rect><text id="v-3457" font-size="24px" y="0.8em" xml:space="preserve" text-anchor="middle" pointer-events="none" fill="#707070" font-family="Open Sans" font-weight="normal" transform="matrix(1,0,0,1,0,-8.699999809265137)"><tspan id="v-3459"  dy="0em" x="0">Interacts with</tspan></text></g><g  id="v-3460" label-idx="1" cursor="move" transform="translate(1230, 1448.2)" style="opacity: 1;"><rect id="v-3462" fill="#ffffff" rx="3" ry="3" pointer-events="none" width="0" height="0" transform="matrix(1,0,0,1,0,0)"></rect><text id="v-3461" font-size="19px" y="0.8em" display="none" xml:space="preserve" text-anchor="middle" pointer-events="none" fill="#707070" font-family="Open Sans" font-weight="normal" transform="matrix(1,0,0,1,0,0)"><tspan id="v-3463"  dy="0em" x="0" style="fill-opacity: 0; stroke-opacity: 0;">-</tspan></text></g><g  id="v-3464" label-idx="2" cursor="move" transform="translate(1230, 1472.2)" style="opacity: 1;"><rect id="v-3466" fill="#ffffff" rx="3" ry="3" pointer-events="none"  display="none" width="0" height="0" transform="matrix(1,0,0,1,0,0)"></rect><text id="v-3465" font-size="19px" y="0.8em" display="none" xml:space="preserve" text-anchor="middle" pointer-events="none" fill="#707070" font-family="Open Sans" font-weight="normal"  transform="matrix(1,0,0,1,0,0)"><tspan id="v-3467"  dy="0em" x="0" style="fill-opacity: 0; stroke-opacity: 0;">-</tspan></text></g></g><g  display="none"></g><g  id="v-3472" display="none"><g  id="v-3453"><path  end="source" d="M 26 0 L 0 13 L 26 26 z"></path></g><g  id="v-3454"><path  end="target" d="M 26 0 L 0 13 L 26 26 z"></path></g></g><g  id="v-3471" display="none"><g  id="v-3452" transform="translate(1130, 1417) "><g  event="remove"><circle r="11"></circle><path transform="scale(.8) translate(-16, -16)" d="M24.778,21.419 19.276,15.917 24.777,10.415 21.949,7.585 16.447,13.087 10.945,7.585 8.117,10.415 13.618,15.917 8.116,21.419 10.946,24.248 16.447,18.746 21.948,24.248z"></path><title>Remove link.</title></g><g  event="link:options"><circle r="11" transform="translate(25)"></circle><path fill="white" transform="scale(.55) translate(29, -16)" d="M31.229,17.736c0.064-0.571,0.104-1.148,0.104-1.736s-0.04-1.166-0.104-1.737l-4.377-1.557c-0.218-0.716-0.504-1.401-0.851-2.05l1.993-4.192c-0.725-0.91-1.549-1.734-2.458-2.459l-4.193,1.994c-0.647-0.347-1.334-0.632-2.049-0.849l-1.558-4.378C17.165,0.708,16.588,0.667,16,0.667s-1.166,0.041-1.737,0.105L12.707,5.15c-0.716,0.217-1.401,0.502-2.05,0.849L6.464,4.005C5.554,4.73,4.73,5.554,4.005,6.464l1.994,4.192c-0.347,0.648-0.632,1.334-0.849,2.05l-4.378,1.557C0.708,14.834,0.667,15.412,0.667,16s0.041,1.165,0.105,1.736l4.378,1.558c0.217,0.715,0.502,1.401,0.849,2.049l-1.994,4.193c0.725,0.909,1.549,1.733,2.459,2.458l4.192-1.993c0.648,0.347,1.334,0.633,2.05,0.851l1.557,4.377c0.571,0.064,1.148,0.104,1.737,0.104c0.588,0,1.165-0.04,1.736-0.104l1.558-4.377c0.715-0.218,1.399-0.504,2.049-0.851l4.193,1.993c0.909-0.725,1.733-1.549,2.458-2.458l-1.993-4.193c0.347-0.647,0.633-1.334,0.851-2.049L31.229,17.736zM16,20.871c-2.69,0-4.872-2.182-4.872-4.871c0-2.69,2.182-4.872,4.872-4.872c2.689,0,4.871,2.182,4.871,4.872C20.871,18.689,18.689,20.871,16,20.871z"></path><title>Link options.</title></g></g></g></g><g id="j_229"    transform="translate(1239.5,2052.197007426763)"><g id="v-3474"><text  id="v-3475" font-size="413.3333333333333px" y="0.8em" xml:space="preserve" font-family="Open Sans" font-weight="bold" text-anchor="middle" dominant-baseline="baseline" pointer-events="none" stroke-width="0px" fill="#777777" stroke="#777777" opacity="0" transform="matrix(1,0,0,1,0,0)" style="display: block !important; visibility: visible !important"><tspan id="v-3476"  dy="0em" x="0">Structurizr</tspan></text></g></g></g><defs id="v-4"></defs></svg>