<svg xmlns="http://www.w3.org/2000/svg" xmlns:xlink="http://www.w3.org/1999/xlink" version="1.1" viewBox="0 0 2480 3508" style="background: #ffffff"><g id="v-3"  transform="matrix(1,0,0,1,0,0)"><g id="j_338"    transform="translate(20,3463)"><g id="v-5344"><text  id="v-5345" font-size="22px" y="0.8em" xml:space="preserve" font-weight="normal" text-anchor="start" fill="#777777" pointer-events="none" font-family="Open Sans" transform="matrix(1,0,0,1,0,0)" display="none"><tspan id="v-5346"  dy="0em" x="0">Wednesday, December 16, 2020, 10:49 AM Central European Standard Time</tspan></text></g></g><g id="j_337"    transform="translate(20,3417)"><g id="v-5340"><text  id="v-5341" font-size="36px" y="0.8em" xml:space="preserve" font-weight="normal" text-anchor="start" fill="#000000" pointer-events="none" font-family="Open Sans" transform="matrix(1,0,0,1,0,0)" display="none"><tspan id="v-5342"  dy="0em" x="0">Component diagram for Device - Embedded Application</tspan></text></g></g><g id="j_329"    transform="translate(995,1847)" style=""><g id="v-5228"><rect  id="v-5229" width="490" height="413" rx="0" ry="0" fill="#ffffff" stroke="#444444" stroke-width="2" stroke-dasharray="20,20" pointer-events="none"></rect><text  id="v-5230" font-size="24px" y="374" xml:space="preserve" font-weight="normal" fill="#444444" x="10" text-anchor="start" pointer-events="visible" font-family="Open Sans" transform="matrix(1,0,0,1,15,0)"><tspan id="v-5232"  dy="0em" x="0">Embedded Application</tspan></text><text  id="v-5231" font-size="19px" y="398" xml:space="preserve" font-weight="normal" fill="#444444" x="10" text-anchor="start" pointer-events="visible" font-family="Open Sans" transform="matrix(1,0,0,1,15,0)"><tspan id="v-5233"  dy="0em" x="0">[Container]</tspan></text></g></g><g id="j_334"    transform="translate(1370,1247)" style=""><g id="v-5282"><rect  id="v-5283" width="490" height="413" rx="0" ry="0" fill="#ffffff" stroke="#cccccc" stroke-width="2" stroke-dasharray="20,20" pointer-events="none"></rect><text  id="v-5284" font-size="24px" y="374" xml:space="preserve" font-weight="normal" fill="#cccccc" x="10" text-anchor="start" pointer-events="visible" font-family="Open Sans" transform="matrix(1,0,0,1,15,0)"><tspan id="v-5286"  dy="0em" x="0">Standalone Application</tspan></text><text  id="v-5285" font-size="19px" y="398" xml:space="preserve" font-weight="normal" fill="#cccccc" x="10" text-anchor="start" pointer-events="visible" font-family="Open Sans" transform="matrix(1,0,0,1,15,0)"><tspan id="v-5287"  dy="0em" x="0">[Container]</tspan></text></g></g><g id="j_331"    transform="translate(620,1247)" style=""><g id="v-5246"><rect  id="v-5247" width="490" height="413" rx="0" ry="0" fill="#ffffff" stroke="#cccccc" stroke-width="2" stroke-dasharray="20,20" pointer-events="none"></rect><text  id="v-5248" font-size="24px" y="374" xml:space="preserve" font-weight="normal" fill="#cccccc" x="10" text-anchor="start" pointer-events="visible" font-family="Open Sans" transform="matrix(1,0,0,1,15,0)"><tspan id="v-5250"  dy="0em" x="0">CoAP Gateway</tspan></text><text  id="v-5249" font-size="19px" y="398" xml:space="preserve" font-weight="normal" fill="#cccccc" x="10" text-anchor="start" pointer-events="visible" font-family="Open Sans" transform="matrix(1,0,0,1,15,0)"><tspan id="v-5251"  dy="0em" x="0">[Container]</tspan></text></g></g><g id="j_330"    transform="translate(640,1267)" style=""><g  id="v-5235" style="opacity: 1;"><rect  id="v-5236" rx="1" ry="1" stroke="#80b3cb" stroke-width="2" pointer-events="visiblePainted" fill="#8ec7e1" width="450" height="300"></rect><text  id="v-5237" font-size="34" y="0.8em" xml:space="preserve" font-weight="bold" text-anchor="middle" pointer-events="visible" font-family="Open Sans" fill="#000000" transform="matrix(1,0,0,1,225,90)"><tspan id="v-5242"  dy="0em" x="0">Protocol Adapter</tspan></text><text  id="v-5238" font-size="19" y="0.8em" xml:space="preserve" text-anchor="middle" font-family="Open Sans" fill="#000000" transform="matrix(1,0,0,1,225,130)"><tspan id="v-5243"  dy="0em" x="0">[Component]</tspan></text><text  id="v-5239" font-size="24" y="0.8em" xml:space="preserve" text-anchor="middle" font-family="Open Sans" fill="#000000" transform="matrix(1,0,0,1,225,180)"><tspan id="v-5244"  dy="0em" x="0">Translates OCF protocol</tspan></text><text  id="v-5240" font-weight="bold" text-anchor="middle" font-family="Open Sans" fill="#000000" font-size="24" transform="matrix(1,0,0,1,225,270)" display="none"></text><image  id="v-5241"></image></g></g><g id="j_332"    transform="translate(1015,1867)" style="" ><g  id="v-5255" style="opacity: 1;"><rect  id="v-5256" rx="20" ry="20" stroke="#5fa117" stroke-width="2" pointer-events="visiblePainted" fill="#6ab31a" width="450" height="300"></rect><text  id="v-5257" font-size="34" y="0.8em" xml:space="preserve" font-weight="bold" text-anchor="middle" pointer-events="visible" font-family="Open Sans" fill="#000000" transform="matrix(1,0,0,1,225,75)"><tspan id="v-5262"  dy="0em" x="0">IoTivity-Lite</tspan></text><text  id="v-5258" font-size="19" y="0.8em" xml:space="preserve" text-anchor="middle" font-family="Open Sans" fill="#000000" transform="matrix(1,0,0,1,225,115)"><tspan id="v-5263"  dy="0em" x="0">[Component]</tspan></text><text  id="v-5259" font-size="24" y="0.8em" xml:space="preserve" text-anchor="middle" font-family="Open Sans" fill="#000000" transform="matrix(1,0,0,1,225,165)"><tspan id="v-5264"  dy="0em" x="0">Device library implementing OCF</tspan><tspan id="v-5265"  dy="1.2em" x="0">standard</tspan></text><text  id="v-5260" font-weight="bold" text-anchor="middle" font-family="Open Sans" fill="#000000" font-size="24" transform="matrix(1,0,0,1,225,270)" y="0.8em" xml:space="preserve" display="none"><tspan id="v-5266"  dy="0em" x="0">#</tspan></text><image  id="v-5261"></image></g></g><g id="j_333"    transform="translate(1390,1267)" style="" ><g  id="v-5270" style="opacity: 1;"><rect  id="v-5271" rx="1" ry="1" stroke="#80b3cb" stroke-width="2" pointer-events="visiblePainted" fill="#8ec7e1" width="450" height="300"></rect><text  id="v-5272" font-size="34" y="0.8em" xml:space="preserve" font-weight="bold" text-anchor="middle" pointer-events="visible" font-family="Open Sans" fill="#000000" transform="matrix(1,0,0,1,225,75)"><tspan id="v-5277"  dy="0em" x="0">CoAP Client</tspan></text><text  id="v-5273" font-size="19" y="0.8em" xml:space="preserve" text-anchor="middle" font-family="Open Sans" fill="#000000" transform="matrix(1,0,0,1,225,115)"><tspan id="v-5278"  dy="0em" x="0">[Component]</tspan></text><text  id="v-5274" font-size="24" y="0.8em" xml:space="preserve" text-anchor="middle" font-family="Open Sans" fill="#000000" transform="matrix(1,0,0,1,225,165)"><tspan id="v-5279"  dy="0em" x="0">Enables communication on the local</tspan><tspan id="v-5280"  dy="1.2em" x="0">network with the device</tspan></text><text  id="v-5275" font-weight="bold" text-anchor="middle" font-family="Open Sans" fill="#000000" font-size="24" transform="matrix(1,0,0,1,225,270)" y="0.8em" xml:space="preserve" display="none"><tspan id="v-5288"  dy="0em" x="0">#</tspan></text><image  id="v-5276"></image></g></g><g id="j_335"   ><path  stroke="#707070" id="v-5309" stroke-width="2" stroke-dasharray="30 30" fill="none" d="M 1521 1567 1345 1850" style="opacity: 1;"></path><path  fill="black" stroke="black" transform="translate(1521,1567) scale(1,1) rotate(-238.0633394787325)"></path><path  fill="#707070" stroke="#707070" id="v-5311" d="M 20 0 L 0 10 L 20 20 z" transform="translate(1325.513671875,1861.710205078125) scale(1,1) rotate(-58.063339478732516)" style="opacity: 1;"></path><path  id="v-5310" fill="none" d="M 1521 1567 1345 1850" style=""></path><title ></title><g ><g  id="v-5296" label-idx="0" cursor="move" transform="translate(1433, 1708.5)" style="opacity: 1;"><rect id="v-5298" fill="#ffffff" rx="3" ry="3" stroke="#ffffff" stroke-width="20px" pointer-events="none" width="171.1999969482422" height="61.79999923706055" transform="matrix(1,0,0,1,-84.4000015258789,-30.899999618530273)"></rect><text id="v-5297" font-size="24px" y="0.8em" xml:space="preserve" text-anchor="middle" pointer-events="none" fill="#707070" font-family="Open Sans" font-weight="normal" transform="matrix(1,0,0,1,0,-23.100000381469727)"><tspan id="v-5299"  dy="0em" x="0">Interacts localy</tspan><tspan id="v-5300"  dy="1.2em" x="0">with</tspan></text></g><g  id="v-5301" label-idx="1" cursor="move" transform="translate(1433, 1751.7)" style="opacity: 1;"><rect id="v-5303" fill="#ffffff" rx="3" ry="3" pointer-events="none" width="0" height="0" transform="matrix(1,0,0,1,0,0)"></rect><text id="v-5302" font-size="19px" y="0.8em" display="none" xml:space="preserve" text-anchor="middle" pointer-events="none" fill="#707070" font-family="Open Sans" font-weight="normal" transform="matrix(1,0,0,1,0,0)"><tspan id="v-5304"  dy="0em" x="0" style="fill-opacity: 0; stroke-opacity: 0;">-</tspan></text></g><g  id="v-5305" label-idx="2" cursor="move" transform="translate(1433, 1775.7)" style="opacity: 1;"><rect id="v-5307" fill="#ffffff" rx="3" ry="3" pointer-events="none"  display="none" width="0" height="0" transform="matrix(1,0,0,1,0,0)"></rect><text id="v-5306" font-size="19px" y="0.8em" display="none" xml:space="preserve" text-anchor="middle" pointer-events="none" fill="#707070" font-family="Open Sans" font-weight="normal"  transform="matrix(1,0,0,1,0,0)"><tspan id="v-5308"  dy="0em" x="0" style="fill-opacity: 0; stroke-opacity: 0;">-</tspan></text></g></g><g  display="none"></g><g  id="v-5313" display="none"><g  id="v-5293"><path  end="source" d="M 26 0 L 0 13 L 26 26 z"></path></g><g  id="v-5294"><path  end="target" d="M 26 0 L 0 13 L 26 26 z"></path></g></g><g  id="v-5312" display="none"><g  id="v-5292" transform="translate(1499.8756103515625, 1600.967041015625) "><g  event="remove"><circle r="11"></circle><path transform="scale(.8) translate(-16, -16)" d="M24.778,21.419 19.276,15.917 24.777,10.415 21.949,7.585 16.447,13.087 10.945,7.585 8.117,10.415 13.618,15.917 8.116,21.419 10.946,24.248 16.447,18.746 21.948,24.248z"></path><title>Remove link.</title></g><g  event="link:options"><circle r="11" transform="translate(25)"></circle><path fill="white" transform="scale(.55) translate(29, -16)" d="M31.229,17.736c0.064-0.571,0.104-1.148,0.104-1.736s-0.04-1.166-0.104-1.737l-4.377-1.557c-0.218-0.716-0.504-1.401-0.851-2.05l1.993-4.192c-0.725-0.91-1.549-1.734-2.458-2.459l-4.193,1.994c-0.647-0.347-1.334-0.632-2.049-0.849l-1.558-4.378C17.165,0.708,16.588,0.667,16,0.667s-1.166,0.041-1.737,0.105L12.707,5.15c-0.716,0.217-1.401,0.502-2.05,0.849L6.464,4.005C5.554,4.73,4.73,5.554,4.005,6.464l1.994,4.192c-0.347,0.648-0.632,1.334-0.849,2.05l-4.378,1.557C0.708,14.834,0.667,15.412,0.667,16s0.041,1.165,0.105,1.736l4.378,1.558c0.217,0.715,0.502,1.401,0.849,2.049l-1.994,4.193c0.725,0.909,1.549,1.733,2.459,2.458l4.192-1.993c0.648,0.347,1.334,0.633,2.05,0.851l1.557,4.377c0.571,0.064,1.148,0.104,1.737,0.104c0.588,0,1.165-0.04,1.736-0.104l1.558-4.377c0.715-0.218,1.399-0.504,2.049-0.851l4.193,1.993c0.909-0.725,1.733-1.549,2.458-2.458l-1.993-4.193c0.347-0.647,0.633-1.334,0.851-2.049L31.229,17.736zM16,20.871c-2.69,0-4.872-2.182-4.872-4.871c0-2.69,2.182-4.872,4.872-4.872c2.689,0,4.871,2.182,4.871,4.872C20.871,18.689,18.689,20.871,16,20.871z"></path><title>Link options.</title></g></g></g></g><g id="j_336"   ><path  stroke="#707070" id="v-5334" stroke-width="2" stroke-dasharray="30 30" fill="none" d="M 1146 1867 970 1584" style="opacity: 1;"></path><path  fill="black" stroke="black" transform="translate(1146,1867) scale(1,1) rotate(-121.93666052126748)"></path><path  fill="#707070" stroke="#707070" id="v-5336" d="M 20 0 L 0 10 L 20 20 z" transform="translate(967.486328125,1561.710205078125) scale(1,1) rotate(58.063322466514194)" style="opacity: 1;"></path><path  id="v-5335" fill="none" d="M 1146 1867 970 1584" style=""></path><title ></title><g ><g  id="v-5321" label-idx="0" cursor="move" transform="translate(1058, 1725.5)" style="opacity: 1;"><rect id="v-5323" fill="#ffffff" rx="3" ry="3" stroke="#ffffff" stroke-width="20px" pointer-events="none" width="151.34999084472656" height="61.79999923706055" transform="matrix(1,0,0,1,-75,-30.899999618530273)"></rect><text id="v-5322" font-size="24px" y="0.8em" xml:space="preserve" text-anchor="middle" pointer-events="none" fill="#707070" font-family="Open Sans" font-weight="normal" transform="matrix(1,0,0,1,0,-23.100000381469727)"><tspan id="v-5324"  dy="0em" x="0">Remotely</tspan><tspan id="v-5325"  dy="1.2em" x="0">controlled by</tspan></text></g><g  id="v-5326" label-idx="1" cursor="move" transform="translate(1058, 1768.7)" style="opacity: 1;"><rect id="v-5328" fill="#ffffff" rx="3" ry="3" pointer-events="none" width="0" height="0" transform="matrix(1,0,0,1,0,0)"></rect><text id="v-5327" font-size="19px" y="0.8em" display="none" xml:space="preserve" text-anchor="middle" pointer-events="none" fill="#707070" font-family="Open Sans" font-weight="normal" transform="matrix(1,0,0,1,0,0)"><tspan id="v-5329"  dy="0em" x="0" style="fill-opacity: 0; stroke-opacity: 0;">-</tspan></text></g><g  id="v-5330" label-idx="2" cursor="move" transform="translate(1058, 1792.7)" style="opacity: 1;"><rect id="v-5332" fill="#ffffff" rx="3" ry="3" pointer-events="none"  display="none" width="0" height="0" transform="matrix(1,0,0,1,0,0)"></rect><text id="v-5331" font-size="19px" y="0.8em" display="none" xml:space="preserve" text-anchor="middle" pointer-events="none" fill="#707070" font-family="Open Sans" font-weight="normal"  transform="matrix(1,0,0,1,0,0)"><tspan id="v-5333"  dy="0em" x="0" style="fill-opacity: 0; stroke-opacity: 0;">-</tspan></text></g></g><g  display="none"></g><g  id="v-5338" display="none"><g  id="v-5318"><path  end="source" d="M 26 0 L 0 13 L 26 26 z"></path></g><g  id="v-5319"><path  end="target" d="M 26 0 L 0 13 L 26 26 z"></path></g></g><g  id="v-5337" display="none"><g  id="v-5317" transform="translate(1124.8756103515625, 1833.032958984375) "><g  event="remove"><circle r="11"></circle><path transform="scale(.8) translate(-16, -16)" d="M24.778,21.419 19.276,15.917 24.777,10.415 21.949,7.585 16.447,13.087 10.945,7.585 8.117,10.415 13.618,15.917 8.116,21.419 10.946,24.248 16.447,18.746 21.948,24.248z"></path><title>Remove link.</title></g><g  event="link:options"><circle r="11" transform="translate(25)"></circle><path fill="white" transform="scale(.55) translate(29, -16)" d="M31.229,17.736c0.064-0.571,0.104-1.148,0.104-1.736s-0.04-1.166-0.104-1.737l-4.377-1.557c-0.218-0.716-0.504-1.401-0.851-2.05l1.993-4.192c-0.725-0.91-1.549-1.734-2.458-2.459l-4.193,1.994c-0.647-0.347-1.334-0.632-2.049-0.849l-1.558-4.378C17.165,0.708,16.588,0.667,16,0.667s-1.166,0.041-1.737,0.105L12.707,5.15c-0.716,0.217-1.401,0.502-2.05,0.849L6.464,4.005C5.554,4.73,4.73,5.554,4.005,6.464l1.994,4.192c-0.347,0.648-0.632,1.334-0.849,2.05l-4.378,1.557C0.708,14.834,0.667,15.412,0.667,16s0.041,1.165,0.105,1.736l4.378,1.558c0.217,0.715,0.502,1.401,0.849,2.049l-1.994,4.193c0.725,0.909,1.549,1.733,2.459,2.458l4.192-1.993c0.648,0.347,1.334,0.633,2.05,0.851l1.557,4.377c0.571,0.064,1.148,0.104,1.737,0.104c0.588,0,1.165-0.04,1.736-0.104l1.558-4.377c0.715-0.218,1.399-0.504,2.049-0.851l4.193,1.993c0.909-0.725,1.733-1.549,2.458-2.458l-1.993-4.193c0.347-0.647,0.633-1.334,0.851-2.049L31.229,17.736zM16,20.871c-2.69,0-4.872-2.182-4.872-4.871c0-2.69,2.182-4.872,4.872-4.872c2.689,0,4.871,2.182,4.871,4.872C20.871,18.689,18.689,20.871,16,20.871z"></path><title>Link options.</title></g></g></g></g></g><defs id="v-4"></defs></svg>