<svg xmlns="http://www.w3.org/2000/svg" xmlns:xlink="http://www.w3.org/1999/xlink" version="1.1" viewBox="0 0 2480 3508" style="background: #ffffff"><g id="v-3"  transform="matrix(1,0,0,1,0,0)"><g id="j_378"    transform="translate(20,3463)"><g id="v-5822"><text  id="v-5823" font-size="22px" y="0.8em" xml:space="preserve" font-weight="normal" text-anchor="start" fill="#777777" pointer-events="none" font-family="Open Sans" transform="matrix(1,0,0,1,0,0)" display="none"><tspan id="v-5824"  dy="0em" x="0">Thursday, November 19, 2020, 2:21 PM Central European Standard Time | Diagram created with Structurizr</tspan></text></g></g><g id="j_377"    transform="translate(20,3417)"><g id="v-5818"><text  id="v-5819" font-size="36px" y="0.8em" xml:space="preserve" font-weight="normal" text-anchor="start" fill="#000000" pointer-events="none" font-family="Open Sans" transform="matrix(1,0,0,1,0,0)" display="none"><tspan id="v-5820"  dy="0em" x="0">Component diagram for plgd Cloud - Resource Directory</tspan></text></g></g><g id="j_358"    transform="translate(255,1284)" style=""><g id="v-5488"><rect  id="v-5489" width="1240" height="1013" rx="0" ry="0" fill="#ffffff" stroke="#444444" stroke-width="2" stroke-dasharray="20,20" pointer-events="none"></rect><text  id="v-5490" font-size="24px" y="974" xml:space="preserve" font-weight="normal" fill="#444444" x="10" text-anchor="start" pointer-events="visible" font-family="Open Sans" transform="matrix(1,0,0,1,15,0)"><tspan id="v-5492"  dy="0em" x="0">Resource Directory</tspan></text><text  id="v-5491" font-size="19px" y="998" xml:space="preserve" font-weight="normal" fill="#444444" x="10" text-anchor="start" pointer-events="visible" font-family="Open Sans" transform="matrix(1,0,0,1,15,0)"><tspan id="v-5493"  dy="0em" x="0">[Container]</tspan></text></g></g><g id="j_359"    transform="translate(275,704)" style=""><g  id="v-5495" style="opacity: 1;"><rect  id="v-5496" rx="1" ry="1" stroke="#80b3cb" stroke-width="2" pointer-events="visiblePainted" fill="#8ec7e1" width="450" height="300"></rect><text  id="v-5497" font-size="34" y="0.8em" xml:space="preserve" font-weight="bold" text-anchor="middle" pointer-events="visible" font-family="Open Sans" fill="#000000" transform="matrix(1,0,0,1,225,77.5)"><tspan id="v-5502"  dy="0em" x="0">Protocol Adapter</tspan></text><text  id="v-5498" font-size="19" y="0.8em" xml:space="preserve" text-anchor="middle" font-family="Open Sans" fill="#000000" transform="matrix(1,0,0,1,225,117.5)"><tspan id="v-5503"  dy="0em" x="0">from CoAP Gateway</tspan><tspan id="v-5504"  dy="1.2em" x="0">[Component]</tspan></text><text  id="v-5499" font-size="24" y="0.8em" xml:space="preserve" text-anchor="middle" font-family="Open Sans" fill="#000000" transform="matrix(1,0,0,1,225,192.5)"><tspan id="v-5505"  dy="0em" x="0">Translates OCF protocol</tspan></text><text  id="v-5500" font-weight="bold" text-anchor="middle" font-family="Open Sans" fill="#000000" font-size="24" transform="matrix(1,0,0,1,225,270)" display="none"></text><image  id="v-5501"></image></g></g><g id="j_360"    transform="translate(1025,1304)" style="" ><g  id="v-5511" style="opacity: 1;"><rect  id="v-5512" rx="1" ry="1" stroke="#80b3cb" stroke-width="2" pointer-events="visiblePainted" fill="#8ec7e1" width="450" height="300"></rect><text  id="v-5513" font-size="34" y="0.8em" xml:space="preserve" font-weight="bold" text-anchor="middle" pointer-events="visible" font-family="Open Sans" fill="#000000" transform="matrix(1,0,0,1,225,75)"><tspan id="v-5518"  dy="0em" x="0">Projections Component</tspan></text><text  id="v-5514" font-size="19" y="0.8em" xml:space="preserve" text-anchor="middle" font-family="Open Sans" fill="#000000" transform="matrix(1,0,0,1,225,115)"><tspan id="v-5519"  dy="0em" x="0">[Component]</tspan></text><text  id="v-5515" font-size="24" y="0.8em" xml:space="preserve" text-anchor="middle" font-family="Open Sans" fill="#000000" transform="matrix(1,0,0,1,225,165)"><tspan id="v-5520"  dy="0em" x="0">Builds and maintains device and</tspan><tspan id="v-5521"  dy="1.2em" x="0">resource projections</tspan></text><text  id="v-5516" font-weight="bold" text-anchor="middle" font-family="Open Sans" fill="#000000" font-size="24" transform="matrix(1,0,0,1,225,270)" y="0.8em" xml:space="preserve" display="none"><tspan id="v-5522"  dy="0em" x="0">#</tspan></text><image  id="v-5517"></image></g></g><g id="j_361"    transform="translate(1025,704)" style=""><g  id="v-5526" style="opacity: 1;"><rect  id="v-5527" rx="1" ry="1" stroke="#80b3cb" stroke-width="2" pointer-events="visiblePainted" fill="#8ec7e1" width="450" height="300"></rect><text  id="v-5528" font-size="34" y="0.8em" xml:space="preserve" font-weight="bold" text-anchor="middle" pointer-events="visible" font-family="Open Sans" fill="#000000" transform="matrix(1,0,0,1,225,77.5)"><tspan id="v-5533"  dy="0em" x="0">Protocol Adapter</tspan></text><text  id="v-5529" font-size="19" y="0.8em" xml:space="preserve" text-anchor="middle" font-family="Open Sans" fill="#000000" transform="matrix(1,0,0,1,225,117.5)"><tspan id="v-5534"  dy="0em" x="0">from gRPC Gateway</tspan><tspan id="v-5535"  dy="1.2em" x="0">[Component]</tspan></text><text  id="v-5530" font-size="24" y="0.8em" xml:space="preserve" text-anchor="middle" font-family="Open Sans" fill="#000000" transform="matrix(1,0,0,1,225,192.5)"><tspan id="v-5536"  dy="0em" x="0">Translates public gRPC protocol</tspan></text><text  id="v-5531" font-weight="bold" text-anchor="middle" font-family="Open Sans" fill="#000000" font-size="24" transform="matrix(1,0,0,1,225,270)" display="none"></text><image  id="v-5532"></image></g></g><g id="j_362"    transform="translate(1775,1304)" style="" ><g  id="v-5542" style="opacity: 1;"><rect  id="v-5543" rx="1" ry="1" stroke="#c7c7c7" stroke-width="2" pointer-events="visiblePainted" fill="#dddddd" width="450" height="300"></rect><text  id="v-5544" font-size="34" y="0.8em" xml:space="preserve" font-weight="bold" text-anchor="middle" pointer-events="visible" font-family="Open Sans" fill="#000000" transform="matrix(1,0,0,1,225,75)"><tspan id="v-5549"  dy="0em" x="0">Authorization Server</tspan></text><text  id="v-5545" font-size="19" y="0.8em" xml:space="preserve" text-anchor="middle" font-family="Open Sans" fill="#000000" transform="matrix(1,0,0,1,225,115)"><tspan id="v-5550"  dy="0em" x="0">[Software System]</tspan></text><text  id="v-5546" font-size="24" y="0.8em" xml:space="preserve" text-anchor="middle" font-family="Open Sans" fill="#000000" transform="matrix(1,0,0,1,225,165)"><tspan id="v-5551"  dy="0em" x="0">An OAuth2.0 server authorizing and</tspan><tspan id="v-5552"  dy="1.2em" x="0">storing users and devices identities</tspan></text><text  id="v-5547" font-weight="bold" text-anchor="middle" font-family="Open Sans" fill="#000000" font-size="24" transform="matrix(1,0,0,1,225,270)" y="0.8em" display="none" xml:space="preserve"><tspan id="v-5553"  dy="0em" x="0" style="fill-opacity: 0; stroke-opacity: 0;">-</tspan></text><image  id="v-5548"></image></g></g><g id="j_363"    transform="translate(1775,704)" style=""><g  id="v-5557" style="opacity: 1;"><rect  id="v-5558" rx="1" ry="1" stroke="#80b3cb" stroke-width="2" pointer-events="visiblePainted" fill="#8ec7e1" width="450" height="300"></rect><text  id="v-5559" font-size="34" y="0.8em" xml:space="preserve" font-weight="bold" text-anchor="middle" pointer-events="visible" font-family="Open Sans" fill="#000000" transform="matrix(1,0,0,1,225,77.5)"><tspan id="v-5564"  dy="0em" x="0">Protocol Adapter</tspan></text><text  id="v-5560" font-size="19" y="0.8em" xml:space="preserve" text-anchor="middle" font-family="Open Sans" fill="#000000" transform="matrix(1,0,0,1,225,117.5)"><tspan id="v-5565"  dy="0em" x="0">from HTTP Gateway</tspan><tspan id="v-5566"  dy="1.2em" x="0">[Component]</tspan></text><text  id="v-5561" font-size="24" y="0.8em" xml:space="preserve" text-anchor="middle" font-family="Open Sans" fill="#000000" transform="matrix(1,0,0,1,225,192.5)"><tspan id="v-5567"  dy="0em" x="0">Translates HTTP protocol</tspan></text><text  id="v-5562" font-weight="bold" text-anchor="middle" font-family="Open Sans" fill="#000000" font-size="24" transform="matrix(1,0,0,1,225,270)" display="none"></text><image  id="v-5563"></image></g></g><g id="j_364"    transform="translate(275,1904)" style="" ><g  id="v-5573" style="opacity: 1;"><rect  id="v-5574" rx="1" ry="1" stroke="#80b3cb" stroke-width="2" pointer-events="visiblePainted" fill="#8ec7e1" width="450" height="300"></rect><text  id="v-5575" font-size="34" y="0.8em" xml:space="preserve" font-weight="bold" text-anchor="middle" pointer-events="visible" font-family="Open Sans" fill="#000000" transform="matrix(1,0,0,1,225,75)"><tspan id="v-5580"  dy="0em" x="0">Event Bus Component</tspan></text><text  id="v-5576" font-size="19" y="0.8em" xml:space="preserve" text-anchor="middle" font-family="Open Sans" fill="#000000" transform="matrix(1,0,0,1,225,115)"><tspan id="v-5581"  dy="0em" x="0">[Component]</tspan></text><text  id="v-5577" font-size="24" y="0.8em" xml:space="preserve" text-anchor="middle" font-family="Open Sans" fill="#000000" transform="matrix(1,0,0,1,225,165)"><tspan id="v-5582"  dy="0em" x="0">Subsribes to projections relevant</tspan><tspan id="v-5583"  dy="1.2em" x="0">events</tspan></text><text  id="v-5578" font-weight="bold" text-anchor="middle" font-family="Open Sans" fill="#000000" font-size="24" transform="matrix(1,0,0,1,225,270)" y="0.8em" xml:space="preserve" display="none"><tspan id="v-5584"  dy="0em" x="0">#</tspan></text><image  id="v-5579"></image></g></g><g id="j_365"    transform="translate(1025,1904)" style="" ><g  id="v-5590" style="opacity: 1;"><rect  id="v-5591" rx="1" ry="1" stroke="#80b3cb" stroke-width="2" pointer-events="visiblePainted" fill="#8ec7e1" width="450" height="300"></rect><text  id="v-5592" font-size="34" y="0.8em" xml:space="preserve" font-weight="bold" text-anchor="middle" pointer-events="visible" font-family="Open Sans" fill="#000000" transform="matrix(1,0,0,1,225,90)"><tspan id="v-5597"  dy="0em" x="0">Event Store Component</tspan></text><text  id="v-5593" font-size="19" y="0.8em" xml:space="preserve" text-anchor="middle" font-family="Open Sans" fill="#000000" transform="matrix(1,0,0,1,225,130)"><tspan id="v-5598"  dy="0em" x="0">[Component]</tspan></text><text  id="v-5594" font-size="24" y="0.8em" xml:space="preserve" text-anchor="middle" font-family="Open Sans" fill="#000000" transform="matrix(1,0,0,1,225,180)"><tspan id="v-5599"  dy="0em" x="0">Loads events from latest snapshot</tspan></text><text  id="v-5595" font-weight="bold" text-anchor="middle" font-family="Open Sans" fill="#000000" font-size="24" transform="matrix(1,0,0,1,225,270)" y="0.8em" xml:space="preserve" display="none"><tspan id="v-5600"  dy="0em" x="0">#</tspan></text><image  id="v-5596"></image></g></g><g id="j_366"    transform="translate(1100,2504)" style="" ><g  id="v-5606" style="opacity: 1;"><ellipse  id="bottom" cx="150" cy="270" rx="150" ry="30" stroke="#80b3cb" stroke-width="2" pointer-events="visiblePainted" fill="#8ec7e1"></ellipse><rect  id="face" x="0" y="30" width="300" height="240" stroke="#80b3cb" stroke-width="2" pointer-events="visiblePainted" fill="#8ec7e1"></rect><clipPath id="cylinderStructurizrClipPath9" clipPathUnits="userSpaceOnUse"><use xmlns:xlink="http://www.w3.org/1999/xlink" xlink:href="#bottom"></use><use xmlns:xlink="http://www.w3.org/1999/xlink" xlink:href="#face"></use></clipPath><rect  x="0" y="30" width="300" height="270" clip-path="url(#cylinderStructurizrClipPath9)" id="v-5607" stroke="none" stroke-width="2" pointer-events="visiblePainted" fill="#8ec7e1"></rect><ellipse cx="150" cy="30" rx="150" ry="30" id="lid"  stroke="#80b3cb" stroke-width="2" pointer-events="visiblePainted" fill="#8ec7e1"></ellipse><text  id="v-5608" font-size="34px" y="0.8em" xml:space="preserve" font-weight="bold" text-anchor="middle" pointer-events="visible" font-family="Open Sans" fill="#000000" transform="matrix(1,0,0,1,150,120)"><tspan id="v-5613"  dy="0em" x="0">Event Store</tspan></text><text  id="v-5609" font-size="19px" y="0.8em" xml:space="preserve" text-anchor="middle" font-family="Open Sans" fill="#000000" transform="matrix(1,0,0,1,150,160)"><tspan id="v-5614"  dy="0em" x="0">[Container: MongoDB]</tspan></text><text  id="v-5610" font-size="24px" y="0.8em" display="none" xml:space="preserve" text-anchor="middle" font-family="Open Sans" fill="#000000" transform="matrix(1,0,0,1,150,210)"><tspan id="v-5615"  dy="0em" x="0" style="fill-opacity: 0; stroke-opacity: 0;">-</tspan></text><text  id="v-5611" font-weight="bold" text-anchor="middle" font-family="Open Sans" fill="#000000" font-size="24" transform="matrix(1,0,0,1,150,273)" y="0.8em" display="none" xml:space="preserve"><tspan id="v-5616"  dy="0em" x="0" style="fill-opacity: 0; stroke-opacity: 0;">-</tspan></text><image  id="v-5612"></image></g></g><g id="j_367"    transform="translate(275,2592)" style="" ><g  id="v-5618" style="opacity: 1;"><ellipse  id="pipeRight" cx="420" cy="62.5" rx="30" ry="62.5" stroke="#80b3cb" stroke-width="2" pointer-events="visiblePainted" fill="#8ec7e1"></ellipse><rect  id="pipeFace" x="30" y="0" width="390" height="125" stroke="#80b3cb" stroke-width="2" pointer-events="visiblePainted" fill="#8ec7e1"></rect><clipPath id="pipeStructurizrClipPath9" clipPathUnits="userSpaceOnUse"><use xmlns:xlink="http://www.w3.org/1999/xlink" xlink:href="#pipeRight"></use><use xmlns:xlink="http://www.w3.org/1999/xlink" xlink:href="#pipeFace"></use></clipPath><rect  x="30" y="0" width="420" height="125" clip-path="url(#pipeStructurizrClipPath9)" id="v-5619" stroke="none" stroke-width="2" pointer-events="visiblePainted" fill="#8ec7e1"></rect><ellipse cx="30" cy="62.5" rx="30" ry="62.5" id="lid"  stroke="#80b3cb" stroke-width="2" pointer-events="visiblePainted" fill="#8ec7e1"></ellipse><text  id="v-5620" font-size="34px" y="0.8em" xml:space="preserve" font-weight="bold" text-anchor="middle" pointer-events="visible" font-family="Open Sans" fill="#000000" transform="matrix(1,0,0,1,225,17.5)"><tspan id="v-5625"  dy="0em" x="0">Event Bus</tspan></text><text  id="v-5621" font-size="19px" y="0.8em" xml:space="preserve" text-anchor="middle" font-family="Open Sans" fill="#000000" transform="matrix(1,0,0,1,225,57.5)"><tspan id="v-5626"  dy="0em" x="0">[Container: NATS]</tspan></text><text  id="v-5622" font-size="24px" y="0.8em" display="none" xml:space="preserve" text-anchor="middle" font-family="Open Sans" fill="#000000" transform="matrix(1,0,0,1,225,107.5)"><tspan id="v-5627"  dy="0em" x="0" style="fill-opacity: 0; stroke-opacity: 0;">-</tspan></text><text  id="v-5623" font-weight="bold" text-anchor="middle" font-family="Open Sans" fill="#000000" font-size="24" transform="matrix(1,0,0,1,225,112.5)" y="0.8em" display="none" xml:space="preserve"><tspan id="v-5628"  dy="0em" x="0" style="fill-opacity: 0; stroke-opacity: 0;">-</tspan></text><image  id="v-5624"></image></g></g><g id="j_368"   ><path  stroke="#707070" id="v-5646" stroke-width="2" stroke-dasharray="30 30" fill="none" d="M 1250 1004 1250 1284" style="opacity: 1;"></path><path  fill="black" stroke="black" transform="translate(1250,1004) scale(1,1) rotate(-270)"></path><path  fill="#707070" stroke="#707070" id="v-5648" d="M 20 0 L 0 10 L 20 20 z" transform="translate(1240,1304) scale(1,1) rotate(-90)" style="opacity: 1;"></path><path  id="v-5647" fill="none" d="M 1250 1004 1250 1284" style=""></path><title ></title><g ><g  id="v-5634" label-idx="0" cursor="move" transform="translate(1250, 1144)" style="opacity: 1;"><rect id="v-5636" fill="#ffffff" rx="3" ry="3" stroke="#ffffff" stroke-width="20px" pointer-events="none" width="91.04999542236328" height="32.99999809265137" transform="matrix(1,0,0,1,-45.29999923706055,-16.5)"></rect><text id="v-5635" font-size="24px" y="0.8em" xml:space="preserve" text-anchor="middle" pointer-events="none" fill="#707070" font-family="Open Sans" font-weight="normal" transform="matrix(1,0,0,1,0,-8.699999809265137)"><tspan id="v-5637"  dy="0em" x="0">Queries</tspan></text></g><g  id="v-5638" label-idx="1" cursor="move" transform="translate(1250, 1175.2)" style="opacity: 1;"><rect id="v-5640" fill="#ffffff" rx="3" ry="3" pointer-events="none" width="0" height="0" transform="matrix(1,0,0,1,0,0)"></rect><text id="v-5639" font-size="19px" y="0.8em" display="none" xml:space="preserve" text-anchor="middle" pointer-events="none" fill="#707070" font-family="Open Sans" font-weight="normal" transform="matrix(1,0,0,1,0,0)"><tspan id="v-5641"  dy="0em" x="0" style="fill-opacity: 0; stroke-opacity: 0;">-</tspan></text></g><g  id="v-5642" label-idx="2" cursor="move" transform="translate(1250, 1199.2)" style="opacity: 1;"><rect id="v-5644" fill="#ffffff" rx="3" ry="3" pointer-events="none"  display="none" width="0" height="0" transform="matrix(1,0,0,1,0,0)"></rect><text id="v-5643" font-size="19px" y="0.8em" display="none" xml:space="preserve" text-anchor="middle" pointer-events="none" fill="#707070" font-family="Open Sans" font-weight="normal"  transform="matrix(1,0,0,1,0,0)"><tspan id="v-5645"  dy="0em" x="0" style="fill-opacity: 0; stroke-opacity: 0;">-</tspan></text></g></g><g  display="none"></g><g  id="v-5650" display="none"><g  id="v-5631"><path  end="source" d="M 26 0 L 0 13 L 26 26 z"></path></g><g  id="v-5632"><path  end="target" d="M 26 0 L 0 13 L 26 26 z"></path></g></g><g  id="v-5649" display="none"><g  id="v-5630" transform="translate(1250, 1044) "><g  event="remove"><circle r="11"></circle><path transform="scale(.8) translate(-16, -16)" d="M24.778,21.419 19.276,15.917 24.777,10.415 21.949,7.585 16.447,13.087 10.945,7.585 8.117,10.415 13.618,15.917 8.116,21.419 10.946,24.248 16.447,18.746 21.948,24.248z"></path><title>Remove link.</title></g><g  event="link:options"><circle r="11" transform="translate(25)"></circle><path fill="white" transform="scale(.55) translate(29, -16)" d="M31.229,17.736c0.064-0.571,0.104-1.148,0.104-1.736s-0.04-1.166-0.104-1.737l-4.377-1.557c-0.218-0.716-0.504-1.401-0.851-2.05l1.993-4.192c-0.725-0.91-1.549-1.734-2.458-2.459l-4.193,1.994c-0.647-0.347-1.334-0.632-2.049-0.849l-1.558-4.378C17.165,0.708,16.588,0.667,16,0.667s-1.166,0.041-1.737,0.105L12.707,5.15c-0.716,0.217-1.401,0.502-2.05,0.849L6.464,4.005C5.554,4.73,4.73,5.554,4.005,6.464l1.994,4.192c-0.347,0.648-0.632,1.334-0.849,2.05l-4.378,1.557C0.708,14.834,0.667,15.412,0.667,16s0.041,1.165,0.105,1.736l4.378,1.558c0.217,0.715,0.502,1.401,0.849,2.049l-1.994,4.193c0.725,0.909,1.549,1.733,2.459,2.458l4.192-1.993c0.648,0.347,1.334,0.633,2.05,0.851l1.557,4.377c0.571,0.064,1.148,0.104,1.737,0.104c0.588,0,1.165-0.04,1.736-0.104l1.558-4.377c0.715-0.218,1.399-0.504,2.049-0.851l4.193,1.993c0.909-0.725,1.733-1.549,2.458-2.458l-1.993-4.193c0.347-0.647,0.633-1.334,0.851-2.049L31.229,17.736zM16,20.871c-2.69,0-4.872-2.182-4.872-4.871c0-2.69,2.182-4.872,4.872-4.872c2.689,0,4.871,2.182,4.871,4.872C20.871,18.689,18.689,20.871,16,20.871z"></path><title>Link options.</title></g></g></g></g><g id="j_369"   ><path  stroke="#707070" id="v-5668" stroke-width="2" stroke-dasharray="30 30" fill="none" d="M 1813 1004 1454 1292" style="opacity: 1;"></path><path  fill="black" stroke="black" transform="translate(1813,1004) scale(1,1) rotate(-218.6598055873492)"></path><path  fill="#707070" stroke="#707070" id="v-5670" d="M 20 0 L 0 10 L 20 20 z" transform="translate(1431.7530517578125,1296.1912841796875) scale(1,1) rotate(-38.65980825409009)" style="opacity: 1;"></path><path  id="v-5669" fill="none" d="M 1813 1004 1454 1292" style=""></path><title ></title><g ><g  id="v-5656" label-idx="0" cursor="move" transform="translate(1633.5, 1148)" style="opacity: 1;"><rect id="v-5658" fill="#ffffff" rx="3" ry="3" stroke="#ffffff" stroke-width="20px" pointer-events="none" width="91.04999542236328" height="32.99999809265137" transform="matrix(1,0,0,1,-45.29999923706055,-16.5)"></rect><text id="v-5657" font-size="24px" y="0.8em" xml:space="preserve" text-anchor="middle" pointer-events="none" fill="#707070" font-family="Open Sans" font-weight="normal" transform="matrix(1,0,0,1,0,-8.699999809265137)"><tspan id="v-5659"  dy="0em" x="0">Queries</tspan></text></g><g  id="v-5660" label-idx="1" cursor="move" transform="translate(1633.5, 1179.2)" style="opacity: 1;"><rect id="v-5662" fill="#ffffff" rx="3" ry="3" pointer-events="none" width="0" height="0" transform="matrix(1,0,0,1,0,0)"></rect><text id="v-5661" font-size="19px" y="0.8em" display="none" xml:space="preserve" text-anchor="middle" pointer-events="none" fill="#707070" font-family="Open Sans" font-weight="normal" transform="matrix(1,0,0,1,0,0)"><tspan id="v-5663"  dy="0em" x="0" style="fill-opacity: 0; stroke-opacity: 0;">-</tspan></text></g><g  id="v-5664" label-idx="2" cursor="move" transform="translate(1633.5, 1203.2)" style="opacity: 1;"><rect id="v-5666" fill="#ffffff" rx="3" ry="3" pointer-events="none"  display="none" width="0" height="0" transform="matrix(1,0,0,1,0,0)"></rect><text id="v-5665" font-size="19px" y="0.8em" display="none" xml:space="preserve" text-anchor="middle" pointer-events="none" fill="#707070" font-family="Open Sans" font-weight="normal"  transform="matrix(1,0,0,1,0,0)"><tspan id="v-5667"  dy="0em" x="0" style="fill-opacity: 0; stroke-opacity: 0;">-</tspan></text></g></g><g  display="none"></g><g  id="v-5672" display="none"><g  id="v-5653"><path  end="source" d="M 26 0 L 0 13 L 26 26 z"></path></g><g  id="v-5654"><path  end="target" d="M 26 0 L 0 13 L 26 26 z"></path></g></g><g  id="v-5671" display="none"><g  id="v-5652" transform="translate(1781.7991943359375, 1029.0301513671875) "><g  event="remove"><circle r="11"></circle><path transform="scale(.8) translate(-16, -16)" d="M24.778,21.419 19.276,15.917 24.777,10.415 21.949,7.585 16.447,13.087 10.945,7.585 8.117,10.415 13.618,15.917 8.116,21.419 10.946,24.248 16.447,18.746 21.948,24.248z"></path><title>Remove link.</title></g><g  event="link:options"><circle r="11" transform="translate(25)"></circle><path fill="white" transform="scale(.55) translate(29, -16)" d="M31.229,17.736c0.064-0.571,0.104-1.148,0.104-1.736s-0.04-1.166-0.104-1.737l-4.377-1.557c-0.218-0.716-0.504-1.401-0.851-2.05l1.993-4.192c-0.725-0.91-1.549-1.734-2.458-2.459l-4.193,1.994c-0.647-0.347-1.334-0.632-2.049-0.849l-1.558-4.378C17.165,0.708,16.588,0.667,16,0.667s-1.166,0.041-1.737,0.105L12.707,5.15c-0.716,0.217-1.401,0.502-2.05,0.849L6.464,4.005C5.554,4.73,4.73,5.554,4.005,6.464l1.994,4.192c-0.347,0.648-0.632,1.334-0.849,2.05l-4.378,1.557C0.708,14.834,0.667,15.412,0.667,16s0.041,1.165,0.105,1.736l4.378,1.558c0.217,0.715,0.502,1.401,0.849,2.049l-1.994,4.193c0.725,0.909,1.549,1.733,2.459,2.458l4.192-1.993c0.648,0.347,1.334,0.633,2.05,0.851l1.557,4.377c0.571,0.064,1.148,0.104,1.737,0.104c0.588,0,1.165-0.04,1.736-0.104l1.558-4.377c0.715-0.218,1.399-0.504,2.049-0.851l4.193,1.993c0.909-0.725,1.733-1.549,2.458-2.458l-1.993-4.193c0.347-0.647,0.633-1.334,0.851-2.049L31.229,17.736zM16,20.871c-2.69,0-4.872-2.182-4.872-4.871c0-2.69,2.182-4.872,4.872-4.872c2.689,0,4.871,2.182,4.871,4.872C20.871,18.689,18.689,20.871,16,20.871z"></path><title>Link options.</title></g></g></g></g><g id="j_370"   ><path  stroke="#707070" id="v-5692" stroke-width="2" stroke-dasharray="30 30" fill="none" d="M 500 2204 500 2572" style="opacity: 1;"></path><path  fill="black" stroke="black" transform="translate(500,2204) scale(1,1) rotate(-270)"></path><path  fill="#707070" stroke="#707070" id="v-5694" d="M 20 0 L 0 10 L 20 20 z" transform="translate(490,2592) scale(1,1) rotate(-90)" style="opacity: 1;"></path><path  id="v-5693" fill="none" d="M 500 2204 500 2572" style=""></path><title ></title><g ><g  id="v-5680" label-idx="0" cursor="move" transform="translate(500, 2388)" style="opacity: 1;"><rect id="v-5682" fill="#ffffff" rx="3" ry="3" stroke="#ffffff" stroke-width="20px" pointer-events="none" width="153.5500030517578" height="32.99999809265137" transform="matrix(1,0,0,1,-76.80000305175781,-16.5)"></rect><text id="v-5681" font-size="24px" y="0.8em" xml:space="preserve" text-anchor="middle" pointer-events="none" fill="#707070" font-family="Open Sans" font-weight="normal" transform="matrix(1,0,0,1,0,-8.699999809265137)"><tspan id="v-5683"  dy="0em" x="0">Subscribes to</tspan></text></g><g  id="v-5684" label-idx="1" cursor="move" transform="translate(500, 2419.2)" style="opacity: 1;"><rect id="v-5686" fill="#ffffff" rx="3" ry="3" pointer-events="none" width="0" height="0" transform="matrix(1,0,0,1,0,0)"></rect><text id="v-5685" font-size="19px" y="0.8em" display="none" xml:space="preserve" text-anchor="middle" pointer-events="none" fill="#707070" font-family="Open Sans" font-weight="normal" transform="matrix(1,0,0,1,0,0)"><tspan id="v-5687"  dy="0em" x="0" style="fill-opacity: 0; stroke-opacity: 0;">-</tspan></text></g><g  id="v-5688" label-idx="2" cursor="move" transform="translate(500, 2443.2)" style="opacity: 1;"><rect id="v-5690" fill="#ffffff" rx="3" ry="3" pointer-events="none"  display="none" width="0" height="0" transform="matrix(1,0,0,1,0,0)"></rect><text id="v-5689" font-size="19px" y="0.8em" display="none" xml:space="preserve" text-anchor="middle" pointer-events="none" fill="#707070" font-family="Open Sans" font-weight="normal"  transform="matrix(1,0,0,1,0,0)"><tspan id="v-5691"  dy="0em" x="0" style="fill-opacity: 0; stroke-opacity: 0;">-</tspan></text></g></g><g  display="none"></g><g  id="v-5696" display="none"><g  id="v-5677"><path  end="source" d="M 26 0 L 0 13 L 26 26 z"></path></g><g  id="v-5678"><path  end="target" d="M 26 0 L 0 13 L 26 26 z"></path></g></g><g  id="v-5695" display="none"><g  id="v-5676" transform="translate(500, 2244) "><g  event="remove"><circle r="11"></circle><path transform="scale(.8) translate(-16, -16)" d="M24.778,21.419 19.276,15.917 24.777,10.415 21.949,7.585 16.447,13.087 10.945,7.585 8.117,10.415 13.618,15.917 8.116,21.419 10.946,24.248 16.447,18.746 21.948,24.248z"></path><title>Remove link.</title></g><g  event="link:options"><circle r="11" transform="translate(25)"></circle><path fill="white" transform="scale(.55) translate(29, -16)" d="M31.229,17.736c0.064-0.571,0.104-1.148,0.104-1.736s-0.04-1.166-0.104-1.737l-4.377-1.557c-0.218-0.716-0.504-1.401-0.851-2.05l1.993-4.192c-0.725-0.91-1.549-1.734-2.458-2.459l-4.193,1.994c-0.647-0.347-1.334-0.632-2.049-0.849l-1.558-4.378C17.165,0.708,16.588,0.667,16,0.667s-1.166,0.041-1.737,0.105L12.707,5.15c-0.716,0.217-1.401,0.502-2.05,0.849L6.464,4.005C5.554,4.73,4.73,5.554,4.005,6.464l1.994,4.192c-0.347,0.648-0.632,1.334-0.849,2.05l-4.378,1.557C0.708,14.834,0.667,15.412,0.667,16s0.041,1.165,0.105,1.736l4.378,1.558c0.217,0.715,0.502,1.401,0.849,2.049l-1.994,4.193c0.725,0.909,1.549,1.733,2.459,2.458l4.192-1.993c0.648,0.347,1.334,0.633,2.05,0.851l1.557,4.377c0.571,0.064,1.148,0.104,1.737,0.104c0.588,0,1.165-0.04,1.736-0.104l1.558-4.377c0.715-0.218,1.399-0.504,2.049-0.851l4.193,1.993c0.909-0.725,1.733-1.549,2.458-2.458l-1.993-4.193c0.347-0.647,0.633-1.334,0.851-2.049L31.229,17.736zM16,20.871c-2.69,0-4.872-2.182-4.872-4.871c0-2.69,2.182-4.872,4.872-4.872c2.689,0,4.871,2.182,4.871,4.872C20.871,18.689,18.689,20.871,16,20.871z"></path><title>Link options.</title></g></g></g></g><g id="j_371"   ><path  stroke="#707070" id="v-5717" stroke-width="2" stroke-dasharray="30 30" fill="none" d="M 1250 2204 1250 2484" style="opacity: 1;"></path><path  fill="black" stroke="black" transform="translate(1250,2204) scale(1,1) rotate(-270)"></path><path  fill="#707070" stroke="#707070" id="v-5719" d="M 20 0 L 0 10 L 20 20 z" transform="translate(1240,2504) scale(1,1) rotate(-90)" style="opacity: 1;"></path><path  id="v-5718" fill="none" d="M 1250 2204 1250 2484" style=""></path><title ></title><g ><g  id="v-5704" label-idx="0" cursor="move" transform="translate(1250, 2344)" style="opacity: 1;"><rect id="v-5706" fill="#ffffff" rx="3" ry="3" stroke="#ffffff" stroke-width="20px" pointer-events="none" width="148.74998474121094" height="61.799997329711914" transform="matrix(1,0,0,1,-73.69999694824219,-30.899999618530273)"></rect><text id="v-5705" font-size="24px" y="0.8em" xml:space="preserve" text-anchor="middle" pointer-events="none" fill="#707070" font-family="Open Sans" font-weight="normal" transform="matrix(1,0,0,1,0,-23.100000381469727)"><tspan id="v-5707"  dy="0em" x="0">Loads events</tspan><tspan id="v-5708"  dy="1.2em" x="0">from</tspan></text></g><g  id="v-5709" label-idx="1" cursor="move" transform="translate(1250, 2387.2)" style="opacity: 1;"><rect id="v-5711" fill="#ffffff" rx="3" ry="3" pointer-events="none" width="0" height="0" transform="matrix(1,0,0,1,0,0)"></rect><text id="v-5710" font-size="19px" y="0.8em" display="none" xml:space="preserve" text-anchor="middle" pointer-events="none" fill="#707070" font-family="Open Sans" font-weight="normal" transform="matrix(1,0,0,1,0,0)"><tspan id="v-5712"  dy="0em" x="0" style="fill-opacity: 0; stroke-opacity: 0;">-</tspan></text></g><g  id="v-5713" label-idx="2" cursor="move" transform="translate(1250, 2411.2)" style="opacity: 1;"><rect id="v-5715" fill="#ffffff" rx="3" ry="3" pointer-events="none"  display="none" width="0" height="0" transform="matrix(1,0,0,1,0,0)"></rect><text id="v-5714" font-size="19px" y="0.8em" display="none" xml:space="preserve" text-anchor="middle" pointer-events="none" fill="#707070" font-family="Open Sans" font-weight="normal"  transform="matrix(1,0,0,1,0,0)"><tspan id="v-5716"  dy="0em" x="0" style="fill-opacity: 0; stroke-opacity: 0;">-</tspan></text></g></g><g  display="none"></g><g  id="v-5721" display="none"><g  id="v-5701"><path  end="source" d="M 26 0 L 0 13 L 26 26 z"></path></g><g  id="v-5702"><path  end="target" d="M 26 0 L 0 13 L 26 26 z"></path></g></g><g  id="v-5720" display="none"><g  id="v-5700" transform="translate(1250, 2244) "><g  event="remove"><circle r="11"></circle><path transform="scale(.8) translate(-16, -16)" d="M24.778,21.419 19.276,15.917 24.777,10.415 21.949,7.585 16.447,13.087 10.945,7.585 8.117,10.415 13.618,15.917 8.116,21.419 10.946,24.248 16.447,18.746 21.948,24.248z"></path><title>Remove link.</title></g><g  event="link:options"><circle r="11" transform="translate(25)"></circle><path fill="white" transform="scale(.55) translate(29, -16)" d="M31.229,17.736c0.064-0.571,0.104-1.148,0.104-1.736s-0.04-1.166-0.104-1.737l-4.377-1.557c-0.218-0.716-0.504-1.401-0.851-2.05l1.993-4.192c-0.725-0.91-1.549-1.734-2.458-2.459l-4.193,1.994c-0.647-0.347-1.334-0.632-2.049-0.849l-1.558-4.378C17.165,0.708,16.588,0.667,16,0.667s-1.166,0.041-1.737,0.105L12.707,5.15c-0.716,0.217-1.401,0.502-2.05,0.849L6.464,4.005C5.554,4.73,4.73,5.554,4.005,6.464l1.994,4.192c-0.347,0.648-0.632,1.334-0.849,2.05l-4.378,1.557C0.708,14.834,0.667,15.412,0.667,16s0.041,1.165,0.105,1.736l4.378,1.558c0.217,0.715,0.502,1.401,0.849,2.049l-1.994,4.193c0.725,0.909,1.549,1.733,2.459,2.458l4.192-1.993c0.648,0.347,1.334,0.633,2.05,0.851l1.557,4.377c0.571,0.064,1.148,0.104,1.737,0.104c0.588,0,1.165-0.04,1.736-0.104l1.558-4.377c0.715-0.218,1.399-0.504,2.049-0.851l4.193,1.993c0.909-0.725,1.733-1.549,2.458-2.458l-1.993-4.193c0.347-0.647,0.633-1.334,0.851-2.049L31.229,17.736zM16,20.871c-2.69,0-4.872-2.182-4.872-4.871c0-2.69,2.182-4.872,4.872-4.872c2.689,0,4.871,2.182,4.871,4.872C20.871,18.689,18.689,20.871,16,20.871z"></path><title>Link options.</title></g></g></g></g><g id="j_372"   ><path  stroke="#707070" id="v-5739" stroke-width="2" stroke-dasharray="30 30" fill="none" d="M 687 1004 1046 1292" style="opacity: 1;"></path><path  fill="black" stroke="black" transform="translate(687,1004) scale(1,1) rotate(38.65982265449068)"></path><path  fill="#707070" stroke="#707070" id="v-5741" d="M 20 0 L 0 10 L 20 20 z" transform="translate(1055.7530517578125,1311.8087158203125) scale(1,1) rotate(-141.3401944126508)" style="opacity: 1;"></path><path  id="v-5740" fill="none" d="M 687 1004 1046 1292" style=""></path><title ></title><g ><g  id="v-5727" label-idx="0" cursor="move" transform="translate(866.5, 1148)" style="opacity: 1;"><rect id="v-5729" fill="#ffffff" rx="3" ry="3" stroke="#ffffff" stroke-width="20px" pointer-events="none" width="91.04999542236328" height="32.99999809265137" transform="matrix(1,0,0,1,-45.29999923706055,-16.5)"></rect><text id="v-5728" font-size="24px" y="0.8em" xml:space="preserve" text-anchor="middle" pointer-events="none" fill="#707070" font-family="Open Sans" font-weight="normal" transform="matrix(1,0,0,1,0,-8.699999809265137)"><tspan id="v-5730"  dy="0em" x="0">Queries</tspan></text></g><g  id="v-5731" label-idx="1" cursor="move" transform="translate(866.5, 1179.2)" style="opacity: 1;"><rect id="v-5733" fill="#ffffff" rx="3" ry="3" pointer-events="none" width="0" height="0" transform="matrix(1,0,0,1,0,0)"></rect><text id="v-5732" font-size="19px" y="0.8em" display="none" xml:space="preserve" text-anchor="middle" pointer-events="none" fill="#707070" font-family="Open Sans" font-weight="normal" transform="matrix(1,0,0,1,0,0)"><tspan id="v-5734"  dy="0em" x="0" style="fill-opacity: 0; stroke-opacity: 0;">-</tspan></text></g><g  id="v-5735" label-idx="2" cursor="move" transform="translate(866.5, 1203.2)" style="opacity: 1;"><rect id="v-5737" fill="#ffffff" rx="3" ry="3" pointer-events="none"  display="none" width="0" height="0" transform="matrix(1,0,0,1,0,0)"></rect><text id="v-5736" font-size="19px" y="0.8em" display="none" xml:space="preserve" text-anchor="middle" pointer-events="none" fill="#707070" font-family="Open Sans" font-weight="normal"  transform="matrix(1,0,0,1,0,0)"><tspan id="v-5738"  dy="0em" x="0" style="fill-opacity: 0; stroke-opacity: 0;">-</tspan></text></g></g><g  display="none"></g><g  id="v-5743" display="none"><g  id="v-5724"><path  end="source" d="M 26 0 L 0 13 L 26 26 z"></path></g><g  id="v-5725"><path  end="target" d="M 26 0 L 0 13 L 26 26 z"></path></g></g><g  id="v-5742" display="none"><g  id="v-5723" transform="translate(718.2008056640625, 1029.0301513671875) "><g  event="remove"><circle r="11"></circle><path transform="scale(.8) translate(-16, -16)" d="M24.778,21.419 19.276,15.917 24.777,10.415 21.949,7.585 16.447,13.087 10.945,7.585 8.117,10.415 13.618,15.917 8.116,21.419 10.946,24.248 16.447,18.746 21.948,24.248z"></path><title>Remove link.</title></g><g  event="link:options"><circle r="11" transform="translate(25)"></circle><path fill="white" transform="scale(.55) translate(29, -16)" d="M31.229,17.736c0.064-0.571,0.104-1.148,0.104-1.736s-0.04-1.166-0.104-1.737l-4.377-1.557c-0.218-0.716-0.504-1.401-0.851-2.05l1.993-4.192c-0.725-0.91-1.549-1.734-2.458-2.459l-4.193,1.994c-0.647-0.347-1.334-0.632-2.049-0.849l-1.558-4.378C17.165,0.708,16.588,0.667,16,0.667s-1.166,0.041-1.737,0.105L12.707,5.15c-0.716,0.217-1.401,0.502-2.05,0.849L6.464,4.005C5.554,4.73,4.73,5.554,4.005,6.464l1.994,4.192c-0.347,0.648-0.632,1.334-0.849,2.05l-4.378,1.557C0.708,14.834,0.667,15.412,0.667,16s0.041,1.165,0.105,1.736l4.378,1.558c0.217,0.715,0.502,1.401,0.849,2.049l-1.994,4.193c0.725,0.909,1.549,1.733,2.459,2.458l4.192-1.993c0.648,0.347,1.334,0.633,2.05,0.851l1.557,4.377c0.571,0.064,1.148,0.104,1.737,0.104c0.588,0,1.165-0.04,1.736-0.104l1.558-4.377c0.715-0.218,1.399-0.504,2.049-0.851l4.193,1.993c0.909-0.725,1.733-1.549,2.458-2.458l-1.993-4.193c0.347-0.647,0.633-1.334,0.851-2.049L31.229,17.736zM16,20.871c-2.69,0-4.872-2.182-4.872-4.871c0-2.69,2.182-4.872,4.872-4.872c2.689,0,4.871,2.182,4.871,4.872C20.871,18.689,18.689,20.871,16,20.871z"></path><title>Link options.</title></g></g></g></g><g id="j_373"   ><path  stroke="#707070" id="v-5764" stroke-width="2" stroke-dasharray="30 30" fill="none" d="M 1475 1454 1755 1454" style="opacity: 1;"></path><path  fill="black" stroke="black" transform="translate(1475,1454) scale(1,1) rotate(0)"></path><path  fill="#707070" stroke="#707070" id="v-5766" d="M 20 0 L 0 10 L 20 20 z" transform="translate(1775,1464) scale(1,1) rotate(-180)" style="opacity: 1;"></path><path  id="v-5765" fill="none" d="M 1475 1454 1755 1454" style=""></path><title ></title><g ><g  id="v-5751" label-idx="0" cursor="move" transform="translate(1615, 1454)" style="opacity: 1;"><rect id="v-5753" fill="#ffffff" rx="3" ry="3" stroke="#ffffff" stroke-width="20px" pointer-events="none" width="167.25" height="61.799997329711914" transform="matrix(1,0,0,1,-82.80000305175781,-30.899999618530273)"></rect><text id="v-5752" font-size="24px" y="0.8em" xml:space="preserve" text-anchor="middle" pointer-events="none" fill="#707070" font-family="Open Sans" font-weight="normal" transform="matrix(1,0,0,1,0,-23.100000381469727)"><tspan id="v-5754"  dy="0em" x="0">Authorizes</tspan><tspan id="v-5755"  dy="1.2em" x="0">requests using</tspan></text></g><g  id="v-5756" label-idx="1" cursor="move" transform="translate(1615, 1497.2)" style="opacity: 1;"><rect id="v-5758" fill="#ffffff" rx="3" ry="3" pointer-events="none" width="0" height="0" transform="matrix(1,0,0,1,0,0)"></rect><text id="v-5757" font-size="19px" y="0.8em" display="none" xml:space="preserve" text-anchor="middle" pointer-events="none" fill="#707070" font-family="Open Sans" font-weight="normal" transform="matrix(1,0,0,1,0,0)"><tspan id="v-5759"  dy="0em" x="0" style="fill-opacity: 0; stroke-opacity: 0;">-</tspan></text></g><g  id="v-5760" label-idx="2" cursor="move" transform="translate(1615, 1521.2)" style="opacity: 1;"><rect id="v-5762" fill="#ffffff" rx="3" ry="3" pointer-events="none"  display="none" width="0" height="0" transform="matrix(1,0,0,1,0,0)"></rect><text id="v-5761" font-size="19px" y="0.8em" display="none" xml:space="preserve" text-anchor="middle" pointer-events="none" fill="#707070" font-family="Open Sans" font-weight="normal"  transform="matrix(1,0,0,1,0,0)"><tspan id="v-5763"  dy="0em" x="0" style="fill-opacity: 0; stroke-opacity: 0;">-</tspan></text></g></g><g  display="none"></g><g  id="v-5768" display="none"><g  id="v-5748"><path  end="source" d="M 26 0 L 0 13 L 26 26 z"></path></g><g  id="v-5749"><path  end="target" d="M 26 0 L 0 13 L 26 26 z"></path></g></g><g  id="v-5767" display="none"><g  id="v-5747" transform="translate(1515, 1454) "><g  event="remove"><circle r="11"></circle><path transform="scale(.8) translate(-16, -16)" d="M24.778,21.419 19.276,15.917 24.777,10.415 21.949,7.585 16.447,13.087 10.945,7.585 8.117,10.415 13.618,15.917 8.116,21.419 10.946,24.248 16.447,18.746 21.948,24.248z"></path><title>Remove link.</title></g><g  event="link:options"><circle r="11" transform="translate(25)"></circle><path fill="white" transform="scale(.55) translate(29, -16)" d="M31.229,17.736c0.064-0.571,0.104-1.148,0.104-1.736s-0.04-1.166-0.104-1.737l-4.377-1.557c-0.218-0.716-0.504-1.401-0.851-2.05l1.993-4.192c-0.725-0.91-1.549-1.734-2.458-2.459l-4.193,1.994c-0.647-0.347-1.334-0.632-2.049-0.849l-1.558-4.378C17.165,0.708,16.588,0.667,16,0.667s-1.166,0.041-1.737,0.105L12.707,5.15c-0.716,0.217-1.401,0.502-2.05,0.849L6.464,4.005C5.554,4.73,4.73,5.554,4.005,6.464l1.994,4.192c-0.347,0.648-0.632,1.334-0.849,2.05l-4.378,1.557C0.708,14.834,0.667,15.412,0.667,16s0.041,1.165,0.105,1.736l4.378,1.558c0.217,0.715,0.502,1.401,0.849,2.049l-1.994,4.193c0.725,0.909,1.549,1.733,2.459,2.458l4.192-1.993c0.648,0.347,1.334,0.633,2.05,0.851l1.557,4.377c0.571,0.064,1.148,0.104,1.737,0.104c0.588,0,1.165-0.04,1.736-0.104l1.558-4.377c0.715-0.218,1.399-0.504,2.049-0.851l4.193,1.993c0.909-0.725,1.733-1.549,2.458-2.458l-1.993-4.193c0.347-0.647,0.633-1.334,0.851-2.049L31.229,17.736zM16,20.871c-2.69,0-4.872-2.182-4.872-4.871c0-2.69,2.182-4.872,4.872-4.872c2.689,0,4.871,2.182,4.871,4.872C20.871,18.689,18.689,20.871,16,20.871z"></path><title>Link options.</title></g></g></g></g><g id="j_374"   ><path  stroke="#707070" id="v-5786" stroke-width="2" stroke-dasharray="30 30" fill="none" d="M 1063 1604 704 1892" style="opacity: 1;"></path><path  fill="black" stroke="black" transform="translate(1063,1604) scale(1,1) rotate(-218.6598055873492)"></path><path  fill="#707070" stroke="#707070" id="v-5788" d="M 20 0 L 0 10 L 20 20 z" transform="translate(681.7530517578125,1896.1912841796875) scale(1,1) rotate(-38.65980825409009)" style="opacity: 1;"></path><path  id="v-5787" fill="none" d="M 1063 1604 704 1892" style=""></path><title ></title><g ><g  id="v-5774" label-idx="0" cursor="move" transform="translate(883.5, 1748)" style="opacity: 1;"><rect id="v-5776" fill="#ffffff" rx="3" ry="3" stroke="#ffffff" stroke-width="20px" pointer-events="none" width="56.5" height="32.99999809265137" transform="matrix(1,0,0,1,-27.700000762939453,-16.5)"></rect><text id="v-5775" font-size="24px" y="0.8em" xml:space="preserve" text-anchor="middle" pointer-events="none" fill="#707070" font-family="Open Sans" font-weight="normal" transform="matrix(1,0,0,1,0,-8.699999809265137)"><tspan id="v-5777"  dy="0em" x="0">Uses</tspan></text></g><g  id="v-5778" label-idx="1" cursor="move" transform="translate(883.5, 1779.2)" style="opacity: 1;"><rect id="v-5780" fill="#ffffff" rx="3" ry="3" pointer-events="none" width="0" height="0" transform="matrix(1,0,0,1,0,0)"></rect><text id="v-5779" font-size="19px" y="0.8em" display="none" xml:space="preserve" text-anchor="middle" pointer-events="none" fill="#707070" font-family="Open Sans" font-weight="normal" transform="matrix(1,0,0,1,0,0)"><tspan id="v-5781"  dy="0em" x="0" style="fill-opacity: 0; stroke-opacity: 0;">-</tspan></text></g><g  id="v-5782" label-idx="2" cursor="move" transform="translate(883.5, 1803.2)" style="opacity: 1;"><rect id="v-5784" fill="#ffffff" rx="3" ry="3" pointer-events="none"  display="none" width="0" height="0" transform="matrix(1,0,0,1,0,0)"></rect><text id="v-5783" font-size="19px" y="0.8em" display="none" xml:space="preserve" text-anchor="middle" pointer-events="none" fill="#707070" font-family="Open Sans" font-weight="normal"  transform="matrix(1,0,0,1,0,0)"><tspan id="v-5785"  dy="0em" x="0" style="fill-opacity: 0; stroke-opacity: 0;">-</tspan></text></g></g><g  display="none"></g><g  id="v-5790" display="none"><g  id="v-5771"><path  end="source" d="M 26 0 L 0 13 L 26 26 z"></path></g><g  id="v-5772"><path  end="target" d="M 26 0 L 0 13 L 26 26 z"></path></g></g><g  id="v-5789" display="none"><g  id="v-5770" transform="translate(1031.7991943359375, 1629.0301513671875) "><g  event="remove"><circle r="11"></circle><path transform="scale(.8) translate(-16, -16)" d="M24.778,21.419 19.276,15.917 24.777,10.415 21.949,7.585 16.447,13.087 10.945,7.585 8.117,10.415 13.618,15.917 8.116,21.419 10.946,24.248 16.447,18.746 21.948,24.248z"></path><title>Remove link.</title></g><g  event="link:options"><circle r="11" transform="translate(25)"></circle><path fill="white" transform="scale(.55) translate(29, -16)" d="M31.229,17.736c0.064-0.571,0.104-1.148,0.104-1.736s-0.04-1.166-0.104-1.737l-4.377-1.557c-0.218-0.716-0.504-1.401-0.851-2.05l1.993-4.192c-0.725-0.91-1.549-1.734-2.458-2.459l-4.193,1.994c-0.647-0.347-1.334-0.632-2.049-0.849l-1.558-4.378C17.165,0.708,16.588,0.667,16,0.667s-1.166,0.041-1.737,0.105L12.707,5.15c-0.716,0.217-1.401,0.502-2.05,0.849L6.464,4.005C5.554,4.73,4.73,5.554,4.005,6.464l1.994,4.192c-0.347,0.648-0.632,1.334-0.849,2.05l-4.378,1.557C0.708,14.834,0.667,15.412,0.667,16s0.041,1.165,0.105,1.736l4.378,1.558c0.217,0.715,0.502,1.401,0.849,2.049l-1.994,4.193c0.725,0.909,1.549,1.733,2.459,2.458l4.192-1.993c0.648,0.347,1.334,0.633,2.05,0.851l1.557,4.377c0.571,0.064,1.148,0.104,1.737,0.104c0.588,0,1.165-0.04,1.736-0.104l1.558-4.377c0.715-0.218,1.399-0.504,2.049-0.851l4.193,1.993c0.909-0.725,1.733-1.549,2.458-2.458l-1.993-4.193c0.347-0.647,0.633-1.334,0.851-2.049L31.229,17.736zM16,20.871c-2.69,0-4.872-2.182-4.872-4.871c0-2.69,2.182-4.872,4.872-4.872c2.689,0,4.871,2.182,4.871,4.872C20.871,18.689,18.689,20.871,16,20.871z"></path><title>Link options.</title></g></g></g></g><g id="j_375"   ><path  stroke="#707070" id="v-5808" stroke-width="2" stroke-dasharray="30 30" fill="none" d="M 1250 1604 1250 1884" style="opacity: 1;"></path><path  fill="black" stroke="black" transform="translate(1250,1604) scale(1,1) rotate(-270)"></path><path  fill="#707070" stroke="#707070" id="v-5810" d="M 20 0 L 0 10 L 20 20 z" transform="translate(1240,1904) scale(1,1) rotate(-90)" style="opacity: 1;"></path><path  id="v-5809" fill="none" d="M 1250 1604 1250 1884" style=""></path><title ></title><g ><g  id="v-5796" label-idx="0" cursor="move" transform="translate(1250, 1744)" style="opacity: 1;"><rect id="v-5798" fill="#ffffff" rx="3" ry="3" stroke="#ffffff" stroke-width="20px" pointer-events="none" width="56.5" height="32.99999809265137" transform="matrix(1,0,0,1,-27.700000762939453,-16.5)"></rect><text id="v-5797" font-size="24px" y="0.8em" xml:space="preserve" text-anchor="middle" pointer-events="none" fill="#707070" font-family="Open Sans" font-weight="normal" transform="matrix(1,0,0,1,0,-8.699999809265137)"><tspan id="v-5799"  dy="0em" x="0">Uses</tspan></text></g><g  id="v-5800" label-idx="1" cursor="move" transform="translate(1250, 1775.2)" style="opacity: 1;"><rect id="v-5802" fill="#ffffff" rx="3" ry="3" pointer-events="none" width="0" height="0" transform="matrix(1,0,0,1,0,0)"></rect><text id="v-5801" font-size="19px" y="0.8em" display="none" xml:space="preserve" text-anchor="middle" pointer-events="none" fill="#707070" font-family="Open Sans" font-weight="normal" transform="matrix(1,0,0,1,0,0)"><tspan id="v-5803"  dy="0em" x="0" style="fill-opacity: 0; stroke-opacity: 0;">-</tspan></text></g><g  id="v-5804" label-idx="2" cursor="move" transform="translate(1250, 1799.2)" style="opacity: 1;"><rect id="v-5806" fill="#ffffff" rx="3" ry="3" pointer-events="none"  display="none" width="0" height="0" transform="matrix(1,0,0,1,0,0)"></rect><text id="v-5805" font-size="19px" y="0.8em" display="none" xml:space="preserve" text-anchor="middle" pointer-events="none" fill="#707070" font-family="Open Sans" font-weight="normal"  transform="matrix(1,0,0,1,0,0)"><tspan id="v-5807"  dy="0em" x="0" style="fill-opacity: 0; stroke-opacity: 0;">-</tspan></text></g></g><g  display="none"></g><g  id="v-5812" display="none"><g  id="v-5793"><path  end="source" d="M 26 0 L 0 13 L 26 26 z"></path></g><g  id="v-5794"><path  end="target" d="M 26 0 L 0 13 L 26 26 z"></path></g></g><g  id="v-5811" display="none"><g  id="v-5792" transform="translate(1250, 1644) "><g  event="remove"><circle r="11"></circle><path transform="scale(.8) translate(-16, -16)" d="M24.778,21.419 19.276,15.917 24.777,10.415 21.949,7.585 16.447,13.087 10.945,7.585 8.117,10.415 13.618,15.917 8.116,21.419 10.946,24.248 16.447,18.746 21.948,24.248z"></path><title>Remove link.</title></g><g  event="link:options"><circle r="11" transform="translate(25)"></circle><path fill="white" transform="scale(.55) translate(29, -16)" d="M31.229,17.736c0.064-0.571,0.104-1.148,0.104-1.736s-0.04-1.166-0.104-1.737l-4.377-1.557c-0.218-0.716-0.504-1.401-0.851-2.05l1.993-4.192c-0.725-0.91-1.549-1.734-2.458-2.459l-4.193,1.994c-0.647-0.347-1.334-0.632-2.049-0.849l-1.558-4.378C17.165,0.708,16.588,0.667,16,0.667s-1.166,0.041-1.737,0.105L12.707,5.15c-0.716,0.217-1.401,0.502-2.05,0.849L6.464,4.005C5.554,4.73,4.73,5.554,4.005,6.464l1.994,4.192c-0.347,0.648-0.632,1.334-0.849,2.05l-4.378,1.557C0.708,14.834,0.667,15.412,0.667,16s0.041,1.165,0.105,1.736l4.378,1.558c0.217,0.715,0.502,1.401,0.849,2.049l-1.994,4.193c0.725,0.909,1.549,1.733,2.459,2.458l4.192-1.993c0.648,0.347,1.334,0.633,2.05,0.851l1.557,4.377c0.571,0.064,1.148,0.104,1.737,0.104c0.588,0,1.165-0.04,1.736-0.104l1.558-4.377c0.715-0.218,1.399-0.504,2.049-0.851l4.193,1.993c0.909-0.725,1.733-1.549,2.458-2.458l-1.993-4.193c0.347-0.647,0.633-1.334,0.851-2.049L31.229,17.736zM16,20.871c-2.69,0-4.872-2.182-4.872-4.871c0-2.69,2.182-4.872,4.872-4.872c2.689,0,4.871,2.182,4.871,4.872C20.871,18.689,18.689,20.871,16,20.871z"></path><title>Link options.</title></g></g></g></g><g id="j_376"    transform="translate(1239.5,339.80691204227793)"><g id="v-5814"><text  id="v-5815" font-size="413.3333333333333px" y="0.8em" xml:space="preserve" font-family="Open Sans" font-weight="bold" text-anchor="middle" dominant-baseline="baseline" pointer-events="none" stroke-width="0px" fill="#777777" stroke="#777777" opacity="0" transform="matrix(1,0,0,1,0,0)" style="display: block !important; visibility: visible !important"><tspan id="v-5816"  dy="0em" x="0">Structurizr</tspan></text></g></g></g><defs id="v-4"></defs></svg>