<svg xmlns="http://www.w3.org/2000/svg" xmlns:xlink="http://www.w3.org/1999/xlink" version="1.1" viewBox="0 0 2480 3508" style="background: #ffffff"><g id="v-3"  transform="matrix(1,0,0,1,0,0)"><g id="j_319"    transform="translate(20,3463)"><g id="v-4911"><text  id="v-4912" font-size="22px" y="0.8em" xml:space="preserve" font-weight="normal" text-anchor="start" fill="#777777" pointer-events="none" font-family="Open Sans" transform="matrix(1,0,0,1,0,0)" display="none"><tspan id="v-4913"  dy="0em" x="0">Thursday, November 19, 2020, 2:21 PM Central European Standard Time | Diagram created with Structurizr</tspan></text></g></g><g id="j_318"    transform="translate(20,3417)"><g id="v-4907"><text  id="v-4908" font-size="36px" y="0.8em" xml:space="preserve" font-weight="normal" text-anchor="start" fill="#000000" pointer-events="none" font-family="Open Sans" transform="matrix(1,0,0,1,0,0)" display="none"><tspan id="v-4909"  dy="0em" x="0">Component diagram for plgd Cloud - gRPC Gateway</tspan></text></g></g><g id="j_304"    transform="translate(1005,1547)" style=""><g id="v-4707"><rect  id="v-4708" width="490" height="413" rx="0" ry="0" fill="#ffffff" stroke="#444444" stroke-width="2" stroke-dasharray="20,20" pointer-events="none"></rect><text  id="v-4709" font-size="24px" y="374" xml:space="preserve" font-weight="normal" fill="#444444" x="10" text-anchor="start" pointer-events="visible" font-family="Open Sans" transform="matrix(1,0,0,1,15,0)"><tspan id="v-4711"  dy="0em" x="0">gRPC Gateway</tspan></text><text  id="v-4710" font-size="19px" y="398" xml:space="preserve" font-weight="normal" fill="#444444" x="10" text-anchor="start" pointer-events="visible" font-family="Open Sans" transform="matrix(1,0,0,1,15,0)"><tspan id="v-4712"  dy="0em" x="0">[Container]</tspan></text></g></g><g id="j_312"    transform="translate(1005,947)" style=""><g id="v-4802"><rect  id="v-4803" width="490" height="413" rx="0" ry="0" fill="#ffffff" stroke="#cccccc" stroke-width="2" stroke-dasharray="20,20" pointer-events="none"></rect><text  id="v-4804" font-size="24px" y="374" xml:space="preserve" font-weight="normal" fill="#cccccc" x="10" text-anchor="start" pointer-events="visible" font-family="Open Sans" transform="matrix(1,0,0,1,15,0)"><tspan id="v-4806"  dy="0em" x="0">Standalone Application</tspan></text><text  id="v-4805" font-size="19px" y="398" xml:space="preserve" font-weight="normal" fill="#cccccc" x="10" text-anchor="start" pointer-events="visible" font-family="Open Sans" transform="matrix(1,0,0,1,15,0)"><tspan id="v-4807"  dy="0em" x="0">[Container]</tspan></text></g></g><g id="j_309"    transform="translate(1005,2147)" style=""><g id="v-4764"><rect  id="v-4765" width="490" height="413" rx="0" ry="0" fill="#ffffff" stroke="#cccccc" stroke-width="2" stroke-dasharray="20,20" pointer-events="none"></rect><text  id="v-4766" font-size="24px" y="374" xml:space="preserve" font-weight="normal" fill="#cccccc" x="10" text-anchor="start" pointer-events="visible" font-family="Open Sans" transform="matrix(1,0,0,1,15,0)"><tspan id="v-4768"  dy="0em" x="0">Resource Aggregate</tspan></text><text  id="v-4767" font-size="19px" y="398" xml:space="preserve" font-weight="normal" fill="#cccccc" x="10" text-anchor="start" pointer-events="visible" font-family="Open Sans" transform="matrix(1,0,0,1,15,0)"><tspan id="v-4769"  dy="0em" x="0">[Container]</tspan></text></g></g><g id="j_306"    transform="translate(255,2147)" style=""><g id="v-4730"><rect  id="v-4731" width="490" height="413" rx="0" ry="0" fill="#ffffff" stroke="#cccccc" stroke-width="2" stroke-dasharray="20,20" pointer-events="none"></rect><text  id="v-4732" font-size="24px" y="374" xml:space="preserve" font-weight="normal" fill="#cccccc" x="10" text-anchor="start" pointer-events="visible" font-family="Open Sans" transform="matrix(1,0,0,1,15,0)"><tspan id="v-4734"  dy="0em" x="0">Resource Directory</tspan></text><text  id="v-4733" font-size="19px" y="398" xml:space="preserve" font-weight="normal" fill="#cccccc" x="10" text-anchor="start" pointer-events="visible" font-family="Open Sans" transform="matrix(1,0,0,1,15,0)"><tspan id="v-4735"  dy="0em" x="0">[Container]</tspan></text></g></g><g id="j_305"    transform="translate(275,2167)" style="" ><g  id="v-4718" style="opacity: 1;"><rect  id="v-4719" rx="1" ry="1" stroke="#80b3cb" stroke-width="2" pointer-events="visiblePainted" fill="#8ec7e1" width="450" height="300"></rect><text  id="v-4720" font-size="34" y="0.8em" xml:space="preserve" font-weight="bold" text-anchor="middle" pointer-events="visible" font-family="Open Sans" fill="#000000" transform="matrix(1,0,0,1,225,75)"><tspan id="v-4725"  dy="0em" x="0">Projections Component</tspan></text><text  id="v-4721" font-size="19" y="0.8em" xml:space="preserve" text-anchor="middle" font-family="Open Sans" fill="#000000" transform="matrix(1,0,0,1,225,115)"><tspan id="v-4726"  dy="0em" x="0">[Component]</tspan></text><text  id="v-4722" font-size="24" y="0.8em" xml:space="preserve" text-anchor="middle" font-family="Open Sans" fill="#000000" transform="matrix(1,0,0,1,225,165)"><tspan id="v-4727"  dy="0em" x="0">Builds and maintains device and</tspan><tspan id="v-4728"  dy="1.2em" x="0">resource projections</tspan></text><text  id="v-4723" font-weight="bold" text-anchor="middle" font-family="Open Sans" fill="#000000" font-size="24" transform="matrix(1,0,0,1,225,270)" y="0.8em" xml:space="preserve" display="none"><tspan id="v-4736"  dy="0em" x="0">#</tspan></text><image  id="v-4724"></image></g></g><g id="j_307"    transform="translate(1025,1567)" style=""><g  id="v-4740" style="opacity: 1;"><rect  id="v-4741" rx="1" ry="1" stroke="#80b3cb" stroke-width="2" pointer-events="visiblePainted" fill="#8ec7e1" width="450" height="300"></rect><text  id="v-4742" font-size="34" y="0.8em" xml:space="preserve" font-weight="bold" text-anchor="middle" pointer-events="visible" font-family="Open Sans" fill="#000000" transform="matrix(1,0,0,1,225,90)"><tspan id="v-4747"  dy="0em" x="0">Protocol Adapter</tspan></text><text  id="v-4743" font-size="19" y="0.8em" xml:space="preserve" text-anchor="middle" font-family="Open Sans" fill="#000000" transform="matrix(1,0,0,1,225,130)"><tspan id="v-4748"  dy="0em" x="0">[Component]</tspan></text><text  id="v-4744" font-size="24" y="0.8em" xml:space="preserve" text-anchor="middle" font-family="Open Sans" fill="#000000" transform="matrix(1,0,0,1,225,180)"><tspan id="v-4749"  dy="0em" x="0">Translates public gRPC protocol</tspan></text><text  id="v-4745" font-weight="bold" text-anchor="middle" font-family="Open Sans" fill="#000000" font-size="24" transform="matrix(1,0,0,1,225,270)" display="none"></text><image  id="v-4746"></image></g></g><g id="j_308"    transform="translate(1025,2167)" style=""><g  id="v-4753" style="opacity: 1;"><rect  id="v-4754" rx="1" ry="1" stroke="#80b3cb" stroke-width="2" pointer-events="visiblePainted" fill="#8ec7e1" width="450" height="300"></rect><text  id="v-4755" font-size="34" y="0.8em" xml:space="preserve" font-weight="bold" text-anchor="middle" pointer-events="visible" font-family="Open Sans" fill="#000000" transform="matrix(1,0,0,1,225,90)"><tspan id="v-4760"  dy="0em" x="0">Command Handler</tspan></text><text  id="v-4756" font-size="19" y="0.8em" xml:space="preserve" text-anchor="middle" font-family="Open Sans" fill="#000000" transform="matrix(1,0,0,1,225,130)"><tspan id="v-4761"  dy="0em" x="0">[Component]</tspan></text><text  id="v-4757" font-size="24" y="0.8em" xml:space="preserve" text-anchor="middle" font-family="Open Sans" fill="#000000" transform="matrix(1,0,0,1,225,180)"><tspan id="v-4762"  dy="0em" x="0">Validates received commands</tspan></text><text  id="v-4758" font-weight="bold" text-anchor="middle" font-family="Open Sans" fill="#000000" font-size="24" transform="matrix(1,0,0,1,225,270)" display="none"></text><image  id="v-4759"></image></g></g><g id="j_310"    transform="translate(1775,1567)" style="" ><g  id="v-4775" style="opacity: 1;"><rect  id="v-4776" rx="1" ry="1" stroke="#c7c7c7" stroke-width="2" pointer-events="visiblePainted" fill="#dddddd" width="450" height="300"></rect><text  id="v-4777" font-size="34" y="0.8em" xml:space="preserve" font-weight="bold" text-anchor="middle" pointer-events="visible" font-family="Open Sans" fill="#000000" transform="matrix(1,0,0,1,225,75)"><tspan id="v-4782"  dy="0em" x="0">Authorization Server</tspan></text><text  id="v-4778" font-size="19" y="0.8em" xml:space="preserve" text-anchor="middle" font-family="Open Sans" fill="#000000" transform="matrix(1,0,0,1,225,115)"><tspan id="v-4783"  dy="0em" x="0">[Software System]</tspan></text><text  id="v-4779" font-size="24" y="0.8em" xml:space="preserve" text-anchor="middle" font-family="Open Sans" fill="#000000" transform="matrix(1,0,0,1,225,165)"><tspan id="v-4784"  dy="0em" x="0">An OAuth2.0 server authorizing and</tspan><tspan id="v-4785"  dy="1.2em" x="0">storing users and devices identities</tspan></text><text  id="v-4780" font-weight="bold" text-anchor="middle" font-family="Open Sans" fill="#000000" font-size="24" transform="matrix(1,0,0,1,225,270)" y="0.8em" display="none" xml:space="preserve"><tspan id="v-4786"  dy="0em" x="0" style="fill-opacity: 0; stroke-opacity: 0;">-</tspan></text><image  id="v-4781"></image></g></g><g id="j_311"    transform="translate(1025,967)" style="" ><g  id="v-4790" style="opacity: 1;"><rect  id="v-4791" rx="1" ry="1" stroke="#80b3cb" stroke-width="2" pointer-events="visiblePainted" fill="#8ec7e1" width="450" height="300"></rect><text  id="v-4792" font-size="34" y="0.8em" xml:space="preserve" font-weight="bold" text-anchor="middle" pointer-events="visible" font-family="Open Sans" fill="#000000" transform="matrix(1,0,0,1,225,75)"><tspan id="v-4797"  dy="0em" x="0">gRPC Client</tspan></text><text  id="v-4793" font-size="19" y="0.8em" xml:space="preserve" text-anchor="middle" font-family="Open Sans" fill="#000000" transform="matrix(1,0,0,1,225,115)"><tspan id="v-4798"  dy="0em" x="0">[Component]</tspan></text><text  id="v-4794" font-size="24" y="0.8em" xml:space="preserve" text-anchor="middle" font-family="Open Sans" fill="#000000" transform="matrix(1,0,0,1,225,165)"><tspan id="v-4799"  dy="0em" x="0">Enables remote communication with</tspan><tspan id="v-4800"  dy="1.2em" x="0">the device</tspan></text><text  id="v-4795" font-weight="bold" text-anchor="middle" font-family="Open Sans" fill="#000000" font-size="24" transform="matrix(1,0,0,1,225,270)" y="0.8em" xml:space="preserve" display="none"><tspan id="v-4808"  dy="0em" x="0">#</tspan></text><image  id="v-4796"></image></g></g><g id="j_313"   ><path  stroke="#707070" id="v-4826" stroke-width="2" stroke-dasharray="30 30" fill="none" d="M 1250 1867 1250 2147" style="opacity: 1;"></path><path  fill="black" stroke="black" transform="translate(1250,1867) scale(1,1) rotate(-270)"></path><path  fill="#707070" stroke="#707070" id="v-4828" d="M 20 0 L 0 10 L 20 20 z" transform="translate(1240,2167) scale(1,1) rotate(-90)" style="opacity: 1;"></path><path  id="v-4827" fill="none" d="M 1250 1867 1250 2147" style=""></path><title ></title><g ><g  id="v-4814" label-idx="0" cursor="move" transform="translate(1250, 2007)" style="opacity: 1;"><rect id="v-4816" fill="#ffffff" rx="3" ry="3" stroke="#ffffff" stroke-width="20px" pointer-events="none" width="131.89999389648438" height="32.99999809265137" transform="matrix(1,0,0,1,-65.69999694824219,-16.5)"></rect><text id="v-4815" font-size="24px" y="0.8em" xml:space="preserve" text-anchor="middle" pointer-events="none" fill="#707070" font-family="Open Sans" font-weight="normal" transform="matrix(1,0,0,1,0,-8.699999809265137)"><tspan id="v-4817"  dy="0em" x="0">Commands</tspan></text></g><g  id="v-4818" label-idx="1" cursor="move" transform="translate(1250, 2038.2)" style="opacity: 1;"><rect id="v-4820" fill="#ffffff" rx="3" ry="3" pointer-events="none" width="0" height="0" transform="matrix(1,0,0,1,0,0)"></rect><text id="v-4819" font-size="19px" y="0.8em" display="none" xml:space="preserve" text-anchor="middle" pointer-events="none" fill="#707070" font-family="Open Sans" font-weight="normal" transform="matrix(1,0,0,1,0,0)"><tspan id="v-4821"  dy="0em" x="0" style="fill-opacity: 0; stroke-opacity: 0;">-</tspan></text></g><g  id="v-4822" label-idx="2" cursor="move" transform="translate(1250, 2062.2)" style="opacity: 1;"><rect id="v-4824" fill="#ffffff" rx="3" ry="3" pointer-events="none"  display="none" width="0" height="0" transform="matrix(1,0,0,1,0,0)"></rect><text id="v-4823" font-size="19px" y="0.8em" display="none" xml:space="preserve" text-anchor="middle" pointer-events="none" fill="#707070" font-family="Open Sans" font-weight="normal"  transform="matrix(1,0,0,1,0,0)"><tspan id="v-4825"  dy="0em" x="0" style="fill-opacity: 0; stroke-opacity: 0;">-</tspan></text></g></g><g  display="none"></g><g  id="v-4830" display="none"><g  id="v-4811"><path  end="source" d="M 26 0 L 0 13 L 26 26 z"></path></g><g  id="v-4812"><path  end="target" d="M 26 0 L 0 13 L 26 26 z"></path></g></g><g  id="v-4829" display="none"><g  id="v-4810" transform="translate(1250, 1907) "><g  event="remove"><circle r="11"></circle><path transform="scale(.8) translate(-16, -16)" d="M24.778,21.419 19.276,15.917 24.777,10.415 21.949,7.585 16.447,13.087 10.945,7.585 8.117,10.415 13.618,15.917 8.116,21.419 10.946,24.248 16.447,18.746 21.948,24.248z"></path><title>Remove link.</title></g><g  event="link:options"><circle r="11" transform="translate(25)"></circle><path fill="white" transform="scale(.55) translate(29, -16)" d="M31.229,17.736c0.064-0.571,0.104-1.148,0.104-1.736s-0.04-1.166-0.104-1.737l-4.377-1.557c-0.218-0.716-0.504-1.401-0.851-2.05l1.993-4.192c-0.725-0.91-1.549-1.734-2.458-2.459l-4.193,1.994c-0.647-0.347-1.334-0.632-2.049-0.849l-1.558-4.378C17.165,0.708,16.588,0.667,16,0.667s-1.166,0.041-1.737,0.105L12.707,5.15c-0.716,0.217-1.401,0.502-2.05,0.849L6.464,4.005C5.554,4.73,4.73,5.554,4.005,6.464l1.994,4.192c-0.347,0.648-0.632,1.334-0.849,2.05l-4.378,1.557C0.708,14.834,0.667,15.412,0.667,16s0.041,1.165,0.105,1.736l4.378,1.558c0.217,0.715,0.502,1.401,0.849,2.049l-1.994,4.193c0.725,0.909,1.549,1.733,2.459,2.458l4.192-1.993c0.648,0.347,1.334,0.633,2.05,0.851l1.557,4.377c0.571,0.064,1.148,0.104,1.737,0.104c0.588,0,1.165-0.04,1.736-0.104l1.558-4.377c0.715-0.218,1.399-0.504,2.049-0.851l4.193,1.993c0.909-0.725,1.733-1.549,2.458-2.458l-1.993-4.193c0.347-0.647,0.633-1.334,0.851-2.049L31.229,17.736zM16,20.871c-2.69,0-4.872-2.182-4.872-4.871c0-2.69,2.182-4.872,4.872-4.872c2.689,0,4.871,2.182,4.871,4.872C20.871,18.689,18.689,20.871,16,20.871z"></path><title>Link options.</title></g></g></g></g><g id="j_314"   ><path  stroke="#707070" id="v-4848" stroke-width="2" stroke-dasharray="30 30" fill="none" d="M 1063 1867 704 2155" style="opacity: 1;"></path><path  fill="black" stroke="black" transform="translate(1063,1867) scale(1,1) rotate(-218.6598055873492)"></path><path  fill="#707070" stroke="#707070" id="v-4850" d="M 20 0 L 0 10 L 20 20 z" transform="translate(681.7530517578125,2159.191162109375) scale(1,1) rotate(-38.65980825409009)" style="opacity: 1;"></path><path  id="v-4849" fill="none" d="M 1063 1867 704 2155" style=""></path><title ></title><g ><g  id="v-4836" label-idx="0" cursor="move" transform="translate(883.5, 2011)" style="opacity: 1;"><rect id="v-4838" fill="#ffffff" rx="3" ry="3" stroke="#ffffff" stroke-width="20px" pointer-events="none" width="91.04999542236328" height="32.99999809265137" transform="matrix(1,0,0,1,-45.29999923706055,-16.5)"></rect><text id="v-4837" font-size="24px" y="0.8em" xml:space="preserve" text-anchor="middle" pointer-events="none" fill="#707070" font-family="Open Sans" font-weight="normal" transform="matrix(1,0,0,1,0,-8.699999809265137)"><tspan id="v-4839"  dy="0em" x="0">Queries</tspan></text></g><g  id="v-4840" label-idx="1" cursor="move" transform="translate(883.5, 2042.2)" style="opacity: 1;"><rect id="v-4842" fill="#ffffff" rx="3" ry="3" pointer-events="none" width="0" height="0" transform="matrix(1,0,0,1,0,0)"></rect><text id="v-4841" font-size="19px" y="0.8em" display="none" xml:space="preserve" text-anchor="middle" pointer-events="none" fill="#707070" font-family="Open Sans" font-weight="normal" transform="matrix(1,0,0,1,0,0)"><tspan id="v-4843"  dy="0em" x="0" style="fill-opacity: 0; stroke-opacity: 0;">-</tspan></text></g><g  id="v-4844" label-idx="2" cursor="move" transform="translate(883.5, 2066.2)" style="opacity: 1;"><rect id="v-4846" fill="#ffffff" rx="3" ry="3" pointer-events="none"  display="none" width="0" height="0" transform="matrix(1,0,0,1,0,0)"></rect><text id="v-4845" font-size="19px" y="0.8em" display="none" xml:space="preserve" text-anchor="middle" pointer-events="none" fill="#707070" font-family="Open Sans" font-weight="normal"  transform="matrix(1,0,0,1,0,0)"><tspan id="v-4847"  dy="0em" x="0" style="fill-opacity: 0; stroke-opacity: 0;">-</tspan></text></g></g><g  display="none"></g><g  id="v-4852" display="none"><g  id="v-4833"><path  end="source" d="M 26 0 L 0 13 L 26 26 z"></path></g><g  id="v-4834"><path  end="target" d="M 26 0 L 0 13 L 26 26 z"></path></g></g><g  id="v-4851" display="none"><g  id="v-4832" transform="translate(1031.7991943359375, 1892.0301513671875) "><g  event="remove"><circle r="11"></circle><path transform="scale(.8) translate(-16, -16)" d="M24.778,21.419 19.276,15.917 24.777,10.415 21.949,7.585 16.447,13.087 10.945,7.585 8.117,10.415 13.618,15.917 8.116,21.419 10.946,24.248 16.447,18.746 21.948,24.248z"></path><title>Remove link.</title></g><g  event="link:options"><circle r="11" transform="translate(25)"></circle><path fill="white" transform="scale(.55) translate(29, -16)" d="M31.229,17.736c0.064-0.571,0.104-1.148,0.104-1.736s-0.04-1.166-0.104-1.737l-4.377-1.557c-0.218-0.716-0.504-1.401-0.851-2.05l1.993-4.192c-0.725-0.91-1.549-1.734-2.458-2.459l-4.193,1.994c-0.647-0.347-1.334-0.632-2.049-0.849l-1.558-4.378C17.165,0.708,16.588,0.667,16,0.667s-1.166,0.041-1.737,0.105L12.707,5.15c-0.716,0.217-1.401,0.502-2.05,0.849L6.464,4.005C5.554,4.73,4.73,5.554,4.005,6.464l1.994,4.192c-0.347,0.648-0.632,1.334-0.849,2.05l-4.378,1.557C0.708,14.834,0.667,15.412,0.667,16s0.041,1.165,0.105,1.736l4.378,1.558c0.217,0.715,0.502,1.401,0.849,2.049l-1.994,4.193c0.725,0.909,1.549,1.733,2.459,2.458l4.192-1.993c0.648,0.347,1.334,0.633,2.05,0.851l1.557,4.377c0.571,0.064,1.148,0.104,1.737,0.104c0.588,0,1.165-0.04,1.736-0.104l1.558-4.377c0.715-0.218,1.399-0.504,2.049-0.851l4.193,1.993c0.909-0.725,1.733-1.549,2.458-2.458l-1.993-4.193c0.347-0.647,0.633-1.334,0.851-2.049L31.229,17.736zM16,20.871c-2.69,0-4.872-2.182-4.872-4.871c0-2.69,2.182-4.872,4.872-4.872c2.689,0,4.871,2.182,4.871,4.872C20.871,18.689,18.689,20.871,16,20.871z"></path><title>Link options.</title></g></g></g></g><g id="j_315"   ><path  stroke="#707070" id="v-4873" stroke-width="2" stroke-dasharray="30 30" fill="none" d="M 1475 1717 1755 1717" style="opacity: 1;"></path><path  fill="black" stroke="black" transform="translate(1475,1717) scale(1,1) rotate(0)"></path><path  fill="#707070" stroke="#707070" id="v-4875" d="M 20 0 L 0 10 L 20 20 z" transform="translate(1775,1727) scale(1,1) rotate(-180)" style="opacity: 1;"></path><path  id="v-4874" fill="none" d="M 1475 1717 1755 1717" style=""></path><title ></title><g ><g  id="v-4860" label-idx="0" cursor="move" transform="translate(1615, 1717)" style="opacity: 1;"><rect id="v-4862" fill="#ffffff" rx="3" ry="3" stroke="#ffffff" stroke-width="20px" pointer-events="none" width="167.25" height="61.799997329711914" transform="matrix(1,0,0,1,-82.80000305175781,-30.899999618530273)"></rect><text id="v-4861" font-size="24px" y="0.8em" xml:space="preserve" text-anchor="middle" pointer-events="none" fill="#707070" font-family="Open Sans" font-weight="normal" transform="matrix(1,0,0,1,0,-23.100000381469727)"><tspan id="v-4863"  dy="0em" x="0">Authorizes</tspan><tspan id="v-4864"  dy="1.2em" x="0">requests using</tspan></text></g><g  id="v-4865" label-idx="1" cursor="move" transform="translate(1615, 1760.2)" style="opacity: 1;"><rect id="v-4867" fill="#ffffff" rx="3" ry="3" pointer-events="none" width="0" height="0" transform="matrix(1,0,0,1,0,0)"></rect><text id="v-4866" font-size="19px" y="0.8em" display="none" xml:space="preserve" text-anchor="middle" pointer-events="none" fill="#707070" font-family="Open Sans" font-weight="normal" transform="matrix(1,0,0,1,0,0)"><tspan id="v-4868"  dy="0em" x="0" style="fill-opacity: 0; stroke-opacity: 0;">-</tspan></text></g><g  id="v-4869" label-idx="2" cursor="move" transform="translate(1615, 1784.2)" style="opacity: 1;"><rect id="v-4871" fill="#ffffff" rx="3" ry="3" pointer-events="none"  display="none" width="0" height="0" transform="matrix(1,0,0,1,0,0)"></rect><text id="v-4870" font-size="19px" y="0.8em" display="none" xml:space="preserve" text-anchor="middle" pointer-events="none" fill="#707070" font-family="Open Sans" font-weight="normal"  transform="matrix(1,0,0,1,0,0)"><tspan id="v-4872"  dy="0em" x="0" style="fill-opacity: 0; stroke-opacity: 0;">-</tspan></text></g></g><g  display="none"></g><g  id="v-4877" display="none"><g  id="v-4857"><path  end="source" d="M 26 0 L 0 13 L 26 26 z"></path></g><g  id="v-4858"><path  end="target" d="M 26 0 L 0 13 L 26 26 z"></path></g></g><g  id="v-4876" display="none"><g  id="v-4856" transform="translate(1515, 1717) "><g  event="remove"><circle r="11"></circle><path transform="scale(.8) translate(-16, -16)" d="M24.778,21.419 19.276,15.917 24.777,10.415 21.949,7.585 16.447,13.087 10.945,7.585 8.117,10.415 13.618,15.917 8.116,21.419 10.946,24.248 16.447,18.746 21.948,24.248z"></path><title>Remove link.</title></g><g  event="link:options"><circle r="11" transform="translate(25)"></circle><path fill="white" transform="scale(.55) translate(29, -16)" d="M31.229,17.736c0.064-0.571,0.104-1.148,0.104-1.736s-0.04-1.166-0.104-1.737l-4.377-1.557c-0.218-0.716-0.504-1.401-0.851-2.05l1.993-4.192c-0.725-0.91-1.549-1.734-2.458-2.459l-4.193,1.994c-0.647-0.347-1.334-0.632-2.049-0.849l-1.558-4.378C17.165,0.708,16.588,0.667,16,0.667s-1.166,0.041-1.737,0.105L12.707,5.15c-0.716,0.217-1.401,0.502-2.05,0.849L6.464,4.005C5.554,4.73,4.73,5.554,4.005,6.464l1.994,4.192c-0.347,0.648-0.632,1.334-0.849,2.05l-4.378,1.557C0.708,14.834,0.667,15.412,0.667,16s0.041,1.165,0.105,1.736l4.378,1.558c0.217,0.715,0.502,1.401,0.849,2.049l-1.994,4.193c0.725,0.909,1.549,1.733,2.459,2.458l4.192-1.993c0.648,0.347,1.334,0.633,2.05,0.851l1.557,4.377c0.571,0.064,1.148,0.104,1.737,0.104c0.588,0,1.165-0.04,1.736-0.104l1.558-4.377c0.715-0.218,1.399-0.504,2.049-0.851l4.193,1.993c0.909-0.725,1.733-1.549,2.458-2.458l-1.993-4.193c0.347-0.647,0.633-1.334,0.851-2.049L31.229,17.736zM16,20.871c-2.69,0-4.872-2.182-4.872-4.871c0-2.69,2.182-4.872,4.872-4.872c2.689,0,4.871,2.182,4.871,4.872C20.871,18.689,18.689,20.871,16,20.871z"></path><title>Link options.</title></g></g></g></g><g id="j_316"   ><path  stroke="#707070" id="v-4897" stroke-width="2" stroke-dasharray="30 30" fill="none" d="M 1250 1267 1250 1547" style="opacity: 1;"></path><path  fill="black" stroke="black" transform="translate(1250,1267) scale(1,1) rotate(-270)"></path><path  fill="#707070" stroke="#707070" id="v-4899" d="M 20 0 L 0 10 L 20 20 z" transform="translate(1240,1567) scale(1,1) rotate(-90)" style="opacity: 1;"></path><path  id="v-4898" fill="none" d="M 1250 1267 1250 1547" style=""></path><title ></title><g ><g  id="v-4885" label-idx="0" cursor="move" transform="translate(1250, 1407)" style="opacity: 1;"><rect id="v-4887" fill="#ffffff" rx="3" ry="3" stroke="#ffffff" stroke-width="20px" pointer-events="none" width="153.64999389648438" height="32.99999809265137" transform="matrix(1,0,0,1,-76.5999984741211,-16.5)"></rect><text id="v-4886" font-size="24px" y="0.8em" xml:space="preserve" text-anchor="middle" pointer-events="none" fill="#707070" font-family="Open Sans" font-weight="normal" transform="matrix(1,0,0,1,0,-8.699999809265137)"><tspan id="v-4888"  dy="0em" x="0">Interacts with</tspan></text></g><g  id="v-4889" label-idx="1" cursor="move" transform="translate(1250, 1438.2)" style="opacity: 1;"><rect id="v-4891" fill="#ffffff" rx="3" ry="3" pointer-events="none" width="0" height="0" transform="matrix(1,0,0,1,0,0)"></rect><text id="v-4890" font-size="19px" y="0.8em" display="none" xml:space="preserve" text-anchor="middle" pointer-events="none" fill="#707070" font-family="Open Sans" font-weight="normal" transform="matrix(1,0,0,1,0,0)"><tspan id="v-4892"  dy="0em" x="0" style="fill-opacity: 0; stroke-opacity: 0;">-</tspan></text></g><g  id="v-4893" label-idx="2" cursor="move" transform="translate(1250, 1462.2)" style="opacity: 1;"><rect id="v-4895" fill="#ffffff" rx="3" ry="3" pointer-events="none"  display="none" width="0" height="0" transform="matrix(1,0,0,1,0,0)"></rect><text id="v-4894" font-size="19px" y="0.8em" display="none" xml:space="preserve" text-anchor="middle" pointer-events="none" fill="#707070" font-family="Open Sans" font-weight="normal"  transform="matrix(1,0,0,1,0,0)"><tspan id="v-4896"  dy="0em" x="0" style="fill-opacity: 0; stroke-opacity: 0;">-</tspan></text></g></g><g  display="none"></g><g  id="v-4901" display="none"><g  id="v-4882"><path  end="source" d="M 26 0 L 0 13 L 26 26 z"></path></g><g  id="v-4883"><path  end="target" d="M 26 0 L 0 13 L 26 26 z"></path></g></g><g  id="v-4900" display="none"><g  id="v-4881" transform="translate(1250, 1307) "><g  event="remove"><circle r="11"></circle><path transform="scale(.8) translate(-16, -16)" d="M24.778,21.419 19.276,15.917 24.777,10.415 21.949,7.585 16.447,13.087 10.945,7.585 8.117,10.415 13.618,15.917 8.116,21.419 10.946,24.248 16.447,18.746 21.948,24.248z"></path><title>Remove link.</title></g><g  event="link:options"><circle r="11" transform="translate(25)"></circle><path fill="white" transform="scale(.55) translate(29, -16)" d="M31.229,17.736c0.064-0.571,0.104-1.148,0.104-1.736s-0.04-1.166-0.104-1.737l-4.377-1.557c-0.218-0.716-0.504-1.401-0.851-2.05l1.993-4.192c-0.725-0.91-1.549-1.734-2.458-2.459l-4.193,1.994c-0.647-0.347-1.334-0.632-2.049-0.849l-1.558-4.378C17.165,0.708,16.588,0.667,16,0.667s-1.166,0.041-1.737,0.105L12.707,5.15c-0.716,0.217-1.401,0.502-2.05,0.849L6.464,4.005C5.554,4.73,4.73,5.554,4.005,6.464l1.994,4.192c-0.347,0.648-0.632,1.334-0.849,2.05l-4.378,1.557C0.708,14.834,0.667,15.412,0.667,16s0.041,1.165,0.105,1.736l4.378,1.558c0.217,0.715,0.502,1.401,0.849,2.049l-1.994,4.193c0.725,0.909,1.549,1.733,2.459,2.458l4.192-1.993c0.648,0.347,1.334,0.633,2.05,0.851l1.557,4.377c0.571,0.064,1.148,0.104,1.737,0.104c0.588,0,1.165-0.04,1.736-0.104l1.558-4.377c0.715-0.218,1.399-0.504,2.049-0.851l4.193,1.993c0.909-0.725,1.733-1.549,2.458-2.458l-1.993-4.193c0.347-0.647,0.633-1.334,0.851-2.049L31.229,17.736zM16,20.871c-2.69,0-4.872-2.182-4.872-4.871c0-2.69,2.182-4.872,4.872-4.872c2.689,0,4.871,2.182,4.871,4.872C20.871,18.689,18.689,20.871,16,20.871z"></path><title>Link options.</title></g></g></g></g><g id="j_317"    transform="translate(1239.5,1844.2517578592733)"><g id="v-4903"><text  id="v-4904" font-size="413.3333333333333px" y="0.8em" xml:space="preserve" font-family="Open Sans" font-weight="bold" text-anchor="middle" dominant-baseline="baseline" pointer-events="none" stroke-width="0px" fill="#777777" stroke="#777777" opacity="0" transform="matrix(1,0,0,1,0,0)" style="display: block !important; visibility: visible !important"><tspan id="v-4905"  dy="0em" x="0">Structurizr</tspan></text></g></g></g><defs id="v-4"></defs></svg>