<svg xmlns="http://www.w3.org/2000/svg" xmlns:xlink="http://www.w3.org/1999/xlink" version="1.1" viewBox="0 0 2480 3508" style="background: #ffffff"><g id="v-3"  transform="matrix(1,0,0,1,0,0)"><g id="j_436"    transform="translate(20,3463)"><g id="v-6936"><text  id="v-6937" font-size="22px" y="0.8em" xml:space="preserve" font-weight="normal" text-anchor="start" fill="#777777" pointer-events="none" font-family="Open Sans" transform="matrix(1,0,0,1,0,0)" display="none"><tspan id="v-6938"  dy="0em" x="0">Wednesday, December 16, 2020, 10:49 AM Central European Standard Time</tspan></text></g></g><g id="j_435"    transform="translate(20,3417)"><g id="v-6932"><text  id="v-6933" font-size="36px" y="0.8em" xml:space="preserve" font-weight="normal" text-anchor="start" fill="#000000" pointer-events="none" font-family="Open Sans" transform="matrix(1,0,0,1,0,0)" display="none"><tspan id="v-6934"  dy="0em" x="0">Component diagram for plgd Cloud - gRPC Gateway</tspan></text></g></g><g id="j_422"    transform="translate(1005,1547)" style=""><g id="v-6736"><rect  id="v-6737" width="490" height="413" rx="0" ry="0" fill="#ffffff" stroke="#444444" stroke-width="2" stroke-dasharray="20,20" pointer-events="none"></rect><text  id="v-6738" font-size="24px" y="374" xml:space="preserve" font-weight="normal" fill="#444444" x="10" text-anchor="start" pointer-events="visible" font-family="Open Sans" transform="matrix(1,0,0,1,15,0)"><tspan id="v-6740"  dy="0em" x="0">gRPC Gateway</tspan></text><text  id="v-6739" font-size="19px" y="398" xml:space="preserve" font-weight="normal" fill="#444444" x="10" text-anchor="start" pointer-events="visible" font-family="Open Sans" transform="matrix(1,0,0,1,15,0)"><tspan id="v-6741"  dy="0em" x="0">[Container]</tspan></text></g></g><g id="j_430"    transform="translate(1005,947)" style=""><g id="v-6831"><rect  id="v-6832" width="490" height="413" rx="0" ry="0" fill="#ffffff" stroke="#cccccc" stroke-width="2" stroke-dasharray="20,20" pointer-events="none"></rect><text  id="v-6833" font-size="24px" y="374" xml:space="preserve" font-weight="normal" fill="#cccccc" x="10" text-anchor="start" pointer-events="visible" font-family="Open Sans" transform="matrix(1,0,0,1,15,0)"><tspan id="v-6835"  dy="0em" x="0">Standalone Application</tspan></text><text  id="v-6834" font-size="19px" y="398" xml:space="preserve" font-weight="normal" fill="#cccccc" x="10" text-anchor="start" pointer-events="visible" font-family="Open Sans" transform="matrix(1,0,0,1,15,0)"><tspan id="v-6836"  dy="0em" x="0">[Container]</tspan></text></g></g><g id="j_427"    transform="translate(1005,2147)" style=""><g id="v-6793"><rect  id="v-6794" width="490" height="413" rx="0" ry="0" fill="#ffffff" stroke="#cccccc" stroke-width="2" stroke-dasharray="20,20" pointer-events="none"></rect><text  id="v-6795" font-size="24px" y="374" xml:space="preserve" font-weight="normal" fill="#cccccc" x="10" text-anchor="start" pointer-events="visible" font-family="Open Sans" transform="matrix(1,0,0,1,15,0)"><tspan id="v-6797"  dy="0em" x="0">Resource Aggregate</tspan></text><text  id="v-6796" font-size="19px" y="398" xml:space="preserve" font-weight="normal" fill="#cccccc" x="10" text-anchor="start" pointer-events="visible" font-family="Open Sans" transform="matrix(1,0,0,1,15,0)"><tspan id="v-6798"  dy="0em" x="0">[Container]</tspan></text></g></g><g id="j_424"    transform="translate(255,2147)" style=""><g id="v-6759"><rect  id="v-6760" width="490" height="413" rx="0" ry="0" fill="#ffffff" stroke="#cccccc" stroke-width="2" stroke-dasharray="20,20" pointer-events="none"></rect><text  id="v-6761" font-size="24px" y="374" xml:space="preserve" font-weight="normal" fill="#cccccc" x="10" text-anchor="start" pointer-events="visible" font-family="Open Sans" transform="matrix(1,0,0,1,15,0)"><tspan id="v-6763"  dy="0em" x="0">Resource Directory</tspan></text><text  id="v-6762" font-size="19px" y="398" xml:space="preserve" font-weight="normal" fill="#cccccc" x="10" text-anchor="start" pointer-events="visible" font-family="Open Sans" transform="matrix(1,0,0,1,15,0)"><tspan id="v-6764"  dy="0em" x="0">[Container]</tspan></text></g></g><g id="j_423"    transform="translate(275,2167)" style="" ><g  id="v-6747" style="opacity: 1;"><rect  id="v-6748" rx="1" ry="1" stroke="#80b3cb" stroke-width="2" pointer-events="visiblePainted" fill="#8ec7e1" width="450" height="300"></rect><text  id="v-6749" font-size="34" y="0.8em" xml:space="preserve" font-weight="bold" text-anchor="middle" pointer-events="visible" font-family="Open Sans" fill="#000000" transform="matrix(1,0,0,1,225,75)"><tspan id="v-6754"  dy="0em" x="0">Projections Component</tspan></text><text  id="v-6750" font-size="19" y="0.8em" xml:space="preserve" text-anchor="middle" font-family="Open Sans" fill="#000000" transform="matrix(1,0,0,1,225,115)"><tspan id="v-6755"  dy="0em" x="0">[Component]</tspan></text><text  id="v-6751" font-size="24" y="0.8em" xml:space="preserve" text-anchor="middle" font-family="Open Sans" fill="#000000" transform="matrix(1,0,0,1,225,165)"><tspan id="v-6756"  dy="0em" x="0">Builds and maintains device and</tspan><tspan id="v-6757"  dy="1.2em" x="0">resource projections</tspan></text><text  id="v-6752" font-weight="bold" text-anchor="middle" font-family="Open Sans" fill="#000000" font-size="24" transform="matrix(1,0,0,1,225,270)" y="0.8em" xml:space="preserve" display="none"><tspan id="v-6765"  dy="0em" x="0">#</tspan></text><image  id="v-6753"></image></g></g><g id="j_425"    transform="translate(1025,1567)" style=""><g  id="v-6769" style="opacity: 1;"><rect  id="v-6770" rx="1" ry="1" stroke="#80b3cb" stroke-width="2" pointer-events="visiblePainted" fill="#8ec7e1" width="450" height="300"></rect><text  id="v-6771" font-size="34" y="0.8em" xml:space="preserve" font-weight="bold" text-anchor="middle" pointer-events="visible" font-family="Open Sans" fill="#000000" transform="matrix(1,0,0,1,225,90)"><tspan id="v-6776"  dy="0em" x="0">Protocol Adapter</tspan></text><text  id="v-6772" font-size="19" y="0.8em" xml:space="preserve" text-anchor="middle" font-family="Open Sans" fill="#000000" transform="matrix(1,0,0,1,225,130)"><tspan id="v-6777"  dy="0em" x="0">[Component]</tspan></text><text  id="v-6773" font-size="24" y="0.8em" xml:space="preserve" text-anchor="middle" font-family="Open Sans" fill="#000000" transform="matrix(1,0,0,1,225,180)"><tspan id="v-6778"  dy="0em" x="0">Translates public gRPC protocol</tspan></text><text  id="v-6774" font-weight="bold" text-anchor="middle" font-family="Open Sans" fill="#000000" font-size="24" transform="matrix(1,0,0,1,225,270)" display="none"></text><image  id="v-6775"></image></g></g><g id="j_426"    transform="translate(1025,2167)" style=""><g  id="v-6782" style="opacity: 1;"><rect  id="v-6783" rx="1" ry="1" stroke="#80b3cb" stroke-width="2" pointer-events="visiblePainted" fill="#8ec7e1" width="450" height="300"></rect><text  id="v-6784" font-size="34" y="0.8em" xml:space="preserve" font-weight="bold" text-anchor="middle" pointer-events="visible" font-family="Open Sans" fill="#000000" transform="matrix(1,0,0,1,225,90)"><tspan id="v-6789"  dy="0em" x="0">Command Handler</tspan></text><text  id="v-6785" font-size="19" y="0.8em" xml:space="preserve" text-anchor="middle" font-family="Open Sans" fill="#000000" transform="matrix(1,0,0,1,225,130)"><tspan id="v-6790"  dy="0em" x="0">[Component]</tspan></text><text  id="v-6786" font-size="24" y="0.8em" xml:space="preserve" text-anchor="middle" font-family="Open Sans" fill="#000000" transform="matrix(1,0,0,1,225,180)"><tspan id="v-6791"  dy="0em" x="0">Validates received commands</tspan></text><text  id="v-6787" font-weight="bold" text-anchor="middle" font-family="Open Sans" fill="#000000" font-size="24" transform="matrix(1,0,0,1,225,270)" display="none"></text><image  id="v-6788"></image></g></g><g id="j_428"    transform="translate(1775,1567)" style="" ><g  id="v-6804" style="opacity: 1;"><rect  id="v-6805" rx="1" ry="1" stroke="#c7c7c7" stroke-width="2" pointer-events="visiblePainted" fill="#dddddd" width="450" height="300"></rect><text  id="v-6806" font-size="34" y="0.8em" xml:space="preserve" font-weight="bold" text-anchor="middle" pointer-events="visible" font-family="Open Sans" fill="#000000" transform="matrix(1,0,0,1,225,75)"><tspan id="v-6811"  dy="0em" x="0">Authorization Server</tspan></text><text  id="v-6807" font-size="19" y="0.8em" xml:space="preserve" text-anchor="middle" font-family="Open Sans" fill="#000000" transform="matrix(1,0,0,1,225,115)"><tspan id="v-6812"  dy="0em" x="0">[Software System]</tspan></text><text  id="v-6808" font-size="24" y="0.8em" xml:space="preserve" text-anchor="middle" font-family="Open Sans" fill="#000000" transform="matrix(1,0,0,1,225,165)"><tspan id="v-6813"  dy="0em" x="0">An OAuth2.0 server authorizing and</tspan><tspan id="v-6814"  dy="1.2em" x="0">storing users and devices identities</tspan></text><text  id="v-6809" font-weight="bold" text-anchor="middle" font-family="Open Sans" fill="#000000" font-size="24" transform="matrix(1,0,0,1,225,270)" y="0.8em" display="none" xml:space="preserve"><tspan id="v-6815"  dy="0em" x="0" style="fill-opacity: 0; stroke-opacity: 0;">-</tspan></text><image  id="v-6810"></image></g></g><g id="j_429"    transform="translate(1025,967)" style="" ><g  id="v-6819" style="opacity: 1;"><rect  id="v-6820" rx="1" ry="1" stroke="#80b3cb" stroke-width="2" pointer-events="visiblePainted" fill="#8ec7e1" width="450" height="300"></rect><text  id="v-6821" font-size="34" y="0.8em" xml:space="preserve" font-weight="bold" text-anchor="middle" pointer-events="visible" font-family="Open Sans" fill="#000000" transform="matrix(1,0,0,1,225,75)"><tspan id="v-6826"  dy="0em" x="0">gRPC Client</tspan></text><text  id="v-6822" font-size="19" y="0.8em" xml:space="preserve" text-anchor="middle" font-family="Open Sans" fill="#000000" transform="matrix(1,0,0,1,225,115)"><tspan id="v-6827"  dy="0em" x="0">[Component]</tspan></text><text  id="v-6823" font-size="24" y="0.8em" xml:space="preserve" text-anchor="middle" font-family="Open Sans" fill="#000000" transform="matrix(1,0,0,1,225,165)"><tspan id="v-6828"  dy="0em" x="0">Enables remote communication with</tspan><tspan id="v-6829"  dy="1.2em" x="0">the device</tspan></text><text  id="v-6824" font-weight="bold" text-anchor="middle" font-family="Open Sans" fill="#000000" font-size="24" transform="matrix(1,0,0,1,225,270)" y="0.8em" xml:space="preserve" display="none"><tspan id="v-6837"  dy="0em" x="0">#</tspan></text><image  id="v-6825"></image></g></g><g id="j_431"   ><path  stroke="#707070" id="v-6855" stroke-width="2" stroke-dasharray="30 30" fill="none" d="M 1250 1867 1250 2147" style="opacity: 1;"></path><path  fill="black" stroke="black" transform="translate(1250,1867) scale(1,1) rotate(-270)"></path><path  fill="#707070" stroke="#707070" id="v-6857" d="M 20 0 L 0 10 L 20 20 z" transform="translate(1240,2167) scale(1,1) rotate(-90)" style="opacity: 1;"></path><path  id="v-6856" fill="none" d="M 1250 1867 1250 2147" style=""></path><title ></title><g ><g  id="v-6843" label-idx="0" cursor="move" transform="translate(1250, 2007)" style="opacity: 1;"><rect id="v-6845" fill="#ffffff" rx="3" ry="3" stroke="#ffffff" stroke-width="20px" pointer-events="none" width="131.89999389648438" height="32.99999809265137" transform="matrix(1,0,0,1,-65.69999694824219,-16.5)"></rect><text id="v-6844" font-size="24px" y="0.8em" xml:space="preserve" text-anchor="middle" pointer-events="none" fill="#707070" font-family="Open Sans" font-weight="normal" transform="matrix(1,0,0,1,0,-8.699999809265137)"><tspan id="v-6846"  dy="0em" x="0">Commands</tspan></text></g><g  id="v-6847" label-idx="1" cursor="move" transform="translate(1250, 2038.2)" style="opacity: 1;"><rect id="v-6849" fill="#ffffff" rx="3" ry="3" pointer-events="none" width="0" height="0" transform="matrix(1,0,0,1,0,0)"></rect><text id="v-6848" font-size="19px" y="0.8em" display="none" xml:space="preserve" text-anchor="middle" pointer-events="none" fill="#707070" font-family="Open Sans" font-weight="normal" transform="matrix(1,0,0,1,0,0)"><tspan id="v-6850"  dy="0em" x="0" style="fill-opacity: 0; stroke-opacity: 0;">-</tspan></text></g><g  id="v-6851" label-idx="2" cursor="move" transform="translate(1250, 2062.2)" style="opacity: 1;"><rect id="v-6853" fill="#ffffff" rx="3" ry="3" pointer-events="none"  display="none" width="0" height="0" transform="matrix(1,0,0,1,0,0)"></rect><text id="v-6852" font-size="19px" y="0.8em" display="none" xml:space="preserve" text-anchor="middle" pointer-events="none" fill="#707070" font-family="Open Sans" font-weight="normal"  transform="matrix(1,0,0,1,0,0)"><tspan id="v-6854"  dy="0em" x="0" style="fill-opacity: 0; stroke-opacity: 0;">-</tspan></text></g></g><g  display="none"></g><g  id="v-6859" display="none"><g  id="v-6840"><path  end="source" d="M 26 0 L 0 13 L 26 26 z"></path></g><g  id="v-6841"><path  end="target" d="M 26 0 L 0 13 L 26 26 z"></path></g></g><g  id="v-6858" display="none"><g  id="v-6839" transform="translate(1250, 1907) "><g  event="remove"><circle r="11"></circle><path transform="scale(.8) translate(-16, -16)" d="M24.778,21.419 19.276,15.917 24.777,10.415 21.949,7.585 16.447,13.087 10.945,7.585 8.117,10.415 13.618,15.917 8.116,21.419 10.946,24.248 16.447,18.746 21.948,24.248z"></path><title>Remove link.</title></g><g  event="link:options"><circle r="11" transform="translate(25)"></circle><path fill="white" transform="scale(.55) translate(29, -16)" d="M31.229,17.736c0.064-0.571,0.104-1.148,0.104-1.736s-0.04-1.166-0.104-1.737l-4.377-1.557c-0.218-0.716-0.504-1.401-0.851-2.05l1.993-4.192c-0.725-0.91-1.549-1.734-2.458-2.459l-4.193,1.994c-0.647-0.347-1.334-0.632-2.049-0.849l-1.558-4.378C17.165,0.708,16.588,0.667,16,0.667s-1.166,0.041-1.737,0.105L12.707,5.15c-0.716,0.217-1.401,0.502-2.05,0.849L6.464,4.005C5.554,4.73,4.73,5.554,4.005,6.464l1.994,4.192c-0.347,0.648-0.632,1.334-0.849,2.05l-4.378,1.557C0.708,14.834,0.667,15.412,0.667,16s0.041,1.165,0.105,1.736l4.378,1.558c0.217,0.715,0.502,1.401,0.849,2.049l-1.994,4.193c0.725,0.909,1.549,1.733,2.459,2.458l4.192-1.993c0.648,0.347,1.334,0.633,2.05,0.851l1.557,4.377c0.571,0.064,1.148,0.104,1.737,0.104c0.588,0,1.165-0.04,1.736-0.104l1.558-4.377c0.715-0.218,1.399-0.504,2.049-0.851l4.193,1.993c0.909-0.725,1.733-1.549,2.458-2.458l-1.993-4.193c0.347-0.647,0.633-1.334,0.851-2.049L31.229,17.736zM16,20.871c-2.69,0-4.872-2.182-4.872-4.871c0-2.69,2.182-4.872,4.872-4.872c2.689,0,4.871,2.182,4.871,4.872C20.871,18.689,18.689,20.871,16,20.871z"></path><title>Link options.</title></g></g></g></g><g id="j_432"   ><path  stroke="#707070" id="v-6877" stroke-width="2" stroke-dasharray="30 30" fill="none" d="M 1063 1867 704 2155" style="opacity: 1;"></path><path  fill="black" stroke="black" transform="translate(1063,1867) scale(1,1) rotate(-218.6598055873492)"></path><path  fill="#707070" stroke="#707070" id="v-6879" d="M 20 0 L 0 10 L 20 20 z" transform="translate(681.7530517578125,2159.191162109375) scale(1,1) rotate(-38.65980825409009)" style="opacity: 1;"></path><path  id="v-6878" fill="none" d="M 1063 1867 704 2155" style=""></path><title ></title><g ><g  id="v-6865" label-idx="0" cursor="move" transform="translate(883.5, 2011)" style="opacity: 1;"><rect id="v-6867" fill="#ffffff" rx="3" ry="3" stroke="#ffffff" stroke-width="20px" pointer-events="none" width="91.04999542236328" height="32.99999809265137" transform="matrix(1,0,0,1,-45.29999923706055,-16.5)"></rect><text id="v-6866" font-size="24px" y="0.8em" xml:space="preserve" text-anchor="middle" pointer-events="none" fill="#707070" font-family="Open Sans" font-weight="normal" transform="matrix(1,0,0,1,0,-8.699999809265137)"><tspan id="v-6868"  dy="0em" x="0">Queries</tspan></text></g><g  id="v-6869" label-idx="1" cursor="move" transform="translate(883.5, 2042.2)" style="opacity: 1;"><rect id="v-6871" fill="#ffffff" rx="3" ry="3" pointer-events="none" width="0" height="0" transform="matrix(1,0,0,1,0,0)"></rect><text id="v-6870" font-size="19px" y="0.8em" display="none" xml:space="preserve" text-anchor="middle" pointer-events="none" fill="#707070" font-family="Open Sans" font-weight="normal" transform="matrix(1,0,0,1,0,0)"><tspan id="v-6872"  dy="0em" x="0" style="fill-opacity: 0; stroke-opacity: 0;">-</tspan></text></g><g  id="v-6873" label-idx="2" cursor="move" transform="translate(883.5, 2066.2)" style="opacity: 1;"><rect id="v-6875" fill="#ffffff" rx="3" ry="3" pointer-events="none"  display="none" width="0" height="0" transform="matrix(1,0,0,1,0,0)"></rect><text id="v-6874" font-size="19px" y="0.8em" display="none" xml:space="preserve" text-anchor="middle" pointer-events="none" fill="#707070" font-family="Open Sans" font-weight="normal"  transform="matrix(1,0,0,1,0,0)"><tspan id="v-6876"  dy="0em" x="0" style="fill-opacity: 0; stroke-opacity: 0;">-</tspan></text></g></g><g  display="none"></g><g  id="v-6881" display="none"><g  id="v-6862"><path  end="source" d="M 26 0 L 0 13 L 26 26 z"></path></g><g  id="v-6863"><path  end="target" d="M 26 0 L 0 13 L 26 26 z"></path></g></g><g  id="v-6880" display="none"><g  id="v-6861" transform="translate(1031.7991943359375, 1892.0301513671875) "><g  event="remove"><circle r="11"></circle><path transform="scale(.8) translate(-16, -16)" d="M24.778,21.419 19.276,15.917 24.777,10.415 21.949,7.585 16.447,13.087 10.945,7.585 8.117,10.415 13.618,15.917 8.116,21.419 10.946,24.248 16.447,18.746 21.948,24.248z"></path><title>Remove link.</title></g><g  event="link:options"><circle r="11" transform="translate(25)"></circle><path fill="white" transform="scale(.55) translate(29, -16)" d="M31.229,17.736c0.064-0.571,0.104-1.148,0.104-1.736s-0.04-1.166-0.104-1.737l-4.377-1.557c-0.218-0.716-0.504-1.401-0.851-2.05l1.993-4.192c-0.725-0.91-1.549-1.734-2.458-2.459l-4.193,1.994c-0.647-0.347-1.334-0.632-2.049-0.849l-1.558-4.378C17.165,0.708,16.588,0.667,16,0.667s-1.166,0.041-1.737,0.105L12.707,5.15c-0.716,0.217-1.401,0.502-2.05,0.849L6.464,4.005C5.554,4.73,4.73,5.554,4.005,6.464l1.994,4.192c-0.347,0.648-0.632,1.334-0.849,2.05l-4.378,1.557C0.708,14.834,0.667,15.412,0.667,16s0.041,1.165,0.105,1.736l4.378,1.558c0.217,0.715,0.502,1.401,0.849,2.049l-1.994,4.193c0.725,0.909,1.549,1.733,2.459,2.458l4.192-1.993c0.648,0.347,1.334,0.633,2.05,0.851l1.557,4.377c0.571,0.064,1.148,0.104,1.737,0.104c0.588,0,1.165-0.04,1.736-0.104l1.558-4.377c0.715-0.218,1.399-0.504,2.049-0.851l4.193,1.993c0.909-0.725,1.733-1.549,2.458-2.458l-1.993-4.193c0.347-0.647,0.633-1.334,0.851-2.049L31.229,17.736zM16,20.871c-2.69,0-4.872-2.182-4.872-4.871c0-2.69,2.182-4.872,4.872-4.872c2.689,0,4.871,2.182,4.871,4.872C20.871,18.689,18.689,20.871,16,20.871z"></path><title>Link options.</title></g></g></g></g><g id="j_433"   ><path  stroke="#707070" id="v-6902" stroke-width="2" stroke-dasharray="30 30" fill="none" d="M 1475 1717 1755 1717" style="opacity: 1;"></path><path  fill="black" stroke="black" transform="translate(1475,1717) scale(1,1) rotate(0)"></path><path  fill="#707070" stroke="#707070" id="v-6904" d="M 20 0 L 0 10 L 20 20 z" transform="translate(1775,1727) scale(1,1) rotate(-180)" style="opacity: 1;"></path><path  id="v-6903" fill="none" d="M 1475 1717 1755 1717" style=""></path><title ></title><g ><g  id="v-6889" label-idx="0" cursor="move" transform="translate(1615, 1717)" style="opacity: 1;"><rect id="v-6891" fill="#ffffff" rx="3" ry="3" stroke="#ffffff" stroke-width="20px" pointer-events="none" width="167.25" height="61.79999923706055" transform="matrix(1,0,0,1,-82.80000305175781,-30.899999618530273)"></rect><text id="v-6890" font-size="24px" y="0.8em" xml:space="preserve" text-anchor="middle" pointer-events="none" fill="#707070" font-family="Open Sans" font-weight="normal" transform="matrix(1,0,0,1,0,-23.100000381469727)"><tspan id="v-6892"  dy="0em" x="0">Authorizes</tspan><tspan id="v-6893"  dy="1.2em" x="0">requests using</tspan></text></g><g  id="v-6894" label-idx="1" cursor="move" transform="translate(1615, 1760.2)" style="opacity: 1;"><rect id="v-6896" fill="#ffffff" rx="3" ry="3" pointer-events="none" width="0" height="0" transform="matrix(1,0,0,1,0,0)"></rect><text id="v-6895" font-size="19px" y="0.8em" display="none" xml:space="preserve" text-anchor="middle" pointer-events="none" fill="#707070" font-family="Open Sans" font-weight="normal" transform="matrix(1,0,0,1,0,0)"><tspan id="v-6897"  dy="0em" x="0" style="fill-opacity: 0; stroke-opacity: 0;">-</tspan></text></g><g  id="v-6898" label-idx="2" cursor="move" transform="translate(1615, 1784.2)" style="opacity: 1;"><rect id="v-6900" fill="#ffffff" rx="3" ry="3" pointer-events="none"  display="none" width="0" height="0" transform="matrix(1,0,0,1,0,0)"></rect><text id="v-6899" font-size="19px" y="0.8em" display="none" xml:space="preserve" text-anchor="middle" pointer-events="none" fill="#707070" font-family="Open Sans" font-weight="normal"  transform="matrix(1,0,0,1,0,0)"><tspan id="v-6901"  dy="0em" x="0" style="fill-opacity: 0; stroke-opacity: 0;">-</tspan></text></g></g><g  display="none"></g><g  id="v-6906" display="none"><g  id="v-6886"><path  end="source" d="M 26 0 L 0 13 L 26 26 z"></path></g><g  id="v-6887"><path  end="target" d="M 26 0 L 0 13 L 26 26 z"></path></g></g><g  id="v-6905" display="none"><g  id="v-6885" transform="translate(1515, 1717) "><g  event="remove"><circle r="11"></circle><path transform="scale(.8) translate(-16, -16)" d="M24.778,21.419 19.276,15.917 24.777,10.415 21.949,7.585 16.447,13.087 10.945,7.585 8.117,10.415 13.618,15.917 8.116,21.419 10.946,24.248 16.447,18.746 21.948,24.248z"></path><title>Remove link.</title></g><g  event="link:options"><circle r="11" transform="translate(25)"></circle><path fill="white" transform="scale(.55) translate(29, -16)" d="M31.229,17.736c0.064-0.571,0.104-1.148,0.104-1.736s-0.04-1.166-0.104-1.737l-4.377-1.557c-0.218-0.716-0.504-1.401-0.851-2.05l1.993-4.192c-0.725-0.91-1.549-1.734-2.458-2.459l-4.193,1.994c-0.647-0.347-1.334-0.632-2.049-0.849l-1.558-4.378C17.165,0.708,16.588,0.667,16,0.667s-1.166,0.041-1.737,0.105L12.707,5.15c-0.716,0.217-1.401,0.502-2.05,0.849L6.464,4.005C5.554,4.73,4.73,5.554,4.005,6.464l1.994,4.192c-0.347,0.648-0.632,1.334-0.849,2.05l-4.378,1.557C0.708,14.834,0.667,15.412,0.667,16s0.041,1.165,0.105,1.736l4.378,1.558c0.217,0.715,0.502,1.401,0.849,2.049l-1.994,4.193c0.725,0.909,1.549,1.733,2.459,2.458l4.192-1.993c0.648,0.347,1.334,0.633,2.05,0.851l1.557,4.377c0.571,0.064,1.148,0.104,1.737,0.104c0.588,0,1.165-0.04,1.736-0.104l1.558-4.377c0.715-0.218,1.399-0.504,2.049-0.851l4.193,1.993c0.909-0.725,1.733-1.549,2.458-2.458l-1.993-4.193c0.347-0.647,0.633-1.334,0.851-2.049L31.229,17.736zM16,20.871c-2.69,0-4.872-2.182-4.872-4.871c0-2.69,2.182-4.872,4.872-4.872c2.689,0,4.871,2.182,4.871,4.872C20.871,18.689,18.689,20.871,16,20.871z"></path><title>Link options.</title></g></g></g></g><g id="j_434"   ><path  stroke="#707070" id="v-6926" stroke-width="2" stroke-dasharray="30 30" fill="none" d="M 1250 1267 1250 1547" style="opacity: 1;"></path><path  fill="black" stroke="black" transform="translate(1250,1267) scale(1,1) rotate(-270)"></path><path  fill="#707070" stroke="#707070" id="v-6928" d="M 20 0 L 0 10 L 20 20 z" transform="translate(1240,1567) scale(1,1) rotate(-90)" style="opacity: 1;"></path><path  id="v-6927" fill="none" d="M 1250 1267 1250 1547" style=""></path><title ></title><g ><g  id="v-6914" label-idx="0" cursor="move" transform="translate(1250, 1407)" style="opacity: 1;"><rect id="v-6916" fill="#ffffff" rx="3" ry="3" stroke="#ffffff" stroke-width="20px" pointer-events="none" width="153.64999389648438" height="32.99999809265137" transform="matrix(1,0,0,1,-76.5999984741211,-16.5)"></rect><text id="v-6915" font-size="24px" y="0.8em" xml:space="preserve" text-anchor="middle" pointer-events="none" fill="#707070" font-family="Open Sans" font-weight="normal" transform="matrix(1,0,0,1,0,-8.699999809265137)"><tspan id="v-6917"  dy="0em" x="0">Interacts with</tspan></text></g><g  id="v-6918" label-idx="1" cursor="move" transform="translate(1250, 1438.2)" style="opacity: 1;"><rect id="v-6920" fill="#ffffff" rx="3" ry="3" pointer-events="none" width="0" height="0" transform="matrix(1,0,0,1,0,0)"></rect><text id="v-6919" font-size="19px" y="0.8em" display="none" xml:space="preserve" text-anchor="middle" pointer-events="none" fill="#707070" font-family="Open Sans" font-weight="normal" transform="matrix(1,0,0,1,0,0)"><tspan id="v-6921"  dy="0em" x="0" style="fill-opacity: 0; stroke-opacity: 0;">-</tspan></text></g><g  id="v-6922" label-idx="2" cursor="move" transform="translate(1250, 1462.2)" style="opacity: 1;"><rect id="v-6924" fill="#ffffff" rx="3" ry="3" pointer-events="none"  display="none" width="0" height="0" transform="matrix(1,0,0,1,0,0)"></rect><text id="v-6923" font-size="19px" y="0.8em" display="none" xml:space="preserve" text-anchor="middle" pointer-events="none" fill="#707070" font-family="Open Sans" font-weight="normal"  transform="matrix(1,0,0,1,0,0)"><tspan id="v-6925"  dy="0em" x="0" style="fill-opacity: 0; stroke-opacity: 0;">-</tspan></text></g></g><g  display="none"></g><g  id="v-6930" display="none"><g  id="v-6911"><path  end="source" d="M 26 0 L 0 13 L 26 26 z"></path></g><g  id="v-6912"><path  end="target" d="M 26 0 L 0 13 L 26 26 z"></path></g></g><g  id="v-6929" display="none"><g  id="v-6910" transform="translate(1250, 1307) "><g  event="remove"><circle r="11"></circle><path transform="scale(.8) translate(-16, -16)" d="M24.778,21.419 19.276,15.917 24.777,10.415 21.949,7.585 16.447,13.087 10.945,7.585 8.117,10.415 13.618,15.917 8.116,21.419 10.946,24.248 16.447,18.746 21.948,24.248z"></path><title>Remove link.</title></g><g  event="link:options"><circle r="11" transform="translate(25)"></circle><path fill="white" transform="scale(.55) translate(29, -16)" d="M31.229,17.736c0.064-0.571,0.104-1.148,0.104-1.736s-0.04-1.166-0.104-1.737l-4.377-1.557c-0.218-0.716-0.504-1.401-0.851-2.05l1.993-4.192c-0.725-0.91-1.549-1.734-2.458-2.459l-4.193,1.994c-0.647-0.347-1.334-0.632-2.049-0.849l-1.558-4.378C17.165,0.708,16.588,0.667,16,0.667s-1.166,0.041-1.737,0.105L12.707,5.15c-0.716,0.217-1.401,0.502-2.05,0.849L6.464,4.005C5.554,4.73,4.73,5.554,4.005,6.464l1.994,4.192c-0.347,0.648-0.632,1.334-0.849,2.05l-4.378,1.557C0.708,14.834,0.667,15.412,0.667,16s0.041,1.165,0.105,1.736l4.378,1.558c0.217,0.715,0.502,1.401,0.849,2.049l-1.994,4.193c0.725,0.909,1.549,1.733,2.459,2.458l4.192-1.993c0.648,0.347,1.334,0.633,2.05,0.851l1.557,4.377c0.571,0.064,1.148,0.104,1.737,0.104c0.588,0,1.165-0.04,1.736-0.104l1.558-4.377c0.715-0.218,1.399-0.504,2.049-0.851l4.193,1.993c0.909-0.725,1.733-1.549,2.458-2.458l-1.993-4.193c0.347-0.647,0.633-1.334,0.851-2.049L31.229,17.736zM16,20.871c-2.69,0-4.872-2.182-4.872-4.871c0-2.69,2.182-4.872,4.872-4.872c2.689,0,4.871,2.182,4.871,4.872C20.871,18.689,18.689,20.871,16,20.871z"></path><title>Link options.</title></g></g></g></g></g><defs id="v-4"></defs></svg>