<svg xmlns="http://www.w3.org/2000/svg" xmlns:xlink="http://www.w3.org/1999/xlink" version="1.1" viewBox="0 0 2480 3508" style="background: #ffffff"><g id="v-3"  transform="matrix(1,0,0,1,0,0)"><g id="j_216"    transform="translate(20,3463)"><g id="v-3299"><text  id="v-3300" font-size="22px" y="0.8em" xml:space="preserve" font-weight="normal" text-anchor="start" fill="#777777" pointer-events="none" font-family="Open Sans" transform="matrix(1,0,0,1,0,0)" display="none"><tspan id="v-3301"  dy="0em" x="0">Thursday, November 19, 2020, 2:21 PM Central European Standard Time | Diagram created with Structurizr</tspan></text></g></g><g id="j_215"    transform="translate(20,3417)"><g id="v-3295"><text  id="v-3296" font-size="36px" y="0.8em" xml:space="preserve" font-weight="normal" text-anchor="start" fill="#000000" pointer-events="none" font-family="Open Sans" transform="matrix(1,0,0,1,0,0)" display="none"><tspan id="v-3297"  dy="0em" x="0">Component diagram for Device - Embedded Application</tspan></text></g></g><g id="j_206"    transform="translate(995,1847)" style=""><g id="v-3179"><rect  id="v-3180" width="490" height="413" rx="0" ry="0" fill="#ffffff" stroke="#444444" stroke-width="2" stroke-dasharray="20,20" pointer-events="none"></rect><text  id="v-3181" font-size="24px" y="374" xml:space="preserve" font-weight="normal" fill="#444444" x="10" text-anchor="start" pointer-events="visible" font-family="Open Sans" transform="matrix(1,0,0,1,15,0)"><tspan id="v-3183"  dy="0em" x="0">Embedded Application</tspan></text><text  id="v-3182" font-size="19px" y="398" xml:space="preserve" font-weight="normal" fill="#444444" x="10" text-anchor="start" pointer-events="visible" font-family="Open Sans" transform="matrix(1,0,0,1,15,0)"><tspan id="v-3184"  dy="0em" x="0">[Container]</tspan></text></g></g><g id="j_211"    transform="translate(1370,1247)" style=""><g id="v-3233"><rect  id="v-3234" width="490" height="413" rx="0" ry="0" fill="#ffffff" stroke="#cccccc" stroke-width="2" stroke-dasharray="20,20" pointer-events="none"></rect><text  id="v-3235" font-size="24px" y="374" xml:space="preserve" font-weight="normal" fill="#cccccc" x="10" text-anchor="start" pointer-events="visible" font-family="Open Sans" transform="matrix(1,0,0,1,15,0)"><tspan id="v-3237"  dy="0em" x="0">Standalone Application</tspan></text><text  id="v-3236" font-size="19px" y="398" xml:space="preserve" font-weight="normal" fill="#cccccc" x="10" text-anchor="start" pointer-events="visible" font-family="Open Sans" transform="matrix(1,0,0,1,15,0)"><tspan id="v-3238"  dy="0em" x="0">[Container]</tspan></text></g></g><g id="j_208"    transform="translate(620,1247)" style=""><g id="v-3197"><rect  id="v-3198" width="490" height="413" rx="0" ry="0" fill="#ffffff" stroke="#cccccc" stroke-width="2" stroke-dasharray="20,20" pointer-events="none"></rect><text  id="v-3199" font-size="24px" y="374" xml:space="preserve" font-weight="normal" fill="#cccccc" x="10" text-anchor="start" pointer-events="visible" font-family="Open Sans" transform="matrix(1,0,0,1,15,0)"><tspan id="v-3201"  dy="0em" x="0">CoAP Gateway</tspan></text><text  id="v-3200" font-size="19px" y="398" xml:space="preserve" font-weight="normal" fill="#cccccc" x="10" text-anchor="start" pointer-events="visible" font-family="Open Sans" transform="matrix(1,0,0,1,15,0)"><tspan id="v-3202"  dy="0em" x="0">[Container]</tspan></text></g></g><g id="j_207"    transform="translate(640,1267)" style=""><g  id="v-3186" style="opacity: 1;"><rect  id="v-3187" rx="1" ry="1" stroke="#80b3cb" stroke-width="2" pointer-events="visiblePainted" fill="#8ec7e1" width="450" height="300"></rect><text  id="v-3188" font-size="34" y="0.8em" xml:space="preserve" font-weight="bold" text-anchor="middle" pointer-events="visible" font-family="Open Sans" fill="#000000" transform="matrix(1,0,0,1,225,90)"><tspan id="v-3193"  dy="0em" x="0">Protocol Adapter</tspan></text><text  id="v-3189" font-size="19" y="0.8em" xml:space="preserve" text-anchor="middle" font-family="Open Sans" fill="#000000" transform="matrix(1,0,0,1,225,130)"><tspan id="v-3194"  dy="0em" x="0">[Component]</tspan></text><text  id="v-3190" font-size="24" y="0.8em" xml:space="preserve" text-anchor="middle" font-family="Open Sans" fill="#000000" transform="matrix(1,0,0,1,225,180)"><tspan id="v-3195"  dy="0em" x="0">Translates OCF protocol</tspan></text><text  id="v-3191" font-weight="bold" text-anchor="middle" font-family="Open Sans" fill="#000000" font-size="24" transform="matrix(1,0,0,1,225,270)" display="none"></text><image  id="v-3192"></image></g></g><g id="j_209"    transform="translate(1015,1867)" style="" ><g  id="v-3206" style="opacity: 1;"><rect  id="v-3207" rx="20" ry="20" stroke="#5fa117" stroke-width="2" pointer-events="visiblePainted" fill="#6ab31a" width="450" height="300"></rect><text  id="v-3208" font-size="34" y="0.8em" xml:space="preserve" font-weight="bold" text-anchor="middle" pointer-events="visible" font-family="Open Sans" fill="#000000" transform="matrix(1,0,0,1,225,75)"><tspan id="v-3213"  dy="0em" x="0">IoTivity-Lite</tspan></text><text  id="v-3209" font-size="19" y="0.8em" xml:space="preserve" text-anchor="middle" font-family="Open Sans" fill="#000000" transform="matrix(1,0,0,1,225,115)"><tspan id="v-3214"  dy="0em" x="0">[Component]</tspan></text><text  id="v-3210" font-size="24" y="0.8em" xml:space="preserve" text-anchor="middle" font-family="Open Sans" fill="#000000" transform="matrix(1,0,0,1,225,165)"><tspan id="v-3215"  dy="0em" x="0">Device library implementing OCF</tspan><tspan id="v-3216"  dy="1.2em" x="0">standard</tspan></text><text  id="v-3211" font-weight="bold" text-anchor="middle" font-family="Open Sans" fill="#000000" font-size="24" transform="matrix(1,0,0,1,225,270)" y="0.8em" xml:space="preserve" display="none"><tspan id="v-3217"  dy="0em" x="0">#</tspan></text><image  id="v-3212"></image></g></g><g id="j_210"    transform="translate(1390,1267)" style="" ><g  id="v-3221" style="opacity: 1;"><rect  id="v-3222" rx="1" ry="1" stroke="#80b3cb" stroke-width="2" pointer-events="visiblePainted" fill="#8ec7e1" width="450" height="300"></rect><text  id="v-3223" font-size="34" y="0.8em" xml:space="preserve" font-weight="bold" text-anchor="middle" pointer-events="visible" font-family="Open Sans" fill="#000000" transform="matrix(1,0,0,1,225,75)"><tspan id="v-3228"  dy="0em" x="0">CoAP Client</tspan></text><text  id="v-3224" font-size="19" y="0.8em" xml:space="preserve" text-anchor="middle" font-family="Open Sans" fill="#000000" transform="matrix(1,0,0,1,225,115)"><tspan id="v-3229"  dy="0em" x="0">[Component]</tspan></text><text  id="v-3225" font-size="24" y="0.8em" xml:space="preserve" text-anchor="middle" font-family="Open Sans" fill="#000000" transform="matrix(1,0,0,1,225,165)"><tspan id="v-3230"  dy="0em" x="0">Enables communication on the local</tspan><tspan id="v-3231"  dy="1.2em" x="0">network with the device</tspan></text><text  id="v-3226" font-weight="bold" text-anchor="middle" font-family="Open Sans" fill="#000000" font-size="24" transform="matrix(1,0,0,1,225,270)" y="0.8em" xml:space="preserve" display="none"><tspan id="v-3239"  dy="0em" x="0">#</tspan></text><image  id="v-3227"></image></g></g><g id="j_212"   ><path  stroke="#707070" id="v-3260" stroke-width="2" stroke-dasharray="30 30" fill="none" d="M 1521 1567 1345 1850" style="opacity: 1;"></path><path  fill="black" stroke="black" transform="translate(1521,1567) scale(1,1) rotate(-238.0633394787325)"></path><path  fill="#707070" stroke="#707070" id="v-3262" d="M 20 0 L 0 10 L 20 20 z" transform="translate(1325.513671875,1861.710205078125) scale(1,1) rotate(-58.063339478732516)" style="opacity: 1;"></path><path  id="v-3261" fill="none" d="M 1521 1567 1345 1850" style=""></path><title ></title><g ><g  id="v-3247" label-idx="0" cursor="move" transform="translate(1433, 1708.5)" style="opacity: 1;"><rect id="v-3249" fill="#ffffff" rx="3" ry="3" stroke="#ffffff" stroke-width="20px" pointer-events="none" width="170.57276916503906" height="63.72957801818848" transform="matrix(1,0,0,1,-84.0999984741211,-31.899999618530273)"></rect><text id="v-3248" font-size="24px" y="0.8em" xml:space="preserve" text-anchor="middle" pointer-events="none" fill="#707070" font-family="Open Sans" font-weight="normal" transform="matrix(1,0,0,1,0,-24.200000762939453)"><tspan id="v-3250"  dy="0em" x="0">Interacts localy</tspan><tspan id="v-3251"  dy="1.2em" x="0">with</tspan></text></g><g  id="v-3252" label-idx="1" cursor="move" transform="translate(1433, 1751.7)" style="opacity: 1;"><rect id="v-3254" fill="#ffffff" rx="3" ry="3" pointer-events="none" width="0" height="0" transform="matrix(1,0,0,1,0,0)"></rect><text id="v-3253" font-size="19px" y="0.8em" display="none" xml:space="preserve" text-anchor="middle" pointer-events="none" fill="#707070" font-family="Open Sans" font-weight="normal" transform="matrix(1,0,0,1,0,0)"><tspan id="v-3255"  dy="0em" x="0" style="fill-opacity: 0; stroke-opacity: 0;">-</tspan></text></g><g  id="v-3256" label-idx="2" cursor="move" transform="translate(1433, 1775.7)" style="opacity: 1;"><rect id="v-3258" fill="#ffffff" rx="3" ry="3" pointer-events="none"  display="none" width="0" height="0" transform="matrix(1,0,0,1,0,0)"></rect><text id="v-3257" font-size="19px" y="0.8em" display="none" xml:space="preserve" text-anchor="middle" pointer-events="none" fill="#707070" font-family="Open Sans" font-weight="normal"  transform="matrix(1,0,0,1,0,0)"><tspan id="v-3259"  dy="0em" x="0" style="fill-opacity: 0; stroke-opacity: 0;">-</tspan></text></g></g><g  display="none"></g><g  id="v-3264" display="none"><g  id="v-3244"><path  end="source" d="M 26 0 L 0 13 L 26 26 z"></path></g><g  id="v-3245"><path  end="target" d="M 26 0 L 0 13 L 26 26 z"></path></g></g><g  id="v-3263" display="none"><g  id="v-3243" transform="translate(1499.8756103515625, 1600.967041015625) "><g  event="remove"><circle r="11"></circle><path transform="scale(.8) translate(-16, -16)" d="M24.778,21.419 19.276,15.917 24.777,10.415 21.949,7.585 16.447,13.087 10.945,7.585 8.117,10.415 13.618,15.917 8.116,21.419 10.946,24.248 16.447,18.746 21.948,24.248z"></path><title>Remove link.</title></g><g  event="link:options"><circle r="11" transform="translate(25)"></circle><path fill="white" transform="scale(.55) translate(29, -16)" d="M31.229,17.736c0.064-0.571,0.104-1.148,0.104-1.736s-0.04-1.166-0.104-1.737l-4.377-1.557c-0.218-0.716-0.504-1.401-0.851-2.05l1.993-4.192c-0.725-0.91-1.549-1.734-2.458-2.459l-4.193,1.994c-0.647-0.347-1.334-0.632-2.049-0.849l-1.558-4.378C17.165,0.708,16.588,0.667,16,0.667s-1.166,0.041-1.737,0.105L12.707,5.15c-0.716,0.217-1.401,0.502-2.05,0.849L6.464,4.005C5.554,4.73,4.73,5.554,4.005,6.464l1.994,4.192c-0.347,0.648-0.632,1.334-0.849,2.05l-4.378,1.557C0.708,14.834,0.667,15.412,0.667,16s0.041,1.165,0.105,1.736l4.378,1.558c0.217,0.715,0.502,1.401,0.849,2.049l-1.994,4.193c0.725,0.909,1.549,1.733,2.459,2.458l4.192-1.993c0.648,0.347,1.334,0.633,2.05,0.851l1.557,4.377c0.571,0.064,1.148,0.104,1.737,0.104c0.588,0,1.165-0.04,1.736-0.104l1.558-4.377c0.715-0.218,1.399-0.504,2.049-0.851l4.193,1.993c0.909-0.725,1.733-1.549,2.458-2.458l-1.993-4.193c0.347-0.647,0.633-1.334,0.851-2.049L31.229,17.736zM16,20.871c-2.69,0-4.872-2.182-4.872-4.871c0-2.69,2.182-4.872,4.872-4.872c2.689,0,4.871,2.182,4.871,4.872C20.871,18.689,18.689,20.871,16,20.871z"></path><title>Link options.</title></g></g></g></g><g id="j_213"   ><path  stroke="#707070" id="v-3285" stroke-width="2" stroke-dasharray="30 30" fill="none" d="M 959 1567 1135 1850" style="opacity: 1;"></path><path  fill="black" stroke="black" transform="translate(959,1567) scale(1,1) rotate(58.063322466514194)"></path><path  fill="#707070" stroke="#707070" id="v-3287" d="M 20 0 L 0 10 L 20 20 z" transform="translate(1137.513671875,1872.289794921875) scale(1,1) rotate(-121.93666052126748)" style="opacity: 1;"></path><path  id="v-3286" fill="none" d="M 959 1567 1135 1850" style=""></path><title ></title><g ><g  id="v-3272" label-idx="0" cursor="move" transform="translate(1047, 1708.5)" style="opacity: 1;"><rect id="v-3274" fill="#ffffff" rx="3" ry="3" stroke="#ffffff" stroke-width="20px" pointer-events="none" width="155.7948760986328" height="63.72957801818848" transform="matrix(1,0,0,1,-77.80000305175781,-31.899999618530273)"></rect><text id="v-3273" font-size="24px" y="0.8em" xml:space="preserve" text-anchor="middle" pointer-events="none" fill="#707070" font-family="Open Sans" font-weight="normal" transform="matrix(1,0,0,1,0,-24.200000762939453)"><tspan id="v-3275"  dy="0em" x="0">Interacts</tspan><tspan id="v-3276"  dy="1.2em" x="0">remotely with</tspan></text></g><g  id="v-3277" label-idx="1" cursor="move" transform="translate(1047, 1751.7)" style="opacity: 1;"><rect id="v-3279" fill="#ffffff" rx="3" ry="3" pointer-events="none" width="0" height="0" transform="matrix(1,0,0,1,0,0)"></rect><text id="v-3278" font-size="19px" y="0.8em" display="none" xml:space="preserve" text-anchor="middle" pointer-events="none" fill="#707070" font-family="Open Sans" font-weight="normal" transform="matrix(1,0,0,1,0,0)"><tspan id="v-3280"  dy="0em" x="0" style="fill-opacity: 0; stroke-opacity: 0;">-</tspan></text></g><g  id="v-3281" label-idx="2" cursor="move" transform="translate(1047, 1775.7)" style="opacity: 1;"><rect id="v-3283" fill="#ffffff" rx="3" ry="3" pointer-events="none"  display="none" width="0" height="0" transform="matrix(1,0,0,1,0,0)"></rect><text id="v-3282" font-size="19px" y="0.8em" display="none" xml:space="preserve" text-anchor="middle" pointer-events="none" fill="#707070" font-family="Open Sans" font-weight="normal"  transform="matrix(1,0,0,1,0,0)"><tspan id="v-3284"  dy="0em" x="0" style="fill-opacity: 0; stroke-opacity: 0;">-</tspan></text></g></g><g  display="none"></g><g  id="v-3289" display="none"><g  id="v-3269"><path  end="source" d="M 26 0 L 0 13 L 26 26 z"></path></g><g  id="v-3270"><path  end="target" d="M 26 0 L 0 13 L 26 26 z"></path></g></g><g  id="v-3288" display="none"><g  id="v-3268" transform="translate(980.1243896484375, 1600.967041015625) "><g  event="remove"><circle r="11"></circle><path transform="scale(.8) translate(-16, -16)" d="M24.778,21.419 19.276,15.917 24.777,10.415 21.949,7.585 16.447,13.087 10.945,7.585 8.117,10.415 13.618,15.917 8.116,21.419 10.946,24.248 16.447,18.746 21.948,24.248z"></path><title>Remove link.</title></g><g  event="link:options"><circle r="11" transform="translate(25)"></circle><path fill="white" transform="scale(.55) translate(29, -16)" d="M31.229,17.736c0.064-0.571,0.104-1.148,0.104-1.736s-0.04-1.166-0.104-1.737l-4.377-1.557c-0.218-0.716-0.504-1.401-0.851-2.05l1.993-4.192c-0.725-0.91-1.549-1.734-2.458-2.459l-4.193,1.994c-0.647-0.347-1.334-0.632-2.049-0.849l-1.558-4.378C17.165,0.708,16.588,0.667,16,0.667s-1.166,0.041-1.737,0.105L12.707,5.15c-0.716,0.217-1.401,0.502-2.05,0.849L6.464,4.005C5.554,4.73,4.73,5.554,4.005,6.464l1.994,4.192c-0.347,0.648-0.632,1.334-0.849,2.05l-4.378,1.557C0.708,14.834,0.667,15.412,0.667,16s0.041,1.165,0.105,1.736l4.378,1.558c0.217,0.715,0.502,1.401,0.849,2.049l-1.994,4.193c0.725,0.909,1.549,1.733,2.459,2.458l4.192-1.993c0.648,0.347,1.334,0.633,2.05,0.851l1.557,4.377c0.571,0.064,1.148,0.104,1.737,0.104c0.588,0,1.165-0.04,1.736-0.104l1.558-4.377c0.715-0.218,1.399-0.504,2.049-0.851l4.193,1.993c0.909-0.725,1.733-1.549,2.458-2.458l-1.993-4.193c0.347-0.647,0.633-1.334,0.851-2.049L31.229,17.736zM16,20.871c-2.69,0-4.872-2.182-4.872-4.871c0-2.69,2.182-4.872,4.872-4.872c2.689,0,4.871,2.182,4.871,4.872C20.871,18.689,18.689,20.871,16,20.871z"></path><title>Link options.</title></g></g></g></g><g id="j_214"    transform="translate(1239.5,782.9064656683339)"><g id="v-3291"><text  id="v-3292" font-size="413.3333333333333px" y="0.8em" xml:space="preserve" font-family="Open Sans" font-weight="bold" text-anchor="middle" dominant-baseline="baseline" pointer-events="none" stroke-width="0px" fill="#777777" stroke="#777777" opacity="0" transform="matrix(1,0,0,1,0,0)" style="display: block !important; visibility: visible !important"><tspan id="v-3293"  dy="0em" x="0">Structurizr</tspan></text></g></g></g><defs id="v-4"></defs></svg>