<svg xmlns="http://www.w3.org/2000/svg" xmlns:xlink="http://www.w3.org/1999/xlink" version="1.1" viewBox="0 0 2480 3508" style="background: #ffffff"><g id="v-3"  transform="matrix(1,0,0,1,0,0)"><g id="j_421"    transform="translate(20,3463)"><g id="v-6732"><text  id="v-6733" font-size="22px" y="0.8em" xml:space="preserve" font-weight="normal" text-anchor="start" fill="#777777" pointer-events="none" font-family="Open Sans" transform="matrix(1,0,0,1,0,0)" display="none"><tspan id="v-6734"  dy="0em" x="0">Wednesday, December 16, 2020, 10:49 AM Central European Standard Time</tspan></text></g></g><g id="j_420"    transform="translate(20,3417)"><g id="v-6728"><text  id="v-6729" font-size="36px" y="0.8em" xml:space="preserve" font-weight="normal" text-anchor="start" fill="#000000" pointer-events="none" font-family="Open Sans" transform="matrix(1,0,0,1,0,0)" display="none"><tspan id="v-6730"  dy="0em" x="0">Component diagram for plgd Cloud - CoAP Gateway</tspan></text></g></g><g id="j_407"    transform="translate(1005,1547)" style=""><g id="v-6533"><rect  id="v-6534" width="490" height="413" rx="0" ry="0" fill="#ffffff" stroke="#444444" stroke-width="2" stroke-dasharray="20,20" pointer-events="none"></rect><text  id="v-6535" font-size="24px" y="374" xml:space="preserve" font-weight="normal" fill="#444444" x="10" text-anchor="start" pointer-events="visible" font-family="Open Sans" transform="matrix(1,0,0,1,15,0)"><tspan id="v-6537"  dy="0em" x="0">CoAP Gateway</tspan></text><text  id="v-6536" font-size="19px" y="398" xml:space="preserve" font-weight="normal" fill="#444444" x="10" text-anchor="start" pointer-events="visible" font-family="Open Sans" transform="matrix(1,0,0,1,15,0)"><tspan id="v-6538"  dy="0em" x="0">[Container]</tspan></text></g></g><g id="j_415"    transform="translate(1005,947)" style=""><g id="v-6626"><rect  id="v-6627" width="490" height="413" rx="0" ry="0" fill="#ffffff" stroke="#cccccc" stroke-width="2" stroke-dasharray="20,20" pointer-events="none"></rect><text  id="v-6628" font-size="24px" y="374" xml:space="preserve" font-weight="normal" fill="#cccccc" x="10" text-anchor="start" pointer-events="visible" font-family="Open Sans" transform="matrix(1,0,0,1,15,0)"><tspan id="v-6630"  dy="0em" x="0">Embedded Application</tspan></text><text  id="v-6629" font-size="19px" y="398" xml:space="preserve" font-weight="normal" fill="#cccccc" x="10" text-anchor="start" pointer-events="visible" font-family="Open Sans" transform="matrix(1,0,0,1,15,0)"><tspan id="v-6631"  dy="0em" x="0">[Container]</tspan></text></g></g><g id="j_412"    transform="translate(1005,2147)" style=""><g id="v-6588"><rect  id="v-6589" width="490" height="413" rx="0" ry="0" fill="#ffffff" stroke="#cccccc" stroke-width="2" stroke-dasharray="20,20" pointer-events="none"></rect><text  id="v-6590" font-size="24px" y="374" xml:space="preserve" font-weight="normal" fill="#cccccc" x="10" text-anchor="start" pointer-events="visible" font-family="Open Sans" transform="matrix(1,0,0,1,15,0)"><tspan id="v-6592"  dy="0em" x="0">Resource Aggregate</tspan></text><text  id="v-6591" font-size="19px" y="398" xml:space="preserve" font-weight="normal" fill="#cccccc" x="10" text-anchor="start" pointer-events="visible" font-family="Open Sans" transform="matrix(1,0,0,1,15,0)"><tspan id="v-6593"  dy="0em" x="0">[Container]</tspan></text></g></g><g id="j_410"    transform="translate(255,2147)" style=""><g id="v-6567"><rect  id="v-6568" width="490" height="413" rx="0" ry="0" fill="#ffffff" stroke="#cccccc" stroke-width="2" stroke-dasharray="20,20" pointer-events="none"></rect><text  id="v-6569" font-size="24px" y="374" xml:space="preserve" font-weight="normal" fill="#cccccc" x="10" text-anchor="start" pointer-events="visible" font-family="Open Sans" transform="matrix(1,0,0,1,15,0)"><tspan id="v-6571"  dy="0em" x="0">Resource Directory</tspan></text><text  id="v-6570" font-size="19px" y="398" xml:space="preserve" font-weight="normal" fill="#cccccc" x="10" text-anchor="start" pointer-events="visible" font-family="Open Sans" transform="matrix(1,0,0,1,15,0)"><tspan id="v-6572"  dy="0em" x="0">[Container]</tspan></text></g></g><g id="j_408"    transform="translate(1025,1567)" style=""><g  id="v-6540" style="opacity: 1;"><rect  id="v-6541" rx="1" ry="1" stroke="#80b3cb" stroke-width="2" pointer-events="visiblePainted" fill="#8ec7e1" width="450" height="300"></rect><text  id="v-6542" font-size="34" y="0.8em" xml:space="preserve" font-weight="bold" text-anchor="middle" pointer-events="visible" font-family="Open Sans" fill="#000000" transform="matrix(1,0,0,1,225,90)"><tspan id="v-6547"  dy="0em" x="0">Protocol Adapter</tspan></text><text  id="v-6543" font-size="19" y="0.8em" xml:space="preserve" text-anchor="middle" font-family="Open Sans" fill="#000000" transform="matrix(1,0,0,1,225,130)"><tspan id="v-6548"  dy="0em" x="0">[Component]</tspan></text><text  id="v-6544" font-size="24" y="0.8em" xml:space="preserve" text-anchor="middle" font-family="Open Sans" fill="#000000" transform="matrix(1,0,0,1,225,180)"><tspan id="v-6549"  dy="0em" x="0">Translates OCF protocol</tspan></text><text  id="v-6545" font-weight="bold" text-anchor="middle" font-family="Open Sans" fill="#000000" font-size="24" transform="matrix(1,0,0,1,225,270)" display="none"></text><image  id="v-6546"></image></g></g><g id="j_409"    transform="translate(275,2167)" style="" ><g  id="v-6555" style="opacity: 1;"><rect  id="v-6556" rx="1" ry="1" stroke="#80b3cb" stroke-width="2" pointer-events="visiblePainted" fill="#8ec7e1" width="450" height="300"></rect><text  id="v-6557" font-size="34" y="0.8em" xml:space="preserve" font-weight="bold" text-anchor="middle" pointer-events="visible" font-family="Open Sans" fill="#000000" transform="matrix(1,0,0,1,225,75)"><tspan id="v-6562"  dy="0em" x="0">Projections Component</tspan></text><text  id="v-6558" font-size="19" y="0.8em" xml:space="preserve" text-anchor="middle" font-family="Open Sans" fill="#000000" transform="matrix(1,0,0,1,225,115)"><tspan id="v-6563"  dy="0em" x="0">[Component]</tspan></text><text  id="v-6559" font-size="24" y="0.8em" xml:space="preserve" text-anchor="middle" font-family="Open Sans" fill="#000000" transform="matrix(1,0,0,1,225,165)"><tspan id="v-6564"  dy="0em" x="0">Builds and maintains device and</tspan><tspan id="v-6565"  dy="1.2em" x="0">resource projections</tspan></text><text  id="v-6560" font-weight="bold" text-anchor="middle" font-family="Open Sans" fill="#000000" font-size="24" transform="matrix(1,0,0,1,225,270)" y="0.8em" xml:space="preserve" display="none"><tspan id="v-6573"  dy="0em" x="0">#</tspan></text><image  id="v-6561"></image></g></g><g id="j_411"    transform="translate(1025,2167)" style=""><g  id="v-6577" style="opacity: 1;"><rect  id="v-6578" rx="1" ry="1" stroke="#80b3cb" stroke-width="2" pointer-events="visiblePainted" fill="#8ec7e1" width="450" height="300"></rect><text  id="v-6579" font-size="34" y="0.8em" xml:space="preserve" font-weight="bold" text-anchor="middle" pointer-events="visible" font-family="Open Sans" fill="#000000" transform="matrix(1,0,0,1,225,90)"><tspan id="v-6584"  dy="0em" x="0">Command Handler</tspan></text><text  id="v-6580" font-size="19" y="0.8em" xml:space="preserve" text-anchor="middle" font-family="Open Sans" fill="#000000" transform="matrix(1,0,0,1,225,130)"><tspan id="v-6585"  dy="0em" x="0">[Component]</tspan></text><text  id="v-6581" font-size="24" y="0.8em" xml:space="preserve" text-anchor="middle" font-family="Open Sans" fill="#000000" transform="matrix(1,0,0,1,225,180)"><tspan id="v-6586"  dy="0em" x="0">Validates received commands</tspan></text><text  id="v-6582" font-weight="bold" text-anchor="middle" font-family="Open Sans" fill="#000000" font-size="24" transform="matrix(1,0,0,1,225,270)" display="none"></text><image  id="v-6583"></image></g></g><g id="j_413"    transform="translate(1775,1567)" style="" ><g  id="v-6599" style="opacity: 1;"><rect  id="v-6600" rx="1" ry="1" stroke="#c7c7c7" stroke-width="2" pointer-events="visiblePainted" fill="#dddddd" width="450" height="300"></rect><text  id="v-6601" font-size="34" y="0.8em" xml:space="preserve" font-weight="bold" text-anchor="middle" pointer-events="visible" font-family="Open Sans" fill="#000000" transform="matrix(1,0,0,1,225,75)"><tspan id="v-6606"  dy="0em" x="0">Authorization Server</tspan></text><text  id="v-6602" font-size="19" y="0.8em" xml:space="preserve" text-anchor="middle" font-family="Open Sans" fill="#000000" transform="matrix(1,0,0,1,225,115)"><tspan id="v-6607"  dy="0em" x="0">[Software System]</tspan></text><text  id="v-6603" font-size="24" y="0.8em" xml:space="preserve" text-anchor="middle" font-family="Open Sans" fill="#000000" transform="matrix(1,0,0,1,225,165)"><tspan id="v-6608"  dy="0em" x="0">An OAuth2.0 server authorizing and</tspan><tspan id="v-6609"  dy="1.2em" x="0">storing users and devices identities</tspan></text><text  id="v-6604" font-weight="bold" text-anchor="middle" font-family="Open Sans" fill="#000000" font-size="24" transform="matrix(1,0,0,1,225,270)" y="0.8em" display="none" xml:space="preserve"><tspan id="v-6610"  dy="0em" x="0" style="fill-opacity: 0; stroke-opacity: 0;">-</tspan></text><image  id="v-6605"></image></g></g><g id="j_414"    transform="translate(1025,967)" style="" ><g  id="v-6614" style="opacity: 1;"><rect  id="v-6615" rx="20" ry="20" stroke="#5fa117" stroke-width="2" pointer-events="visiblePainted" fill="#6ab31a" width="450" height="300"></rect><text  id="v-6616" font-size="34" y="0.8em" xml:space="preserve" font-weight="bold" text-anchor="middle" pointer-events="visible" font-family="Open Sans" fill="#000000" transform="matrix(1,0,0,1,225,75)"><tspan id="v-6621"  dy="0em" x="0">IoTivity-Lite</tspan></text><text  id="v-6617" font-size="19" y="0.8em" xml:space="preserve" text-anchor="middle" font-family="Open Sans" fill="#000000" transform="matrix(1,0,0,1,225,115)"><tspan id="v-6622"  dy="0em" x="0">[Component]</tspan></text><text  id="v-6618" font-size="24" y="0.8em" xml:space="preserve" text-anchor="middle" font-family="Open Sans" fill="#000000" transform="matrix(1,0,0,1,225,165)"><tspan id="v-6623"  dy="0em" x="0">Device library implementing OCF</tspan><tspan id="v-6624"  dy="1.2em" x="0">standard</tspan></text><text  id="v-6619" font-weight="bold" text-anchor="middle" font-family="Open Sans" fill="#000000" font-size="24" transform="matrix(1,0,0,1,225,270)" y="0.8em" xml:space="preserve" display="none"><tspan id="v-6632"  dy="0em" x="0">#</tspan></text><image  id="v-6620"></image></g></g><g id="j_416"   ><path  stroke="#707070" id="v-6650" stroke-width="2" stroke-dasharray="30 30" fill="none" d="M 1063 1867 704 2155" style="opacity: 1;"></path><path  fill="black" stroke="black" transform="translate(1063,1867) scale(1,1) rotate(-218.6598055873492)"></path><path  fill="#707070" stroke="#707070" id="v-6652" d="M 20 0 L 0 10 L 20 20 z" transform="translate(681.7530517578125,2159.191162109375) scale(1,1) rotate(-38.65980825409009)" style="opacity: 1;"></path><path  id="v-6651" fill="none" d="M 1063 1867 704 2155" style=""></path><title ></title><g ><g  id="v-6638" label-idx="0" cursor="move" transform="translate(883.5, 2011)" style="opacity: 1;"><rect id="v-6640" fill="#ffffff" rx="3" ry="3" stroke="#ffffff" stroke-width="20px" pointer-events="none" width="91.04999542236328" height="32.99999809265137" transform="matrix(1,0,0,1,-45.29999923706055,-16.5)"></rect><text id="v-6639" font-size="24px" y="0.8em" xml:space="preserve" text-anchor="middle" pointer-events="none" fill="#707070" font-family="Open Sans" font-weight="normal" transform="matrix(1,0,0,1,0,-8.699999809265137)"><tspan id="v-6641"  dy="0em" x="0">Queries</tspan></text></g><g  id="v-6642" label-idx="1" cursor="move" transform="translate(883.5, 2042.2)" style="opacity: 1;"><rect id="v-6644" fill="#ffffff" rx="3" ry="3" pointer-events="none" width="0" height="0" transform="matrix(1,0,0,1,0,0)"></rect><text id="v-6643" font-size="19px" y="0.8em" display="none" xml:space="preserve" text-anchor="middle" pointer-events="none" fill="#707070" font-family="Open Sans" font-weight="normal" transform="matrix(1,0,0,1,0,0)"><tspan id="v-6645"  dy="0em" x="0" style="fill-opacity: 0; stroke-opacity: 0;">-</tspan></text></g><g  id="v-6646" label-idx="2" cursor="move" transform="translate(883.5, 2066.2)" style="opacity: 1;"><rect id="v-6648" fill="#ffffff" rx="3" ry="3" pointer-events="none"  display="none" width="0" height="0" transform="matrix(1,0,0,1,0,0)"></rect><text id="v-6647" font-size="19px" y="0.8em" display="none" xml:space="preserve" text-anchor="middle" pointer-events="none" fill="#707070" font-family="Open Sans" font-weight="normal"  transform="matrix(1,0,0,1,0,0)"><tspan id="v-6649"  dy="0em" x="0" style="fill-opacity: 0; stroke-opacity: 0;">-</tspan></text></g></g><g  display="none"></g><g  id="v-6654" display="none"><g  id="v-6635"><path  end="source" d="M 26 0 L 0 13 L 26 26 z"></path></g><g  id="v-6636"><path  end="target" d="M 26 0 L 0 13 L 26 26 z"></path></g></g><g  id="v-6653" display="none"><g  id="v-6634" transform="translate(1031.7991943359375, 1892.0301513671875) "><g  event="remove"><circle r="11"></circle><path transform="scale(.8) translate(-16, -16)" d="M24.778,21.419 19.276,15.917 24.777,10.415 21.949,7.585 16.447,13.087 10.945,7.585 8.117,10.415 13.618,15.917 8.116,21.419 10.946,24.248 16.447,18.746 21.948,24.248z"></path><title>Remove link.</title></g><g  event="link:options"><circle r="11" transform="translate(25)"></circle><path fill="white" transform="scale(.55) translate(29, -16)" d="M31.229,17.736c0.064-0.571,0.104-1.148,0.104-1.736s-0.04-1.166-0.104-1.737l-4.377-1.557c-0.218-0.716-0.504-1.401-0.851-2.05l1.993-4.192c-0.725-0.91-1.549-1.734-2.458-2.459l-4.193,1.994c-0.647-0.347-1.334-0.632-2.049-0.849l-1.558-4.378C17.165,0.708,16.588,0.667,16,0.667s-1.166,0.041-1.737,0.105L12.707,5.15c-0.716,0.217-1.401,0.502-2.05,0.849L6.464,4.005C5.554,4.73,4.73,5.554,4.005,6.464l1.994,4.192c-0.347,0.648-0.632,1.334-0.849,2.05l-4.378,1.557C0.708,14.834,0.667,15.412,0.667,16s0.041,1.165,0.105,1.736l4.378,1.558c0.217,0.715,0.502,1.401,0.849,2.049l-1.994,4.193c0.725,0.909,1.549,1.733,2.459,2.458l4.192-1.993c0.648,0.347,1.334,0.633,2.05,0.851l1.557,4.377c0.571,0.064,1.148,0.104,1.737,0.104c0.588,0,1.165-0.04,1.736-0.104l1.558-4.377c0.715-0.218,1.399-0.504,2.049-0.851l4.193,1.993c0.909-0.725,1.733-1.549,2.458-2.458l-1.993-4.193c0.347-0.647,0.633-1.334,0.851-2.049L31.229,17.736zM16,20.871c-2.69,0-4.872-2.182-4.872-4.871c0-2.69,2.182-4.872,4.872-4.872c2.689,0,4.871,2.182,4.871,4.872C20.871,18.689,18.689,20.871,16,20.871z"></path><title>Link options.</title></g></g></g></g><g id="j_417"   ><path  stroke="#707070" id="v-6675" stroke-width="2" stroke-dasharray="30 30" fill="none" d="M 1475 1717 1755 1717" style="opacity: 1;"></path><path  fill="black" stroke="black" transform="translate(1475,1717) scale(1,1) rotate(0)"></path><path  fill="#707070" stroke="#707070" id="v-6677" d="M 20 0 L 0 10 L 20 20 z" transform="translate(1775,1727) scale(1,1) rotate(-180)" style="opacity: 1;"></path><path  id="v-6676" fill="none" d="M 1475 1717 1755 1717" style=""></path><title ></title><g ><g  id="v-6662" label-idx="0" cursor="move" transform="translate(1615, 1717)" style="opacity: 1;"><rect id="v-6664" fill="#ffffff" rx="3" ry="3" stroke="#ffffff" stroke-width="20px" pointer-events="none" width="167.25" height="61.79999923706055" transform="matrix(1,0,0,1,-82.80000305175781,-30.899999618530273)"></rect><text id="v-6663" font-size="24px" y="0.8em" xml:space="preserve" text-anchor="middle" pointer-events="none" fill="#707070" font-family="Open Sans" font-weight="normal" transform="matrix(1,0,0,1,0,-23.100000381469727)"><tspan id="v-6665"  dy="0em" x="0">Authorizes</tspan><tspan id="v-6666"  dy="1.2em" x="0">requests using</tspan></text></g><g  id="v-6667" label-idx="1" cursor="move" transform="translate(1615, 1760.2)" style="opacity: 1;"><rect id="v-6669" fill="#ffffff" rx="3" ry="3" pointer-events="none" width="0" height="0" transform="matrix(1,0,0,1,0,0)"></rect><text id="v-6668" font-size="19px" y="0.8em" display="none" xml:space="preserve" text-anchor="middle" pointer-events="none" fill="#707070" font-family="Open Sans" font-weight="normal" transform="matrix(1,0,0,1,0,0)"><tspan id="v-6670"  dy="0em" x="0" style="fill-opacity: 0; stroke-opacity: 0;">-</tspan></text></g><g  id="v-6671" label-idx="2" cursor="move" transform="translate(1615, 1784.2)" style="opacity: 1;"><rect id="v-6673" fill="#ffffff" rx="3" ry="3" pointer-events="none"  display="none" width="0" height="0" transform="matrix(1,0,0,1,0,0)"></rect><text id="v-6672" font-size="19px" y="0.8em" display="none" xml:space="preserve" text-anchor="middle" pointer-events="none" fill="#707070" font-family="Open Sans" font-weight="normal"  transform="matrix(1,0,0,1,0,0)"><tspan id="v-6674"  dy="0em" x="0" style="fill-opacity: 0; stroke-opacity: 0;">-</tspan></text></g></g><g  display="none"></g><g  id="v-6679" display="none"><g  id="v-6659"><path  end="source" d="M 26 0 L 0 13 L 26 26 z"></path></g><g  id="v-6660"><path  end="target" d="M 26 0 L 0 13 L 26 26 z"></path></g></g><g  id="v-6678" display="none"><g  id="v-6658" transform="translate(1515, 1717) "><g  event="remove"><circle r="11"></circle><path transform="scale(.8) translate(-16, -16)" d="M24.778,21.419 19.276,15.917 24.777,10.415 21.949,7.585 16.447,13.087 10.945,7.585 8.117,10.415 13.618,15.917 8.116,21.419 10.946,24.248 16.447,18.746 21.948,24.248z"></path><title>Remove link.</title></g><g  event="link:options"><circle r="11" transform="translate(25)"></circle><path fill="white" transform="scale(.55) translate(29, -16)" d="M31.229,17.736c0.064-0.571,0.104-1.148,0.104-1.736s-0.04-1.166-0.104-1.737l-4.377-1.557c-0.218-0.716-0.504-1.401-0.851-2.05l1.993-4.192c-0.725-0.91-1.549-1.734-2.458-2.459l-4.193,1.994c-0.647-0.347-1.334-0.632-2.049-0.849l-1.558-4.378C17.165,0.708,16.588,0.667,16,0.667s-1.166,0.041-1.737,0.105L12.707,5.15c-0.716,0.217-1.401,0.502-2.05,0.849L6.464,4.005C5.554,4.73,4.73,5.554,4.005,6.464l1.994,4.192c-0.347,0.648-0.632,1.334-0.849,2.05l-4.378,1.557C0.708,14.834,0.667,15.412,0.667,16s0.041,1.165,0.105,1.736l4.378,1.558c0.217,0.715,0.502,1.401,0.849,2.049l-1.994,4.193c0.725,0.909,1.549,1.733,2.459,2.458l4.192-1.993c0.648,0.347,1.334,0.633,2.05,0.851l1.557,4.377c0.571,0.064,1.148,0.104,1.737,0.104c0.588,0,1.165-0.04,1.736-0.104l1.558-4.377c0.715-0.218,1.399-0.504,2.049-0.851l4.193,1.993c0.909-0.725,1.733-1.549,2.458-2.458l-1.993-4.193c0.347-0.647,0.633-1.334,0.851-2.049L31.229,17.736zM16,20.871c-2.69,0-4.872-2.182-4.872-4.871c0-2.69,2.182-4.872,4.872-4.872c2.689,0,4.871,2.182,4.871,4.872C20.871,18.689,18.689,20.871,16,20.871z"></path><title>Link options.</title></g></g></g></g><g id="j_418"   ><path  stroke="#707070" id="v-6697" stroke-width="2" stroke-dasharray="30 30" fill="none" d="M 1250 1867 1250 2147" style="opacity: 1;"></path><path  fill="black" stroke="black" transform="translate(1250,1867) scale(1,1) rotate(-270)"></path><path  fill="#707070" stroke="#707070" id="v-6699" d="M 20 0 L 0 10 L 20 20 z" transform="translate(1240,2167) scale(1,1) rotate(-90)" style="opacity: 1;"></path><path  id="v-6698" fill="none" d="M 1250 1867 1250 2147" style=""></path><title ></title><g ><g  id="v-6685" label-idx="0" cursor="move" transform="translate(1250, 2007)" style="opacity: 1;"><rect id="v-6687" fill="#ffffff" rx="3" ry="3" stroke="#ffffff" stroke-width="20px" pointer-events="none" width="131.89999389648438" height="32.99999809265137" transform="matrix(1,0,0,1,-65.69999694824219,-16.5)"></rect><text id="v-6686" font-size="24px" y="0.8em" xml:space="preserve" text-anchor="middle" pointer-events="none" fill="#707070" font-family="Open Sans" font-weight="normal" transform="matrix(1,0,0,1,0,-8.699999809265137)"><tspan id="v-6688"  dy="0em" x="0">Commands</tspan></text></g><g  id="v-6689" label-idx="1" cursor="move" transform="translate(1250, 2038.2)" style="opacity: 1;"><rect id="v-6691" fill="#ffffff" rx="3" ry="3" pointer-events="none" width="0" height="0" transform="matrix(1,0,0,1,0,0)"></rect><text id="v-6690" font-size="19px" y="0.8em" display="none" xml:space="preserve" text-anchor="middle" pointer-events="none" fill="#707070" font-family="Open Sans" font-weight="normal" transform="matrix(1,0,0,1,0,0)"><tspan id="v-6692"  dy="0em" x="0" style="fill-opacity: 0; stroke-opacity: 0;">-</tspan></text></g><g  id="v-6693" label-idx="2" cursor="move" transform="translate(1250, 2062.2)" style="opacity: 1;"><rect id="v-6695" fill="#ffffff" rx="3" ry="3" pointer-events="none"  display="none" width="0" height="0" transform="matrix(1,0,0,1,0,0)"></rect><text id="v-6694" font-size="19px" y="0.8em" display="none" xml:space="preserve" text-anchor="middle" pointer-events="none" fill="#707070" font-family="Open Sans" font-weight="normal"  transform="matrix(1,0,0,1,0,0)"><tspan id="v-6696"  dy="0em" x="0" style="fill-opacity: 0; stroke-opacity: 0;">-</tspan></text></g></g><g  display="none"></g><g  id="v-6701" display="none"><g  id="v-6682"><path  end="source" d="M 26 0 L 0 13 L 26 26 z"></path></g><g  id="v-6683"><path  end="target" d="M 26 0 L 0 13 L 26 26 z"></path></g></g><g  id="v-6700" display="none"><g  id="v-6681" transform="translate(1250, 1907) "><g  event="remove"><circle r="11"></circle><path transform="scale(.8) translate(-16, -16)" d="M24.778,21.419 19.276,15.917 24.777,10.415 21.949,7.585 16.447,13.087 10.945,7.585 8.117,10.415 13.618,15.917 8.116,21.419 10.946,24.248 16.447,18.746 21.948,24.248z"></path><title>Remove link.</title></g><g  event="link:options"><circle r="11" transform="translate(25)"></circle><path fill="white" transform="scale(.55) translate(29, -16)" d="M31.229,17.736c0.064-0.571,0.104-1.148,0.104-1.736s-0.04-1.166-0.104-1.737l-4.377-1.557c-0.218-0.716-0.504-1.401-0.851-2.05l1.993-4.192c-0.725-0.91-1.549-1.734-2.458-2.459l-4.193,1.994c-0.647-0.347-1.334-0.632-2.049-0.849l-1.558-4.378C17.165,0.708,16.588,0.667,16,0.667s-1.166,0.041-1.737,0.105L12.707,5.15c-0.716,0.217-1.401,0.502-2.05,0.849L6.464,4.005C5.554,4.73,4.73,5.554,4.005,6.464l1.994,4.192c-0.347,0.648-0.632,1.334-0.849,2.05l-4.378,1.557C0.708,14.834,0.667,15.412,0.667,16s0.041,1.165,0.105,1.736l4.378,1.558c0.217,0.715,0.502,1.401,0.849,2.049l-1.994,4.193c0.725,0.909,1.549,1.733,2.459,2.458l4.192-1.993c0.648,0.347,1.334,0.633,2.05,0.851l1.557,4.377c0.571,0.064,1.148,0.104,1.737,0.104c0.588,0,1.165-0.04,1.736-0.104l1.558-4.377c0.715-0.218,1.399-0.504,2.049-0.851l4.193,1.993c0.909-0.725,1.733-1.549,2.458-2.458l-1.993-4.193c0.347-0.647,0.633-1.334,0.851-2.049L31.229,17.736zM16,20.871c-2.69,0-4.872-2.182-4.872-4.871c0-2.69,2.182-4.872,4.872-4.872c2.689,0,4.871,2.182,4.871,4.872C20.871,18.689,18.689,20.871,16,20.871z"></path><title>Link options.</title></g></g></g></g><g id="j_419"   ><path  stroke="#707070" id="v-6722" stroke-width="2" stroke-dasharray="30 30" fill="none" d="M 1250 1267 1250 1547" style="opacity: 1;"></path><path  fill="black" stroke="black" transform="translate(1250,1267) scale(1,1) rotate(-270)"></path><path  fill="#707070" stroke="#707070" id="v-6724" d="M 20 0 L 0 10 L 20 20 z" transform="translate(1240,1567) scale(1,1) rotate(-90)" style="opacity: 1;"></path><path  id="v-6723" fill="none" d="M 1250 1267 1250 1547" style=""></path><title ></title><g ><g  id="v-6709" label-idx="0" cursor="move" transform="translate(1250, 1407)" style="opacity: 1;"><rect id="v-6711" fill="#ffffff" rx="3" ry="3" stroke="#ffffff" stroke-width="20px" pointer-events="none" width="151.34999084472656" height="61.79999923706055" transform="matrix(1,0,0,1,-75,-30.899999618530273)"></rect><text id="v-6710" font-size="24px" y="0.8em" xml:space="preserve" text-anchor="middle" pointer-events="none" fill="#707070" font-family="Open Sans" font-weight="normal" transform="matrix(1,0,0,1,0,-23.100000381469727)"><tspan id="v-6712"  dy="0em" x="0">Remotely</tspan><tspan id="v-6713"  dy="1.2em" x="0">controlled by</tspan></text></g><g  id="v-6714" label-idx="1" cursor="move" transform="translate(1250, 1450.2)" style="opacity: 1;"><rect id="v-6716" fill="#ffffff" rx="3" ry="3" pointer-events="none" width="0" height="0" transform="matrix(1,0,0,1,0,0)"></rect><text id="v-6715" font-size="19px" y="0.8em" display="none" xml:space="preserve" text-anchor="middle" pointer-events="none" fill="#707070" font-family="Open Sans" font-weight="normal" transform="matrix(1,0,0,1,0,0)"><tspan id="v-6717"  dy="0em" x="0" style="fill-opacity: 0; stroke-opacity: 0;">-</tspan></text></g><g  id="v-6718" label-idx="2" cursor="move" transform="translate(1250, 1474.2)" style="opacity: 1;"><rect id="v-6720" fill="#ffffff" rx="3" ry="3" pointer-events="none"  display="none" width="0" height="0" transform="matrix(1,0,0,1,0,0)"></rect><text id="v-6719" font-size="19px" y="0.8em" display="none" xml:space="preserve" text-anchor="middle" pointer-events="none" fill="#707070" font-family="Open Sans" font-weight="normal"  transform="matrix(1,0,0,1,0,0)"><tspan id="v-6721"  dy="0em" x="0" style="fill-opacity: 0; stroke-opacity: 0;">-</tspan></text></g></g><g  display="none"></g><g  id="v-6726" display="none"><g  id="v-6706"><path  end="source" d="M 26 0 L 0 13 L 26 26 z"></path></g><g  id="v-6707"><path  end="target" d="M 26 0 L 0 13 L 26 26 z"></path></g></g><g  id="v-6725" display="none"><g  id="v-6705" transform="translate(1250, 1307) "><g  event="remove"><circle r="11"></circle><path transform="scale(.8) translate(-16, -16)" d="M24.778,21.419 19.276,15.917 24.777,10.415 21.949,7.585 16.447,13.087 10.945,7.585 8.117,10.415 13.618,15.917 8.116,21.419 10.946,24.248 16.447,18.746 21.948,24.248z"></path><title>Remove link.</title></g><g  event="link:options"><circle r="11" transform="translate(25)"></circle><path fill="white" transform="scale(.55) translate(29, -16)" d="M31.229,17.736c0.064-0.571,0.104-1.148,0.104-1.736s-0.04-1.166-0.104-1.737l-4.377-1.557c-0.218-0.716-0.504-1.401-0.851-2.05l1.993-4.192c-0.725-0.91-1.549-1.734-2.458-2.459l-4.193,1.994c-0.647-0.347-1.334-0.632-2.049-0.849l-1.558-4.378C17.165,0.708,16.588,0.667,16,0.667s-1.166,0.041-1.737,0.105L12.707,5.15c-0.716,0.217-1.401,0.502-2.05,0.849L6.464,4.005C5.554,4.73,4.73,5.554,4.005,6.464l1.994,4.192c-0.347,0.648-0.632,1.334-0.849,2.05l-4.378,1.557C0.708,14.834,0.667,15.412,0.667,16s0.041,1.165,0.105,1.736l4.378,1.558c0.217,0.715,0.502,1.401,0.849,2.049l-1.994,4.193c0.725,0.909,1.549,1.733,2.459,2.458l4.192-1.993c0.648,0.347,1.334,0.633,2.05,0.851l1.557,4.377c0.571,0.064,1.148,0.104,1.737,0.104c0.588,0,1.165-0.04,1.736-0.104l1.558-4.377c0.715-0.218,1.399-0.504,2.049-0.851l4.193,1.993c0.909-0.725,1.733-1.549,2.458-2.458l-1.993-4.193c0.347-0.647,0.633-1.334,0.851-2.049L31.229,17.736zM16,20.871c-2.69,0-4.872-2.182-4.872-4.871c0-2.69,2.182-4.872,4.872-4.872c2.689,0,4.871,2.182,4.871,4.872C20.871,18.689,18.689,20.871,16,20.871z"></path><title>Link options.</title></g></g></g></g></g><defs id="v-4"></defs></svg>