<svg xmlns="http://www.w3.org/2000/svg" xmlns:xlink="http://www.w3.org/1999/xlink" viewBox="0 0 2480 3249"><g transform="translate(245 1166)"><rect width="1990" height="1686" rx="0" ry="0" fill="#fff" stroke="#444" stroke-width="2" stroke-dasharray="20, 20" pointer-events="none"/><text font-size="24" y="1647" fill="#444" x="10" pointer-events="visible" font-family="'Open Sans'" transform="translate(15)"><tspan dy="0em" x="0">plgd Cloud</tspan></text><text font-size="19" y="1671" fill="#444" x="10" pointer-events="visible" font-family="'Open Sans'" transform="translate(15)"><tspan dy="0em" x="0">[Software System]</tspan></text></g><g transform="translate(1765 586)"><rect rx="20" ry="20" stroke="#2962a9" stroke-width="2" pointer-events="visiblePainted" fill="#2962a9" width="450" height="300"/><rect rx="5" ry="5" pointer-events="visiblePainted" fill="#2e6dbc" width="370" height="280" x="40" y="10"/><circle fill="#2e6dbc" cx="20" cy="150" r="10"/><path stroke="#2e6dbc" stroke-width="2" d="M430 125v50"/><text font-size="34" y=".8em" font-weight="bold" text-anchor="middle" pointer-events="visible" font-family="'Open Sans'" transform="translate(225 62.5)"><tspan dy="0em" x="0">Standalone Application</tspan></text><text font-size="19" y=".8em" text-anchor="middle" font-family="'Open Sans'" transform="translate(225 102.5)"><tspan dy="0em" x="0">from IoT System</tspan><tspan dy="1.2em" x="0">[Container: go, C, C#, Python, Java, Swift, ...]</tspan></text><text font-size="24" y=".8em" text-anchor="middle" font-family="'Open Sans'" transform="translate(225 177.5)"><tspan dy="0em" x="0">Allows remote and/or local</tspan><tspan dy="1.2em" x="0">interaction with the device</tspan></text><image/></g><g transform="translate(265 586)"><rect rx="10" ry="10" stroke="#2962a9" stroke-width="2" pointer-events="visiblePainted" fill="#2962a9" width="450" height="300"/><rect rx="10" ry="10" pointer-events="visiblePainted" fill="#2e6dbc" width="430" height="250" x="10" y="40"/><circle fill="#2e6dbc" cx="20" cy="20" r="10"/><circle fill="#2e6dbc" cx="50" cy="20" r="10"/><circle fill="#2e6dbc" cx="80" cy="20" r="10"/><rect rx="10" ry="10" pointer-events="visiblePainted" fill="#2e6dbc" width="340" height="20" x="100" y="10"/><text font-size="34" y=".8em" font-weight="bold" text-anchor="middle" pointer-events="visible" font-family="'Open Sans'" transform="translate(225 112.5)"><tspan dy="0em" x="0">Web Application</tspan></text><text font-size="19" y=".8em" text-anchor="middle" font-family="'Open Sans'" transform="translate(225 152.5)"><tspan dy="0em" x="0">from IoT System</tspan><tspan dy="1.2em" x="0">[Container]</tspan></text><image/></g><g transform="translate(1015 586)"><rect rx="20" ry="20" stroke="#5fa117" stroke-width="2" pointer-events="visiblePainted" fill="#6ab31a" width="450" height="300"/><text font-size="34" y=".8em" font-weight="bold" text-anchor="middle" pointer-events="visible" font-family="'Open Sans'" transform="translate(225 62.5)"><tspan dy="0em" x="0">Embedded Application</tspan></text><text font-size="19" y=".8em" text-anchor="middle" font-family="'Open Sans'" transform="translate(225 102.5)"><tspan dy="0em" x="0">from Device</tspan><tspan dy="1.2em" x="0">[Container: C]</tspan></text><text font-size="24" y=".8em" text-anchor="middle" font-family="'Open Sans'" transform="translate(225 177.5)"><tspan dy="0em" x="0">Models hardware functionality in</tspan><tspan dy="1.2em" x="0">form of OCF Resources</tspan></text><image/></g><g transform="translate(265 1786)"><rect rx="1" ry="1" stroke="#80b3cb" stroke-width="2" pointer-events="visiblePainted" fill="#8ec7e1" width="450" height="300"/><text font-size="34" y=".8em" font-weight="bold" text-anchor="middle" pointer-events="visible" font-family="'Open Sans'" transform="translate(225 105)"><tspan dy="0em" x="0">Resource Directory</tspan></text><text font-size="19" y=".8em" text-anchor="middle" font-family="'Open Sans'" transform="translate(225 145)"><tspan dy="0em" x="0">[Container: Go]</tspan></text><image/></g><g transform="translate(1765 1769)"><rect rx="1" ry="1" stroke="#80b3cb" stroke-width="2" pointer-events="visiblePainted" fill="#8ec7e1" width="450" height="300"/><text font-size="34" y=".8em" font-weight="bold" text-anchor="middle" pointer-events="visible" font-family="'Open Sans'" transform="translate(225 105)"><tspan dy="0em" x="0">Resource Aggregate</tspan></text><text font-size="19" y=".8em" text-anchor="middle" font-family="'Open Sans'" transform="translate(225 145)"><tspan dy="0em" x="0">[Container: Go]</tspan></text><image/></g><g transform="translate(1015 1186)"><rect rx="1" ry="1" stroke="#80b3cb" stroke-width="2" pointer-events="visiblePainted" fill="#8ec7e1" width="450" height="300"/><text font-size="34" y=".8em" font-weight="bold" text-anchor="middle" pointer-events="visible" font-family="'Open Sans'" transform="translate(225 75)"><tspan dy="0em" x="0">CoAP Gateway</tspan></text><text font-size="19" y=".8em" text-anchor="middle" font-family="'Open Sans'" transform="translate(225 115)"><tspan dy="0em" x="0">[Container: Go]</tspan></text><text font-size="24" y=".8em" text-anchor="middle" font-family="'Open Sans'" transform="translate(225 165)"><tspan dy="0em" x="0">Accepts and forwards CRUDN</tspan><tspan dy="1.2em" x="0">requests to and from devices</tspan></text><image/></g><g transform="translate(1765 1186)"><rect rx="1" ry="1" stroke="#80b3cb" stroke-width="2" pointer-events="visiblePainted" fill="#8ec7e1" width="450" height="300"/><text font-size="34" y=".8em" font-weight="bold" text-anchor="middle" pointer-events="visible" font-family="'Open Sans'" transform="translate(225 105)"><tspan dy="0em" x="0">gRPC Gateway</tspan></text><text font-size="19" y=".8em" text-anchor="middle" font-family="'Open Sans'" transform="translate(225 145)"><tspan dy="0em" x="0">[Container: Go]</tspan></text><image/></g><g transform="translate(1040 1)"><rect y="160" width="400" height="240" rx="70" stroke="#d3a723" stroke-width="2" pointer-events="visiblePainted" fill="#eab927"/><circle cx="200" cy="88.88889" r="88.88889" stroke="#d3a723" stroke-width="2" pointer-events="visiblePainted" fill="#eab927"/><path stroke="#d3a723" stroke-width="2" d="M80 266.66666V400M320 266.66666V400"/><text font-size="34" y=".8em" font-weight="bold" text-anchor="middle" pointer-events="visible" font-family="'Open Sans'" transform="translate(200 205)"><tspan dy="0em" x="0">User</tspan></text><text font-size="19" y=".8em" text-anchor="middle" font-family="'Open Sans'" transform="translate(200 245)"><tspan dy="0em" x="0">[Person]</tspan></text><text font-size="24" y=".8em" text-anchor="middle" font-family="'Open Sans'" transform="translate(200 295)"><tspan dy="0em" x="0">User working with resources</tspan><tspan dy="1.2em" x="0">provided by devices or services</tspan></text><image/></g><g transform="translate(265 2459)"><rect rx="1" ry="1" stroke="#80b3cb" stroke-width="2" pointer-events="visiblePainted" fill="#8ec7e1" width="450" height="300"/><text font-size="34" y=".8em" font-weight="bold" text-anchor="middle" pointer-events="visible" font-family="'Open Sans'" transform="translate(225 75)"><tspan dy="0em" x="0">Cloud2Cloud Gateway</tspan></text><text font-size="19" y=".8em" text-anchor="middle" font-family="'Open Sans'" transform="translate(225 115)"><tspan dy="0em" x="0">[Container: Go]</tspan></text><text font-size="24" y=".8em" text-anchor="middle" font-family="'Open Sans'" transform="translate(225 165)"><tspan dy="0em" x="0">Exposes devices using standardized</tspan><tspan dy="1.2em" x="0">OCF UCI interface</tspan></text><image/></g><g transform="translate(1765 2459)"><rect rx="1" ry="1" stroke="#80b3cb" stroke-width="2" pointer-events="visiblePainted" fill="#8ec7e1" width="450" height="300"/><text font-size="34" y=".8em" font-weight="bold" text-anchor="middle" pointer-events="visible" font-family="'Open Sans'" transform="translate(225 75)"><tspan dy="0em" x="0">Cloud2Cloud Connector</tspan></text><text font-size="19" y=".8em" text-anchor="middle" font-family="'Open Sans'" transform="translate(225 115)"><tspan dy="0em" x="0">[Container: Go]</tspan></text><text font-size="24" y=".8em" text-anchor="middle" font-family="'Open Sans'" transform="translate(225 165)"><tspan dy="0em" x="0">Bridges devices from different</tspan><tspan dy="1.2em" x="0">standardized OCF UCI interfaces</tspan></text><image/></g><g transform="translate(1015 2948)"><rect rx="1" ry="1" stroke="#c7c7c7" stroke-width="2" pointer-events="visiblePainted" fill="#ddd" width="450" height="300"/><text font-size="34" y=".8em" font-weight="bold" text-anchor="middle" pointer-events="visible" font-family="'Open Sans'" transform="translate(225 75)"><tspan dy="0em" x="0">3rd-party IoT System</tspan></text><text font-size="19" y=".8em" text-anchor="middle" font-family="'Open Sans'" transform="translate(225 115)"><tspan dy="0em" x="0">[Software System]</tspan></text><text font-size="24" y=".8em" text-anchor="middle" font-family="'Open Sans'" transform="translate(225 165)"><tspan dy="0em" x="0">3rd-party IoT System supporting</tspan><tspan dy="1.2em" x="0">standardized OCF UCI</tspan></text><image/></g><g transform="translate(265 1186)"><rect rx="1" ry="1" stroke="#80b3cb" stroke-width="2" pointer-events="visiblePainted" fill="#8ec7e1" width="450" height="300"/><text font-size="34" y=".8em" font-weight="bold" text-anchor="middle" pointer-events="visible" font-family="'Open Sans'" transform="translate(225 105)"><tspan dy="0em" x="0">HTTP Gateway</tspan></text><text font-size="19" y=".8em" text-anchor="middle" font-family="'Open Sans'" transform="translate(225 145)"><tspan dy="0em" x="0">[Container: Go]</tspan></text><image/></g><g transform="translate(1090 2204)"><ellipse id="a" cx="150" cy="270" rx="150" ry="30" stroke="#80b3cb" stroke-width="2" pointer-events="visiblePainted" fill="#8ec7e1"/><path id="b" stroke="#80b3cb" stroke-width="2" pointer-events="visiblePainted" fill="#8ec7e1" d="M0 30h300v240H0z"/><clipPath id="c" clipPathUnits="userSpaceOnUse"><use xlink:href="#a" width="100%" height="100%"/><use xlink:href="#b" width="100%" height="100%"/></clipPath><path clip-path="url(#c)" pointer-events="visiblePainted" fill="#8ec7e1" d="M0 30h300v270H0z"/><ellipse cx="150" cy="30" rx="150" ry="30" stroke="#80b3cb" stroke-width="2" pointer-events="visiblePainted" fill="#8ec7e1"/><text font-size="34" y=".8em" font-weight="bold" text-anchor="middle" pointer-events="visible" font-family="'Open Sans'" transform="translate(150 120)"><tspan dy="0em" x="0">Event Store</tspan></text><text font-size="19" y=".8em" text-anchor="middle" font-family="'Open Sans'" transform="translate(150 160)"><tspan dy="0em" x="0">[Container: MongoDB]</tspan></text><image/></g><g transform="translate(1015 1873)"><ellipse id="d" cx="420" cy="62.5" rx="30" ry="62.5" stroke="#80b3cb" stroke-width="2" pointer-events="visiblePainted" fill="#8ec7e1"/><path id="e" stroke="#80b3cb" stroke-width="2" pointer-events="visiblePainted" fill="#8ec7e1" d="M30 0h390v125H30z"/><clipPath id="f" clipPathUnits="userSpaceOnUse"><use xlink:href="#d" width="100%" height="100%"/><use xlink:href="#e" width="100%" height="100%"/></clipPath><path clip-path="url(#f)" pointer-events="visiblePainted" fill="#8ec7e1" d="M30 0h420v125H30z"/><ellipse cx="30" cy="62.5" rx="30" ry="62.5" stroke="#80b3cb" stroke-width="2" pointer-events="visiblePainted" fill="#8ec7e1"/><text font-size="34" y=".8em" font-weight="bold" text-anchor="middle" pointer-events="visible" font-family="'Open Sans'" transform="translate(225 17.5)"><tspan dy="0em" x="0">Event Bus</tspan></text><text font-size="19" y=".8em" text-anchor="middle" font-family="'Open Sans'" transform="translate(225 57.5)"><tspan dy="0em" x="0">[Container: NATS]</tspan></text><image/></g><g transform="translate(0 -2)"><path stroke="#707070" stroke-width="2" stroke-dasharray="30, 30" fill="none" d="M1053 1488l-359 288"/><path fill="#707070" stroke="#707070" d="M687.37041 1767.69736L678 1787.99995l21.86433-4.68521z"/><path fill="none" d="M1053 1488l-359 288"/><g cursor="move"><g transform="translate(873.5 1632)" pointer-events="none"><rect fill="#fff" rx="3" ry="3" stroke="#fff" stroke-width="20" width="91.04999" height="33" transform="translate(-45.3 -16.5)"/><text font-size="24" y=".8em" text-anchor="middle" fill="#707070" font-family="'Open Sans'" transform="translate(0 -8.7)"><tspan dy="0em" x="0">Queries</tspan></text></g><g transform="translate(873.5 1663.2)" pointer-events="none"><rect fill="#fff" rx="3" ry="3" width="211.09792" height="26.125" transform="translate(-105.5 -13.1)"/><text font-size="19" y=".8em" text-anchor="middle" fill="#707070" font-family="'Open Sans'" transform="translate(0 -6.9)"><tspan dy="0em" x="0">[gRPC, mTLS, OAuth2.0]</tspan></text></g></g></g><g transform="translate(0 -2)"><path stroke="#707070" stroke-width="2" stroke-dasharray="30, 30" fill="none" d="M1765 2051l-358 208"/><path fill="#707070" stroke="#707070" d="M1402.26475 2250.30314l-12.2648 18.69691 22.31641-1.4063z"/><path fill="none" d="M1765 2051l-358 208"/><g cursor="move"><g transform="translate(1586 2155)" pointer-events="none"><rect fill="#fff" rx="3" ry="3" stroke="#fff" stroke-width="20" width="184.7" height="33" transform="translate(-92.8 -16.5)"/><text font-size="24" y=".8em" text-anchor="middle" fill="#707070" font-family="'Open Sans'" transform="translate(0 -8.7)"><tspan dy="0em" x="0">Writes events to</tspan></text></g><g transform="translate(1586 2186.2)" pointer-events="none"><rect fill="#fff" rx="3" ry="3" width="160.58958" height="26.125" transform="translate(-80.3 -13.1)"/><text font-size="19" y=".8em" text-anchor="middle" fill="#707070" font-family="'Open Sans'" transform="translate(0 -6.9)"><tspan dy="0em" x="0">[MongoDB, mTLS]</tspan></text></g></g></g><g transform="translate(0 -2)"><path stroke="#707070" stroke-width="2" stroke-dasharray="30, 30" fill="none" d="M490 888v280"/><path fill="#707070" stroke="#707070" d="M480 1168l10 20 10-20z"/><path fill="none" d="M490 888v280"/><g cursor="move"><g transform="translate(490 1028)" pointer-events="none"><rect fill="#fff" rx="3" ry="3" stroke="#fff" stroke-width="20" width="56.5" height="33" transform="translate(-27.7 -16.5)"/><text font-size="24" y=".8em" text-anchor="middle" fill="#707070" font-family="'Open Sans'" transform="translate(0 -8.7)"><tspan dy="0em" x="0">Uses</tspan></text></g><g transform="translate(490 1059.2)" pointer-events="none"><rect fill="#fff" rx="3" ry="3" width="71.09167" height="26.125" transform="translate(-35.5 -13.1)"/><text font-size="19" y=".8em" text-anchor="middle" fill="#707070" font-family="'Open Sans'" transform="translate(0 -6.9)"><tspan dy="0em" x="0">[HTTPS]</tspan></text></g></g></g><g transform="translate(0 -2)"><path stroke="#707070" stroke-width="2" stroke-dasharray="30, 30" fill="none" d="M1765 1928l-280 5"/><path fill="#707070" stroke="#707070" d="M1484.8306 1922.6681L1465 1933l20.16387 9.66532z"/><path fill="none" d="M1765 1928l-280 5"/><g cursor="move"><g transform="translate(1625 1930.5)" pointer-events="none"><rect fill="#fff" rx="3" ry="3" stroke="#fff" stroke-width="20" width="138.55" height="33" transform="translate(-68.7 -16.5)"/><text font-size="24" y=".8em" text-anchor="middle" fill="#707070" font-family="'Open Sans'" transform="translate(0 -8.7)"><tspan dy="0em" x="0">Publishes to</tspan></text></g><g transform="translate(1625 1961.7)" pointer-events="none"><rect fill="#fff" rx="3" ry="3" width="119.54166" height="26.125" transform="translate(-59.8 -13.1)"/><text font-size="19" y=".8em" text-anchor="middle" fill="#707070" font-family="'Open Sans'" transform="translate(0 -6.9)"><tspan dy="0em" x="0">[NATS, mTLS]</tspan></text></g></g></g><g transform="translate(0 -2)"><path stroke="#707070" stroke-width="2" stroke-dasharray="30, 30" fill="none" d="M1990 2461v-370"/><path fill="#707070" stroke="#707070" d="M2000 2091l-10-20-10 20z"/><path fill="none" d="M1990 2461v-370"/><g cursor="move"><g transform="translate(1990 2276)" pointer-events="none"><rect fill="#fff" rx="3" ry="3" stroke="#fff" stroke-width="20" width="131.89999" height="33" transform="translate(-65.7 -16.5)"/><text font-size="24" y=".8em" text-anchor="middle" fill="#707070" font-family="'Open Sans'" transform="translate(0 -8.7)"><tspan dy="0em" x="0">Commands</tspan></text></g><g transform="translate(1990 2307.2)" pointer-events="none"><rect fill="#fff" rx="3" ry="3" width="211.09792" height="26.125" transform="translate(-105.5 -13.1)"/><text font-size="19" y=".8em" text-anchor="middle" fill="#707070" font-family="'Open Sans'" transform="translate(0 -6.9)"><tspan dy="0em" x="0">[gRPC, mTLS, OAuth2.0]</tspan></text></g></g></g><g transform="translate(0 -2)"><path stroke="#707070" stroke-width="2" stroke-dasharray="30, 30" fill="none" d="M715 1940l280-1"/><path fill="#707070" stroke="#707070" d="M995.03345 1949.06653L1015 1938.99993l-20.03322-9.93329z"/><path fill="none" d="M715 1940l280-1"/><g cursor="move"><g transform="translate(855 1939.5)" pointer-events="none"><rect fill="#fff" rx="3" ry="3" stroke="#fff" stroke-width="20" width="153.55" height="33" transform="translate(-76.8 -16.5)"/><text font-size="24" y=".8em" text-anchor="middle" fill="#707070" font-family="'Open Sans'" transform="translate(0 -8.7)"><tspan dy="0em" x="0">Subscribes to</tspan></text></g><g transform="translate(855 1970.7)" pointer-events="none"><rect fill="#fff" rx="3" ry="3" width="119.54166" height="26.125" transform="translate(-59.8 -13.1)"/><text font-size="19" y=".8em" text-anchor="middle" fill="#707070" font-family="'Open Sans'" transform="translate(0 -6.9)"><tspan dy="0em" x="0">[NATS, mTLS]</tspan></text></g></g></g><g transform="translate(0 -2)"><path stroke="#707070" stroke-width="2" stroke-dasharray="30, 30" fill="none" d="M715 2063l358 199"/><path fill="#707070" stroke="#707070" d="M1067.66167 2270.9983l22.33824 1.00161-12.60165-18.47156z"/><path fill="none" d="M715 2063l358 199"/><g cursor="move"><g transform="translate(894 2162.5)" pointer-events="none"><rect fill="#fff" rx="3" ry="3" stroke="#fff" stroke-width="20" width="190.14999" height="61.8" transform="translate(-94.8 -30.9)"/><text font-size="24" y=".8em" text-anchor="middle" fill="#707070" font-family="'Open Sans'" transform="translate(0 -23.1)"><tspan dy="0em" x="0">Builds projection</tspan><tspan dy="1.2em" x="0">from</tspan></text></g><g transform="translate(894 2205.7)" pointer-events="none"><rect fill="#fff" rx="3" ry="3" width="160.58958" height="26.125" transform="translate(-80.3 -13.1)"/><text font-size="19" y=".8em" text-anchor="middle" fill="#707070" font-family="'Open Sans'" transform="translate(0 -6.9)"><tspan dy="0em" x="0">[MongoDB, mTLS]</tspan></text></g></g></g><g transform="translate(0 -2)"><path stroke="#707070" stroke-width="2" stroke-dasharray="30, 30" fill="none" d="M1765 2758l-283 184"/><path fill="#707070" stroke="#707070" d="M1476.31893 2933.71574l-11.31898 19.2842 22.21875-2.51533z"/><path fill="none" d="M1765 2758l-283 184"/><g cursor="move"><g transform="translate(1623.5 2850)" pointer-events="none"><rect fill="#fff" rx="3" ry="3" stroke="#fff" stroke-width="20" width="198.90001" height="61.8" transform="translate(-98.9 -30.9)"/><text font-size="24" y=".8em" text-anchor="middle" fill="#707070" font-family="'Open Sans'" transform="translate(0 -23.1)"><tspan dy="0em" x="0">On behalf of user</tspan><tspan dy="1.2em" x="0">interacts with</tspan></text></g><g transform="translate(1623.5 2893.2)" pointer-events="none"><rect fill="#fff" rx="3" ry="3" width="164.34999" height="26.125" transform="translate(-82.2 -13.1)"/><text font-size="19" y=".8em" text-anchor="middle" fill="#707070" font-family="'Open Sans'" transform="translate(0 -6.9)"><tspan dy="0em" x="0">[HTTPS, OAuth2.0]</tspan></text></g></g></g><g transform="translate(0 -2)"><path stroke="#707070" stroke-width="2" stroke-dasharray="30, 30" fill="none" d="M1440 346l324 230"/><path fill="#707070" stroke="#707070" d="M1757.90706 584.54954l22.09285 3.45051-10.4953-19.74459z"/><path fill="none" d="M1440 346l324 230"/><g cursor="move"><g transform="translate(1602 461)" pointer-events="none"><rect fill="#fff" rx="3" ry="3" stroke="#fff" stroke-width="20" width="56.5" height="33" transform="translate(-27.7 -16.5)"/><text font-size="24" y=".8em" text-anchor="middle" fill="#707070" font-family="'Open Sans'" transform="translate(0 -8.7)"><tspan dy="0em" x="0">Uses</tspan></text></g></g></g><g transform="translate(0 -2)"><path stroke="#707070" stroke-width="2" stroke-dasharray="30, 30" fill="none" d="M1990 888v280"/><path fill="#707070" stroke="#707070" d="M1980 1168l10 20 10-20z"/><path fill="none" d="M1990 888v280"/><g cursor="move"><g transform="translate(1990 1028)" pointer-events="none"><rect fill="#fff" rx="3" ry="3" stroke="#fff" stroke-width="20" width="56.5" height="33" transform="translate(-27.7 -16.5)"/><text font-size="24" y=".8em" text-anchor="middle" fill="#707070" font-family="'Open Sans'" transform="translate(0 -8.7)"><tspan dy="0em" x="0">Uses</tspan></text></g><g transform="translate(1990 1059.2)" pointer-events="none"><rect fill="#fff" rx="3" ry="3" width="221.58751" height="26.125" transform="translate(-110.8 -13.1)"/><text font-size="19" y=".8em" text-anchor="middle" fill="#707070" font-family="'Open Sans'" transform="translate(0 -6.9)"><tspan dy="0em" x="0">[gRPC, mTLS*, OAuth2.0]</tspan></text></g></g></g><g transform="translate(0 -2)"><path stroke="#707070" stroke-width="2" stroke-dasharray="30, 30" fill="none" d="M1765 2612l-795 3s-10 0-16-8l-349-503"/><path fill="#707070" stroke="#707070" d="M613.62194 2098.72266l-19.622-10.72274 3.195 22.13124z"/><path fill="none" d="M1765 2612l-795 3s-10 0-16-8l-349-503"/><g cursor="move"><g transform="translate(1052.1556 2614.6899)" pointer-events="none"><rect fill="#fff" rx="3" ry="3" stroke="#fff" stroke-width="20" width="91.04999" height="33" transform="translate(-45.3 -16.5)"/><text font-size="24" y=".8em" text-anchor="middle" fill="#707070" font-family="'Open Sans'" transform="translate(0 -8.7)"><tspan dy="0em" x="0">Queries</tspan></text></g><g transform="translate(1052.1556 2645.8899)" pointer-events="none"><rect fill="#fff" rx="3" ry="3" width="211.09792" height="26.125" transform="translate(-105.5 -13.1)"/><text font-size="19" y=".8em" text-anchor="middle" fill="#707070" font-family="'Open Sans'" transform="translate(0 -6.9)"><tspan dy="0em" x="0">[gRPC, mTLS, OAuth2.0]</tspan></text></g></g></g><g transform="translate(0 -2)"><path stroke="#707070" stroke-width="2" stroke-dasharray="30, 30" fill="none" d="M1437 1488l75 57 16 12 255 202"/><path fill="#707070" stroke="#707070" d="M1777.10317 1766.46864l21.89674 4.53133-9.51298-20.23619z"/><path fill="none" d="M1437 1488l75 57 16 12 255 202"/><g cursor="move"><g transform="translate(1610.741 1622.5438)" pointer-events="none"><rect fill="#fff" rx="3" ry="3" stroke="#fff" stroke-width="20" width="131.89999" height="33" transform="translate(-65.7 -16.5)"/><text font-size="24" y=".8em" text-anchor="middle" fill="#707070" font-family="'Open Sans'" transform="translate(0 -8.7)"><tspan dy="0em" x="0">Commands</tspan></text></g><g transform="translate(1610.741 1653.7438)" pointer-events="none"><rect fill="#fff" rx="3" ry="3" width="211.09792" height="26.125" transform="translate(-105.5 -13.1)"/><text font-size="19" y=".8em" text-anchor="middle" fill="#707070" font-family="'Open Sans'" transform="translate(0 -6.9)"><tspan dy="0em" x="0">[gRPC, mTLS, OAuth2.0]</tspan></text></g></g></g><g transform="translate(0 -2)"><path stroke="#707070" stroke-width="2" stroke-dasharray="30, 30" fill="none" d="M1990 1488v263"/><path fill="#707070" stroke="#707070" d="M1980 1751l10 20 10-20z"/><path fill="none" d="M1990 1488v263"/><g cursor="move"><g transform="translate(1990 1619.5)" pointer-events="none"><rect fill="#fff" rx="3" ry="3" stroke="#fff" stroke-width="20" width="131.89999" height="33" transform="translate(-65.7 -16.5)"/><text font-size="24" y=".8em" text-anchor="middle" fill="#707070" font-family="'Open Sans'" transform="translate(0 -8.7)"><tspan dy="0em" x="0">Commands</tspan></text></g><g transform="translate(1990 1650.7)" pointer-events="none"><rect fill="#fff" rx="3" ry="3" width="214.50208" height="26.125" transform="translate(-107.3 -13.1)"/><text font-size="19" y=".8em" text-anchor="middle" fill="#707070" font-family="'Open Sans'" transform="translate(0 -6.9)"><tspan dy="0em" x="0">[GRPC, mTLS, OAuth2.0]</tspan></text></g></g></g><g transform="translate(0 -2)"><path stroke="#707070" stroke-width="2" stroke-dasharray="30, 30" fill="none" d="M490 2461v-353"/><path fill="#707070" stroke="#707070" d="M500 2108l-10-20-10 20z"/><path fill="none" d="M490 2461v-353"/><g cursor="move"><g transform="translate(490 2284.5)" pointer-events="none"><rect fill="#fff" rx="3" ry="3" stroke="#fff" stroke-width="20" width="91.04999" height="33" transform="translate(-45.3 -16.5)"/><text font-size="24" y=".8em" text-anchor="middle" fill="#707070" font-family="'Open Sans'" transform="translate(0 -8.7)"><tspan dy="0em" x="0">Queries</tspan></text></g><g transform="translate(490 2315.7)" pointer-events="none"><rect fill="#fff" rx="3" ry="3" width="211.09792" height="26.125" transform="translate(-105.5 -13.1)"/><text font-size="19" y=".8em" text-anchor="middle" fill="#707070" font-family="'Open Sans'" transform="translate(0 -6.9)"><tspan dy="0em" x="0">[gRPC, mTLS, OAuth2.0]</tspan></text></g></g></g><g transform="translate(0 -2)"><path stroke="#707070" stroke-width="2" stroke-dasharray="30, 30" fill="none" d="M553 1488l78 184s4 9 14 11l1100 195"/><path fill="#707070" stroke="#707070" d="M1743.56321 1887.36134l21.43674-6.36131-17.95109-13.3326z"/><path fill="none" d="M553 1488l78 184s4 9 14 11l1100 195"/><g cursor="move"><g transform="translate(1087.5363 1761.4496)" pointer-events="none"><rect fill="#fff" rx="3" ry="3" stroke="#fff" stroke-width="20" width="131.89999" height="33" transform="translate(-65.7 -16.5)"/><text font-size="24" y=".8em" text-anchor="middle" fill="#707070" font-family="'Open Sans'" transform="translate(0 -8.7)"><tspan dy="0em" x="0">Commands</tspan></text></g><g transform="translate(1087.5363 1792.6496)" pointer-events="none"><rect fill="#fff" rx="3" ry="3" width="211.09792" height="26.125" transform="translate(-105.5 -13.1)"/><text font-size="19" y=".8em" text-anchor="middle" fill="#707070" font-family="'Open Sans'" transform="translate(0 -6.9)"><tspan dy="0em" x="0">[gRPC, mTLS, OAuth2.0]</tspan></text></g></g></g><g transform="translate(0 -2)"><path stroke="#707070" stroke-width="2" stroke-dasharray="30, 30" fill="none" d="M715 2612l735 3s10 0 16-8l397-520"/><path fill="#707070" stroke="#707070" d="M1870.81997 2092.96676l4.17992-21.96652-20.08117 9.83597z"/><path fill="none" d="M715 2612l735 3s10 0 16-8l397-520"/><g cursor="move"><g transform="translate(1418.8472 2614.8728)" pointer-events="none"><rect fill="#fff" rx="3" ry="3" stroke="#fff" stroke-width="20" width="131.89999" height="33" transform="translate(-65.7 -16.5)"/><text font-size="24" y=".8em" text-anchor="middle" fill="#707070" font-family="'Open Sans'" transform="translate(0 -8.7)"><tspan dy="0em" x="0">Commands</tspan></text></g><g transform="translate(1418.8472 2646.0728)" pointer-events="none"><rect fill="#fff" rx="3" ry="3" width="211.09792" height="26.125" transform="translate(-105.5 -13.1)"/><text font-size="19" y=".8em" text-anchor="middle" fill="#707070" font-family="'Open Sans'" transform="translate(0 -6.9)"><tspan dy="0em" x="0">[gRPC, mTLS, OAuth2.0]</tspan></text></g></g></g><g transform="translate(0 -2)"><path stroke="#707070" stroke-width="2" stroke-dasharray="30, 30" fill="none" d="M1918 1488l-84 174s-4 9-14 11L735 1889"/><path fill="#707070" stroke="#707070" d="M732.6623 1879.28712l-17.66228 13.7129 21.5677 5.90209z"/><path fill="none" d="M1918 1488l-84 174s-4 9-14 11L735 1889"/><g cursor="move"><g transform="translate(1381.2852 1760.3386)" pointer-events="none"><rect fill="#fff" rx="3" ry="3" stroke="#fff" stroke-width="20" width="91.04999" height="33" transform="translate(-45.3 -16.5)"/><text font-size="24" y=".8em" text-anchor="middle" fill="#707070" font-family="'Open Sans'" transform="translate(0 -8.7)"><tspan dy="0em" x="0">Queries</tspan></text></g><g transform="translate(1381.2852 1791.5386)" pointer-events="none"><rect fill="#fff" rx="3" ry="3" width="211.09792" height="26.125" transform="translate(-105.5 -13.1)"/><text font-size="19" y=".8em" text-anchor="middle" fill="#707070" font-family="'Open Sans'" transform="translate(0 -6.9)"><tspan dy="0em" x="0">[gRPC, mTLS, OAuth2.0]</tspan></text></g></g></g><g transform="translate(0 -2)"><path stroke="#707070" stroke-width="2" stroke-dasharray="30, 30" fill="none" d="M1765 738h-280"/><path fill="#707070" stroke="#707070" d="M1485 728l-20 10 20 10z"/><path fill="none" d="M1765 738h-280"/><g cursor="move"><g transform="translate(1625 738)" pointer-events="none"><rect fill="#fff" rx="3" ry="3" stroke="#fff" stroke-width="20" width="171.2" height="61.8" transform="translate(-84.4 -30.9)"/><text font-size="24" y=".8em" text-anchor="middle" fill="#707070" font-family="'Open Sans'" transform="translate(0 -23.1)"><tspan dy="0em" x="0">Interacts localy</tspan><tspan dy="1.2em" x="0">with</tspan></text></g><g transform="translate(1625 781.2)" pointer-events="none"><rect fill="#fff" rx="3" ry="3" width="256.34167" height="26.125" transform="translate(-128.2 -13.1)"/><text font-size="19" y=".8em" text-anchor="middle" fill="#707070" font-family="'Open Sans'" transform="translate(0 -6.9)"><tspan dy="0em" x="0">[CoAPs over UDP, DTLS, ACL]</tspan></text></g></g></g><g transform="translate(0 -2)"><path stroke="#707070" stroke-width="2" stroke-dasharray="30, 30" fill="none" d="M1040 346L716 576"/><path fill="#707070" stroke="#707070" d="M710.49532 568.25542l-10.4953 19.74459 22.09284-3.45051z"/><path fill="none" d="M1040 346L716 576"/><g cursor="move"><g transform="translate(878 461)" pointer-events="none"><rect fill="#fff" rx="3" ry="3" stroke="#fff" stroke-width="20" width="56.5" height="33" transform="translate(-27.7 -16.5)"/><text font-size="24" y=".8em" text-anchor="middle" fill="#707070" font-family="'Open Sans'" transform="translate(0 -8.7)"><tspan dy="0em" x="0">Uses</tspan></text></g><g transform="translate(878 492.2)" pointer-events="none"><rect fill="#fff" rx="3" ry="3" width="164.34999" height="26.125" transform="translate(-82.2 -13.1)"/><text font-size="19" y=".8em" text-anchor="middle" fill="#707070" font-family="'Open Sans'" transform="translate(0 -6.9)"><tspan dy="0em" x="0">[HTTPS, OAuth2.0]</tspan></text></g></g></g><g transform="translate(0 -2)"><path stroke="#707070" stroke-width="2" stroke-dasharray="30, 30" fill="none" d="M490 1488v280"/><path fill="#707070" stroke="#707070" d="M480 1768l10 20 10-20z"/><path fill="none" d="M490 1488v280"/><g cursor="move"><g transform="translate(490 1628)" pointer-events="none"><rect fill="#fff" rx="3" ry="3" stroke="#fff" stroke-width="20" width="91.04999" height="33" transform="translate(-45.3 -16.5)"/><text font-size="24" y=".8em" text-anchor="middle" fill="#707070" font-family="'Open Sans'" transform="translate(0 -8.7)"><tspan dy="0em" x="0">Queries</tspan></text></g><g transform="translate(490 1659.2)" pointer-events="none"><rect fill="#fff" rx="3" ry="3" width="211.09792" height="26.125" transform="translate(-105.5 -13.1)"/><text font-size="19" y=".8em" text-anchor="middle" fill="#707070" font-family="'Open Sans'" transform="translate(0 -6.9)"><tspan dy="0em" x="0">[gRPC, mTLS, OAuth2.0]</tspan></text></g></g></g><g transform="translate(0 -2)"><path stroke="#707070" stroke-width="2" stroke-dasharray="30, 30" fill="none" d="M1015 2953l-283-184"/><path fill="#707070" stroke="#707070" d="M737.21879 2760.51546l-22.21876-2.51533 11.31899 19.2842z"/><path fill="none" d="M1015 2953l-283-184"/><g cursor="move"><g transform="translate(873.5 2861)" pointer-events="none"><rect fill="#fff" rx="3" ry="3" stroke="#fff" stroke-width="20" width="198.90001" height="61.8" transform="translate(-98.9 -30.9)"/><text font-size="24" y=".8em" text-anchor="middle" fill="#707070" font-family="'Open Sans'" transform="translate(0 -23.1)"><tspan dy="0em" x="0">On behalf of user</tspan><tspan dy="1.2em" x="0">interacts with</tspan></text></g><g transform="translate(873.5 2904.2)" pointer-events="none"><rect fill="#fff" rx="3" ry="3" width="164.34999" height="26.125" transform="translate(-82.2 -13.1)"/><text font-size="19" y=".8em" text-anchor="middle" fill="#707070" font-family="'Open Sans'" transform="translate(0 -6.9)"><tspan dy="0em" x="0">[HTTPS, OAuth2.0]</tspan></text></g></g></g><g transform="translate(0 -2)"><path stroke="#707070" stroke-width="2" stroke-dasharray="30, 30" fill="none" d="M1240 888v280"/><path fill="#707070" stroke="#707070" d="M1230 1168l10 20 10-20z"/><path fill="none" d="M1240 888v280"/><g cursor="move"><g transform="translate(1240 1028)" pointer-events="none"><rect fill="#fff" rx="3" ry="3" stroke="#fff" stroke-width="20" width="151.34999" height="61.8" transform="translate(-75 -30.9)"/><text font-size="24" y=".8em" text-anchor="middle" fill="#707070" font-family="'Open Sans'" transform="translate(0 -23.1)"><tspan dy="0em" x="0">Remotely</tspan><tspan dy="1.2em" x="0">controlled by</tspan></text></g><g transform="translate(1240 1071.2)" pointer-events="none"><rect fill="#fff" rx="3" ry="3" width="315.24167" height="26.125" transform="translate(-157.60001 -13.1)"/><text font-size="19" y=".8em" text-anchor="middle" fill="#707070" font-family="'Open Sans'" transform="translate(0 -6.9)"><tspan dy="0em" x="0">[CoAPs over TCP, mTLS*, OAuth2.0]</tspan></text></g></g></g></svg>