<svg xmlns="http://www.w3.org/2000/svg" xmlns:xlink="http://www.w3.org/1999/xlink" version="1.1" viewBox="0 0 3508 2480" style="background: #ffffff"><g id="v-3"  transform="matrix(1,0,0,1,0,0)"><g id="j_367"    transform="translate(20,2435)"><g id="v-5782"><text  id="v-5783" font-size="22px" y="0.8em" xml:space="preserve" font-weight="normal" text-anchor="start" fill="#777777" pointer-events="none" font-family="Open Sans" transform="matrix(1,0,0,1,0,0)" display="none"><tspan id="v-5784"  dy="0em" x="0">Wednesday, December 16, 2020, 10:49 AM Central European Standard Time</tspan></text></g></g><g id="j_366"    transform="translate(20,2389)"><g id="v-5778"><text  id="v-5779" font-size="36px" y="0.8em" xml:space="preserve" font-weight="normal" text-anchor="start" fill="#000000" pointer-events="none" font-family="Open Sans" transform="matrix(1,0,0,1,0,0)" display="none"><tspan id="v-5780"  dy="0em" x="0">System Context diagram for plgd Cloud</tspan></text></g></g><g id="j_354"    transform="translate(1170,885)" style=""><g id="v-5541"><rect  id="v-5542" width="490" height="1013" rx="0" ry="0" fill="#ffffff" stroke="#444444" stroke-width="2" stroke-dasharray="20,20" pointer-events="none"></rect><text  id="v-5543" font-size="24px" y="974" xml:space="preserve" font-weight="normal" fill="#444444" x="10" text-anchor="start" pointer-events="visible" font-family="Open Sans" transform="matrix(1,0,0,1,15,0)"><tspan id="v-5545"  dy="0em" x="0">Enterprise</tspan></text><text  id="v-5544" font-size="19px" y="998" xml:space="preserve" font-weight="normal" fill="#444444" x="10" text-anchor="start" pointer-events="visible" font-family="Open Sans" transform="matrix(1,0,0,1,15,0)"><tspan id="v-5546"  dy="0em" x="0">[Enterprise]</tspan></text></g></g><g id="j_353"    transform="translate(1190,905)" style="" ><g  id="v-5529" style="opacity: 1;"><rect  id="v-5530" rx="1" ry="1" stroke="#2962a9" stroke-width="2" pointer-events="visiblePainted" fill="#2e6dbc" width="450" height="300"></rect><text  id="v-5531" font-size="34" y="0.8em" xml:space="preserve" font-weight="bold" text-anchor="middle" pointer-events="visible" font-family="Open Sans" fill="#000000" transform="matrix(1,0,0,1,225,75)"><tspan id="v-5536"  dy="0em" x="0">IoT System</tspan></text><text  id="v-5532" font-size="19" y="0.8em" xml:space="preserve" text-anchor="middle" font-family="Open Sans" fill="#000000" transform="matrix(1,0,0,1,225,115)"><tspan id="v-5537"  dy="0em" x="0">[Software System]</tspan></text><text  id="v-5533" font-size="24" y="0.8em" xml:space="preserve" text-anchor="middle" font-family="Open Sans" fill="#000000" transform="matrix(1,0,0,1,225,165)"><tspan id="v-5538"  dy="0em" x="0">Enterprise system leveraging plgd</tspan><tspan id="v-5539"  dy="1.2em" x="0">platform</tspan></text><text  id="v-5534" font-weight="bold" text-anchor="middle" font-family="Open Sans" fill="#000000" font-size="24" transform="matrix(1,0,0,1,225,270)" y="0.8em" display="none" xml:space="preserve"><tspan id="v-5547"  dy="0em" x="0" style="fill-opacity: 0; stroke-opacity: 0;">-</tspan></text><image  id="v-5535"></image></g></g><g id="j_355"    transform="translate(1215,205)" style=""><g  id="v-5551" style="opacity: 1;"><rect  x="0" y="160" width="400" height="240" rx="70" id="v-5553" stroke="#d3a723" stroke-width="2" pointer-events="visiblePainted" fill="#eab927"></rect><circle  cx="200" cy="88.88888888888889" r="88.88888888888889" id="v-5552" stroke="#d3a723" stroke-width="2" pointer-events="visiblePainted" fill="#eab927"></circle><line  x1="80" y1="266.6666666666667" x2="80" y2="400" style="stroke-width:2px" id="v-5559" stroke="#d3a723"></line><line  x1="320" y1="266.6666666666667" x2="320" y2="400" style="stroke-width:2px" id="v-5560" stroke="#d3a723"></line><text  id="v-5554" font-size="34px" y="0.8em" xml:space="preserve" font-weight="bold" text-anchor="middle" pointer-events="visible" font-family="Open Sans" fill="#000000" transform="matrix(1,0,0,1,200,205)"><tspan id="v-5561"  dy="0em" x="0">User</tspan></text><text  id="v-5555" font-size="19px" y="0.8em" xml:space="preserve" text-anchor="middle" font-family="Open Sans" fill="#000000" transform="matrix(1,0,0,1,200,245)"><tspan id="v-5562"  dy="0em" x="0">[Person]</tspan></text><text  id="v-5556" font-size="24px" y="0.8em" xml:space="preserve" text-anchor="middle" font-family="Open Sans" fill="#000000" transform="matrix(1,0,0,1,200,295)"><tspan id="v-5563"  dy="0em" x="0">User working with resources</tspan><tspan id="v-5564"  dy="1.2em" x="0">provided by devices or services</tspan></text><text  id="v-5557" font-weight="bold" text-anchor="middle" font-family="Open Sans" fill="#000000" font-size="24" transform="matrix(1,0,0,1,200,371.20001220703125)" display="none"></text><image  id="v-5558"></image></g></g><g id="j_356"    transform="translate(1990,600)" style="" ><g  id="v-5568" style="opacity: 1;"><rect  id="v-5569" rx="20" ry="20" stroke="#5fa117" stroke-width="2" pointer-events="visiblePainted" fill="#6ab31a" width="450" height="300"></rect><text  id="v-5570" font-size="34" y="0.8em" xml:space="preserve" font-weight="bold" text-anchor="middle" pointer-events="visible" font-family="Open Sans" fill="#000000" transform="matrix(1,0,0,1,225,75)"><tspan id="v-5575"  dy="0em" x="0">Device</tspan></text><text  id="v-5571" font-size="19" y="0.8em" xml:space="preserve" text-anchor="middle" font-family="Open Sans" fill="#000000" transform="matrix(1,0,0,1,225,115)"><tspan id="v-5576"  dy="0em" x="0">[Software System]</tspan></text><text  id="v-5572" font-size="24" y="0.8em" xml:space="preserve" text-anchor="middle" font-family="Open Sans" fill="#000000" transform="matrix(1,0,0,1,225,165)"><tspan id="v-5577"  dy="0em" x="0">A device exposing its resources using</tspan><tspan id="v-5578"  dy="1.2em" x="0">OCF Standards</tspan></text><text  id="v-5573" font-weight="bold" text-anchor="middle" font-family="Open Sans" fill="#000000" font-size="24" transform="matrix(1,0,0,1,225,270)" y="0.8em" xml:space="preserve" display="none"><tspan id="v-5579"  dy="0em" x="0">#</tspan></text><image  id="v-5574"></image></g></g><g id="j_357"    transform="translate(1990,1516)" style="" ><g  id="v-5585" style="opacity: 1;"><rect  id="v-5586" rx="1" ry="1" stroke="#c7c7c7" stroke-width="2" pointer-events="visiblePainted" fill="#dddddd" width="450" height="300"></rect><text  id="v-5587" font-size="34" y="0.8em" xml:space="preserve" font-weight="bold" text-anchor="middle" pointer-events="visible" font-family="Open Sans" fill="#000000" transform="matrix(1,0,0,1,225,75)"><tspan id="v-5592"  dy="0em" x="0">Authorization Server</tspan></text><text  id="v-5588" font-size="19" y="0.8em" xml:space="preserve" text-anchor="middle" font-family="Open Sans" fill="#000000" transform="matrix(1,0,0,1,225,115)"><tspan id="v-5593"  dy="0em" x="0">[Software System]</tspan></text><text  id="v-5589" font-size="24" y="0.8em" xml:space="preserve" text-anchor="middle" font-family="Open Sans" fill="#000000" transform="matrix(1,0,0,1,225,165)"><tspan id="v-5594"  dy="0em" x="0">An OAuth2.0 server authorizing and</tspan><tspan id="v-5595"  dy="1.2em" x="0">storing users and devices identities</tspan></text><text  id="v-5590" font-weight="bold" text-anchor="middle" font-family="Open Sans" fill="#000000" font-size="24" transform="matrix(1,0,0,1,225,270)" y="0.8em" display="none" xml:space="preserve"><tspan id="v-5596"  dy="0em" x="0" style="fill-opacity: 0; stroke-opacity: 0;">-</tspan></text><image  id="v-5591"></image></g></g><g id="j_358"    transform="translate(1190,1505)" style="" ><g  id="v-5600" style="opacity: 1;"><rect  id="v-5601" rx="1" ry="1" stroke="#80b3cb" stroke-width="2" pointer-events="visiblePainted" fill="#8ec7e1" width="450" height="300"></rect><text  id="v-5602" font-size="34" y="0.8em" xml:space="preserve" font-weight="bold" text-anchor="middle" pointer-events="visible" font-family="Open Sans" fill="#000000" transform="matrix(1,0,0,1,225,45)"><tspan id="v-5607"  dy="0em" x="0">plgd Cloud</tspan></text><text  id="v-5603" font-size="19" y="0.8em" xml:space="preserve" text-anchor="middle" font-family="Open Sans" fill="#000000" transform="matrix(1,0,0,1,225,85)"><tspan id="v-5608"  dy="0em" x="0">[Software System]</tspan></text><text  id="v-5604" font-size="24" y="0.8em" xml:space="preserve" text-anchor="middle" font-family="Open Sans" fill="#000000" transform="matrix(1,0,0,1,225,135)"><tspan id="v-5609"  dy="0em" x="0">An IoT bacbone responsible for</tspan><tspan id="v-5610"  dy="1.2em" x="0">information exchange between</tspan><tspan id="v-5611"  dy="1.2em" x="0">devices and systems connected over</tspan><tspan id="v-5612"  dy="1.2em" x="0">plgd APIs</tspan></text><text  id="v-5605" font-weight="bold" text-anchor="middle" font-family="Open Sans" fill="#000000" font-size="24" transform="matrix(1,0,0,1,225,270)" y="0.8em" xml:space="preserve" display="none"><tspan id="v-5613"  dy="0em" x="0">+#</tspan></text><image  id="v-5606"></image></g></g><g id="j_359"    transform="translate(360,1505)" style="" ><g  id="v-5619" style="opacity: 1;"><rect  id="v-5620" rx="1" ry="1" stroke="#c7c7c7" stroke-width="2" pointer-events="visiblePainted" fill="#dddddd" width="450" height="300"></rect><text  id="v-5621" font-size="34" y="0.8em" xml:space="preserve" font-weight="bold" text-anchor="middle" pointer-events="visible" font-family="Open Sans" fill="#000000" transform="matrix(1,0,0,1,225,75)"><tspan id="v-5626"  dy="0em" x="0">3rd-party IoT System</tspan></text><text  id="v-5622" font-size="19" y="0.8em" xml:space="preserve" text-anchor="middle" font-family="Open Sans" fill="#000000" transform="matrix(1,0,0,1,225,115)"><tspan id="v-5627"  dy="0em" x="0">[Software System]</tspan></text><text  id="v-5623" font-size="24" y="0.8em" xml:space="preserve" text-anchor="middle" font-family="Open Sans" fill="#000000" transform="matrix(1,0,0,1,225,165)"><tspan id="v-5628"  dy="0em" x="0">3rd-party IoT System supporting</tspan><tspan id="v-5629"  dy="1.2em" x="0">standardized OCF UCI</tspan></text><text  id="v-5624" font-weight="bold" text-anchor="middle" font-family="Open Sans" fill="#000000" font-size="24" transform="matrix(1,0,0,1,225,270)" y="0.8em" display="none" xml:space="preserve"><tspan id="v-5630"  dy="0em" x="0" style="fill-opacity: 0; stroke-opacity: 0;">-</tspan></text><image  id="v-5625"></image></g></g><g id="j_360"   ><path  stroke="#707070" id="v-5650" stroke-width="2" stroke-dasharray="30 30" fill="none" d="M 1415 1205 1415 1485" style="opacity: 1;"></path><path  fill="black" stroke="black" transform="translate(1415,1205) scale(1,1) rotate(-270)"></path><path  fill="#707070" stroke="#707070" id="v-5652" d="M 20 0 L 0 10 L 20 20 z" transform="translate(1405,1505) scale(1,1) rotate(-90)" style="opacity: 1;"></path><path  id="v-5651" fill="none" d="M 1415 1205 1415 1485" style=""></path><title ></title><g ><g  id="v-5638" label-idx="0" cursor="move" transform="translate(1415, 1345)" style="opacity: 1;"><rect id="v-5640" fill="#ffffff" rx="3" ry="3" stroke="#ffffff" stroke-width="20px" pointer-events="none" width="200.60000610351562" height="32.99999809265137" transform="matrix(1,0,0,1,-98.5999984741211,-16.5)"></rect><text id="v-5639" font-size="24px" y="0.8em" xml:space="preserve" text-anchor="middle" pointer-events="none" fill="#707070" font-family="Open Sans" font-weight="normal" transform="matrix(1,0,0,1,0,-8.699999809265137)"><tspan id="v-5641"  dy="0em" x="0">Integrates APIs of</tspan></text></g><g  id="v-5642" label-idx="1" cursor="move" transform="translate(1415, 1376.2)" style="opacity: 1;"><rect id="v-5644" fill="#ffffff" rx="3" ry="3" pointer-events="none" width="0" height="0" transform="matrix(1,0,0,1,0,0)"></rect><text id="v-5643" font-size="19px" y="0.8em" display="none" xml:space="preserve" text-anchor="middle" pointer-events="none" fill="#707070" font-family="Open Sans" font-weight="normal" transform="matrix(1,0,0,1,0,0)"><tspan id="v-5645"  dy="0em" x="0" style="fill-opacity: 0; stroke-opacity: 0;">-</tspan></text></g><g  id="v-5646" label-idx="2" cursor="move" transform="translate(1415, 1400.2)" style="opacity: 1;"><rect id="v-5648" fill="#ffffff" rx="3" ry="3" pointer-events="none"  display="none" width="0" height="0" transform="matrix(1,0,0,1,0,0)"></rect><text id="v-5647" font-size="19px" y="0.8em" display="none" xml:space="preserve" text-anchor="middle" pointer-events="none" fill="#707070" font-family="Open Sans" font-weight="normal"  transform="matrix(1,0,0,1,0,0)"><tspan id="v-5649"  dy="0em" x="0" style="fill-opacity: 0; stroke-opacity: 0;">-</tspan></text></g></g><g  display="none"></g><g  id="v-5654" display="none"><g  id="v-5635"><path  end="source" d="M 26 0 L 0 13 L 26 26 z"></path></g><g  id="v-5636"><path  end="target" d="M 26 0 L 0 13 L 26 26 z"></path></g></g><g  id="v-5653" display="none"><g  id="v-5634" transform="translate(1415, 1245) "><g  event="remove"><circle r="11"></circle><path transform="scale(.8) translate(-16, -16)" d="M24.778,21.419 19.276,15.917 24.777,10.415 21.949,7.585 16.447,13.087 10.945,7.585 8.117,10.415 13.618,15.917 8.116,21.419 10.946,24.248 16.447,18.746 21.948,24.248z"></path><title>Remove link.</title></g><g  event="link:options"><circle r="11" transform="translate(25)"></circle><path fill="white" transform="scale(.55) translate(29, -16)" d="M31.229,17.736c0.064-0.571,0.104-1.148,0.104-1.736s-0.04-1.166-0.104-1.737l-4.377-1.557c-0.218-0.716-0.504-1.401-0.851-2.05l1.993-4.192c-0.725-0.91-1.549-1.734-2.458-2.459l-4.193,1.994c-0.647-0.347-1.334-0.632-2.049-0.849l-1.558-4.378C17.165,0.708,16.588,0.667,16,0.667s-1.166,0.041-1.737,0.105L12.707,5.15c-0.716,0.217-1.401,0.502-2.05,0.849L6.464,4.005C5.554,4.73,4.73,5.554,4.005,6.464l1.994,4.192c-0.347,0.648-0.632,1.334-0.849,2.05l-4.378,1.557C0.708,14.834,0.667,15.412,0.667,16s0.041,1.165,0.105,1.736l4.378,1.558c0.217,0.715,0.502,1.401,0.849,2.049l-1.994,4.193c0.725,0.909,1.549,1.733,2.459,2.458l4.192-1.993c0.648,0.347,1.334,0.633,2.05,0.851l1.557,4.377c0.571,0.064,1.148,0.104,1.737,0.104c0.588,0,1.165-0.04,1.736-0.104l1.558-4.377c0.715-0.218,1.399-0.504,2.049-0.851l4.193,1.993c0.909-0.725,1.733-1.549,2.458-2.458l-1.993-4.193c0.347-0.647,0.633-1.334,0.851-2.049L31.229,17.736zM16,20.871c-2.69,0-4.872-2.182-4.872-4.871c0-2.69,2.182-4.872,4.872-4.872c2.689,0,4.871,2.182,4.871,4.872C20.871,18.689,18.689,20.871,16,20.871z"></path><title>Link options.</title></g></g></g></g><g id="j_361"   ><path  stroke="#707070" id="v-5675" stroke-width="2" stroke-dasharray="30 30" fill="none" d="M 1190 1655 830 1655" style="opacity: 1;"></path><path  fill="black" stroke="black" transform="translate(1190,1655) scale(1,1) rotate(-180)"></path><path  fill="#707070" stroke="#707070" id="v-5677" d="M 20 0 L 0 10 L 20 20 z" transform="translate(810,1645) scale(1,1) rotate(0)" style="opacity: 1;"></path><path  id="v-5676" fill="none" d="M 1190 1655 830 1655" style=""></path><title ></title><g ><g  id="v-5662" label-idx="0" cursor="move" transform="translate(1010, 1655)" style="opacity: 1;"><rect id="v-5664" fill="#ffffff" rx="3" ry="3" stroke="#ffffff" stroke-width="20px" pointer-events="none" width="175.4499969482422" height="61.79999923706055" transform="matrix(1,0,0,1,-87.0999984741211,-30.899999618530273)"></rect><text id="v-5663" font-size="24px" y="0.8em" xml:space="preserve" text-anchor="middle" pointer-events="none" fill="#707070" font-family="Open Sans" font-weight="normal" transform="matrix(1,0,0,1,0,-23.100000381469727)"><tspan id="v-5665"  dy="0em" x="0">Bridges devices</tspan><tspan id="v-5666"  dy="1.2em" x="0">to / from</tspan></text></g><g  id="v-5667" label-idx="1" cursor="move" transform="translate(1010, 1698.2)" style="opacity: 1;"><rect id="v-5669" fill="#ffffff" rx="3" ry="3" pointer-events="none" width="0" height="0" transform="matrix(1,0,0,1,0,0)"></rect><text id="v-5668" font-size="19px" y="0.8em" display="none" xml:space="preserve" text-anchor="middle" pointer-events="none" fill="#707070" font-family="Open Sans" font-weight="normal" transform="matrix(1,0,0,1,0,0)"><tspan id="v-5670"  dy="0em" x="0" style="fill-opacity: 0; stroke-opacity: 0;">-</tspan></text></g><g  id="v-5671" label-idx="2" cursor="move" transform="translate(1010, 1722.2)" style="opacity: 1;"><rect id="v-5673" fill="#ffffff" rx="3" ry="3" pointer-events="none"  display="none" width="0" height="0" transform="matrix(1,0,0,1,0,0)"></rect><text id="v-5672" font-size="19px" y="0.8em" display="none" xml:space="preserve" text-anchor="middle" pointer-events="none" fill="#707070" font-family="Open Sans" font-weight="normal"  transform="matrix(1,0,0,1,0,0)"><tspan id="v-5674"  dy="0em" x="0" style="fill-opacity: 0; stroke-opacity: 0;">-</tspan></text></g></g><g  display="none"></g><g  id="v-5679" display="none"><g  id="v-5659"><path  end="source" d="M 26 0 L 0 13 L 26 26 z"></path></g><g  id="v-5660"><path  end="target" d="M 26 0 L 0 13 L 26 26 z"></path></g></g><g  id="v-5678" display="none"><g  id="v-5658" transform="translate(1150, 1655) "><g  event="remove"><circle r="11"></circle><path transform="scale(.8) translate(-16, -16)" d="M24.778,21.419 19.276,15.917 24.777,10.415 21.949,7.585 16.447,13.087 10.945,7.585 8.117,10.415 13.618,15.917 8.116,21.419 10.946,24.248 16.447,18.746 21.948,24.248z"></path><title>Remove link.</title></g><g  event="link:options"><circle r="11" transform="translate(25)"></circle><path fill="white" transform="scale(.55) translate(29, -16)" d="M31.229,17.736c0.064-0.571,0.104-1.148,0.104-1.736s-0.04-1.166-0.104-1.737l-4.377-1.557c-0.218-0.716-0.504-1.401-0.851-2.05l1.993-4.192c-0.725-0.91-1.549-1.734-2.458-2.459l-4.193,1.994c-0.647-0.347-1.334-0.632-2.049-0.849l-1.558-4.378C17.165,0.708,16.588,0.667,16,0.667s-1.166,0.041-1.737,0.105L12.707,5.15c-0.716,0.217-1.401,0.502-2.05,0.849L6.464,4.005C5.554,4.73,4.73,5.554,4.005,6.464l1.994,4.192c-0.347,0.648-0.632,1.334-0.849,2.05l-4.378,1.557C0.708,14.834,0.667,15.412,0.667,16s0.041,1.165,0.105,1.736l4.378,1.558c0.217,0.715,0.502,1.401,0.849,2.049l-1.994,4.193c0.725,0.909,1.549,1.733,2.459,2.458l4.192-1.993c0.648,0.347,1.334,0.633,2.05,0.851l1.557,4.377c0.571,0.064,1.148,0.104,1.737,0.104c0.588,0,1.165-0.04,1.736-0.104l1.558-4.377c0.715-0.218,1.399-0.504,2.049-0.851l4.193,1.993c0.909-0.725,1.733-1.549,2.458-2.458l-1.993-4.193c0.347-0.647,0.633-1.334,0.851-2.049L31.229,17.736zM16,20.871c-2.69,0-4.872-2.182-4.872-4.871c0-2.69,2.182-4.872,4.872-4.872c2.689,0,4.871,2.182,4.871,4.872C20.871,18.689,18.689,20.871,16,20.871z"></path><title>Link options.</title></g></g></g></g><g id="j_362"   ><path  stroke="#707070" id="v-5700" stroke-width="2" stroke-dasharray="30 30" fill="none" d="M 1640 1658 1970 1663" style="opacity: 1;"></path><path  fill="black" stroke="black" transform="translate(1640,1658) scale(1,1) rotate(0.8184509447720814)"></path><path  fill="#707070" stroke="#707070" id="v-5702" d="M 20 0 L 0 10 L 20 20 z" transform="translate(1989.8570556640625,1672.9990234375) scale(1,1) rotate(-179.18154905522795)" style="opacity: 1;"></path><path  id="v-5701" fill="none" d="M 1640 1658 1970 1663" style=""></path><title ></title><g ><g  id="v-5687" label-idx="0" cursor="move" transform="translate(1805, 1660.5)" style="opacity: 1;"><rect id="v-5689" fill="#ffffff" rx="3" ry="3" stroke="#ffffff" stroke-width="20px" pointer-events="none" width="167.25" height="61.79999923706055" transform="matrix(1,0,0,1,-82.80000305175781,-30.899999618530273)"></rect><text id="v-5688" font-size="24px" y="0.8em" xml:space="preserve" text-anchor="middle" pointer-events="none" fill="#707070" font-family="Open Sans" font-weight="normal" transform="matrix(1,0,0,1,0,-23.100000381469727)"><tspan id="v-5690"  dy="0em" x="0">Authorizes</tspan><tspan id="v-5691"  dy="1.2em" x="0">requests using</tspan></text></g><g  id="v-5692" label-idx="1" cursor="move" transform="translate(1805, 1703.7)" style="opacity: 1;"><rect id="v-5694" fill="#ffffff" rx="3" ry="3" pointer-events="none" width="0" height="0" transform="matrix(1,0,0,1,0,0)"></rect><text id="v-5693" font-size="19px" y="0.8em" display="none" xml:space="preserve" text-anchor="middle" pointer-events="none" fill="#707070" font-family="Open Sans" font-weight="normal" transform="matrix(1,0,0,1,0,0)"><tspan id="v-5695"  dy="0em" x="0" style="fill-opacity: 0; stroke-opacity: 0;">-</tspan></text></g><g  id="v-5696" label-idx="2" cursor="move" transform="translate(1805, 1727.7)" style="opacity: 1;"><rect id="v-5698" fill="#ffffff" rx="3" ry="3" pointer-events="none"  display="none" width="0" height="0" transform="matrix(1,0,0,1,0,0)"></rect><text id="v-5697" font-size="19px" y="0.8em" display="none" xml:space="preserve" text-anchor="middle" pointer-events="none" fill="#707070" font-family="Open Sans" font-weight="normal"  transform="matrix(1,0,0,1,0,0)"><tspan id="v-5699"  dy="0em" x="0" style="fill-opacity: 0; stroke-opacity: 0;">-</tspan></text></g></g><g  display="none"></g><g  id="v-5704" display="none"><g  id="v-5684"><path  end="source" d="M 26 0 L 0 13 L 26 26 z"></path></g><g  id="v-5685"><path  end="target" d="M 26 0 L 0 13 L 26 26 z"></path></g></g><g  id="v-5703" display="none"><g  id="v-5683" transform="translate(1679.995361328125, 1658.60595703125) "><g  event="remove"><circle r="11"></circle><path transform="scale(.8) translate(-16, -16)" d="M24.778,21.419 19.276,15.917 24.777,10.415 21.949,7.585 16.447,13.087 10.945,7.585 8.117,10.415 13.618,15.917 8.116,21.419 10.946,24.248 16.447,18.746 21.948,24.248z"></path><title>Remove link.</title></g><g  event="link:options"><circle r="11" transform="translate(25)"></circle><path fill="white" transform="scale(.55) translate(29, -16)" d="M31.229,17.736c0.064-0.571,0.104-1.148,0.104-1.736s-0.04-1.166-0.104-1.737l-4.377-1.557c-0.218-0.716-0.504-1.401-0.851-2.05l1.993-4.192c-0.725-0.91-1.549-1.734-2.458-2.459l-4.193,1.994c-0.647-0.347-1.334-0.632-2.049-0.849l-1.558-4.378C17.165,0.708,16.588,0.667,16,0.667s-1.166,0.041-1.737,0.105L12.707,5.15c-0.716,0.217-1.401,0.502-2.05,0.849L6.464,4.005C5.554,4.73,4.73,5.554,4.005,6.464l1.994,4.192c-0.347,0.648-0.632,1.334-0.849,2.05l-4.378,1.557C0.708,14.834,0.667,15.412,0.667,16s0.041,1.165,0.105,1.736l4.378,1.558c0.217,0.715,0.502,1.401,0.849,2.049l-1.994,4.193c0.725,0.909,1.549,1.733,2.459,2.458l4.192-1.993c0.648,0.347,1.334,0.633,2.05,0.851l1.557,4.377c0.571,0.064,1.148,0.104,1.737,0.104c0.588,0,1.165-0.04,1.736-0.104l1.558-4.377c0.715-0.218,1.399-0.504,2.049-0.851l4.193,1.993c0.909-0.725,1.733-1.549,2.458-2.458l-1.993-4.193c0.347-0.647,0.633-1.334,0.851-2.049L31.229,17.736zM16,20.871c-2.69,0-4.872-2.182-4.872-4.871c0-2.69,2.182-4.872,4.872-4.872c2.689,0,4.871,2.182,4.871,4.872C20.871,18.689,18.689,20.871,16,20.871z"></path><title>Link options.</title></g></g></g></g><g id="j_363"   ><path  stroke="#707070" id="v-5725" stroke-width="2" stroke-dasharray="30 30" fill="none" d="M 1640 969 1971 843" style="opacity: 1;"></path><path  fill="black" stroke="black" transform="translate(1640,969) scale(1,1) rotate(-20.806790757321266)"></path><path  fill="#707070" stroke="#707070" id="v-5727" d="M 20 0 L 0 10 L 20 20 z" transform="translate(1993.55224609375,845.3478393554688) scale(1,1) rotate(-200.80679235350846)" style="opacity: 1;"></path><path  id="v-5726" fill="none" d="M 1640 969 1971 843" style=""></path><title ></title><g ><g  id="v-5712" label-idx="0" cursor="move" transform="translate(1805.5, 906)" style="opacity: 1;"><rect id="v-5714" fill="#ffffff" rx="3" ry="3" stroke="#ffffff" stroke-width="20px" pointer-events="none" width="171.1999969482422" height="61.79999923706055" transform="matrix(1,0,0,1,-84.4000015258789,-30.899999618530273)"></rect><text id="v-5713" font-size="24px" y="0.8em" xml:space="preserve" text-anchor="middle" pointer-events="none" fill="#707070" font-family="Open Sans" font-weight="normal" transform="matrix(1,0,0,1,0,-23.100000381469727)"><tspan id="v-5715"  dy="0em" x="0">Interacts localy</tspan><tspan id="v-5716"  dy="1.2em" x="0">with</tspan></text></g><g  id="v-5717" label-idx="1" cursor="move" transform="translate(1805.5, 949.2)" style="opacity: 1;"><rect id="v-5719" fill="#ffffff" rx="3" ry="3" pointer-events="none" width="0" height="0" transform="matrix(1,0,0,1,0,0)"></rect><text id="v-5718" font-size="19px" y="0.8em" display="none" xml:space="preserve" text-anchor="middle" pointer-events="none" fill="#707070" font-family="Open Sans" font-weight="normal" transform="matrix(1,0,0,1,0,0)"><tspan id="v-5720"  dy="0em" x="0" style="fill-opacity: 0; stroke-opacity: 0;">-</tspan></text></g><g  id="v-5721" label-idx="2" cursor="move" transform="translate(1805.5, 973.2)" style="opacity: 1;"><rect id="v-5723" fill="#ffffff" rx="3" ry="3" pointer-events="none"  display="none" width="0" height="0" transform="matrix(1,0,0,1,0,0)"></rect><text id="v-5722" font-size="19px" y="0.8em" display="none" xml:space="preserve" text-anchor="middle" pointer-events="none" fill="#707070" font-family="Open Sans" font-weight="normal"  transform="matrix(1,0,0,1,0,0)"><tspan id="v-5724"  dy="0em" x="0" style="fill-opacity: 0; stroke-opacity: 0;">-</tspan></text></g></g><g  display="none"></g><g  id="v-5729" display="none"><g  id="v-5709"><path  end="source" d="M 26 0 L 0 13 L 26 26 z"></path></g><g  id="v-5710"><path  end="target" d="M 26 0 L 0 13 L 26 26 z"></path></g></g><g  id="v-5728" display="none"><g  id="v-5708" transform="translate(1677.383056640625, 954.7695922851562) "><g  event="remove"><circle r="11"></circle><path transform="scale(.8) translate(-16, -16)" d="M24.778,21.419 19.276,15.917 24.777,10.415 21.949,7.585 16.447,13.087 10.945,7.585 8.117,10.415 13.618,15.917 8.116,21.419 10.946,24.248 16.447,18.746 21.948,24.248z"></path><title>Remove link.</title></g><g  event="link:options"><circle r="11" transform="translate(25)"></circle><path fill="white" transform="scale(.55) translate(29, -16)" d="M31.229,17.736c0.064-0.571,0.104-1.148,0.104-1.736s-0.04-1.166-0.104-1.737l-4.377-1.557c-0.218-0.716-0.504-1.401-0.851-2.05l1.993-4.192c-0.725-0.91-1.549-1.734-2.458-2.459l-4.193,1.994c-0.647-0.347-1.334-0.632-2.049-0.849l-1.558-4.378C17.165,0.708,16.588,0.667,16,0.667s-1.166,0.041-1.737,0.105L12.707,5.15c-0.716,0.217-1.401,0.502-2.05,0.849L6.464,4.005C5.554,4.73,4.73,5.554,4.005,6.464l1.994,4.192c-0.347,0.648-0.632,1.334-0.849,2.05l-4.378,1.557C0.708,14.834,0.667,15.412,0.667,16s0.041,1.165,0.105,1.736l4.378,1.558c0.217,0.715,0.502,1.401,0.849,2.049l-1.994,4.193c0.725,0.909,1.549,1.733,2.459,2.458l4.192-1.993c0.648,0.347,1.334,0.633,2.05,0.851l1.557,4.377c0.571,0.064,1.148,0.104,1.737,0.104c0.588,0,1.165-0.04,1.736-0.104l1.558-4.377c0.715-0.218,1.399-0.504,2.049-0.851l4.193,1.993c0.909-0.725,1.733-1.549,2.458-2.458l-1.993-4.193c0.347-0.647,0.633-1.334,0.851-2.049L31.229,17.736zM16,20.871c-2.69,0-4.872-2.182-4.872-4.871c0-2.69,2.182-4.872,4.872-4.872c2.689,0,4.871,2.182,4.871,4.872C20.871,18.689,18.689,20.871,16,20.871z"></path><title>Link options.</title></g></g></g></g><g id="j_364"   ><path  stroke="#707070" id="v-5750" stroke-width="2" stroke-dasharray="30 30" fill="none" d="M 2082 900 1561 1490" style="opacity: 1;"></path><path  fill="black" stroke="black" transform="translate(2082,900) scale(1,1) rotate(-228.56694027614842)"></path><path  fill="#707070" stroke="#707070" id="v-5752" d="M 20 0 L 0 10 L 20 20 z" transform="translate(1540.502685546875,1498.382568359375) scale(1,1) rotate(-48.5669402761484)" style="opacity: 1;"></path><path  id="v-5751" fill="none" d="M 2082 900 1561 1490" style=""></path><title ></title><g ><g  id="v-5737" label-idx="0" cursor="move" transform="translate(1821.5, 1195)" style="opacity: 1;"><rect id="v-5739" fill="#ffffff" rx="3" ry="3" stroke="#ffffff" stroke-width="20px" pointer-events="none" width="151.34999084472656" height="61.79999923706055" transform="matrix(1,0,0,1,-75,-30.899999618530273)"></rect><text id="v-5738" font-size="24px" y="0.8em" xml:space="preserve" text-anchor="middle" pointer-events="none" fill="#707070" font-family="Open Sans" font-weight="normal" transform="matrix(1,0,0,1,0,-23.100000381469727)"><tspan id="v-5740"  dy="0em" x="0">Remotely</tspan><tspan id="v-5741"  dy="1.2em" x="0">controlled by</tspan></text></g><g  id="v-5742" label-idx="1" cursor="move" transform="translate(1821.5, 1238.2)" style="opacity: 1;"><rect id="v-5744" fill="#ffffff" rx="3" ry="3" pointer-events="none" width="0" height="0" transform="matrix(1,0,0,1,0,0)"></rect><text id="v-5743" font-size="19px" y="0.8em" display="none" xml:space="preserve" text-anchor="middle" pointer-events="none" fill="#707070" font-family="Open Sans" font-weight="normal" transform="matrix(1,0,0,1,0,0)"><tspan id="v-5745"  dy="0em" x="0" style="fill-opacity: 0; stroke-opacity: 0;">-</tspan></text></g><g  id="v-5746" label-idx="2" cursor="move" transform="translate(1821.5, 1262.2)" style="opacity: 1;"><rect id="v-5748" fill="#ffffff" rx="3" ry="3" pointer-events="none"  display="none" width="0" height="0" transform="matrix(1,0,0,1,0,0)"></rect><text id="v-5747" font-size="19px" y="0.8em" display="none" xml:space="preserve" text-anchor="middle" pointer-events="none" fill="#707070" font-family="Open Sans" font-weight="normal"  transform="matrix(1,0,0,1,0,0)"><tspan id="v-5749"  dy="0em" x="0" style="fill-opacity: 0; stroke-opacity: 0;">-</tspan></text></g></g><g  display="none"></g><g  id="v-5754" display="none"><g  id="v-5734"><path  end="source" d="M 26 0 L 0 13 L 26 26 z"></path></g><g  id="v-5735"><path  end="target" d="M 26 0 L 0 13 L 26 26 z"></path></g></g><g  id="v-5753" display="none"><g  id="v-5733" transform="translate(2055.5234375, 929.983154296875) "><g  event="remove"><circle r="11"></circle><path transform="scale(.8) translate(-16, -16)" d="M24.778,21.419 19.276,15.917 24.777,10.415 21.949,7.585 16.447,13.087 10.945,7.585 8.117,10.415 13.618,15.917 8.116,21.419 10.946,24.248 16.447,18.746 21.948,24.248z"></path><title>Remove link.</title></g><g  event="link:options"><circle r="11" transform="translate(25)"></circle><path fill="white" transform="scale(.55) translate(29, -16)" d="M31.229,17.736c0.064-0.571,0.104-1.148,0.104-1.736s-0.04-1.166-0.104-1.737l-4.377-1.557c-0.218-0.716-0.504-1.401-0.851-2.05l1.993-4.192c-0.725-0.91-1.549-1.734-2.458-2.459l-4.193,1.994c-0.647-0.347-1.334-0.632-2.049-0.849l-1.558-4.378C17.165,0.708,16.588,0.667,16,0.667s-1.166,0.041-1.737,0.105L12.707,5.15c-0.716,0.217-1.401,0.502-2.05,0.849L6.464,4.005C5.554,4.73,4.73,5.554,4.005,6.464l1.994,4.192c-0.347,0.648-0.632,1.334-0.849,2.05l-4.378,1.557C0.708,14.834,0.667,15.412,0.667,16s0.041,1.165,0.105,1.736l4.378,1.558c0.217,0.715,0.502,1.401,0.849,2.049l-1.994,4.193c0.725,0.909,1.549,1.733,2.459,2.458l4.192-1.993c0.648,0.347,1.334,0.633,2.05,0.851l1.557,4.377c0.571,0.064,1.148,0.104,1.737,0.104c0.588,0,1.165-0.04,1.736-0.104l1.558-4.377c0.715-0.218,1.399-0.504,2.049-0.851l4.193,1.993c0.909-0.725,1.733-1.549,2.458-2.458l-1.993-4.193c0.347-0.647,0.633-1.334,0.851-2.049L31.229,17.736zM16,20.871c-2.69,0-4.872-2.182-4.872-4.871c0-2.69,2.182-4.872,4.872-4.872c2.689,0,4.871,2.182,4.871,4.872C20.871,18.689,18.689,20.871,16,20.871z"></path><title>Link options.</title></g></g></g></g><g id="j_365"   ><path  stroke="#707070" id="v-5772" stroke-width="2" stroke-dasharray="30 30" fill="none" d="M 1415 605 1415 885" style="opacity: 1;"></path><path  fill="black" stroke="black" transform="translate(1415,605) scale(1,1) rotate(-270)"></path><path  fill="#707070" stroke="#707070" id="v-5774" d="M 20 0 L 0 10 L 20 20 z" transform="translate(1405,905) scale(1,1) rotate(-90)" style="opacity: 1;"></path><path  id="v-5773" fill="none" d="M 1415 605 1415 885" style=""></path><title ></title><g ><g  id="v-5760" label-idx="0" cursor="move" transform="translate(1415, 745)" style="opacity: 1;"><rect id="v-5762" fill="#ffffff" rx="3" ry="3" stroke="#ffffff" stroke-width="20px" pointer-events="none" width="56.5" height="32.99999809265137" transform="matrix(1,0,0,1,-27.700000762939453,-16.5)"></rect><text id="v-5761" font-size="24px" y="0.8em" xml:space="preserve" text-anchor="middle" pointer-events="none" fill="#707070" font-family="Open Sans" font-weight="normal" transform="matrix(1,0,0,1,0,-8.699999809265137)"><tspan id="v-5763"  dy="0em" x="0">Uses</tspan></text></g><g  id="v-5764" label-idx="1" cursor="move" transform="translate(1415, 776.2)" style="opacity: 1;"><rect id="v-5766" fill="#ffffff" rx="3" ry="3" pointer-events="none" width="0" height="0" transform="matrix(1,0,0,1,0,0)"></rect><text id="v-5765" font-size="19px" y="0.8em" display="none" xml:space="preserve" text-anchor="middle" pointer-events="none" fill="#707070" font-family="Open Sans" font-weight="normal" transform="matrix(1,0,0,1,0,0)"><tspan id="v-5767"  dy="0em" x="0" style="fill-opacity: 0; stroke-opacity: 0;">-</tspan></text></g><g  id="v-5768" label-idx="2" cursor="move" transform="translate(1415, 800.2)" style="opacity: 1;"><rect id="v-5770" fill="#ffffff" rx="3" ry="3" pointer-events="none"  display="none" width="0" height="0" transform="matrix(1,0,0,1,0,0)"></rect><text id="v-5769" font-size="19px" y="0.8em" display="none" xml:space="preserve" text-anchor="middle" pointer-events="none" fill="#707070" font-family="Open Sans" font-weight="normal"  transform="matrix(1,0,0,1,0,0)"><tspan id="v-5771"  dy="0em" x="0" style="fill-opacity: 0; stroke-opacity: 0;">-</tspan></text></g></g><g  display="none"></g><g  id="v-5776" display="none"><g  id="v-5757"><path  end="source" d="M 26 0 L 0 13 L 26 26 z"></path></g><g  id="v-5758"><path  end="target" d="M 26 0 L 0 13 L 26 26 z"></path></g></g><g  id="v-5775" display="none"><g  id="v-5756" transform="translate(1415, 645) "><g  event="remove"><circle r="11"></circle><path transform="scale(.8) translate(-16, -16)" d="M24.778,21.419 19.276,15.917 24.777,10.415 21.949,7.585 16.447,13.087 10.945,7.585 8.117,10.415 13.618,15.917 8.116,21.419 10.946,24.248 16.447,18.746 21.948,24.248z"></path><title>Remove link.</title></g><g  event="link:options"><circle r="11" transform="translate(25)"></circle><path fill="white" transform="scale(.55) translate(29, -16)" d="M31.229,17.736c0.064-0.571,0.104-1.148,0.104-1.736s-0.04-1.166-0.104-1.737l-4.377-1.557c-0.218-0.716-0.504-1.401-0.851-2.05l1.993-4.192c-0.725-0.91-1.549-1.734-2.458-2.459l-4.193,1.994c-0.647-0.347-1.334-0.632-2.049-0.849l-1.558-4.378C17.165,0.708,16.588,0.667,16,0.667s-1.166,0.041-1.737,0.105L12.707,5.15c-0.716,0.217-1.401,0.502-2.05,0.849L6.464,4.005C5.554,4.73,4.73,5.554,4.005,6.464l1.994,4.192c-0.347,0.648-0.632,1.334-0.849,2.05l-4.378,1.557C0.708,14.834,0.667,15.412,0.667,16s0.041,1.165,0.105,1.736l4.378,1.558c0.217,0.715,0.502,1.401,0.849,2.049l-1.994,4.193c0.725,0.909,1.549,1.733,2.459,2.458l4.192-1.993c0.648,0.347,1.334,0.633,2.05,0.851l1.557,4.377c0.571,0.064,1.148,0.104,1.737,0.104c0.588,0,1.165-0.04,1.736-0.104l1.558-4.377c0.715-0.218,1.399-0.504,2.049-0.851l4.193,1.993c0.909-0.725,1.733-1.549,2.458-2.458l-1.993-4.193c0.347-0.647,0.633-1.334,0.851-2.049L31.229,17.736zM16,20.871c-2.69,0-4.872-2.182-4.872-4.871c0-2.69,2.182-4.872,4.872-4.872c2.689,0,4.871,2.182,4.871,4.872C20.871,18.689,18.689,20.871,16,20.871z"></path><title>Link options.</title></g></g></g></g></g><defs id="v-4"></defs></svg>