<svg xmlns="http://www.w3.org/2000/svg" viewBox="0 0 2480 1695"><g transform="translate(1010 681)"><rect width="490" height="1013" rx="0" ry="0" fill="#fff" stroke="#444" stroke-width="2" stroke-dasharray="20, 20" pointer-events="none"/><text font-size="24" y="974" fill="#444" x="10" pointer-events="visible" font-family="'Open Sans'" transform="translate(15)"><tspan dy="0em" x="0">Enterprise</tspan></text><text font-size="19" y="998" fill="#444" x="10" pointer-events="visible" font-family="'Open Sans'" transform="translate(15)"><tspan dy="0em" x="0">[Enterprise]</tspan></text></g><g transform="translate(1030 701)"><rect rx="1" ry="1" stroke="#2962a9" stroke-width="2" pointer-events="visiblePainted" fill="#2e6dbc" width="450" height="300"/><text font-size="34" y=".8em" font-weight="bold" text-anchor="middle" pointer-events="visible" font-family="'Open Sans'" transform="translate(225 75)"><tspan dy="0em" x="0">IoT System</tspan></text><text font-size="19" y=".8em" text-anchor="middle" font-family="'Open Sans'" transform="translate(225 115)"><tspan dy="0em" x="0">[Software System]</tspan></text><text font-size="24" y=".8em" text-anchor="middle" font-family="'Open Sans'" transform="translate(225 165)"><tspan dy="0em" x="0">Enterprise system leveraging plgd</tspan><tspan dy="1.2em" x="0">platform</tspan></text><image/></g><g transform="translate(1055 1)"><rect y="160" width="400" height="240" rx="70" stroke="#d3a723" stroke-width="2" pointer-events="visiblePainted" fill="#eab927"/><circle cx="200" cy="88.88889" r="88.88889" stroke="#d3a723" stroke-width="2" pointer-events="visiblePainted" fill="#eab927"/><path stroke="#d3a723" stroke-width="2" d="M80 266.66666V400M320 266.66666V400"/><text font-size="34" y=".8em" font-weight="bold" text-anchor="middle" pointer-events="visible" font-family="'Open Sans'" transform="translate(200 205)"><tspan dy="0em" x="0">User</tspan></text><text font-size="19" y=".8em" text-anchor="middle" font-family="'Open Sans'" transform="translate(200 245)"><tspan dy="0em" x="0">[Person]</tspan></text><text font-size="24" y=".8em" text-anchor="middle" font-family="'Open Sans'" transform="translate(200 295)"><tspan dy="0em" x="0">User working with resources</tspan><tspan dy="1.2em" x="0">provided by devices or services</tspan></text><image/></g><g transform="translate(1830 396)"><rect rx="20" ry="20" stroke="#5fa117" stroke-width="2" pointer-events="visiblePainted" fill="#6ab31a" width="450" height="300"/><text font-size="34" y=".8em" font-weight="bold" text-anchor="middle" pointer-events="visible" font-family="'Open Sans'" transform="translate(225 75)"><tspan dy="0em" x="0">Device</tspan></text><text font-size="19" y=".8em" text-anchor="middle" font-family="'Open Sans'" transform="translate(225 115)"><tspan dy="0em" x="0">[Software System]</tspan></text><text font-size="24" y=".8em" text-anchor="middle" font-family="'Open Sans'" transform="translate(225 165)"><tspan dy="0em" x="0">A device exposing its resources using</tspan><tspan dy="1.2em" x="0">OCF Standards</tspan></text><image/></g><g transform="translate(1830 1312)"><rect rx="1" ry="1" stroke="#c7c7c7" stroke-width="2" pointer-events="visiblePainted" fill="#ddd" width="450" height="300"/><text font-size="34" y=".8em" font-weight="bold" text-anchor="middle" pointer-events="visible" font-family="'Open Sans'" transform="translate(225 75)"><tspan dy="0em" x="0">Authorization Server</tspan></text><text font-size="19" y=".8em" text-anchor="middle" font-family="'Open Sans'" transform="translate(225 115)"><tspan dy="0em" x="0">[Software System]</tspan></text><text font-size="24" y=".8em" text-anchor="middle" font-family="'Open Sans'" transform="translate(225 165)"><tspan dy="0em" x="0">An OAuth2.0 server authorizing and</tspan><tspan dy="1.2em" x="0">storing users and devices identities</tspan></text><image/></g><g transform="translate(1030 1301)"><rect rx="1" ry="1" stroke="#80b3cb" stroke-width="2" pointer-events="visiblePainted" fill="#8ec7e1" width="450" height="300"/><text font-size="34" y=".8em" font-weight="bold" text-anchor="middle" pointer-events="visible" font-family="'Open Sans'" transform="translate(225 45)"><tspan dy="0em" x="0">plgd Cloud</tspan></text><text font-size="19" y=".8em" text-anchor="middle" font-family="'Open Sans'" transform="translate(225 85)"><tspan dy="0em" x="0">[Software System]</tspan></text><text font-size="24" y=".8em" text-anchor="middle" font-family="'Open Sans'" transform="translate(225 135)"><tspan dy="0em" x="0">An IoT bacbone responsible for</tspan><tspan dy="1.2em" x="0">information exchange between</tspan><tspan dy="1.2em" x="0">devices and systems connected over</tspan><tspan dy="1.2em" x="0">plgd APIs</tspan></text><image/></g><g transform="translate(200 1301)"><rect rx="1" ry="1" stroke="#c7c7c7" stroke-width="2" pointer-events="visiblePainted" fill="#ddd" width="450" height="300"/><text font-size="34" y=".8em" font-weight="bold" text-anchor="middle" pointer-events="visible" font-family="'Open Sans'" transform="translate(225 75)"><tspan dy="0em" x="0">3rd-party IoT System</tspan></text><text font-size="19" y=".8em" text-anchor="middle" font-family="'Open Sans'" transform="translate(225 115)"><tspan dy="0em" x="0">[Software System]</tspan></text><text font-size="24" y=".8em" text-anchor="middle" font-family="'Open Sans'" transform="translate(225 165)"><tspan dy="0em" x="0">3rd-party IoT System supporting</tspan><tspan dy="1.2em" x="0">standardized OCF UCI</tspan></text><image/></g><g transform="translate(-160 -204)"><path stroke="#707070" stroke-width="2" stroke-dasharray="30, 30" fill="none" d="M1415 1205v280"/><path fill="#707070" stroke="#707070" d="M1405 1485l10 20 10-20z"/><path fill="none" d="M1415 1205v280"/><g cursor="move"><g transform="translate(1415 1345)" pointer-events="none"><rect fill="#fff" rx="3" ry="3" stroke="#fff" stroke-width="20" width="200.60001" height="33" transform="translate(-98.6 -16.5)"/><text font-size="24" y=".8em" text-anchor="middle" fill="#707070" font-family="'Open Sans'" transform="translate(0 -8.7)"><tspan dy="0em" x="0">Integrates APIs of</tspan></text></g></g></g><g transform="translate(-160 -204)"><path stroke="#707070" stroke-width="2" stroke-dasharray="30, 30" fill="none" d="M1190 1655H830"/><path fill="#707070" stroke="#707070" d="M830 1645l-20 10 20 10z"/><path fill="none" d="M1190 1655H830"/><g cursor="move"><g transform="translate(1010 1655)" pointer-events="none"><rect fill="#fff" rx="3" ry="3" stroke="#fff" stroke-width="20" width="175.45" height="61.8" transform="translate(-87.1 -30.9)"/><text font-size="24" y=".8em" text-anchor="middle" fill="#707070" font-family="'Open Sans'" transform="translate(0 -23.1)"><tspan dy="0em" x="0">Bridges devices</tspan><tspan dy="1.2em" x="0">to / from</tspan></text></g></g></g><g transform="translate(-160 -204)"><path stroke="#707070" stroke-width="2" stroke-dasharray="30, 30" fill="none" d="M1640 1658l330 5"/><path fill="#707070" stroke="#707070" d="M1969.85914 1672.71332l20.1408-9.7133-19.85512-10.28466z"/><path fill="none" d="M1640 1658l330 5"/><g cursor="move"><g transform="translate(1805 1660.5)" pointer-events="none"><rect fill="#fff" rx="3" ry="3" stroke="#fff" stroke-width="20" width="167.25" height="61.8" transform="translate(-82.8 -30.9)"/><text font-size="24" y=".8em" text-anchor="middle" fill="#707070" font-family="'Open Sans'" transform="translate(0 -23.1)"><tspan dy="0em" x="0">Authorizes</tspan><tspan dy="1.2em" x="0">requests using</tspan></text></g></g></g><g transform="translate(-160 -204)"><path stroke="#707070" stroke-width="2" stroke-dasharray="30, 30" fill="none" d="M1640 969l331-126"/><path fill="#707070" stroke="#707070" d="M1974.85656 852.45225l15.1435-16.4522-22.24786-2.24347z"/><path fill="none" d="M1640 969l331-126"/><g cursor="move"><g transform="translate(1805.5 906)" pointer-events="none"><rect fill="#fff" rx="3" ry="3" stroke="#fff" stroke-width="20" width="171.2" height="61.8" transform="translate(-84.4 -30.9)"/><text font-size="24" y=".8em" text-anchor="middle" fill="#707070" font-family="'Open Sans'" transform="translate(0 -23.1)"><tspan dy="0em" x="0">Interacts localy</tspan><tspan dy="1.2em" x="0">with</tspan></text></g></g></g><g transform="translate(-160 -204)"><path stroke="#707070" stroke-width="2" stroke-dasharray="30, 30" fill="none" d="M2082 900l-521 590"/><path fill="#707070" stroke="#707070" d="M1553.73758 1483.388l-5.7376 21.61203 20.73218-8.37714z"/><path fill="none" d="M2082 900l-521 590"/><g cursor="move"><g transform="translate(1821.5 1195)" pointer-events="none"><rect fill="#fff" rx="3" ry="3" stroke="#fff" stroke-width="20" width="151.34999" height="61.8" transform="translate(-75 -30.9)"/><text font-size="24" y=".8em" text-anchor="middle" fill="#707070" font-family="'Open Sans'" transform="translate(0 -23.1)"><tspan dy="0em" x="0">Remotely</tspan><tspan dy="1.2em" x="0">controlled by</tspan></text></g></g></g><g transform="translate(-160 -204)"><path stroke="#707070" stroke-width="2" stroke-dasharray="30, 30" fill="none" d="M1415 605v280"/><path fill="#707070" stroke="#707070" d="M1405 885l10 20 10-20z"/><path fill="none" d="M1415 605v280"/><g cursor="move"><g transform="translate(1415 745)" pointer-events="none"><rect fill="#fff" rx="3" ry="3" stroke="#fff" stroke-width="20" width="56.5" height="33" transform="translate(-27.7 -16.5)"/><text font-size="24" y=".8em" text-anchor="middle" fill="#707070" font-family="'Open Sans'" transform="translate(0 -8.7)"><tspan dy="0em" x="0">Uses</tspan></text></g></g></g></svg>