<svg xmlns="http://www.w3.org/2000/svg" xmlns:xlink="http://www.w3.org/1999/xlink" version="1.1" viewBox="0 0 3508 2480" style="background: #ffffff"><g id="v-3"  transform="matrix(1,0,0,1,0,0)"><g id="j_247"    transform="translate(20,2435)"><g id="v-3745"><text  id="v-3746" font-size="22px" y="0.8em" xml:space="preserve" font-weight="normal" text-anchor="start" fill="#777777" pointer-events="none" font-family="Open Sans" transform="matrix(1,0,0,1,0,0)" display="none"><tspan id="v-3747"  dy="0em" x="0">Thursday, November 19, 2020, 2:21 PM Central European Standard Time | Diagram created with Structurizr</tspan></text></g></g><g id="j_246"    transform="translate(20,2389)"><g id="v-3741"><text  id="v-3742" font-size="36px" y="0.8em" xml:space="preserve" font-weight="normal" text-anchor="start" fill="#000000" pointer-events="none" font-family="Open Sans" transform="matrix(1,0,0,1,0,0)" display="none"><tspan id="v-3743"  dy="0em" x="0">System Context diagram for plgd Cloud</tspan></text></g></g><g id="j_233"    transform="translate(1170,885)" style=""><g id="v-3500"><rect  id="v-3501" width="490" height="1013" rx="0" ry="0" fill="#ffffff" stroke="#444444" stroke-width="2" stroke-dasharray="20,20" pointer-events="none"></rect><text  id="v-3502" font-size="24px" y="974" xml:space="preserve" font-weight="normal" fill="#444444" x="10" text-anchor="start" pointer-events="visible" font-family="Open Sans" transform="matrix(1,0,0,1,15,0)"><tspan id="v-3504"  dy="0em" x="0">Enterprise</tspan></text><text  id="v-3503" font-size="19px" y="998" xml:space="preserve" font-weight="normal" fill="#444444" x="10" text-anchor="start" pointer-events="visible" font-family="Open Sans" transform="matrix(1,0,0,1,15,0)"><tspan id="v-3505"  dy="0em" x="0">[Enterprise]</tspan></text></g></g><g id="j_232"    transform="translate(1190,905)" style="" ><g  id="v-3488" style="opacity: 1;"><rect  id="v-3489" rx="1" ry="1" stroke="#2962a9" stroke-width="2" pointer-events="visiblePainted" fill="#2e6dbc" width="450" height="300"></rect><text  id="v-3490" font-size="34" y="0.8em" xml:space="preserve" font-weight="bold" text-anchor="middle" pointer-events="visible" font-family="Open Sans" fill="#000000" transform="matrix(1,0,0,1,225,75)"><tspan id="v-3495"  dy="0em" x="0">IoT System</tspan></text><text  id="v-3491" font-size="19" y="0.8em" xml:space="preserve" text-anchor="middle" font-family="Open Sans" fill="#000000" transform="matrix(1,0,0,1,225,115)"><tspan id="v-3496"  dy="0em" x="0">[Software System]</tspan></text><text  id="v-3492" font-size="24" y="0.8em" xml:space="preserve" text-anchor="middle" font-family="Open Sans" fill="#000000" transform="matrix(1,0,0,1,225,165)"><tspan id="v-3497"  dy="0em" x="0">Enterprise system leveraging plgd</tspan><tspan id="v-3498"  dy="1.2em" x="0">platform</tspan></text><text  id="v-3493" font-weight="bold" text-anchor="middle" font-family="Open Sans" fill="#000000" font-size="24" transform="matrix(1,0,0,1,225,270)" y="0.8em" display="none" xml:space="preserve"><tspan id="v-3506"  dy="0em" x="0" style="fill-opacity: 0; stroke-opacity: 0;">-</tspan></text><image  id="v-3494"></image></g></g><g id="j_234"    transform="translate(1215,205)" style=""><g  id="v-3510" style="opacity: 1;"><rect  x="0" y="160" width="400" height="240" rx="70" id="v-3512" stroke="#d3a723" stroke-width="2" pointer-events="visiblePainted" fill="#eab927"></rect><circle  cx="200" cy="88.88888888888889" r="88.88888888888889" id="v-3511" stroke="#d3a723" stroke-width="2" pointer-events="visiblePainted" fill="#eab927"></circle><line  x1="80" y1="266.6666666666667" x2="80" y2="400" style="stroke-width:2px" id="v-3518" stroke="#d3a723"></line><line  x1="320" y1="266.6666666666667" x2="320" y2="400" style="stroke-width:2px" id="v-3519" stroke="#d3a723"></line><text  id="v-3513" font-size="34px" y="0.8em" xml:space="preserve" font-weight="bold" text-anchor="middle" pointer-events="visible" font-family="Open Sans" fill="#000000" transform="matrix(1,0,0,1,200,205)"><tspan id="v-3520"  dy="0em" x="0">User</tspan></text><text  id="v-3514" font-size="19px" y="0.8em" xml:space="preserve" text-anchor="middle" font-family="Open Sans" fill="#000000" transform="matrix(1,0,0,1,200,245)"><tspan id="v-3521"  dy="0em" x="0">[Person]</tspan></text><text  id="v-3515" font-size="24px" y="0.8em" xml:space="preserve" text-anchor="middle" font-family="Open Sans" fill="#000000" transform="matrix(1,0,0,1,200,295)"><tspan id="v-3522"  dy="0em" x="0">User working with resources</tspan><tspan id="v-3523"  dy="1.2em" x="0">provided by devices or services</tspan></text><text  id="v-3516" font-weight="bold" text-anchor="middle" font-family="Open Sans" fill="#000000" font-size="24" transform="matrix(1,0,0,1,200,371.20001220703125)" display="none"></text><image  id="v-3517"></image></g></g><g id="j_235"    transform="translate(1990,600)" style="" ><g  id="v-3527" style="opacity: 1;"><rect  id="v-3528" rx="20" ry="20" stroke="#5fa117" stroke-width="2" pointer-events="visiblePainted" fill="#6ab31a" width="450" height="300"></rect><text  id="v-3529" font-size="34" y="0.8em" xml:space="preserve" font-weight="bold" text-anchor="middle" pointer-events="visible" font-family="Open Sans" fill="#000000" transform="matrix(1,0,0,1,225,75)"><tspan id="v-3534"  dy="0em" x="0">Device</tspan></text><text  id="v-3530" font-size="19" y="0.8em" xml:space="preserve" text-anchor="middle" font-family="Open Sans" fill="#000000" transform="matrix(1,0,0,1,225,115)"><tspan id="v-3535"  dy="0em" x="0">[Software System]</tspan></text><text  id="v-3531" font-size="24" y="0.8em" xml:space="preserve" text-anchor="middle" font-family="Open Sans" fill="#000000" transform="matrix(1,0,0,1,225,165)"><tspan id="v-3536"  dy="0em" x="0">A device exposing its resources using</tspan><tspan id="v-3537"  dy="1.2em" x="0">OCF Standards</tspan></text><text  id="v-3532" font-weight="bold" text-anchor="middle" font-family="Open Sans" fill="#000000" font-size="24" transform="matrix(1,0,0,1,225,270)" y="0.8em" xml:space="preserve" display="none"><tspan id="v-3538"  dy="0em" x="0">#</tspan></text><image  id="v-3533"></image></g></g><g id="j_236"    transform="translate(1990,1516)" style="" ><g  id="v-3544" style="opacity: 1;"><rect  id="v-3545" rx="1" ry="1" stroke="#c7c7c7" stroke-width="2" pointer-events="visiblePainted" fill="#dddddd" width="450" height="300"></rect><text  id="v-3546" font-size="34" y="0.8em" xml:space="preserve" font-weight="bold" text-anchor="middle" pointer-events="visible" font-family="Open Sans" fill="#000000" transform="matrix(1,0,0,1,225,75)"><tspan id="v-3551"  dy="0em" x="0">Authorization Server</tspan></text><text  id="v-3547" font-size="19" y="0.8em" xml:space="preserve" text-anchor="middle" font-family="Open Sans" fill="#000000" transform="matrix(1,0,0,1,225,115)"><tspan id="v-3552"  dy="0em" x="0">[Software System]</tspan></text><text  id="v-3548" font-size="24" y="0.8em" xml:space="preserve" text-anchor="middle" font-family="Open Sans" fill="#000000" transform="matrix(1,0,0,1,225,165)"><tspan id="v-3553"  dy="0em" x="0">An OAuth2.0 server authorizing and</tspan><tspan id="v-3554"  dy="1.2em" x="0">storing users and devices identities</tspan></text><text  id="v-3549" font-weight="bold" text-anchor="middle" font-family="Open Sans" fill="#000000" font-size="24" transform="matrix(1,0,0,1,225,270)" y="0.8em" display="none" xml:space="preserve"><tspan id="v-3555"  dy="0em" x="0" style="fill-opacity: 0; stroke-opacity: 0;">-</tspan></text><image  id="v-3550"></image></g></g><g id="j_237"    transform="translate(1190,1505)" style="" ><g  id="v-3559" style="opacity: 1;"><rect  id="v-3560" rx="1" ry="1" stroke="#80b3cb" stroke-width="2" pointer-events="visiblePainted" fill="#8ec7e1" width="450" height="300"></rect><text  id="v-3561" font-size="34" y="0.8em" xml:space="preserve" font-weight="bold" text-anchor="middle" pointer-events="visible" font-family="Open Sans" fill="#000000" transform="matrix(1,0,0,1,225,45)"><tspan id="v-3566"  dy="0em" x="0">plgd Cloud</tspan></text><text  id="v-3562" font-size="19" y="0.8em" xml:space="preserve" text-anchor="middle" font-family="Open Sans" fill="#000000" transform="matrix(1,0,0,1,225,85)"><tspan id="v-3567"  dy="0em" x="0">[Software System]</tspan></text><text  id="v-3563" font-size="24" y="0.8em" xml:space="preserve" text-anchor="middle" font-family="Open Sans" fill="#000000" transform="matrix(1,0,0,1,225,135)"><tspan id="v-3568"  dy="0em" x="0">An IoT bacbone responsible for</tspan><tspan id="v-3569"  dy="1.2em" x="0">information exchange between</tspan><tspan id="v-3570"  dy="1.2em" x="0">devices and systems connected over</tspan><tspan id="v-3571"  dy="1.2em" x="0">plgd APIs</tspan></text><text  id="v-3564" font-weight="bold" text-anchor="middle" font-family="Open Sans" fill="#000000" font-size="24" transform="matrix(1,0,0,1,225,270)" y="0.8em" xml:space="preserve" display="none"><tspan id="v-3572"  dy="0em" x="0">+#</tspan></text><image  id="v-3565"></image></g></g><g id="j_238"    transform="translate(360,1505)" style="" ><g  id="v-3578" style="opacity: 1;"><rect  id="v-3579" rx="1" ry="1" stroke="#c7c7c7" stroke-width="2" pointer-events="visiblePainted" fill="#dddddd" width="450" height="300"></rect><text  id="v-3580" font-size="34" y="0.8em" xml:space="preserve" font-weight="bold" text-anchor="middle" pointer-events="visible" font-family="Open Sans" fill="#000000" transform="matrix(1,0,0,1,225,75)"><tspan id="v-3585"  dy="0em" x="0">3rd-party IoT System</tspan></text><text  id="v-3581" font-size="19" y="0.8em" xml:space="preserve" text-anchor="middle" font-family="Open Sans" fill="#000000" transform="matrix(1,0,0,1,225,115)"><tspan id="v-3586"  dy="0em" x="0">[Software System]</tspan></text><text  id="v-3582" font-size="24" y="0.8em" xml:space="preserve" text-anchor="middle" font-family="Open Sans" fill="#000000" transform="matrix(1,0,0,1,225,165)"><tspan id="v-3587"  dy="0em" x="0">3rd-party IoT System supporting</tspan><tspan id="v-3588"  dy="1.2em" x="0">standardized OCF UCI</tspan></text><text  id="v-3583" font-weight="bold" text-anchor="middle" font-family="Open Sans" fill="#000000" font-size="24" transform="matrix(1,0,0,1,225,270)" y="0.8em" display="none" xml:space="preserve"><tspan id="v-3589"  dy="0em" x="0" style="fill-opacity: 0; stroke-opacity: 0;">-</tspan></text><image  id="v-3584"></image></g></g><g id="j_239"   ><path  stroke="#707070" id="v-3609" stroke-width="2" stroke-dasharray="30 30" fill="none" d="M 1415 1205 1415 1485" style="opacity: 1;"></path><path  fill="black" stroke="black" transform="translate(1415,1205) scale(1,1) rotate(-270)"></path><path  fill="#707070" stroke="#707070" id="v-3611" d="M 20 0 L 0 10 L 20 20 z" transform="translate(1405,1505) scale(1,1) rotate(-90)" style="opacity: 1;"></path><path  id="v-3610" fill="none" d="M 1415 1205 1415 1485" style=""></path><title ></title><g ><g  id="v-3597" label-idx="0" cursor="move" transform="translate(1415, 1345)" style="opacity: 1;"><rect id="v-3599" fill="#ffffff" rx="3" ry="3" stroke="#ffffff" stroke-width="20px" pointer-events="none" width="200.60000610351562" height="32.99999809265137" transform="matrix(1,0,0,1,-98.5999984741211,-16.5)"></rect><text id="v-3598" font-size="24px" y="0.8em" xml:space="preserve" text-anchor="middle" pointer-events="none" fill="#707070" font-family="Open Sans" font-weight="normal" transform="matrix(1,0,0,1,0,-8.699999809265137)"><tspan id="v-3600"  dy="0em" x="0">Integrates APIs of</tspan></text></g><g  id="v-3601" label-idx="1" cursor="move" transform="translate(1415, 1376.2)" style="opacity: 1;"><rect id="v-3603" fill="#ffffff" rx="3" ry="3" pointer-events="none" width="0" height="0" transform="matrix(1,0,0,1,0,0)"></rect><text id="v-3602" font-size="19px" y="0.8em" display="none" xml:space="preserve" text-anchor="middle" pointer-events="none" fill="#707070" font-family="Open Sans" font-weight="normal" transform="matrix(1,0,0,1,0,0)"><tspan id="v-3604"  dy="0em" x="0" style="fill-opacity: 0; stroke-opacity: 0;">-</tspan></text></g><g  id="v-3605" label-idx="2" cursor="move" transform="translate(1415, 1400.2)" style="opacity: 1;"><rect id="v-3607" fill="#ffffff" rx="3" ry="3" pointer-events="none"  display="none" width="0" height="0" transform="matrix(1,0,0,1,0,0)"></rect><text id="v-3606" font-size="19px" y="0.8em" display="none" xml:space="preserve" text-anchor="middle" pointer-events="none" fill="#707070" font-family="Open Sans" font-weight="normal"  transform="matrix(1,0,0,1,0,0)"><tspan id="v-3608"  dy="0em" x="0" style="fill-opacity: 0; stroke-opacity: 0;">-</tspan></text></g></g><g  display="none"></g><g  id="v-3613" display="none"><g  id="v-3594"><path  end="source" d="M 26 0 L 0 13 L 26 26 z"></path></g><g  id="v-3595"><path  end="target" d="M 26 0 L 0 13 L 26 26 z"></path></g></g><g  id="v-3612" display="none"><g  id="v-3593" transform="translate(1415, 1245) "><g  event="remove"><circle r="11"></circle><path transform="scale(.8) translate(-16, -16)" d="M24.778,21.419 19.276,15.917 24.777,10.415 21.949,7.585 16.447,13.087 10.945,7.585 8.117,10.415 13.618,15.917 8.116,21.419 10.946,24.248 16.447,18.746 21.948,24.248z"></path><title>Remove link.</title></g><g  event="link:options"><circle r="11" transform="translate(25)"></circle><path fill="white" transform="scale(.55) translate(29, -16)" d="M31.229,17.736c0.064-0.571,0.104-1.148,0.104-1.736s-0.04-1.166-0.104-1.737l-4.377-1.557c-0.218-0.716-0.504-1.401-0.851-2.05l1.993-4.192c-0.725-0.91-1.549-1.734-2.458-2.459l-4.193,1.994c-0.647-0.347-1.334-0.632-2.049-0.849l-1.558-4.378C17.165,0.708,16.588,0.667,16,0.667s-1.166,0.041-1.737,0.105L12.707,5.15c-0.716,0.217-1.401,0.502-2.05,0.849L6.464,4.005C5.554,4.73,4.73,5.554,4.005,6.464l1.994,4.192c-0.347,0.648-0.632,1.334-0.849,2.05l-4.378,1.557C0.708,14.834,0.667,15.412,0.667,16s0.041,1.165,0.105,1.736l4.378,1.558c0.217,0.715,0.502,1.401,0.849,2.049l-1.994,4.193c0.725,0.909,1.549,1.733,2.459,2.458l4.192-1.993c0.648,0.347,1.334,0.633,2.05,0.851l1.557,4.377c0.571,0.064,1.148,0.104,1.737,0.104c0.588,0,1.165-0.04,1.736-0.104l1.558-4.377c0.715-0.218,1.399-0.504,2.049-0.851l4.193,1.993c0.909-0.725,1.733-1.549,2.458-2.458l-1.993-4.193c0.347-0.647,0.633-1.334,0.851-2.049L31.229,17.736zM16,20.871c-2.69,0-4.872-2.182-4.872-4.871c0-2.69,2.182-4.872,4.872-4.872c2.689,0,4.871,2.182,4.871,4.872C20.871,18.689,18.689,20.871,16,20.871z"></path><title>Link options.</title></g></g></g></g><g id="j_240"   ><path  stroke="#707070" id="v-3634" stroke-width="2" stroke-dasharray="30 30" fill="none" d="M 1190 1655 830 1655" style="opacity: 1;"></path><path  fill="black" stroke="black" transform="translate(1190,1655) scale(1,1) rotate(-180)"></path><path  fill="#707070" stroke="#707070" id="v-3636" d="M 20 0 L 0 10 L 20 20 z" transform="translate(810,1645) scale(1,1) rotate(0)" style="opacity: 1;"></path><path  id="v-3635" fill="none" d="M 1190 1655 830 1655" style=""></path><title ></title><g ><g  id="v-3621" label-idx="0" cursor="move" transform="translate(1010, 1655)" style="opacity: 1;"><rect id="v-3623" fill="#ffffff" rx="3" ry="3" stroke="#ffffff" stroke-width="20px" pointer-events="none" width="175.4499969482422" height="61.799997329711914" transform="matrix(1,0,0,1,-87.0999984741211,-30.899999618530273)"></rect><text id="v-3622" font-size="24px" y="0.8em" xml:space="preserve" text-anchor="middle" pointer-events="none" fill="#707070" font-family="Open Sans" font-weight="normal" transform="matrix(1,0,0,1,0,-23.100000381469727)"><tspan id="v-3624"  dy="0em" x="0">Bridges devices</tspan><tspan id="v-3625"  dy="1.2em" x="0">to / from</tspan></text></g><g  id="v-3626" label-idx="1" cursor="move" transform="translate(1010, 1698.2)" style="opacity: 1;"><rect id="v-3628" fill="#ffffff" rx="3" ry="3" pointer-events="none" width="0" height="0" transform="matrix(1,0,0,1,0,0)"></rect><text id="v-3627" font-size="19px" y="0.8em" display="none" xml:space="preserve" text-anchor="middle" pointer-events="none" fill="#707070" font-family="Open Sans" font-weight="normal" transform="matrix(1,0,0,1,0,0)"><tspan id="v-3629"  dy="0em" x="0" style="fill-opacity: 0; stroke-opacity: 0;">-</tspan></text></g><g  id="v-3630" label-idx="2" cursor="move" transform="translate(1010, 1722.2)" style="opacity: 1;"><rect id="v-3632" fill="#ffffff" rx="3" ry="3" pointer-events="none"  display="none" width="0" height="0" transform="matrix(1,0,0,1,0,0)"></rect><text id="v-3631" font-size="19px" y="0.8em" display="none" xml:space="preserve" text-anchor="middle" pointer-events="none" fill="#707070" font-family="Open Sans" font-weight="normal"  transform="matrix(1,0,0,1,0,0)"><tspan id="v-3633"  dy="0em" x="0" style="fill-opacity: 0; stroke-opacity: 0;">-</tspan></text></g></g><g  display="none"></g><g  id="v-3638" display="none"><g  id="v-3618"><path  end="source" d="M 26 0 L 0 13 L 26 26 z"></path></g><g  id="v-3619"><path  end="target" d="M 26 0 L 0 13 L 26 26 z"></path></g></g><g  id="v-3637" display="none"><g  id="v-3617" transform="translate(1150, 1655) "><g  event="remove"><circle r="11"></circle><path transform="scale(.8) translate(-16, -16)" d="M24.778,21.419 19.276,15.917 24.777,10.415 21.949,7.585 16.447,13.087 10.945,7.585 8.117,10.415 13.618,15.917 8.116,21.419 10.946,24.248 16.447,18.746 21.948,24.248z"></path><title>Remove link.</title></g><g  event="link:options"><circle r="11" transform="translate(25)"></circle><path fill="white" transform="scale(.55) translate(29, -16)" d="M31.229,17.736c0.064-0.571,0.104-1.148,0.104-1.736s-0.04-1.166-0.104-1.737l-4.377-1.557c-0.218-0.716-0.504-1.401-0.851-2.05l1.993-4.192c-0.725-0.91-1.549-1.734-2.458-2.459l-4.193,1.994c-0.647-0.347-1.334-0.632-2.049-0.849l-1.558-4.378C17.165,0.708,16.588,0.667,16,0.667s-1.166,0.041-1.737,0.105L12.707,5.15c-0.716,0.217-1.401,0.502-2.05,0.849L6.464,4.005C5.554,4.73,4.73,5.554,4.005,6.464l1.994,4.192c-0.347,0.648-0.632,1.334-0.849,2.05l-4.378,1.557C0.708,14.834,0.667,15.412,0.667,16s0.041,1.165,0.105,1.736l4.378,1.558c0.217,0.715,0.502,1.401,0.849,2.049l-1.994,4.193c0.725,0.909,1.549,1.733,2.459,2.458l4.192-1.993c0.648,0.347,1.334,0.633,2.05,0.851l1.557,4.377c0.571,0.064,1.148,0.104,1.737,0.104c0.588,0,1.165-0.04,1.736-0.104l1.558-4.377c0.715-0.218,1.399-0.504,2.049-0.851l4.193,1.993c0.909-0.725,1.733-1.549,2.458-2.458l-1.993-4.193c0.347-0.647,0.633-1.334,0.851-2.049L31.229,17.736zM16,20.871c-2.69,0-4.872-2.182-4.872-4.871c0-2.69,2.182-4.872,4.872-4.872c2.689,0,4.871,2.182,4.871,4.872C20.871,18.689,18.689,20.871,16,20.871z"></path><title>Link options.</title></g></g></g></g><g id="j_241"   ><path  stroke="#707070" id="v-3659" stroke-width="2" stroke-dasharray="30 30" fill="none" d="M 1640 1658 1970 1663" style="opacity: 1;"></path><path  fill="black" stroke="black" transform="translate(1640,1658) scale(1,1) rotate(0.8184509447720814)"></path><path  fill="#707070" stroke="#707070" id="v-3661" d="M 20 0 L 0 10 L 20 20 z" transform="translate(1989.8570556640625,1672.9990234375) scale(1,1) rotate(-179.18154905522795)" style="opacity: 1;"></path><path  id="v-3660" fill="none" d="M 1640 1658 1970 1663" style=""></path><title ></title><g ><g  id="v-3646" label-idx="0" cursor="move" transform="translate(1805, 1660.5)" style="opacity: 1;"><rect id="v-3648" fill="#ffffff" rx="3" ry="3" stroke="#ffffff" stroke-width="20px" pointer-events="none" width="167.25" height="61.799997329711914" transform="matrix(1,0,0,1,-82.80000305175781,-30.899999618530273)"></rect><text id="v-3647" font-size="24px" y="0.8em" xml:space="preserve" text-anchor="middle" pointer-events="none" fill="#707070" font-family="Open Sans" font-weight="normal" transform="matrix(1,0,0,1,0,-23.100000381469727)"><tspan id="v-3649"  dy="0em" x="0">Authorizes</tspan><tspan id="v-3650"  dy="1.2em" x="0">requests using</tspan></text></g><g  id="v-3651" label-idx="1" cursor="move" transform="translate(1805, 1703.7)" style="opacity: 1;"><rect id="v-3653" fill="#ffffff" rx="3" ry="3" pointer-events="none" width="0" height="0" transform="matrix(1,0,0,1,0,0)"></rect><text id="v-3652" font-size="19px" y="0.8em" display="none" xml:space="preserve" text-anchor="middle" pointer-events="none" fill="#707070" font-family="Open Sans" font-weight="normal" transform="matrix(1,0,0,1,0,0)"><tspan id="v-3654"  dy="0em" x="0" style="fill-opacity: 0; stroke-opacity: 0;">-</tspan></text></g><g  id="v-3655" label-idx="2" cursor="move" transform="translate(1805, 1727.7)" style="opacity: 1;"><rect id="v-3657" fill="#ffffff" rx="3" ry="3" pointer-events="none"  display="none" width="0" height="0" transform="matrix(1,0,0,1,0,0)"></rect><text id="v-3656" font-size="19px" y="0.8em" display="none" xml:space="preserve" text-anchor="middle" pointer-events="none" fill="#707070" font-family="Open Sans" font-weight="normal"  transform="matrix(1,0,0,1,0,0)"><tspan id="v-3658"  dy="0em" x="0" style="fill-opacity: 0; stroke-opacity: 0;">-</tspan></text></g></g><g  display="none"></g><g  id="v-3663" display="none"><g  id="v-3643"><path  end="source" d="M 26 0 L 0 13 L 26 26 z"></path></g><g  id="v-3644"><path  end="target" d="M 26 0 L 0 13 L 26 26 z"></path></g></g><g  id="v-3662" display="none"><g  id="v-3642" transform="translate(1679.995361328125, 1658.60595703125) "><g  event="remove"><circle r="11"></circle><path transform="scale(.8) translate(-16, -16)" d="M24.778,21.419 19.276,15.917 24.777,10.415 21.949,7.585 16.447,13.087 10.945,7.585 8.117,10.415 13.618,15.917 8.116,21.419 10.946,24.248 16.447,18.746 21.948,24.248z"></path><title>Remove link.</title></g><g  event="link:options"><circle r="11" transform="translate(25)"></circle><path fill="white" transform="scale(.55) translate(29, -16)" d="M31.229,17.736c0.064-0.571,0.104-1.148,0.104-1.736s-0.04-1.166-0.104-1.737l-4.377-1.557c-0.218-0.716-0.504-1.401-0.851-2.05l1.993-4.192c-0.725-0.91-1.549-1.734-2.458-2.459l-4.193,1.994c-0.647-0.347-1.334-0.632-2.049-0.849l-1.558-4.378C17.165,0.708,16.588,0.667,16,0.667s-1.166,0.041-1.737,0.105L12.707,5.15c-0.716,0.217-1.401,0.502-2.05,0.849L6.464,4.005C5.554,4.73,4.73,5.554,4.005,6.464l1.994,4.192c-0.347,0.648-0.632,1.334-0.849,2.05l-4.378,1.557C0.708,14.834,0.667,15.412,0.667,16s0.041,1.165,0.105,1.736l4.378,1.558c0.217,0.715,0.502,1.401,0.849,2.049l-1.994,4.193c0.725,0.909,1.549,1.733,2.459,2.458l4.192-1.993c0.648,0.347,1.334,0.633,2.05,0.851l1.557,4.377c0.571,0.064,1.148,0.104,1.737,0.104c0.588,0,1.165-0.04,1.736-0.104l1.558-4.377c0.715-0.218,1.399-0.504,2.049-0.851l4.193,1.993c0.909-0.725,1.733-1.549,2.458-2.458l-1.993-4.193c0.347-0.647,0.633-1.334,0.851-2.049L31.229,17.736zM16,20.871c-2.69,0-4.872-2.182-4.872-4.871c0-2.69,2.182-4.872,4.872-4.872c2.689,0,4.871,2.182,4.871,4.872C20.871,18.689,18.689,20.871,16,20.871z"></path><title>Link options.</title></g></g></g></g><g id="j_242"   ><path  stroke="#707070" id="v-3684" stroke-width="2" stroke-dasharray="30 30" fill="none" d="M 1640 969 1971 843" style="opacity: 1;"></path><path  fill="black" stroke="black" transform="translate(1640,969) scale(1,1) rotate(-20.806790757321266)"></path><path  fill="#707070" stroke="#707070" id="v-3686" d="M 20 0 L 0 10 L 20 20 z" transform="translate(1993.55224609375,845.3478393554688) scale(1,1) rotate(-200.80679235350846)" style="opacity: 1;"></path><path  id="v-3685" fill="none" d="M 1640 969 1971 843" style=""></path><title ></title><g ><g  id="v-3671" label-idx="0" cursor="move" transform="translate(1805.5, 906)" style="opacity: 1;"><rect id="v-3673" fill="#ffffff" rx="3" ry="3" stroke="#ffffff" stroke-width="20px" pointer-events="none" width="171.1999969482422" height="61.799997329711914" transform="matrix(1,0,0,1,-84.4000015258789,-30.899999618530273)"></rect><text id="v-3672" font-size="24px" y="0.8em" xml:space="preserve" text-anchor="middle" pointer-events="none" fill="#707070" font-family="Open Sans" font-weight="normal" transform="matrix(1,0,0,1,0,-23.100000381469727)"><tspan id="v-3674"  dy="0em" x="0">Interacts localy</tspan><tspan id="v-3675"  dy="1.2em" x="0">with</tspan></text></g><g  id="v-3676" label-idx="1" cursor="move" transform="translate(1805.5, 949.2)" style="opacity: 1;"><rect id="v-3678" fill="#ffffff" rx="3" ry="3" pointer-events="none" width="0" height="0" transform="matrix(1,0,0,1,0,0)"></rect><text id="v-3677" font-size="19px" y="0.8em" display="none" xml:space="preserve" text-anchor="middle" pointer-events="none" fill="#707070" font-family="Open Sans" font-weight="normal" transform="matrix(1,0,0,1,0,0)"><tspan id="v-3679"  dy="0em" x="0" style="fill-opacity: 0; stroke-opacity: 0;">-</tspan></text></g><g  id="v-3680" label-idx="2" cursor="move" transform="translate(1805.5, 973.2)" style="opacity: 1;"><rect id="v-3682" fill="#ffffff" rx="3" ry="3" pointer-events="none"  display="none" width="0" height="0" transform="matrix(1,0,0,1,0,0)"></rect><text id="v-3681" font-size="19px" y="0.8em" display="none" xml:space="preserve" text-anchor="middle" pointer-events="none" fill="#707070" font-family="Open Sans" font-weight="normal"  transform="matrix(1,0,0,1,0,0)"><tspan id="v-3683"  dy="0em" x="0" style="fill-opacity: 0; stroke-opacity: 0;">-</tspan></text></g></g><g  display="none"></g><g  id="v-3688" display="none"><g  id="v-3668"><path  end="source" d="M 26 0 L 0 13 L 26 26 z"></path></g><g  id="v-3669"><path  end="target" d="M 26 0 L 0 13 L 26 26 z"></path></g></g><g  id="v-3687" display="none"><g  id="v-3667" transform="translate(1677.383056640625, 954.7695922851562) "><g  event="remove"><circle r="11"></circle><path transform="scale(.8) translate(-16, -16)" d="M24.778,21.419 19.276,15.917 24.777,10.415 21.949,7.585 16.447,13.087 10.945,7.585 8.117,10.415 13.618,15.917 8.116,21.419 10.946,24.248 16.447,18.746 21.948,24.248z"></path><title>Remove link.</title></g><g  event="link:options"><circle r="11" transform="translate(25)"></circle><path fill="white" transform="scale(.55) translate(29, -16)" d="M31.229,17.736c0.064-0.571,0.104-1.148,0.104-1.736s-0.04-1.166-0.104-1.737l-4.377-1.557c-0.218-0.716-0.504-1.401-0.851-2.05l1.993-4.192c-0.725-0.91-1.549-1.734-2.458-2.459l-4.193,1.994c-0.647-0.347-1.334-0.632-2.049-0.849l-1.558-4.378C17.165,0.708,16.588,0.667,16,0.667s-1.166,0.041-1.737,0.105L12.707,5.15c-0.716,0.217-1.401,0.502-2.05,0.849L6.464,4.005C5.554,4.73,4.73,5.554,4.005,6.464l1.994,4.192c-0.347,0.648-0.632,1.334-0.849,2.05l-4.378,1.557C0.708,14.834,0.667,15.412,0.667,16s0.041,1.165,0.105,1.736l4.378,1.558c0.217,0.715,0.502,1.401,0.849,2.049l-1.994,4.193c0.725,0.909,1.549,1.733,2.459,2.458l4.192-1.993c0.648,0.347,1.334,0.633,2.05,0.851l1.557,4.377c0.571,0.064,1.148,0.104,1.737,0.104c0.588,0,1.165-0.04,1.736-0.104l1.558-4.377c0.715-0.218,1.399-0.504,2.049-0.851l4.193,1.993c0.909-0.725,1.733-1.549,2.458-2.458l-1.993-4.193c0.347-0.647,0.633-1.334,0.851-2.049L31.229,17.736zM16,20.871c-2.69,0-4.872-2.182-4.872-4.871c0-2.69,2.182-4.872,4.872-4.872c2.689,0,4.871,2.182,4.871,4.872C20.871,18.689,18.689,20.871,16,20.871z"></path><title>Link options.</title></g></g></g></g><g id="j_243"   ><path  stroke="#707070" id="v-3706" stroke-width="2" stroke-dasharray="30 30" fill="none" d="M 1415 605 1415 885" style="opacity: 1;"></path><path  fill="black" stroke="black" transform="translate(1415,605) scale(1,1) rotate(-270)"></path><path  fill="#707070" stroke="#707070" id="v-3708" d="M 20 0 L 0 10 L 20 20 z" transform="translate(1405,905) scale(1,1) rotate(-90)" style="opacity: 1;"></path><path  id="v-3707" fill="none" d="M 1415 605 1415 885" style=""></path><title ></title><g ><g  id="v-3694" label-idx="0" cursor="move" transform="translate(1415, 745)" style="opacity: 1;"><rect id="v-3696" fill="#ffffff" rx="3" ry="3" stroke="#ffffff" stroke-width="20px" pointer-events="none" width="56.5" height="32.99999809265137" transform="matrix(1,0,0,1,-27.700000762939453,-16.5)"></rect><text id="v-3695" font-size="24px" y="0.8em" xml:space="preserve" text-anchor="middle" pointer-events="none" fill="#707070" font-family="Open Sans" font-weight="normal" transform="matrix(1,0,0,1,0,-8.699999809265137)"><tspan id="v-3697"  dy="0em" x="0">Uses</tspan></text></g><g  id="v-3698" label-idx="1" cursor="move" transform="translate(1415, 776.2)" style="opacity: 1;"><rect id="v-3700" fill="#ffffff" rx="3" ry="3" pointer-events="none" width="0" height="0" transform="matrix(1,0,0,1,0,0)"></rect><text id="v-3699" font-size="19px" y="0.8em" display="none" xml:space="preserve" text-anchor="middle" pointer-events="none" fill="#707070" font-family="Open Sans" font-weight="normal" transform="matrix(1,0,0,1,0,0)"><tspan id="v-3701"  dy="0em" x="0" style="fill-opacity: 0; stroke-opacity: 0;">-</tspan></text></g><g  id="v-3702" label-idx="2" cursor="move" transform="translate(1415, 800.2)" style="opacity: 1;"><rect id="v-3704" fill="#ffffff" rx="3" ry="3" pointer-events="none"  display="none" width="0" height="0" transform="matrix(1,0,0,1,0,0)"></rect><text id="v-3703" font-size="19px" y="0.8em" display="none" xml:space="preserve" text-anchor="middle" pointer-events="none" fill="#707070" font-family="Open Sans" font-weight="normal"  transform="matrix(1,0,0,1,0,0)"><tspan id="v-3705"  dy="0em" x="0" style="fill-opacity: 0; stroke-opacity: 0;">-</tspan></text></g></g><g  display="none"></g><g  id="v-3710" display="none"><g  id="v-3691"><path  end="source" d="M 26 0 L 0 13 L 26 26 z"></path></g><g  id="v-3692"><path  end="target" d="M 26 0 L 0 13 L 26 26 z"></path></g></g><g  id="v-3709" display="none"><g  id="v-3690" transform="translate(1415, 645) "><g  event="remove"><circle r="11"></circle><path transform="scale(.8) translate(-16, -16)" d="M24.778,21.419 19.276,15.917 24.777,10.415 21.949,7.585 16.447,13.087 10.945,7.585 8.117,10.415 13.618,15.917 8.116,21.419 10.946,24.248 16.447,18.746 21.948,24.248z"></path><title>Remove link.</title></g><g  event="link:options"><circle r="11" transform="translate(25)"></circle><path fill="white" transform="scale(.55) translate(29, -16)" d="M31.229,17.736c0.064-0.571,0.104-1.148,0.104-1.736s-0.04-1.166-0.104-1.737l-4.377-1.557c-0.218-0.716-0.504-1.401-0.851-2.05l1.993-4.192c-0.725-0.91-1.549-1.734-2.458-2.459l-4.193,1.994c-0.647-0.347-1.334-0.632-2.049-0.849l-1.558-4.378C17.165,0.708,16.588,0.667,16,0.667s-1.166,0.041-1.737,0.105L12.707,5.15c-0.716,0.217-1.401,0.502-2.05,0.849L6.464,4.005C5.554,4.73,4.73,5.554,4.005,6.464l1.994,4.192c-0.347,0.648-0.632,1.334-0.849,2.05l-4.378,1.557C0.708,14.834,0.667,15.412,0.667,16s0.041,1.165,0.105,1.736l4.378,1.558c0.217,0.715,0.502,1.401,0.849,2.049l-1.994,4.193c0.725,0.909,1.549,1.733,2.459,2.458l4.192-1.993c0.648,0.347,1.334,0.633,2.05,0.851l1.557,4.377c0.571,0.064,1.148,0.104,1.737,0.104c0.588,0,1.165-0.04,1.736-0.104l1.558-4.377c0.715-0.218,1.399-0.504,2.049-0.851l4.193,1.993c0.909-0.725,1.733-1.549,2.458-2.458l-1.993-4.193c0.347-0.647,0.633-1.334,0.851-2.049L31.229,17.736zM16,20.871c-2.69,0-4.872-2.182-4.872-4.871c0-2.69,2.182-4.872,4.872-4.872c2.689,0,4.871,2.182,4.871,4.872C20.871,18.689,18.689,20.871,16,20.871z"></path><title>Link options.</title></g></g></g></g><g id="j_244"   ><path  stroke="#707070" id="v-3731" stroke-width="2" stroke-dasharray="30 30" fill="none" d="M 1548 1505 2069 915" style="opacity: 1;"></path><path  fill="black" stroke="black" transform="translate(1548,1505) scale(1,1) rotate(-48.5669402761484)"></path><path  fill="#707070" stroke="#707070" id="v-3733" d="M 20 0 L 0 10 L 20 20 z" transform="translate(2089.497314453125,906.6174926757812) scale(1,1) rotate(-228.56694027614842)" style="opacity: 1;"></path><path  id="v-3732" fill="none" d="M 1548 1505 2069 915" style=""></path><title ></title><g ><g  id="v-3718" label-idx="0" cursor="move" transform="translate(1808.5, 1210)" style="opacity: 1;"><rect id="v-3720" fill="#ffffff" rx="3" ry="3" stroke="#ffffff" stroke-width="20px" pointer-events="none" width="156.1999969482422" height="61.799997329711914" transform="matrix(1,0,0,1,-78,-30.899999618530273)"></rect><text id="v-3719" font-size="24px" y="0.8em" xml:space="preserve" text-anchor="middle" pointer-events="none" fill="#707070" font-family="Open Sans" font-weight="normal" transform="matrix(1,0,0,1,0,-23.100000381469727)"><tspan id="v-3721"  dy="0em" x="0">Interacts</tspan><tspan id="v-3722"  dy="1.2em" x="0">remotely with</tspan></text></g><g  id="v-3723" label-idx="1" cursor="move" transform="translate(1808.5, 1253.2)" style="opacity: 1;"><rect id="v-3725" fill="#ffffff" rx="3" ry="3" pointer-events="none" width="0" height="0" transform="matrix(1,0,0,1,0,0)"></rect><text id="v-3724" font-size="19px" y="0.8em" display="none" xml:space="preserve" text-anchor="middle" pointer-events="none" fill="#707070" font-family="Open Sans" font-weight="normal" transform="matrix(1,0,0,1,0,0)"><tspan id="v-3726"  dy="0em" x="0" style="fill-opacity: 0; stroke-opacity: 0;">-</tspan></text></g><g  id="v-3727" label-idx="2" cursor="move" transform="translate(1808.5, 1277.2)" style="opacity: 1;"><rect id="v-3729" fill="#ffffff" rx="3" ry="3" pointer-events="none"  display="none" width="0" height="0" transform="matrix(1,0,0,1,0,0)"></rect><text id="v-3728" font-size="19px" y="0.8em" display="none" xml:space="preserve" text-anchor="middle" pointer-events="none" fill="#707070" font-family="Open Sans" font-weight="normal"  transform="matrix(1,0,0,1,0,0)"><tspan id="v-3730"  dy="0em" x="0" style="fill-opacity: 0; stroke-opacity: 0;">-</tspan></text></g></g><g  display="none"></g><g  id="v-3735" display="none"><g  id="v-3715"><path  end="source" d="M 26 0 L 0 13 L 26 26 z"></path></g><g  id="v-3716"><path  end="target" d="M 26 0 L 0 13 L 26 26 z"></path></g></g><g  id="v-3734" display="none"><g  id="v-3714" transform="translate(1574.4766845703125, 1475.016845703125) "><g  event="remove"><circle r="11"></circle><path transform="scale(.8) translate(-16, -16)" d="M24.778,21.419 19.276,15.917 24.777,10.415 21.949,7.585 16.447,13.087 10.945,7.585 8.117,10.415 13.618,15.917 8.116,21.419 10.946,24.248 16.447,18.746 21.948,24.248z"></path><title>Remove link.</title></g><g  event="link:options"><circle r="11" transform="translate(25)"></circle><path fill="white" transform="scale(.55) translate(29, -16)" d="M31.229,17.736c0.064-0.571,0.104-1.148,0.104-1.736s-0.04-1.166-0.104-1.737l-4.377-1.557c-0.218-0.716-0.504-1.401-0.851-2.05l1.993-4.192c-0.725-0.91-1.549-1.734-2.458-2.459l-4.193,1.994c-0.647-0.347-1.334-0.632-2.049-0.849l-1.558-4.378C17.165,0.708,16.588,0.667,16,0.667s-1.166,0.041-1.737,0.105L12.707,5.15c-0.716,0.217-1.401,0.502-2.05,0.849L6.464,4.005C5.554,4.73,4.73,5.554,4.005,6.464l1.994,4.192c-0.347,0.648-0.632,1.334-0.849,2.05l-4.378,1.557C0.708,14.834,0.667,15.412,0.667,16s0.041,1.165,0.105,1.736l4.378,1.558c0.217,0.715,0.502,1.401,0.849,2.049l-1.994,4.193c0.725,0.909,1.549,1.733,2.459,2.458l4.192-1.993c0.648,0.347,1.334,0.633,2.05,0.851l1.557,4.377c0.571,0.064,1.148,0.104,1.737,0.104c0.588,0,1.165-0.04,1.736-0.104l1.558-4.377c0.715-0.218,1.399-0.504,2.049-0.851l4.193,1.993c0.909-0.725,1.733-1.549,2.458-2.458l-1.993-4.193c0.347-0.647,0.633-1.334,0.851-2.049L31.229,17.736zM16,20.871c-2.69,0-4.872-2.182-4.872-4.871c0-2.69,2.182-4.872,4.872-4.872c2.689,0,4.871,2.182,4.871,4.872C20.871,18.689,18.689,20.871,16,20.871z"></path><title>Link options.</title></g></g></g></g><g id="j_245"    transform="translate(1753.5,640.9280184138532)"><g id="v-3737"><text  id="v-3738" font-size="584.6666666666666px" y="0.8em" xml:space="preserve" font-family="Open Sans" font-weight="bold" text-anchor="middle" dominant-baseline="baseline" pointer-events="none" stroke-width="0px" fill="#777777" stroke="#777777" opacity="0" transform="matrix(1,0,0,1,0,0)" style="display: block !important; visibility: visible !important"><tspan id="v-3739"  dy="0em" x="0">Structurizr</tspan></text></g></g></g><defs id="v-4"></defs></svg>