<?xml version="1.0" encoding="UTF-8"?>
<svg width="127px" height="35px" viewBox="0 0 127 35" version="1.1" xmlns="http://www.w3.org/2000/svg" xmlns:xlink="http://www.w3.org/1999/xlink">
    <!-- Generator: Sketch 62 (91390) - https://sketch.com -->
    <title>Icon/Logo/Big</title>
    <desc>Created with Sketch.</desc>
    <g id="Icon/Logo/Big" stroke="none" stroke-width="1" fill="none" fill-rule="evenodd">
        <g id="logo" fill-rule="nonzero">
            <g id="Group" transform="translate(47.768535, 15.326797)">
                <g id="b1aGPpscjK-link" fill="#255897">
                    <path d="M9.58815552,2.3630719 C9.99464738,3.08594771 10.1990416,3.9254902 10.1990416,4.88627451 C10.1990416,5.84477124 9.99464738,6.68431373 9.58815552,7.40718954 C9.18396022,8.13006536 8.62359855,8.68823529 7.91166365,9.08856209 C7.19743219,9.48660131 6.40511754,9.68562092 5.53471971,9.68562092 C4.34050633,9.68562092 3.40121157,9.31045752 2.71683544,8.55784314 C2.71683544,8.84836601 2.71683544,10.2986928 2.71683544,12.9088235 L0.0022965642,12.9088235 L0.0022965642,0.221895425 L2.59511754,0.221895425 C2.59511754,0.866993464 2.59511754,1.22614379 2.59511754,1.29705882 C3.26801085,0.489542484 4.24864376,0.0846405229 5.53471971,0.0846405229 C6.40511754,0.0846405229 7.19743219,0.283660131 7.91166365,0.683986928 C8.62359855,1.08202614 9.18396022,1.64248366 9.58815552,2.3630719 Z M7.45005425,4.88627451 C7.45005425,4.09934641 7.22499096,3.47254902 6.7794575,3.00588235 C6.33392405,2.5369281 5.76207957,2.30359477 5.06622061,2.30359477 C4.37036166,2.30359477 3.79851718,2.5369281 3.35298373,3.00588235 C2.90515371,3.47254902 2.68238698,4.09934641 2.68238698,4.88627451 C2.68238698,5.67091503 2.90515371,6.29771242 3.35298373,6.76666667 C3.79851718,7.23333333 4.37036166,7.46666667 5.06622061,7.46666667 C5.76207957,7.46666667 6.33392405,7.23333333 6.7794575,6.76666667 C7.22499096,6.29771242 7.45005425,5.67091503 7.45005425,4.88627451 Z" id="b1aGPpscjK"></path>
                </g>
                <g id="b1aGPpscjK-link" fill="#FFFFFF">
                    <path d="M9.58815552,2.3630719 C9.99464738,3.08594771 10.1990416,3.9254902 10.1990416,4.88627451 C10.1990416,5.84477124 9.99464738,6.68431373 9.58815552,7.40718954 C9.18396022,8.13006536 8.62359855,8.68823529 7.91166365,9.08856209 C7.19743219,9.48660131 6.40511754,9.68562092 5.53471971,9.68562092 C4.34050633,9.68562092 3.40121157,9.31045752 2.71683544,8.55784314 C2.71683544,8.84836601 2.71683544,10.2986928 2.71683544,12.9088235 L0.0022965642,12.9088235 L0.0022965642,0.221895425 L2.59511754,0.221895425 C2.59511754,0.866993464 2.59511754,1.22614379 2.59511754,1.29705882 C3.26801085,0.489542484 4.24864376,0.0846405229 5.53471971,0.0846405229 C6.40511754,0.0846405229 7.19743219,0.283660131 7.91166365,0.683986928 C8.62359855,1.08202614 9.18396022,1.64248366 9.58815552,2.3630719 Z M7.45005425,4.88627451 C7.45005425,4.09934641 7.22499096,3.47254902 6.7794575,3.00588235 C6.33392405,2.5369281 5.76207957,2.30359477 5.06622061,2.30359477 C4.37036166,2.30359477 3.79851718,2.5369281 3.35298373,3.00588235 C2.90515371,3.47254902 2.68238698,4.09934641 2.68238698,4.88627451 C2.68238698,5.67091503 2.90515371,6.29771242 3.35298373,6.76666667 C3.79851718,7.23333333 4.37036166,7.46666667 5.06622061,7.46666667 C5.76207957,7.46666667 6.33392405,7.23333333 6.7794575,6.76666667 C7.22499096,6.29771242 7.45005425,5.67091503 7.45005425,4.88627451 Z" id="b1aGPpscjK"></path>
                </g>
            </g>
            <g id="Group" transform="translate(59.710669, 11.895425)">
                <g id="c2DVdTMkFI-link" fill="#255897">
                    <path d="M0.0666003617,9.89379085 C0.0666003617,9.24183007 0.0666003617,5.98431373 0.0666003617,0.118954248 L2.77884268,0.118954248 C2.77884268,5.89052288 2.77884268,9.09771242 2.77884268,9.73823529 C2.77884268,10.1316993 2.88218807,10.4336601 3.08428571,10.6486928 C3.28638336,10.8614379 3.57345389,10.9689542 3.94549729,10.9689542 C4.0855877,10.9689542 4.22567812,10.9506536 4.37265823,10.9163399 C4.51734177,10.8820261 4.62987342,10.8408497 4.71025316,10.795098 C4.72403255,11.0055556 4.82048825,12.6823529 4.83197107,12.8928105 C4.37954792,13.0415033 3.91104882,13.1169935 3.42417722,13.1169935 C2.36775769,13.1169935 1.54329114,12.8379085 0.953074141,12.277451 C0.360560579,11.7169935 0.0666003617,10.9232026 0.0666003617,9.89379085 Z" id="c2DVdTMkFI"></path>
                </g>
                <g id="c2DVdTMkFI-link" fill="#FFFFFF">
                    <path d="M0.0666003617,9.89379085 C0.0666003617,9.24183007 0.0666003617,5.98431373 0.0666003617,0.118954248 L2.77884268,0.118954248 C2.77884268,5.89052288 2.77884268,9.09771242 2.77884268,9.73823529 C2.77884268,10.1316993 2.88218807,10.4336601 3.08428571,10.6486928 C3.28638336,10.8614379 3.57345389,10.9689542 3.94549729,10.9689542 C4.0855877,10.9689542 4.22567812,10.9506536 4.37265823,10.9163399 C4.51734177,10.8820261 4.62987342,10.8408497 4.71025316,10.795098 C4.72403255,11.0055556 4.82048825,12.6823529 4.83197107,12.8928105 C4.37954792,13.0415033 3.91104882,13.1169935 3.42417722,13.1169935 C2.36775769,13.1169935 1.54329114,12.8379085 0.953074141,12.277451 C0.360560579,11.7169935 0.0666003617,10.9232026 0.0666003617,9.89379085 Z" id="c2DVdTMkFI"></path>
                </g>
            </g>
            <g id="Group" transform="translate(65.681736, 15.326797)">
                <g id="agfznsME1-link" fill="#255897">
                    <path d="M10.5687884,7.98823529 C10.5687884,9.69705882 10.1209584,10.9689542 9.22759494,11.801634 C8.33423146,12.6320261 7.029783,13.048366 5.31424955,13.048366 C4.40940325,13.048366 3.55048825,12.9385621 2.73980108,12.7189542 C1.92681736,12.4993464 1.25392405,12.1813725 0.721121157,11.7650327 C0.829059675,11.5728758 1.69256781,10.0196078 1.80050633,9.8251634 C2.19321881,10.15 2.69157324,10.4062092 3.29556962,10.5960784 C3.899566,10.7882353 4.50126582,10.8820261 5.10526221,10.8820261 C6.04455696,10.8820261 6.73811935,10.6715686 7.1836528,10.2506536 C7.63148282,9.82745098 7.85424955,9.18921569 7.85424955,8.33366013 C7.85424955,8.29477124 7.85424955,7.97679739 7.85424955,7.93562092 C7.14690778,8.71111111 6.15938517,9.09771242 4.89627486,9.09771242 C4.03735986,9.09771242 3.2519349,8.91013072 2.53770344,8.53496732 C1.82576854,8.15751634 1.26081374,7.62908497 0.84283906,6.94738562 C0.424864376,6.26797386 0.215877034,5.48104575 0.215877034,4.59117647 C0.215877034,3.70130719 0.424864376,2.91666667 0.84283906,2.23496732 C1.26081374,1.55326797 1.82576854,1.0248366 2.53770344,0.649673203 C3.2519349,0.274509804 4.03735986,0.0869281046 4.89627486,0.0869281046 C6.2535443,0.0869281046 7.28470163,0.530718954 7.9920434,1.42058824 C7.9920434,1.34052288 7.9920434,0.94248366 7.9920434,0.226470588 L10.5687884,0.226470588 L10.5687884,0.224183007 L10.5687884,0.224183007 C10.5687884,4.88169935 10.5687884,7.47124183 10.5687884,7.98823529 Z M7.88869801,4.59117647 C7.88869801,3.90947712 7.66133816,3.35816993 7.20202532,2.9372549 C6.74271248,2.51405229 6.15479204,2.30359477 5.43596745,2.30359477 C4.71714286,2.30359477 4.12462929,2.51405229 3.66072333,2.9372549 C3.19911392,3.35816993 2.96716094,3.90947712 2.96716094,4.59117647 C2.96716094,5.27287582 3.19911392,5.82418301 3.66072333,6.24738562 C4.12462929,6.66830065 4.71714286,6.87875817 5.43596745,6.87875817 C6.15479204,6.87875817 6.74271248,6.66830065 7.20202532,6.24738562 C7.66133816,5.82418301 7.88869801,5.27287582 7.88869801,4.59117647 Z" id="agfznsME1"></path>
                </g>
                <g id="agfznsME1-link" fill="#FFFFFF">
                    <path d="M10.5687884,7.98823529 C10.5687884,9.69705882 10.1209584,10.9689542 9.22759494,11.801634 C8.33423146,12.6320261 7.029783,13.048366 5.31424955,13.048366 C4.40940325,13.048366 3.55048825,12.9385621 2.73980108,12.7189542 C1.92681736,12.4993464 1.25392405,12.1813725 0.721121157,11.7650327 C0.829059675,11.5728758 1.69256781,10.0196078 1.80050633,9.8251634 C2.19321881,10.15 2.69157324,10.4062092 3.29556962,10.5960784 C3.899566,10.7882353 4.50126582,10.8820261 5.10526221,10.8820261 C6.04455696,10.8820261 6.73811935,10.6715686 7.1836528,10.2506536 C7.63148282,9.82745098 7.85424955,9.18921569 7.85424955,8.33366013 C7.85424955,8.29477124 7.85424955,7.97679739 7.85424955,7.93562092 C7.14690778,8.71111111 6.15938517,9.09771242 4.89627486,9.09771242 C4.03735986,9.09771242 3.2519349,8.91013072 2.53770344,8.53496732 C1.82576854,8.15751634 1.26081374,7.62908497 0.84283906,6.94738562 C0.424864376,6.26797386 0.215877034,5.48104575 0.215877034,4.59117647 C0.215877034,3.70130719 0.424864376,2.91666667 0.84283906,2.23496732 C1.26081374,1.55326797 1.82576854,1.0248366 2.53770344,0.649673203 C3.2519349,0.274509804 4.03735986,0.0869281046 4.89627486,0.0869281046 C6.2535443,0.0869281046 7.28470163,0.530718954 7.9920434,1.42058824 C7.9920434,1.34052288 7.9920434,0.94248366 7.9920434,0.226470588 L10.5687884,0.226470588 L10.5687884,0.224183007 L10.5687884,0.224183007 C10.5687884,4.88169935 10.5687884,7.47124183 10.5687884,7.98823529 Z M7.88869801,4.59117647 C7.88869801,3.90947712 7.66133816,3.35816993 7.20202532,2.9372549 C6.74271248,2.51405229 6.15479204,2.30359477 5.43596745,2.30359477 C4.71714286,2.30359477 4.12462929,2.51405229 3.66072333,2.9372549 C3.19911392,3.35816993 2.96716094,3.90947712 2.96716094,4.59117647 C2.96716094,5.27287582 3.19911392,5.82418301 3.66072333,6.24738562 C4.12462929,6.66830065 4.71714286,6.87875817 5.43596745,6.87875817 C6.15479204,6.87875817 6.74271248,6.66830065 7.20202532,6.24738562 C7.66133816,5.82418301 7.88869801,5.27287582 7.88869801,4.59117647 Z" id="agfznsME1"></path>
                </g>
            </g>
            <g id="Group" transform="translate(106.101266, 15.326797)">
                <g id="ab0rLOvmD-link" fill="#255897">
                    <path d="M7.97367089,6.61797386 C8.11835443,6.77581699 9.27352622,8.02254902 9.41820976,8.17810458 C8.53632911,9.18235294 7.2479566,9.68562092 5.55538879,9.68562092 C4.49896926,9.68562092 3.56426763,9.48202614 2.75358047,9.07254902 C1.94059675,8.66078431 1.31593128,8.09117647 0.874990958,7.36372549 C0.434050633,6.63627451 0.21358047,5.81045752 0.21358047,4.88627451 C0.21358047,3.97352941 0.431754069,3.15 0.865804702,2.41568627 C1.29985533,1.68366013 1.89696203,1.10947712 2.65712477,0.7 C3.41728752,0.290522876 4.27390597,0.0846405229 5.22468354,0.0846405229 C6.11804702,0.0846405229 6.92873418,0.272222222 7.65904159,0.647385621 C8.39164557,1.0248366 8.97267631,1.56699346 9.40902351,2.27843137 C9.84307414,2.9875817 10.0612477,3.82941176 10.0612477,4.79934641 C9.36768535,4.93202614 3.82837251,6.0003268 3.13710669,6.13300654 C3.33461121,6.59509804 3.64464738,6.94281046 4.06721519,7.17385621 C4.489783,7.40490196 5.00880651,7.51928105 5.62428571,7.51928105 C6.11115732,7.51928105 6.54291139,7.44836601 6.92184448,7.30424837 C7.29848101,7.15784314 7.64755877,6.93137255 7.97367089,6.61797386 Z M2.87529837,4.60947712 C3.33001808,4.52026144 6.97696203,3.81339869 7.4339783,3.72418301 C7.30537071,3.23921569 7.04585895,2.85261438 6.65084991,2.56437908 C6.25584087,2.27385621 5.78045208,2.12973856 5.22468354,2.12973856 C4.54030741,2.12973856 3.98224231,2.34934641 3.55508137,2.78856209 C3.12562387,3.22777778 2.89826401,3.83398693 2.87529837,4.60947712 Z" id="ab0rLOvmD"></path>
                </g>
                <g id="ab0rLOvmD-link" fill="#FFFFFF">
                    <path d="M7.97367089,6.61797386 C8.11835443,6.77581699 9.27352622,8.02254902 9.41820976,8.17810458 C8.53632911,9.18235294 7.2479566,9.68562092 5.55538879,9.68562092 C4.49896926,9.68562092 3.56426763,9.48202614 2.75358047,9.07254902 C1.94059675,8.66078431 1.31593128,8.09117647 0.874990958,7.36372549 C0.434050633,6.63627451 0.21358047,5.81045752 0.21358047,4.88627451 C0.21358047,3.97352941 0.431754069,3.15 0.865804702,2.41568627 C1.29985533,1.68366013 1.89696203,1.10947712 2.65712477,0.7 C3.41728752,0.290522876 4.27390597,0.0846405229 5.22468354,0.0846405229 C6.11804702,0.0846405229 6.92873418,0.272222222 7.65904159,0.647385621 C8.39164557,1.0248366 8.97267631,1.56699346 9.40902351,2.27843137 C9.84307414,2.9875817 10.0612477,3.82941176 10.0612477,4.79934641 C9.36768535,4.93202614 3.82837251,6.0003268 3.13710669,6.13300654 C3.33461121,6.59509804 3.64464738,6.94281046 4.06721519,7.17385621 C4.489783,7.40490196 5.00880651,7.51928105 5.62428571,7.51928105 C6.11115732,7.51928105 6.54291139,7.44836601 6.92184448,7.30424837 C7.29848101,7.15784314 7.64755877,6.93137255 7.97367089,6.61797386 Z M2.87529837,4.60947712 C3.33001808,4.52026144 6.97696203,3.81339869 7.4339783,3.72418301 C7.30537071,3.23921569 7.04585895,2.85261438 6.65084991,2.56437908 C6.25584087,2.27385621 5.78045208,2.12973856 5.22468354,2.12973856 C4.54030741,2.12973856 3.98224231,2.34934641 3.55508137,2.78856209 C3.12562387,3.22777778 2.89826401,3.83398693 2.87529837,4.60947712 Z" id="ab0rLOvmD"></path>
                </g>
            </g>
            <g id="Group" transform="translate(94.159132, 11.895425)">
                <g id="b68FsJCSTf-link" fill="#255897">
                    <path d="M10.4241049,12.9797386 L7.83128391,12.9797386 C7.83128391,12.3346405 7.83128391,11.9754902 7.83128391,11.9045752 C7.1583906,12.7143791 6.18235081,13.1169935 4.90775769,13.1169935 C4.02587703,13.1169935 3.22896926,12.9202614 2.51473779,12.529085 C1.80280289,12.1356209 1.24244123,11.5751634 0.835949367,10.8477124 C0.429457505,10.1202614 0.227359855,9.27614379 0.227359855,8.31764706 C0.227359855,7.35915033 0.431754069,6.51503268 0.835949367,5.7875817 C1.24244123,5.06013072 1.80280289,4.4996732 2.51473779,4.10620915 C3.22896926,3.7127451 4.02587703,3.51601307 4.90775769,3.51601307 C6.10197107,3.51601307 7.03667269,3.89346405 7.709566,4.64379085 C7.709566,4.34183007 7.709566,2.83431373 7.709566,0.118954248 L10.4241049,0.118954248 L10.4241049,0.118954248 L10.4241049,12.9797386 Z M7.76009042,8.31764706 C7.76009042,7.53071895 7.53502712,6.90392157 7.08260398,6.4372549 C6.63018083,5.96830065 6.06063291,5.73496732 5.37625678,5.73496732 C4.68039783,5.73496732 4.10625678,5.96830065 3.65383363,6.4372549 C3.20141049,6.90392157 2.9763472,7.53071895 2.9763472,8.31764706 C2.9763472,9.10228758 3.20141049,9.72908497 3.65383363,10.1980392 C4.10855335,10.6647059 4.68039783,10.8980392 5.37625678,10.8980392 C6.06292948,10.8980392 6.63018083,10.6647059 7.08260398,10.1980392 C7.53502712,9.72908497 7.76009042,9.10228758 7.76009042,8.31764706 Z" id="b68FsJCSTf"></path>
                </g>
                <g id="b68FsJCSTf-link" fill="#FFFFFF">
                    <path d="M10.4241049,12.9797386 L7.83128391,12.9797386 C7.83128391,12.3346405 7.83128391,11.9754902 7.83128391,11.9045752 C7.1583906,12.7143791 6.18235081,13.1169935 4.90775769,13.1169935 C4.02587703,13.1169935 3.22896926,12.9202614 2.51473779,12.529085 C1.80280289,12.1356209 1.24244123,11.5751634 0.835949367,10.8477124 C0.429457505,10.1202614 0.227359855,9.27614379 0.227359855,8.31764706 C0.227359855,7.35915033 0.431754069,6.51503268 0.835949367,5.7875817 C1.24244123,5.06013072 1.80280289,4.4996732 2.51473779,4.10620915 C3.22896926,3.7127451 4.02587703,3.51601307 4.90775769,3.51601307 C6.10197107,3.51601307 7.03667269,3.89346405 7.709566,4.64379085 C7.709566,4.34183007 7.709566,2.83431373 7.709566,0.118954248 L10.4241049,0.118954248 L10.4241049,0.118954248 L10.4241049,12.9797386 Z M7.76009042,8.31764706 C7.76009042,7.53071895 7.53502712,6.90392157 7.08260398,6.4372549 C6.63018083,5.96830065 6.06063291,5.73496732 5.37625678,5.73496732 C4.68039783,5.73496732 4.10625678,5.96830065 3.65383363,6.4372549 C3.20141049,6.90392157 2.9763472,7.53071895 2.9763472,8.31764706 C2.9763472,9.10228758 3.20141049,9.72908497 3.65383363,10.1980392 C4.10855335,10.6647059 4.68039783,10.8980392 5.37625678,10.8980392 C6.06292948,10.8980392 6.63018083,10.6647059 7.08260398,10.1980392 C7.53502712,9.72908497 7.76009042,9.10228758 7.76009042,8.31764706 Z" id="b68FsJCSTf"></path>
                </g>
            </g>
            <g id="Group" transform="translate(77.853526, 11.895425)">
                <g id="d1g4NoNQPr-link" fill="#255897">
                    <path d="M10.3161664,12.8699346 L7.72334539,12.8699346 C7.72334539,12.2248366 7.72334539,11.8656863 7.72334539,11.7947712 C7.05045208,12.6045752 6.07670886,13.0071895 4.79981917,13.0071895 C3.92023508,13.0071895 3.12103074,12.8127451 2.40909584,12.419281 C1.69486438,12.025817 1.13679928,11.4653595 0.730307414,10.7379085 C0.323815552,10.0104575 0.121717902,9.16633987 0.121717902,8.20784314 C0.121717902,7.24934641 0.323815552,6.40522876 0.730307414,5.67777778 C1.13679928,4.9503268 1.69486438,4.38986928 2.40909584,3.99640523 C3.12103074,3.60294118 3.92023508,3.40849673 4.79981917,3.40849673 C5.99632911,3.40849673 6.92873418,3.78366013 7.60162749,4.53398693 C7.60162749,4.23202614 7.60162749,2.7245098 7.60162749,0.0091503268 L10.3161664,0.0091503268 L10.3161664,0.0114379085 L10.3161664,12.8699346 Z M7.65444846,8.20784314 C7.65444846,7.42091503 7.42708861,6.79411765 6.97466546,6.32745098 C6.52224231,5.85849673 5.95499096,5.6251634 5.27061483,5.6251634 C4.57475588,5.6251634 4.00061483,5.85849673 3.54819168,6.32745098 C3.09576854,6.79411765 2.86840868,7.42091503 2.86840868,8.20784314 C2.86840868,8.99248366 3.09576854,9.61928105 3.54819168,10.0882353 C4.00061483,10.554902 4.57475588,10.7882518 5.27061483,10.7882518 C5.95499096,10.7905229 6.52453888,10.554902 6.97466546,10.0882353 C7.42708861,9.61928105 7.65444846,8.99248366 7.65444846,8.20784314 Z" id="d1g4NoNQPr"></path>
                </g>
                <g id="d1g4NoNQPr-link" fill="#FFFFFF">
                    <path d="M10.3161664,12.8699346 L7.72334539,12.8699346 C7.72334539,12.2248366 7.72334539,11.8656863 7.72334539,11.7947712 C7.05045208,12.6045752 6.07670886,13.0071895 4.79981917,13.0071895 C3.92023508,13.0071895 3.12103074,12.8127451 2.40909584,12.419281 C1.69486438,12.025817 1.13679928,11.4653595 0.730307414,10.7379085 C0.323815552,10.0104575 0.121717902,9.16633987 0.121717902,8.20784314 C0.121717902,7.24934641 0.323815552,6.40522876 0.730307414,5.67777778 C1.13679928,4.9503268 1.69486438,4.38986928 2.40909584,3.99640523 C3.12103074,3.60294118 3.92023508,3.40849673 4.79981917,3.40849673 C5.99632911,3.40849673 6.92873418,3.78366013 7.60162749,4.53398693 C7.60162749,4.23202614 7.60162749,2.7245098 7.60162749,0.0091503268 L10.3161664,0.0091503268 L10.3161664,0.0114379085 L10.3161664,12.8699346 Z M7.65444846,8.20784314 C7.65444846,7.42091503 7.42708861,6.79411765 6.97466546,6.32745098 C6.52224231,5.85849673 5.95499096,5.6251634 5.27061483,5.6251634 C4.57475588,5.6251634 4.00061483,5.85849673 3.54819168,6.32745098 C3.09576854,6.79411765 2.86840868,7.42091503 2.86840868,8.20784314 C2.86840868,8.99248366 3.09576854,9.61928105 3.54819168,10.0882353 C4.00061483,10.554902 4.57475588,10.7882518 5.27061483,10.7882518 C5.95499096,10.7905229 6.52453888,10.554902 6.97466546,10.0882353 C7.42708861,9.61928105 7.65444846,8.99248366 7.65444846,8.20784314 Z" id="d1g4NoNQPr"></path>
                </g>
            </g>
            <g id="Group" transform="translate(89.795660, 21.503268)">
                <g id="a5kayII6td-link" fill="#255897">
                    <path d="M0.112531646,1.81176471 C0.112531646,1.31535948 0.275587703,0.912745098 0.599403255,0.60620915 C0.923218807,0.301960784 1.32511754,0.146405229 1.80050633,0.146405229 C2.27589512,0.146405229 2.67549729,0.301960784 3.0016094,0.60620915 C3.32542495,0.912745098 3.48848101,1.31535948 3.48848101,1.81176471 C3.48848101,2.29673203 3.32542495,2.70163399 3.0016094,3.02418301 C2.67549729,3.34901961 2.27589512,3.50915033 1.80050633,3.50915033 C1.32511754,3.50915033 0.923218807,3.34901961 0.599403255,3.02418301 C0.275587703,2.70163399 0.112531646,2.29673203 0.112531646,1.81176471 Z" id="a5kayII6td"></path>
                </g>
                <g id="a5kayII6td-link" fill="#FFFFFF">
                    <path d="M0.112531646,1.81176471 C0.112531646,1.31535948 0.275587703,0.912745098 0.599403255,0.60620915 C0.923218807,0.301960784 1.32511754,0.146405229 1.80050633,0.146405229 C2.27589512,0.146405229 2.67549729,0.301960784 3.0016094,0.60620915 C3.32542495,0.912745098 3.48848101,1.31535948 3.48848101,1.81176471 C3.48848101,2.29673203 3.32542495,2.70163399 3.0016094,3.02418301 C2.67549729,3.34901961 2.27589512,3.50915033 1.80050633,3.50915033 C1.32511754,3.50915033 0.923218807,3.34901961 0.599403255,3.02418301 C0.275587703,2.70163399 0.112531646,2.29673203 0.112531646,1.81176471 Z" id="a5kayII6td"></path>
                </g>
            </g>
            <g id="Group" transform="translate(21.817360, 5.718954)">
                <g id="a2c9MvzLP4-link" fill="#8EC7E1">
                    <path d="M21.1123146,16.5689542 C20.9699277,16.6558824 20.2556962,17.0905229 18.9696203,17.8705882 C16.778698,16.4431373 15.561519,15.6493464 15.3180832,15.4915033 C15.276745,15.4915033 12.9434358,15.9696078 11.9214647,17.7607843 C10.9752803,19.4147059 0.126311031,17.4107843 0.126311031,11.2686275 C0.126311031,5.12418301 5.12593128,0.144117647 11.2922061,0.144117647 C17.4607776,0.146405229 22.4603978,5.12418301 22.4603978,11.2686275 C22.4603978,13.1879085 21.9712297,14.995098 21.1123146,16.5689542 Z" id="a2c9MvzLP4"></path>
                </g>
                <g id="a2c9MvzLP4-link" fill="#000000" fill-opacity="0" stroke="#000000" stroke-opacity="0">
                    <path d="M21.1123146,16.5689542 C20.9699277,16.6558824 20.2556962,17.0905229 18.9696203,17.8705882 C16.778698,16.4431373 15.561519,15.6493464 15.3180832,15.4915033 C15.276745,15.4915033 12.9434358,15.9696078 11.9214647,17.7607843 C10.9752803,19.4147059 0.126311031,17.4107843 0.126311031,11.2686275 C0.126311031,5.12418301 5.12593128,0.144117647 11.2922061,0.144117647 C17.4607776,0.146405229 22.4603978,5.12418301 22.4603978,11.2686275 C22.4603978,13.1879085 21.9712297,14.995098 21.1123146,16.5689542 Z" id="a2c9MvzLP4"></path>
                </g>
            </g>
            <g id="Group" transform="translate(0.000000, 9.150327)">
                <g id="b1Lcgq80M8-link" fill="#EAB92C">
                    <path d="M9.47792043,18.9594771 C4.24405063,18.9594771 0,14.7320261 0,9.51862745 C0,4.30522876 4.24405063,0.0777777778 9.47792043,0.0777777778 C12.504792,0.0777777778 15.2009584,1.49379085 16.9348644,3.69215686 C18.2002712,5.29803922 25.8570163,18.9594771 25.8570163,18.9594771 C22.5798192,18.9594771 12.9641049,18.9594771 9.47792043,18.9594771 Z" id="b1Lcgq80M8"></path>
                </g>
                <g id="b1Lcgq80M8-link" fill="#000000" fill-opacity="0" stroke="#000000" stroke-opacity="0">
                    <path d="M9.47792043,18.9594771 C4.24405063,18.9594771 0,14.7320261 0,9.51862745 C0,4.30522876 4.24405063,0.0777777778 9.47792043,0.0777777778 C12.504792,0.0777777778 15.2009584,1.49379085 16.9348644,3.69215686 C18.2002712,5.29803922 25.8570163,18.9594771 25.8570163,18.9594771 C22.5798192,18.9594771 12.9641049,18.9594771 9.47792043,18.9594771 Z" id="b1Lcgq80M8"></path>
                </g>
            </g>
            <g id="Group" transform="translate(38.352622, 27.908497)">
                <g id="d14exufFaE-link" fill="#255897">
                    <path d="M6.98155515,7.05718954 C4.85952984,7.05718954 3.34379747,6.35718954 2.47110307,4.97777778 C1.97045208,4.18169935 0.130904159,1.17352941 0.0528209765,1.04542484 C0.195207957,0.960784314 1.32511754,0.274509804 1.46520796,0.189869281 C1.48587703,0.221895425 3.37594937,3.31699346 3.87200723,4.10163399 C4.42777577,4.98235294 5.44515371,5.41013072 6.98155515,5.41013072 C12.32566,5.41013072 39.0438879,5.41013072 87.1385353,5.41013072 L87.1385353,7.05718954 L87.1385353,7.05718954 C39.0438879,7.05718954 12.32566,7.05718954 6.98155515,7.05718954 Z" id="d14exufFaE"></path>
                </g>
                <g id="d14exufFaE-link" fill="#FFFFFF">
                    <path d="M6.98155515,7.05718954 C4.85952984,7.05718954 3.34379747,6.35718954 2.47110307,4.97777778 C1.97045208,4.18169935 0.130904159,1.17352941 0.0528209765,1.04542484 C0.195207957,0.960784314 1.32511754,0.274509804 1.46520796,0.189869281 C1.48587703,0.221895425 3.37594937,3.31699346 3.87200723,4.10163399 C4.42777577,4.98235294 5.44515371,5.41013072 6.98155515,5.41013072 C12.32566,5.41013072 39.0438879,5.41013072 87.1385353,5.41013072 L87.1385353,7.05718954 L87.1385353,7.05718954 C39.0438879,7.05718954 12.32566,7.05718954 6.98155515,7.05718954 Z" id="d14exufFaE"></path>
                </g>
            </g>
            <g id="Group" transform="translate(9.415913, 0.000000)">
                <g id="bCZ9qy5Hc-link" fill="#255897">
                    <path d="M28.6220796,22.2330065 C28.7139421,22.3794118 29.1686618,23.1091503 29.9885353,24.4199346 C31.2815009,23.6375817 31.9980289,23.2052288 32.1427125,23.1183007 C30.3307233,19.8973856 22.7107233,6.38464052 21.3098192,4.60947712 C19.1280832,1.84150327 15.7383544,0.0640522876 11.930651,0.0640522876 C5.35099458,0.0640522876 0.0137793852,5.37810458 0.0137793852,11.9343137 C0.0137793852,18.4905229 4.97435805,28.1075163 11.556311,28.1075163 C13.5106872,28.1075163 14.5694033,28.0846405 22.6372333,28.1075163 C23.091953,28.1098039 23.5237071,28.098366 23.9370886,28.0732026 C24.0679928,27.9954248 24.7179204,27.6019608 25.8891682,26.895098 C25.0899638,25.604902 24.6467269,24.8866013 24.5571609,24.7424837 C24.3320976,24.3879085 24.4377396,23.9166667 24.7960036,23.6924837 C25.1542676,23.4683007 25.6273599,23.5735294 25.8524231,23.9303922 C25.9419892,24.0745098 26.3898192,24.7996732 27.1982098,26.1058824 L28.6794937,25.2091503 C27.8688065,23.9120915 27.4163834,23.1915033 27.3268174,23.0473856 C27.1017541,22.6905229 27.2096926,22.219281 27.56566,21.995098 C27.9239241,21.770915 28.3970163,21.8784314 28.6220796,22.2330065 Z" id="bCZ9qy5Hc"></path>
                </g>
                <g id="bCZ9qy5Hc-link" fill="#FFFFFF">
                    <path d="M28.6220796,22.2330065 C28.7139421,22.3794118 29.1686618,23.1091503 29.9885353,24.4199346 C31.2815009,23.6375817 31.9980289,23.2052288 32.1427125,23.1183007 C30.3307233,19.8973856 22.7107233,6.38464052 21.3098192,4.60947712 C19.1280832,1.84150327 15.7383544,0.0640522876 11.930651,0.0640522876 C5.35099458,0.0640522876 0.0137793852,5.37810458 0.0137793852,11.9343137 C0.0137793852,18.4905229 4.97435805,28.1075163 11.556311,28.1075163 C13.5106872,28.1075163 14.5694033,28.0846405 22.6372333,28.1075163 C23.091953,28.1098039 23.5237071,28.098366 23.9370886,28.0732026 C24.0679928,27.9954248 24.7179204,27.6019608 25.8891682,26.895098 C25.0899638,25.604902 24.6467269,24.8866013 24.5571609,24.7424837 C24.3320976,24.3879085 24.4377396,23.9166667 24.7960036,23.6924837 C25.1542676,23.4683007 25.6273599,23.5735294 25.8524231,23.9303922 C25.9419892,24.0745098 26.3898192,24.7996732 27.1982098,26.1058824 L28.6794937,25.2091503 C27.8688065,23.9120915 27.4163834,23.1915033 27.3268174,23.0473856 C27.1017541,22.6905229 27.2096926,22.219281 27.56566,21.995098 C27.9239241,21.770915 28.3970163,21.8784314 28.6220796,22.2330065 Z" id="bCZ9qy5Hc"></path>
                </g>
            </g>
            <g id="Group" transform="translate(34.678119, 24.248366)">
                <g id="fmFksDqU-link" fill="#255897">
                    <path d="M0.56954792,4.59117647 L0.808390597,4.44705882 C1.58003617,5.71437908 2.00949367,6.41895425 2.09446655,6.55849673 C2.59511754,7.38202614 3.65383363,7.65424837 4.4576311,7.16928105 C4.71025316,7.01601307 6.73582278,5.79444444 6.98844485,5.64117647 C7.79224231,5.15392157 8.04027125,4.09477124 7.53732369,3.27124183 C7.45235081,3.12941176 7.02518987,2.42712418 6.2535443,1.15980392 L6.49238698,1.01568627 L5.93661844,0.105228758 L0.0160759494,3.68071895 L0.56954792,4.59117647 Z" id="fmFksDqU"></path>
                </g>
                <g id="fmFksDqU-link" fill="#FFFFFF">
                    <path d="M0.56954792,4.59117647 L0.808390597,4.44705882 C1.58003617,5.71437908 2.00949367,6.41895425 2.09446655,6.55849673 C2.59511754,7.38202614 3.65383363,7.65424837 4.4576311,7.16928105 C4.71025316,7.01601307 6.73582278,5.79444444 6.98844485,5.64117647 C7.79224231,5.15392157 8.04027125,4.09477124 7.53732369,3.27124183 C7.45235081,3.12941176 7.02518987,2.42712418 6.2535443,1.15980392 L6.49238698,1.01568627 L5.93661844,0.105228758 L0.0160759494,3.68071895 L0.56954792,4.59117647 Z" id="fmFksDqU"></path>
                </g>
            </g>
            <g id="Group" transform="translate(116.206148, 15.326797)">
                <g id="kizEzuL4T-link" fill="#255897">
                    <polygon id="kizEzuL4T" points="2.93041591 0.185294118 5.41070524 7.21045752 7.89099458 0.185294118 10.5986438 0.185294118 6.8759132 9.54150327 3.89267631 9.54150327 0.16994575 0.185294118"></polygon>
                </g>
                <g id="kizEzuL4T-link" fill="#FFFFFF">
                    <polygon id="kizEzuL4T" points="2.93041591 0.185294118 5.41070524 7.21045752 7.89099458 0.185294118 10.5986438 0.185294118 6.8759132 9.54150327 3.89267631 9.54150327 0.16994575 0.185294118"></polygon>
                </g>
            </g>
        </g>
    </g>
</svg>