<?xml version="1.0" encoding="UTF-8"?>
<svg width="283px" height="63px" viewBox="0 0 283 63" version="1.1" xmlns="http://www.w3.org/2000/svg" xmlns:xlink="http://www.w3.org/1999/xlink">
    <!-- Generator: Sketch 62 (91390) - https://sketch.com -->
    <title>plgd-logo-full-white</title>
    <desc>Created with Sketch.</desc>
    <g id="plgd-logo-full-white" stroke="none" stroke-width="1" fill="none" fill-rule="evenodd">
        <path d="M157.7736,33.9353 C160.8076,33.9353 163.1126,34.9303 164.6936,36.9273 L164.6936,34.2473 L170.4536,34.2473 L170.4536,51.6663 C170.4536,55.5013 169.4526,58.3563 167.4556,60.2253 C165.4586,62.0883 162.5426,63.0223 158.7076,63.0223 C156.6856,63.0223 154.7646,62.7763 152.9526,62.2833 C151.1356,61.7903 149.6306,61.0763 148.4406,60.1433 C148.6816,59.7113 150.6116,56.2263 150.8536,55.7893 C151.7306,56.5183 152.8446,57.0933 154.1946,57.5193 C155.5456,57.9503 156.8906,58.1603 158.2406,58.1603 C160.3406,58.1603 161.8906,57.6893 162.8866,56.7443 C163.8876,55.7943 164.3856,54.3613 164.3856,52.4413 L164.3856,51.5483 C162.8046,53.2893 160.5966,54.1563 157.7736,54.1563 C155.8536,54.1563 154.0976,53.7353 152.5016,52.8943 C150.9096,52.0463 149.6466,50.8603 148.7126,49.3303 C147.7776,47.8063 147.3106,46.0403 147.3106,44.0433 C147.3106,42.0463 147.7776,40.2843 148.7126,38.7553 C149.6466,37.2253 150.9096,36.0393 152.5016,35.1973 C154.0976,34.3553 155.8536,33.9353 157.7736,33.9353 Z M119.1567,33.9295 C121.1027,33.9295 122.8737,34.3765 124.4707,35.2745 C126.0617,36.1675 127.3147,37.4255 128.2177,39.0425 C129.1267,40.6655 129.5837,42.5495 129.5837,44.7055 C129.5837,46.8555 129.1267,48.7405 128.2177,50.3625 C127.3147,51.9845 126.0617,53.2375 124.4707,54.1365 C122.8737,55.0295 121.1027,55.4765 119.1567,55.4765 C116.4877,55.4765 114.3877,54.6345 112.8577,52.9445 L112.8577,62.7095 L106.7897,62.7095 L106.7897,34.2375 L112.5857,34.2375 L112.5857,36.6505 C114.0897,34.8385 116.2817,33.9295 119.1567,33.9295 Z M248.8626,33.9294 C250.8596,33.9294 252.6726,34.3504 254.3046,35.1924 C255.9426,36.0394 257.2406,37.2564 258.2166,38.8534 C259.1866,40.4434 259.6746,42.3334 259.6746,44.5104 C258.1246,44.8084 245.7416,47.2054 244.1956,47.5034 C244.6376,48.5404 245.3306,49.3204 246.2756,49.8394 C247.2196,50.3574 248.3806,50.6144 249.7566,50.6144 C250.8446,50.6144 251.8096,50.4554 252.6566,50.1314 C253.4986,49.8034 254.2786,49.2954 255.0076,48.5914 C255.3316,48.9454 257.9136,51.7434 258.2366,52.0934 C256.2656,54.3464 253.3856,55.4764 249.6016,55.4764 C247.2406,55.4764 245.1516,55.0194 243.3386,54.1004 C241.5216,53.1764 240.1246,51.8974 239.1396,50.2654 C238.1536,48.6324 237.6606,46.7794 237.6606,44.7054 C237.6606,42.6564 238.1486,40.8094 239.1186,39.1604 C240.0896,37.5184 241.4236,36.2294 243.1236,35.3104 C244.8226,34.3914 246.7366,33.9294 248.8626,33.9294 Z M233.7897,26.3065 L233.7897,55.1685 L227.9937,55.1685 L227.9937,52.7555 C226.4897,54.5725 224.3077,55.4765 221.4587,55.4765 C219.4867,55.4765 217.7057,55.0345 216.1087,54.1565 C214.5177,53.2735 213.2647,52.0165 212.3557,50.3835 C211.4477,48.7505 210.9957,46.8555 210.9957,44.7055 C210.9957,42.5545 211.4527,40.6595 212.3557,39.0275 C213.2647,37.3945 214.5177,36.1375 216.1087,35.2545 C217.7057,34.3705 219.4867,33.9295 221.4587,33.9295 C224.1277,33.9295 226.2177,34.7765 227.7217,36.4605 L227.7217,26.3065 L233.7897,26.3065 Z M204.7576,47.9294 C205.8206,47.9294 206.7136,48.2784 207.4426,48.9614 C208.1666,49.6484 208.5316,50.5534 208.5316,51.6664 C208.5316,52.7554 208.1666,53.6634 207.4426,54.3884 C206.7136,55.1164 205.8206,55.4764 204.7576,55.4764 C203.6956,55.4764 202.7966,55.1164 202.0726,54.3884 C201.3496,53.6634 200.9846,52.7554 200.9846,51.6664 C200.9846,50.5534 201.3496,49.6484 202.0726,48.9614 C202.7966,48.2784 203.6956,47.9294 204.7576,47.9294 Z M139.6921,26.3056 L139.6921,47.8926 C139.6921,48.7766 139.9231,49.4546 140.3751,49.9366 C140.8271,50.4146 141.4681,50.6556 142.3001,50.6556 C142.6131,50.6556 142.9261,50.6146 143.2551,50.5376 C143.5781,50.4606 143.8301,50.3676 144.0091,50.2646 C144.0401,50.7376 144.2561,54.5006 144.2821,54.9726 C143.2701,55.3066 142.2231,55.4756 141.1351,55.4756 C138.7731,55.4756 136.9301,54.8496 135.6101,53.5926 C134.2861,52.3346 133.6291,50.5536 133.6291,48.2426 L133.6291,26.3056 L139.6921,26.3056 Z M197.0982,26.0594 L197.0982,54.9214 L191.3022,54.9214 L191.3022,52.5084 C189.7982,54.3254 187.6212,55.2294 184.7672,55.2294 C182.8012,55.2294 181.0142,54.7934 179.4222,53.9104 C177.8262,53.0264 176.5792,51.7694 175.6692,50.1374 C174.7612,48.5044 174.3092,46.6094 174.3092,44.4584 C174.3092,42.3084 174.7612,40.4134 175.6692,38.7804 C176.5792,37.1474 177.8262,35.8904 179.4222,35.0074 C181.0142,34.1244 182.8012,33.6874 184.7672,33.6874 C187.4412,33.6874 189.5262,34.5294 191.0302,36.2144 L191.0302,26.0594 L197.0982,26.0594 Z M266.3225,34.1561 L271.8675,49.9211 L277.4115,34.1561 L283.4645,34.1561 L275.1425,55.1531 L268.4735,55.1531 L260.1525,34.1561 L266.3225,34.1561 Z M222.5057,38.9095 C220.9497,38.9095 219.6667,39.4335 218.6557,40.4855 C217.6437,41.5325 217.1407,42.9385 217.1407,44.7055 C217.1407,46.4665 217.6437,47.8725 218.6557,48.9255 C219.6717,49.9725 220.9497,50.4965 222.5057,50.4965 C224.0407,50.4965 225.3087,49.9725 226.3197,48.9255 C227.3317,47.8725 227.8347,46.4665 227.8347,44.7055 C227.8347,42.9385 227.3317,41.5325 226.3197,40.4855 C225.3087,39.4335 224.0357,38.9095 222.5057,38.9095 Z M118.1097,38.9095 C116.5537,38.9095 115.2757,39.4335 114.2797,40.4855 C113.2787,41.5325 112.7807,42.9385 112.7807,44.7055 C112.7807,46.4665 113.2787,47.8725 114.2797,48.9255 C115.2757,49.9725 116.5537,50.4965 118.1097,50.4965 C119.6657,50.4965 120.9437,49.9725 121.9387,48.9255 C122.9357,47.8725 123.4387,46.4665 123.4387,44.7055 C123.4387,42.9385 122.9357,41.5325 121.9387,40.4855 C120.9437,39.4335 119.6657,38.9095 118.1097,38.9095 Z M185.8192,38.6624 C184.2642,38.6624 182.9812,39.1864 181.9692,40.2384 C180.9582,41.2864 180.4492,42.6924 180.4492,44.4584 C180.4492,46.2204 180.9582,47.6264 181.9692,48.6794 C182.9812,49.7264 184.2642,50.2494505 185.8192,50.2494505 C187.3492,50.2554 188.6222,49.7264 189.6282,48.6794 C190.6402,47.6264 191.1482,46.2204 191.1482,44.4584 C191.1482,42.6924 190.6402,41.2864 189.6282,40.2384 C188.6172,39.1864 187.3492,38.6624 185.8192,38.6624 Z M158.9796,38.9093 C157.3726,38.9093 156.0486,39.3813 155.0116,40.3313 C153.9796,41.2753 153.4616,42.5133 153.4616,44.0433 C153.4616,45.5723 153.9796,46.8103 155.0116,47.7603 C156.0486,48.7043 157.3726,49.1773 158.9796,49.1773 C160.5866,49.1773 161.9006,48.7043 162.9276,47.7603 C163.9546,46.8103 164.4626,45.5723 164.4626,44.0433 C164.4626,42.5133 163.9546,41.2753 162.9276,40.3313 C161.9006,39.3813 160.5866,38.9093 158.9796,38.9093 Z M248.8626,38.5194 C247.3326,38.5194 246.0856,39.0124 245.1306,39.9974 C244.1706,40.9824 243.6626,42.3444 243.6106,44.0844 C244.6276,43.8844 252.7796,42.2974 253.8016,42.0974 C253.5136,41.0094 252.9336,40.1414 252.0506,39.4944 C251.1676,38.8424 250.1056,38.5194 248.8626,38.5194 Z" id="Combined-Shape" fill="#FFFFFF"></path>
        <path d="M93.843,53.14 C97.063,48.937 98.981,43.682 98.981,37.977 C98.981,24.191 87.804,13.014 74.018,13.014 C72.897,13.014 71.796,13.095 70.715,13.239 L70.714,13.24 C69.823,11.816 69.118,10.75 68.686,10.201 C63.809,3.989 56.232,0 47.72,0 C35.111,0 24.551,8.767 21.791,20.537 C21.791,20.521 21.776,20.502 21.78,20.487 C21.582,20.481 21.386,20.469 21.187,20.469 C9.487,20.469 0,29.956 0,41.657 C0,53.356 9.487,62.843 21.187,62.843 C28.98,62.843 39.557,62.935 46.883,62.935 C51.252,62.935 53.619,62.884 71.654,62.935 C71.803,62.936 71.944,62.931 72.091,62.931 C74.434,63.04 79.471,62.953 84.259,60.749 C85.027,60.387 89.692,58.436 93.845,53.143 C93.844,53.142 93.844,53.141 93.843,53.14" id="Fill-1" fill="#FEBF40"></path>
        <path d="M93.843,53.14 C97.063,48.937 98.981,43.682 98.981,37.977 C98.981,24.191 87.804,13.014 74.018,13.014 C72.897,13.014 71.796,13.095 70.715,13.239 L70.714,13.24 C69.823,11.816 69.119,10.75 68.686,10.201 C63.809,3.989 56.232,0 47.72,0 C33.011,0 21.081,11.926 21.081,26.639 C21.081,41.353 32.17,62.935 46.883,62.935 C51.252,62.935 53.619,62.884 71.654,62.935 C71.803,62.936 71.944,62.931 72.091,62.931 C74.434,63.04 79.471,62.953 84.259,60.749 C85.027,60.387 89.692,58.436 93.845,53.143 C93.844,53.142 93.844,53.141 93.843,53.14" id="Fill-3" fill="#87CEF2"></path>
        <path d="M92.9025,51.7386 C88.8515,44.5096 71.8185,14.1846 68.6865,10.2006 C63.8095,3.9886 56.2315,0.0006 47.7195,0.0006 C33.0115,0.0006 21.0805,11.9256 21.0805,26.6386 C21.0805,41.3526 32.1695,62.9346 46.8825,62.9346 C51.2525,62.9346 53.6185,62.8846 71.6535,62.9346 C71.8025,62.9356 71.9435,62.9306 72.0905,62.9306 C74.4335,63.0406 79.4715,62.9536 84.2585,60.7496 C85.0275,60.3866 89.6925,58.4356 93.8445,53.1426 L92.9025,51.7386 Z" id="Fill-5" fill="#FFFFFF"></path>
    </g>
</svg>