<?xml version="1.0" encoding="UTF-8"?>
<svg width="99px" height="110px" viewBox="0 0 99 110" version="1.1" xmlns="http://www.w3.org/2000/svg" xmlns:xlink="http://www.w3.org/1999/xlink">
    <!-- Generator: Sketch 62 (91390) - https://sketch.com -->
    <title>plgd-logo-alt-white</title>
    <desc>Created with Sketch.</desc>
    <g id="plgd-logo-alt-white" stroke="none" stroke-width="1" fill="none" fill-rule="evenodd">
        <path d="M55.3983494,81 C58.4136024,81 60.7043598,81.9929868 62.2755909,83.9839453 L62.2755909,81.3120531 L68,81.3120531 L68,98.6783553 C68,102.501753 67.0051852,105.347119 65.0205246,107.211462 C63.035864,109.068826 60.1378819,110 56.3265782,110 C54.3160783,110 52.4079419,109.753747 50.6071382,109.263236 C48.8003716,108.771727 47.3056648,108.059887 46.1220239,107.128713 C46.3625286,106.699017 48.2806032,103.223563 48.5201141,102.787885 C49.3926889,103.515677 50.4998056,104.088937 51.8414639,104.513648 C53.1841161,104.943344 54.5208054,105.152709 55.8624638,105.152709 C57.9484941,105.152709 59.4899106,104.682137 60.4797563,103.739996 C61.4745711,102.793867 61.969494,101.365202 61.969494,99.4510107 L61.969494,98.5607123 C60.398263,100.295448 58.2039061,101.160822 55.3983494,101.160822 C53.490213,101.160822 51.7450633,100.741096 50.1579311,99.9016433 C48.5767619,99.0572057 47.3215659,97.8747937 46.3933371,96.3494224 C45.4641144,94.830033 45,93.0683787 45,91.0774202 C45,89.0864618 45.4641144,87.3307893 46.3933371,85.806415 C47.3215659,84.2810437 48.5767619,83.0986317 50.1579311,82.259179 C51.7450633,81.4187294 53.490213,81 55.3983494,81 Z M16.4787663,81 C18.4423533,81 20.2293586,81.4494093 21.8407914,82.3542738 C23.4471791,83.2551077 24.710494,84.5227241 25.6226639,86.1520848 C26.5388699,87.7864837 27,89.685893 27,91.8583739 C27,94.0248089 26.5388699,95.9242182 25.6226639,97.5586171 C24.710494,99.193016 23.4471791,100.455594 21.8407914,101.361466 C20.2293586,102.260285 18.4423533,102.71171 16.4787663,102.71171 C13.7856453,102.71171 11.6666667,101.863273 10.1228393,100.160354 L10.1228393,110 L4,110 L4,81.3093468 L9.84838115,81.3093468 L9.84838115,83.7407922 C11.3659735,81.9159486 13.5777836,81 16.4787663,81 Z M95,73 L95,101.693795 L89.1503357,101.693795 L89.1503357,99.2948577 C87.6324104,101.101268 85.4352539,102 82.5548291,102 C80.5696169,102 78.7670806,101.566541 77.1603405,100.687693 C75.5495634,99.8098389 74.2900083,98.5601646 73.372592,96.9366815 C72.456185,95.3141927 72,93.4302365 72,91.2917724 C72,89.1533082 72.456185,87.2703462 73.372592,85.6468632 C74.2900083,84.0233802 75.5495634,82.7737059 77.1603405,81.8958519 C78.7670806,81.0179979 80.5696169,80.5835447 82.5548291,80.5835447 C85.2535873,80.5835447 87.3568827,81.4206376 88.8758173,83.0948234 L88.8758173,73 L95,73 Z M37.26049,73 L37.26049,94.461193 C37.26049,95.339047 37.4990144,96.0130956 37.9657374,96.4922866 C38.4324603,96.9675009 39.0943396,97.2070963 39.9534403,97.2070963 C40.2766357,97.2070963 40.599831,97.1663353 40.9395475,97.0907782 C41.2741012,97.0142269 41.533277,96.9217689 41.7191401,96.8193692 C41.7511499,97.2896126 41.9731531,101.030682 42,101.499931 C40.9560687,101.830991 39.8739322,102 38.7504928,102 C36.3115554,102 34.4085234,101.376654 33.0465597,100.12698 C31.6784005,98.8763113 31,97.1056908 31,94.8091532 L31,73 L37.26049,73 Z M15.4223041,86.0170605 C13.8532509,86.0170605 12.5626919,86.5460737 11.5576906,87.6051077 C10.5476441,88.6611188 10.0451435,90.0778666 10.0451435,91.8583739 C10.0451435,93.6328353 10.5476441,95.049583 11.5576906,96.1106324 C12.5626919,97.1656359 13.8532509,97.6926338 15.4223041,97.6926338 C16.9923664,97.6926338 18.2819163,97.1656359 19.2869176,96.1106324 C20.2919189,95.049583 20.7994648,93.6328353 20.7994648,91.8583739 C20.7994648,90.0778666 20.2919189,88.6611188 19.2869176,87.6051077 C18.2819163,86.5460737 16.9923664,86.0170605 15.4223041,86.0170605 Z M83.6165694,85.5295509 C82.0461626,85.5295509 80.7512835,86.0504971 79.7309228,87.0963661 C78.7095529,88.1372643 78.1968494,89.5360644 78.1968494,91.2917724 C78.1968494,93.0425094 78.7095529,94.4413096 79.7309228,95.4871786 C80.7512835,96.529071 82.0461626,97.0490579 83.6165694,97.0490579 C85.1607354,97.0539938 86.445522,96.529071 87.4608364,95.4871786 C88.4822063,94.4413096 88.9949098,93.0425094 88.9949098,91.2917724 C88.9949098,89.5360644 88.4822063,88.1372643 87.4608364,87.0963661 C86.4404757,86.0504971 85.1607354,85.5295509 83.6165694,85.5295509 Z M56.5968976,85.9589521 C54.9998272,85.9589521 53.6830143,86.4305212 52.6524219,87.3776471 C51.6277924,88.3187913 51.1119993,89.5530459 51.1119993,91.0774202 C51.1119993,92.6027915 51.6277924,93.8370462 52.6524219,94.7831752 C53.6830143,95.7253163 54.9998272,96.1958883 56.5968976,96.1958883 C58.1939679,96.1958883 59.4998488,95.7253163 60.520503,94.7831752 C61.5411572,93.8370462 62.0460182,92.6027915 62.0460182,91.0774202 C62.0460182,89.5530459 61.5411572,88.3187913 60.520503,87.3776471 C59.4998488,86.4305212 58.1939679,85.9589521 56.5968976,85.9589521 Z" id="Combined-Shape" fill="#FFFFFF"></path>
        <path d="M93.843,53.14 C97.063,48.937 98.981,43.682 98.981,37.977 C98.981,24.191 87.804,13.014 74.018,13.014 C72.897,13.014 71.796,13.095 70.715,13.239 L70.714,13.24 C69.823,11.816 69.118,10.75 68.686,10.201 C63.809,3.989 56.232,0 47.72,0 C35.111,0 24.551,8.767 21.791,20.537 C21.791,20.521 21.776,20.502 21.78,20.487 C21.582,20.481 21.386,20.469 21.187,20.469 C9.487,20.469 0,29.956 0,41.657 C0,53.356 9.487,62.843 21.187,62.843 C28.98,62.843 39.557,62.935 46.883,62.935 C51.252,62.935 53.619,62.884 71.654,62.935 C71.803,62.936 71.944,62.931 72.091,62.931 C74.434,63.04 79.471,62.953 84.259,60.749 C85.027,60.387 89.692,58.436 93.845,53.143 C93.844,53.142 93.844,53.141 93.843,53.14" id="Fill-1" fill="#FEBF40"></path>
        <path d="M93.843,53.14 C97.063,48.937 98.981,43.682 98.981,37.977 C98.981,24.191 87.804,13.014 74.018,13.014 C72.897,13.014 71.796,13.095 70.715,13.239 L70.714,13.24 C69.823,11.816 69.119,10.75 68.686,10.201 C63.809,3.989 56.232,0 47.72,0 C33.011,0 21.081,11.926 21.081,26.639 C21.081,41.353 32.17,62.935 46.883,62.935 C51.252,62.935 53.619,62.884 71.654,62.935 C71.803,62.936 71.944,62.931 72.091,62.931 C74.434,63.04 79.471,62.953 84.259,60.749 C85.027,60.387 89.692,58.436 93.845,53.143 C93.844,53.142 93.844,53.141 93.843,53.14" id="Fill-3" fill="#87CEF2"></path>
        <path d="M92.9025,51.7386 C88.8515,44.5096 71.8185,14.1846 68.6865,10.2006 C63.8095,3.9886 56.2315,0.0006 47.7195,0.0006 C33.0115,0.0006 21.0805,11.9256 21.0805,26.6386 C21.0805,41.3526 32.1695,62.9346 46.8825,62.9346 C51.2525,62.9346 53.6185,62.8846 71.6535,62.9346 C71.8025,62.9356 71.9435,62.9306 72.0905,62.9306 C74.4335,63.0406 79.4715,62.9536 84.2585,60.7496 C85.0275,60.3866 89.6925,58.4356 93.8445,53.1426 L92.9025,51.7386 Z" id="Fill-5" fill="#FFFFFF"></path>
    </g>
</svg>