<?xml version="1.0" encoding="UTF-8"?>
<svg width="45px" height="35px" viewBox="0 0 45 35" version="1.1" xmlns="http://www.w3.org/2000/svg" xmlns:xlink="http://www.w3.org/1999/xlink">
    <!-- Generator: Sketch 62 (91390) - https://sketch.com -->
    <title>Icon/Logo/Small</title>
    <desc>Created with Sketch.</desc>
    <g id="Icon/Logo/Small" stroke="none" stroke-width="1" fill="none" fill-rule="evenodd">
        <g id="logo" fill-rule="nonzero">
            <g id="Group" transform="translate(21.817360, 5.718954)">
                <g id="a2c9MvzLP4-link" fill="#8EC7E1">
                    <path d="M21.1123146,16.5689542 C20.9699277,16.6558824 20.2556962,17.0905229 18.9696203,17.8705882 C16.778698,16.4431373 15.561519,15.6493464 15.3180832,15.4915033 C15.276745,15.4915033 12.9434358,15.9696078 11.9214647,17.7607843 C10.9752803,19.4147059 0.126311031,17.4107843 0.126311031,11.2686275 C0.126311031,5.12418301 5.12593128,0.144117647 11.2922061,0.144117647 C17.4607776,0.146405229 22.4603978,5.12418301 22.4603978,11.2686275 C22.4603978,13.1879085 21.9712297,14.995098 21.1123146,16.5689542 Z" id="a2c9MvzLP4"></path>
                </g>
                <g id="a2c9MvzLP4-link" fill="#000000" fill-opacity="0" stroke="#000000" stroke-opacity="0">
                    <path d="M21.1123146,16.5689542 C20.9699277,16.6558824 20.2556962,17.0905229 18.9696203,17.8705882 C16.778698,16.4431373 15.561519,15.6493464 15.3180832,15.4915033 C15.276745,15.4915033 12.9434358,15.9696078 11.9214647,17.7607843 C10.9752803,19.4147059 0.126311031,17.4107843 0.126311031,11.2686275 C0.126311031,5.12418301 5.12593128,0.144117647 11.2922061,0.144117647 C17.4607776,0.146405229 22.4603978,5.12418301 22.4603978,11.2686275 C22.4603978,13.1879085 21.9712297,14.995098 21.1123146,16.5689542 Z" id="a2c9MvzLP4"></path>
                </g>
            </g>
            <g id="Group" transform="translate(0.000000, 9.150327)">
                <g id="b1Lcgq80M8-link" fill="#EAB92C">
                    <path d="M9.47792043,18.9594771 C4.24405063,18.9594771 0,14.7320261 0,9.51862745 C0,4.30522876 4.24405063,0.0777777778 9.47792043,0.0777777778 C12.504792,0.0777777778 15.2009584,1.49379085 16.9348644,3.69215686 C18.2002712,5.29803922 25.8570163,18.9594771 25.8570163,18.9594771 C22.5798192,18.9594771 12.9641049,18.9594771 9.47792043,18.9594771 Z" id="b1Lcgq80M8"></path>
                </g>
                <g id="b1Lcgq80M8-link" fill="#000000" fill-opacity="0" stroke="#000000" stroke-opacity="0">
                    <path d="M9.47792043,18.9594771 C4.24405063,18.9594771 0,14.7320261 0,9.51862745 C0,4.30522876 4.24405063,0.0777777778 9.47792043,0.0777777778 C12.504792,0.0777777778 15.2009584,1.49379085 16.9348644,3.69215686 C18.2002712,5.29803922 25.8570163,18.9594771 25.8570163,18.9594771 C22.5798192,18.9594771 12.9641049,18.9594771 9.47792043,18.9594771 Z" id="b1Lcgq80M8"></path>
                </g>
            </g>
            <g id="Group" transform="translate(9.415913, 0.000000)">
                <g id="bCZ9qy5Hc-link" fill="#255897">
                    <path d="M28.6220796,22.2330065 C28.7139421,22.3794118 29.1686618,23.1091503 29.9885353,24.4199346 C31.2815009,23.6375817 31.9980289,23.2052288 32.1427125,23.1183007 C30.3307233,19.8973856 22.7107233,6.38464052 21.3098192,4.60947712 C19.1280832,1.84150327 15.7383544,0.0640522876 11.930651,0.0640522876 C5.35099458,0.0640522876 0.0137793852,5.37810458 0.0137793852,11.9343137 C0.0137793852,18.4905229 4.97435805,28.1075163 11.556311,28.1075163 C13.5106872,28.1075163 14.5694033,28.0846405 22.6372333,28.1075163 C23.091953,28.1098039 23.5237071,28.098366 23.9370886,28.0732026 C24.0679928,27.9954248 24.7179204,27.6019608 25.8891682,26.895098 C25.0899638,25.604902 24.6467269,24.8866013 24.5571609,24.7424837 C24.3320976,24.3879085 24.4377396,23.9166667 24.7960036,23.6924837 C25.1542676,23.4683007 25.6273599,23.5735294 25.8524231,23.9303922 C25.9419892,24.0745098 26.3898192,24.7996732 27.1982098,26.1058824 L28.6794937,25.2091503 C27.8688065,23.9120915 27.4163834,23.1915033 27.3268174,23.0473856 C27.1017541,22.6905229 27.2096926,22.219281 27.56566,21.995098 C27.9239241,21.770915 28.3970163,21.8784314 28.6220796,22.2330065 Z" id="bCZ9qy5Hc"></path>
                </g>
                <g id="bCZ9qy5Hc-link" fill="#FFFFFF">
                    <path d="M32.1427125,23.1183007 C30.3307233,19.8973856 22.7107233,6.38464052 21.3098192,4.60947712 C19.1280832,1.84150327 15.7383544,0.0640522876 11.930651,0.0640522876 C5.35099458,0.0640522876 0.0137793852,5.37810458 0.0137793852,11.9343137 C0.0137793852,18.4905229 4.97435805,28.1075163 11.556311,28.1075163 C13.5106872,28.1075163 14.5694033,28.0846405 22.6372333,28.1075163 C23.091953,28.1098039 23.5237071,28.098366 23.9370886,28.0732026 C24.0679928,27.9954248 31.9980289,23.2052288 32.1427125,23.1183007 Z" id="bCZ9qy5Hc"></path>
                </g>
            </g>
        </g>
    </g>
</svg>